<svg width="67" height="72" viewBox="0 0 67 72" fill="none" xmlns="http://www.w3.org/2000/svg">
<path d="M1.65574 70.4738C2.57378 71.3224 4.00595 71.2661 4.85459 70.3481C5.70322 69.4301 5.64695 67.9979 4.72891 67.1493C3.81086 66.3006 2.37869 66.3569 1.53006 67.2749C0.681426 68.193 0.737695 69.6252 1.65574 70.4738ZM66.4111 0.864118C66.4019 0.629891 66.2045 0.44747 65.9703 0.456669L62.1533 0.606638C61.9191 0.615842 61.7366 0.813182 61.7458 1.04741C61.755 1.28164 61.9524 1.46406 62.1866 1.45486L65.5795 1.32156L65.7128 4.71445C65.722 4.94867 65.9193 5.1311 66.1536 5.1219C66.3878 5.11269 66.5702 4.91535 66.561 4.68112L66.4111 0.864118ZM3.504 69.0996L66.2986 1.16889L65.6753 0.592673L2.88065 68.5234L3.504 69.0996Z" fill="black"/>
</svg>
