<svg width="72" height="67" viewBox="0 0 72 67" fill="none" xmlns="http://www.w3.org/2000/svg">
<path d="M1.22935 1.44676C0.380421 2.36452 0.43622 3.79671 1.35399 4.64565C2.27175 5.49458 3.70394 5.43878 4.55287 4.52101C5.40181 3.60325 5.34601 2.17106 4.42824 1.32213C3.51048 0.473194 2.07829 0.528994 1.22935 1.44676ZM70.8178 66.2249C71.052 66.2158 71.2345 66.0185 71.2254 65.7843L71.0767 61.9672C71.0675 61.733 70.8703 61.5505 70.636 61.5596C70.4018 61.5687 70.2193 61.766 70.2284 62.0002L70.3606 65.3932L66.9677 65.5254C66.7335 65.5345 66.551 65.7318 66.5601 65.966C66.5692 66.2003 66.7665 66.3827 67.0007 66.3736L70.8178 66.2249ZM2.6029 3.29547L70.5131 66.1124L71.0895 65.4892L3.17932 2.67231L2.6029 3.29547Z" fill="black"/>
</svg>
