<svg width="95" height="95" viewBox="0 0 95 95" fill="none" xmlns="http://www.w3.org/2000/svg">
<path d="M23.75 32.8938C25.175 31.2708 26.6396 29.6479 28.1833 28.1042L29.3313 27.0354L28.7771 26.5604C26.8414 24.8987 25.4619 22.6833 24.8249 20.213C24.1878 17.7427 24.3238 15.1364 25.2146 12.7458C26.5054 10.0501 28.5491 7.78577 31.0989 6.22638C33.6488 4.667 36.5955 3.87926 39.5833 3.95833V11.875C38.175 11.8554 36.7869 12.2119 35.5622 12.9077C34.3376 13.6035 33.3208 14.6135 32.6167 15.8333C31.9438 17.4167 32.6167 19.1583 34.4771 21.0188C34.7542 21.3354 35.0708 21.5333 35.3479 21.8104C47.2229 12.2708 60.2458 6.8875 66.6188 13.2604C67.2863 13.9428 67.8349 14.7322 68.2417 15.5958V15.9917L68.9542 18.0896L86.4104 69.9438C87.0707 71.8978 87.2559 73.9811 86.9508 76.021C86.6456 78.0609 85.8588 79.9988 84.6555 81.674C83.4523 83.3493 81.8672 84.7138 80.0316 85.6545C78.1959 86.5952 76.1626 87.085 74.1 87.0833C72.7532 87.0702 71.4171 86.8431 70.1417 86.4104L15.8333 68.4C15.1659 68.1515 14.5779 67.7276 14.1313 67.1729L13.3 66.4604C7.6396 60.7604 11.2813 49.7958 18.8813 39.1479C14.3686 36.5143 9.17243 35.2876 3.95834 35.625V27.7083C10.9355 27.3244 17.8574 29.138 23.75 32.8938ZM72.4375 78.8896C73.336 79.187 74.2995 79.2288 75.2204 79.0104C76.1413 78.7919 76.9834 78.3219 77.6526 77.6526C78.3219 76.9834 78.7919 76.1413 79.0104 75.2204C79.2288 74.2995 79.187 73.336 78.8896 72.4375L73.5063 56.2083C69.6644 63.5348 63.761 69.5758 56.525 73.5854L72.4375 78.8896ZM44.7292 69.6667C50.7113 68.0824 56.1684 64.9452 60.5477 60.5728C64.927 56.2005 68.0729 50.7484 69.6667 44.7688L65.7083 32.8938L65.4708 33.25C65.0354 34.1208 64.4813 35.0312 63.9271 35.9417C63.3729 36.8521 63.2938 37.0896 62.8979 37.6833C62.5021 38.2771 61.5917 39.5833 60.8792 40.5729C60.1667 41.5625 60.1271 41.6813 59.6917 42.2354C59.2563 42.7896 57.9896 44.4125 57.0792 45.4813L55.9313 46.8667C54.5854 48.4104 53.1604 49.9146 51.6563 51.4583C50.1521 53.0021 48.9646 53.9917 47.6979 55.4167L46.3917 56.525L43.3042 59.0187L41.8396 60.1271C40.7313 60.9188 39.6625 61.7104 38.5542 62.4229L37.3271 63.2146C35.9021 64.0854 34.4771 64.9167 33.0917 65.6292H32.8938L44.7292 69.6667ZM18.9604 60.8396H19.1979C21.9292 62.3438 33.2896 58.5833 46.075 45.7583C47.4208 44.4125 48.6875 43.1063 49.8354 41.8L50.9833 40.4146L53.0813 37.8812L54.2292 36.2979C54.7438 35.5458 55.2979 34.8333 55.7729 34.1208L56.8021 32.4583L57.95 30.5979C58.2667 30.0438 58.5042 29.5292 58.7813 29.0146C59.0583 28.5 59.375 27.9854 59.6125 27.4313C59.8248 26.9674 60.0098 26.4916 60.1667 26.0063C60.3646 25.4917 60.6021 24.9771 60.7604 24.5021C60.9188 24.0271 60.9583 23.75 61.0771 23.275C61.1958 22.8 61.275 22.4042 61.3542 22.0083C61.3739 21.6656 61.3739 21.3219 61.3542 20.9792C61.3923 20.6637 61.3923 20.3447 61.3542 20.0292L60.9188 18.8021C59.4938 17.3771 52.0917 18.8021 42.1958 26.3229C43.8733 27.08 45.6666 27.5484 47.5 27.7083V35.625C43.2954 35.3831 39.2159 34.1049 35.625 31.9042L33.725 33.725C32.0625 35.3875 30.5188 37.0896 29.0542 38.7917C31.32 42.889 32.1557 47.6246 31.4292 52.25L23.5125 50.7063C23.7458 49.2377 23.7458 47.7415 23.5125 46.2729C22.3044 48.1049 21.2328 50.0232 20.3063 52.0125C18.0896 57.2375 18.2479 60.1667 18.9604 60.8396Z" fill="#EBEBEB"/>
</svg>
