<svg width="85" height="85" viewBox="0 0 85 85" fill="none" xmlns="http://www.w3.org/2000/svg">
<path d="M64.25 29.8938C62.825 28.2708 61.3604 26.6479 59.8167 25.1042L58.6688 24.0354L59.2229 23.5604C61.1587 21.8987 62.5381 19.6833 63.1752 17.213C63.8122 14.7427 63.6762 12.1364 62.7854 9.74583C61.4946 7.05009 59.4509 4.78577 56.9011 3.22638C54.3513 1.667 51.4045 0.879263 48.4167 0.958334V8.875C49.8251 8.8554 51.2132 9.21189 52.4378 9.9077C53.6624 10.6035 54.6792 11.6135 55.3834 12.8333C56.0563 14.4167 55.3834 16.1583 53.5229 18.0188C53.2459 18.3354 52.9292 18.5333 52.6521 18.8104C40.7771 9.27083 27.7542 3.8875 21.3813 10.2604C20.7137 10.9428 20.1652 11.7322 19.7584 12.5958V12.9917L19.0459 15.0896L1.58961 66.9438C0.929318 68.8978 0.744093 70.9811 1.04927 73.021C1.35446 75.0609 2.14126 76.9988 3.34452 78.674C4.54777 80.3493 6.13286 81.7138 7.96847 82.6545C9.80409 83.5952 11.8374 84.085 13.9 84.0833C15.2468 84.0702 16.5829 83.8431 17.8584 83.4104L72.1667 65.4C72.8341 65.1515 73.4221 64.7276 73.8688 64.1729L74.7 63.4604C80.3604 57.7604 76.7188 46.7958 69.1188 36.1479C73.6315 33.5143 78.8276 32.2876 84.0417 32.625V24.7083C77.0645 24.3244 70.1426 26.138 64.25 29.8938ZM15.5625 75.8896C14.664 76.187 13.7005 76.2288 12.7796 76.0104C11.8587 75.7919 11.0166 75.3219 10.3474 74.6526C9.67816 73.9834 9.20809 73.1413 8.98966 72.2204C8.77124 71.2995 8.81305 70.336 9.11044 69.4375L14.4938 53.2083C18.3357 60.5348 24.239 66.5758 31.475 70.5854L15.5625 75.8896ZM43.2709 66.6667C37.2887 65.0824 31.8316 61.9452 27.4523 57.5728C23.073 53.2005 19.9271 47.7484 18.3334 41.7688L22.2917 29.8938L22.5292 30.25C22.9646 31.1208 23.5188 32.0312 24.0729 32.9417C24.6271 33.8521 24.7063 34.0896 25.1021 34.6833C25.4979 35.2771 26.4084 36.5833 27.1209 37.5729C27.8334 38.5625 27.8729 38.6813 28.3084 39.2354C28.7438 39.7896 30.0104 41.4125 30.9209 42.4813L32.0688 43.8667C33.4146 45.4104 34.8396 46.9146 36.3438 48.4583C37.8479 50.0021 39.0354 50.9917 40.3021 52.4167L41.6084 53.525L44.6959 56.0187L46.1604 57.1271C47.2688 57.9188 48.3375 58.7104 49.4459 59.4229L50.6729 60.2146C52.0979 61.0854 53.5229 61.9167 54.9084 62.6292H55.1063L43.2709 66.6667ZM69.0396 57.8396H68.8021C66.0709 59.3438 54.7104 55.5833 41.925 42.7583C40.5792 41.4125 39.3125 40.1063 38.1646 38.8L37.0167 37.4146L34.9188 34.8812L33.7709 33.2979C33.2563 32.5458 32.7021 31.8333 32.2271 31.1208L31.1979 29.4583L30.05 27.5979C29.7334 27.0438 29.4959 26.5292 29.2188 26.0146C28.9417 25.5 28.625 24.9854 28.3875 24.4313C28.1752 23.9674 27.9902 23.4916 27.8334 23.0063C27.6354 22.4917 27.3979 21.9771 27.2396 21.5021C27.0813 21.0271 27.0417 20.75 26.9229 20.275C26.8042 19.8 26.725 19.4042 26.6459 19.0083C26.6261 18.6656 26.6261 18.3219 26.6459 17.9792C26.6077 17.6637 26.6077 17.3447 26.6459 17.0292L27.0813 15.8021C28.5063 14.3771 35.9084 15.8021 45.8042 23.3229C44.1267 24.08 42.3335 24.5484 40.5 24.7083V32.625C44.7047 32.3831 48.7842 31.1049 52.375 28.9042L54.275 30.725C55.9375 32.3875 57.4813 34.0896 58.9459 35.7917C56.68 39.889 55.8443 44.6246 56.5709 49.25L64.4875 47.7063C64.2543 46.2377 64.2543 44.7415 64.4875 43.2729C65.6956 45.1049 66.7673 47.0232 67.6938 49.0125C69.9104 54.2375 69.7521 57.1667 69.0396 57.8396Z" fill="#EBEBEB"/>
</svg>
