<svg width="308" height="311" viewBox="0 0 308 311" fill="none" xmlns="http://www.w3.org/2000/svg">
<path d="M81.5148 131.702C88.3336 147.008 95.1893 162.411 99.304 178.676C102.07 189.644 103.582 200.9 104.74 212.163C106.891 233.152 106.304 253.821 107.795 274.853C107.893 276.225 110.17 278.974 110.828 280.178C111.961 282.252 114.082 282.956 113.526 285.256C113.077 287.118 106.326 286.683 105.084 286.717C101.049 286.835 96.5752 288.207 93.2011 284.93C91.9228 283.688 92.1686 281.491 92.0273 279.803C90.8503 265.797 83.7088 247.428 79.8339 229.176C78.8813 224.682 78.4879 216.027 78.7338 211.44C78.8997 208.361 79.6034 205.32 79.5757 202.238C79.5297 196.962 77.3417 191.947 75.2306 187.105C70.8886 177.152 66.6725 167.048 64.5491 156.381C62.4257 145.714 62.5056 134.346 66.5895 124.291" fill="black"/>
<path d="M81.2628 131.849C86.1488 143.124 91.1761 154.349 95.1248 166.006C99.1381 177.861 101.658 190.055 103.237 202.472C104.851 215.143 105.625 227.855 106.028 240.62C106.224 246.954 106.372 253.288 106.605 259.622C106.722 262.829 106.865 266.036 107.036 269.243C107.125 270.851 107.226 272.461 107.343 274.066C107.37 274.975 107.615 275.864 108.056 276.657C108.557 277.563 109.168 278.401 109.752 279.255C110.241 279.969 110.643 280.745 111.184 281.427C111.799 282.203 112.72 282.883 113.092 283.836C113.4 284.599 113.283 285.387 112.533 285.741C111.11 286.412 109.266 286.362 107.73 286.362C106.194 286.362 104.719 286.337 103.2 286.47C100.834 286.678 98.3237 287.057 96.0221 286.256C94.8482 285.847 93.4593 285.052 92.9184 283.87C92.4145 282.759 92.5067 281.449 92.4421 280.257C92.1748 275.329 91.0378 270.401 89.867 265.628C87.0399 254.076 83.2756 242.783 80.6636 231.179C79.6188 226.524 79.2101 221.841 79.0841 217.089C78.9965 214.901 79.0303 212.71 79.1855 210.525C79.4405 207.518 80.0828 204.536 79.9445 201.504C79.671 195.588 76.9607 190.151 74.6591 184.826C72.2345 179.218 69.8991 173.56 67.9939 167.756C64.2695 156.441 62.1983 144.254 64.5767 132.442C65.1196 129.69 65.9116 126.994 66.9429 124.388C67.1211 123.948 66.4113 123.768 66.2361 124.193C61.7927 135.257 62.0631 147.54 64.6997 159.017C66.1071 165.106 68.1598 171.018 70.4645 176.812C71.583 179.63 72.7661 182.423 73.9707 185.192C75.1999 188.066 76.5335 190.915 77.5538 193.881C78.574 196.848 79.2746 199.974 79.1671 203.148C79.0656 206.128 78.4265 209.045 78.3097 212.043C78.1409 216.693 78.3465 221.349 78.9243 225.965C79.6096 231.52 81.2198 236.998 82.6856 242.383C84.2835 248.251 86.0166 254.079 87.6023 259.948C89.0343 265.24 90.3679 270.581 91.1761 276.009C91.3574 277.231 91.508 278.457 91.6094 279.689C91.7046 280.819 91.6463 281.97 91.8614 283.103C92.3039 285.378 94.458 286.728 96.566 287.225C98.8922 287.777 101.298 287.395 103.634 287.209C105.155 287.091 106.667 287.172 108.188 287.141C109.709 287.11 111.436 287.097 112.834 286.443C114.232 285.788 114.232 284.075 113.449 282.886C112.871 282.011 112.029 281.334 111.439 280.481C110.904 279.699 110.422 278.879 109.884 278.094C109.346 277.309 108.68 276.397 108.317 275.447C108.156 274.894 108.077 274.32 108.083 273.743C108.025 272.883 107.973 272.027 107.921 271.167C107.533 264.65 107.306 258.133 107.115 251.634C106.731 238.571 106.455 225.493 105.133 212.487C103.849 199.815 102.097 187.144 98.6587 174.866C95.2969 162.865 90.5584 151.302 85.5127 139.937C84.2671 137.135 83.0062 134.342 81.7299 131.558C81.5701 131.21 81.0784 131.514 81.2259 131.868L81.2628 131.849Z" fill="black"/>
<path d="M76.678 63.1855C77.3817 64.4611 78.1346 65.7832 79.3361 66.5994C80.2764 67.2201 81.4103 67.5056 82.409 68.0673C83.2999 68.5356 83.9874 69.3206 84.3388 70.2708C84.6461 71.2235 84.4157 72.3842 83.6382 73.008C84.0014 73.4211 84.2562 73.9196 84.3794 74.4578C84.5027 74.996 84.4904 75.5568 84.3437 76.089C84.197 76.6212 83.9205 77.1077 83.5396 77.5042C83.1587 77.9006 82.6855 78.1943 82.1632 78.3584C82.8423 78.706 83.0851 79.5998 82.8945 80.3571C82.6459 81.0892 82.1776 81.7248 81.5548 82.1757C78.5924 84.6026 73.9216 84.7671 70.9961 82.2936C69.263 80.8288 68.2305 78.644 67.7726 76.4126C67.3148 74.1812 67.3117 71.8753 67.3301 69.5849" fill="black"/>
<path d="M76.4782 63.3035C76.9447 64.3618 77.5812 65.3349 78.362 66.1835C79.1855 67.0276 80.2242 67.4466 81.2782 67.9121C82.2738 68.3528 83.2448 68.9301 83.7703 69.9325C84.0259 70.378 84.1221 70.8986 84.0426 71.4072C83.9632 71.9158 83.713 72.3813 83.334 72.7256C83.2589 72.8038 83.2169 72.9084 83.2169 73.0173C83.2169 73.1263 83.2589 73.2309 83.334 73.3091C83.6395 73.6736 83.8517 74.1082 83.952 74.5749C84.0523 75.0416 84.0377 75.526 83.9093 75.9856C83.781 76.4453 83.5429 76.866 83.2159 77.211C82.889 77.556 82.4832 77.8147 82.0341 77.9643C81.9543 77.9887 81.8831 78.036 81.8292 78.1003C81.7752 78.1646 81.7409 78.2433 81.7302 78.3269C81.7195 78.4104 81.7329 78.4954 81.7688 78.5714C81.8047 78.6475 81.8616 78.7115 81.9327 78.7557C82.7255 79.2088 82.5903 80.2608 82.154 80.9281C81.6418 81.6208 80.9782 82.1847 80.2149 82.576C78.7674 83.382 77.1186 83.7444 75.4703 83.6188C73.8186 83.5026 72.254 82.8268 71.0299 81.7009C69.6563 80.4253 68.8113 78.6843 68.3411 76.8812C67.7265 74.5101 67.745 72.0149 67.7265 69.5818C67.7174 69.4741 67.6687 69.3738 67.5899 69.3007C67.5111 69.2275 67.4079 69.187 67.3009 69.187C67.1939 69.187 67.0908 69.2275 67.012 69.3007C66.9331 69.3738 66.8844 69.4741 66.8753 69.5818C66.7801 74.026 66.8753 79.246 70.4461 82.4581C73.307 85.0371 77.7996 85.1519 80.9832 83.1067C81.9051 82.5202 82.8269 81.7443 83.2111 80.6891C83.5706 79.7177 83.2848 78.4981 82.3506 77.9705L82.2461 78.7619C82.841 78.5801 83.3807 78.2495 83.8151 77.8007C84.2496 77.3519 84.5647 76.7995 84.7312 76.1948C84.8976 75.5901 84.9101 74.9528 84.7674 74.3419C84.6246 73.731 84.3313 73.1665 83.9147 72.7008V73.2842C84.3069 72.921 84.5926 72.4559 84.7405 71.9397C84.8885 71.4236 84.893 70.8763 84.7537 70.3577C84.4832 69.2497 83.632 68.3528 82.6764 67.7942C81.5455 67.1332 80.1996 66.8973 79.1609 66.0656C78.1223 65.2338 77.5568 64.1197 76.8777 63.0552C76.8468 63.0017 76.796 62.9628 76.7367 62.9471C76.6773 62.9314 76.6142 62.9401 76.5612 62.9714C76.5082 63.0027 76.4697 63.0539 76.4542 63.1139C76.4386 63.1738 76.4473 63.2376 76.4782 63.2911V63.3035Z" fill="black"/>
<path d="M43.1922 144.653C37.2277 159.441 42.8542 181.249 39.3787 196.841C37.5964 204.826 32.1911 211.548 27.8091 221.482C16.3747 247.399 16.8818 256.384 8.38202 278.332C7.69061 280.119 7.39253 282.242 8.26832 283.946C9.56203 286.475 12.9638 286.77 15.7847 286.739L23.4394 286.636C25.4245 286.609 27.9013 286.236 28.4944 284.321C29.1797 282.109 26.6691 280.271 26.036 278.043C25.2371 275.25 26.497 273.987 28.3254 271.752C48.8956 246.639 59.3805 225.448 65.9996 201.716C72.6187 177.984 72.9383 157.737 72.4528 133.086" fill="black"/>
<path d="M42.9648 144.587C41.0442 149.326 40.3528 154.462 40.0947 159.545C39.812 165.132 40.0455 170.746 40.1838 176.341C40.3128 181.71 40.3989 187.117 39.7566 192.458C39.477 194.992 38.93 197.489 38.1249 199.906C37.2409 202.338 36.1746 204.698 34.9352 206.966C32.1388 212.267 29.1642 217.425 26.7735 222.937C24.5364 228.089 22.4714 233.312 20.6276 238.622C17.7698 246.806 15.6464 255.185 13.1235 263.456C11.6997 268.119 10.1202 272.731 8.38503 277.291C7.46315 279.671 6.64575 282.567 8.38503 284.798C9.7279 286.539 12.0726 286.971 14.1406 287.073C17.1767 287.238 20.2619 287.045 23.3041 286.996C25.1479 286.968 27.7353 286.766 28.6818 284.848C29.7727 282.635 27.68 280.652 26.755 278.837C26.1681 277.695 25.9376 276.304 26.417 275.081C26.8964 273.859 27.8644 272.872 28.6787 271.879C36.4071 262.429 43.5855 252.485 49.6822 241.874C54.9624 232.693 59.3732 223.03 62.8559 213.012C66.7231 201.945 69.482 190.515 71.0914 178.892C72.7293 166.873 73.0673 154.738 72.9843 142.619C72.9638 139.435 72.9198 136.252 72.8522 133.07C72.8522 132.967 72.8117 132.868 72.7397 132.795C72.6676 132.723 72.5699 132.682 72.468 132.682C72.3662 132.682 72.2685 132.723 72.1964 132.795C72.1244 132.868 72.0839 132.967 72.0839 133.07C72.3144 145.244 72.3912 157.45 71.3649 169.594C70.3482 181.614 68.1011 193.494 64.6597 205.045C61.7414 214.911 57.9419 224.488 53.3083 233.659C48.1027 243.901 41.8432 253.571 34.9536 262.736C32.9685 265.376 30.9322 267.977 28.8446 270.538C27.4649 272.236 25.446 274.067 25.4337 276.434C25.4597 277.582 25.792 278.702 26.3955 279.675C27.0101 280.699 27.8552 281.676 28.1655 282.846C28.9491 285.826 25.151 286.223 23.1566 286.26C20.1636 286.304 17.1306 286.493 14.1406 286.331C11.7806 286.201 8.98425 285.556 8.28362 282.918C7.54919 280.168 9.20551 277.269 10.1274 274.759C10.9673 272.483 11.7632 270.185 12.5151 267.866C15.1117 259.902 17.1245 251.765 19.6719 243.786C23.0737 233.104 27.2344 222.561 32.6182 212.751C35.0581 208.298 37.7131 203.857 39.1974 198.963C40.6386 194.186 40.9151 189.081 40.9489 184.116C41.0504 173.297 39.6061 162.27 41.5267 151.529C41.9321 149.195 42.5672 146.908 43.4227 144.701C43.5364 144.413 43.0785 144.292 42.9648 144.574V144.587Z" fill="black"/>
<path d="M73.436 87.9277C77.2864 88.3064 80.7158 90.5936 83.5214 93.2843C86.327 95.975 88.6809 99.122 91.511 101.803C91.8901 102.11 92.1966 102.498 92.4083 102.939C92.522 103.297 92.5669 103.673 92.5405 104.047C92.4504 109.153 90.4782 114.042 87.0092 117.758C86.4929 118.308 84.2128 121.355 83.463 121.358C82.9498 121.358 81.5117 120.586 81.0631 120.331C76.4536 117.699 74.6375 112.805 70.3907 109.624" fill="#18C4FF"/>
<path d="M73.436 88.1777C78.0116 88.7395 81.7329 91.8522 84.8058 95.1233C86.5082 96.9419 88.0908 98.8754 89.8055 100.685C90.2275 101.132 90.6598 101.571 91.1023 102.004C91.4925 102.382 91.9442 102.755 92.061 103.316C92.1378 103.891 92.1378 104.474 92.061 105.048C92.0241 105.601 91.9658 106.153 91.8797 106.702C91.539 108.914 90.8381 111.053 89.8055 113.033C89.2937 114.011 88.7048 114.945 88.0447 115.827C87.5315 116.512 86.9354 117.121 86.3884 117.779C85.9489 118.309 85.5126 118.846 85.0609 119.368C84.6502 119.89 84.1787 120.361 83.6565 120.77C83.6144 120.801 83.5702 120.829 83.5244 120.854L83.4599 120.888C83.3615 120.922 83.4845 120.888 83.4384 120.888L83.2878 120.854C82.9141 120.741 82.5528 120.591 82.2092 120.404C81.4204 120.02 80.6685 119.563 79.9629 119.039C76.7332 116.609 74.914 112.791 71.8718 110.166C71.4764 109.824 71.0667 109.501 70.6427 109.194C70.194 108.884 69.6071 109.626 70.0465 109.973C73.4267 112.627 75.4672 116.556 78.7552 119.284C79.5053 119.912 80.3154 120.463 81.1736 120.929C81.5485 121.13 81.9295 121.32 82.3198 121.49C82.6678 121.674 83.0475 121.789 83.4384 121.829C84.013 121.829 84.517 121.292 84.8919 120.916C85.4542 120.355 85.9643 119.74 86.4683 119.126C87.6237 117.701 88.8529 116.382 89.8208 114.815C91.6733 111.814 92.7421 108.387 92.9276 104.856C92.9897 104.267 92.9731 103.672 92.8784 103.087C92.7173 102.533 92.3964 102.04 91.9565 101.672C90.0851 99.8654 88.3735 97.9226 86.6311 95.9954C83.4814 92.5195 79.8246 88.9598 75.1046 87.9264C74.5503 87.8055 73.9888 87.7216 73.4237 87.675C73.101 87.647 73.1164 88.1405 73.4237 88.1777H73.436Z" fill="#18C4FF"/>
<path d="M63.7136 85.228C60.5393 85.5631 57.3311 85.92 54.3289 87.0218C51.3266 88.1235 48.5118 90.0508 46.9538 92.8625C45.9951 94.5942 45.5587 96.5618 45.1316 98.4984C43.9301 103.961 42.7224 109.463 42.5841 115.055C42.452 120.362 43.2878 125.679 42.8207 130.967C42.7251 131.574 42.7408 132.194 42.8668 132.795C43.2786 134.247 44.9042 134.915 46.3454 135.327C57.6307 138.535 69.597 138.352 80.7807 134.8C81.592 134.539 82.434 134.238 83.0024 133.602C84.2501 132.199 83.617 130.017 83.11 128.202C82.1231 124.617 81.9581 120.852 82.6275 117.194C83.2636 113.733 84.6495 110.347 84.4314 106.834C84.3207 104.997 83.7738 103.222 83.2299 101.468L81.4783 95.8449C80.8975 93.9828 80.2768 92.0339 78.9277 90.6311C77.6771 89.3307 75.9439 88.6449 74.2661 87.9963L67.4411 85.3521C66.6882 85.0604 65.6434 84.8617 65.244 85.5693" fill="#18C4FF"/>
<path d="M63.7132 84.9851C58.6429 85.2954 53.173 86.1085 49.1752 89.5565C47.2853 91.1889 46.1022 93.3055 45.4108 95.7013C45.0298 97.0234 44.7563 98.3796 44.4643 99.7359C44.1571 101.191 43.8313 102.647 43.5425 104.109C42.9624 106.956 42.5519 109.836 42.3133 112.733C42.1417 115.685 42.1592 118.644 42.3655 121.594C42.5192 124.542 42.6882 127.49 42.4731 130.454C42.384 131.695 42.2027 132.912 43.0262 133.945C43.6654 134.746 44.6395 135.187 45.586 135.522C48.1427 136.346 50.7657 136.943 53.425 137.307C56.1403 137.727 58.8802 137.963 61.6267 138.014C67.1182 138.116 72.5978 137.459 77.9133 136.062C79.2014 135.754 80.4698 135.368 81.7114 134.904C82.7593 134.482 83.6351 133.796 83.97 132.67C84.305 131.543 84.0837 130.395 83.8225 129.318C83.5152 128.033 83.1372 126.78 82.9283 125.47C82.4751 122.623 82.5334 119.718 83.1004 116.892C83.6443 114.198 84.5662 111.582 84.8089 108.823C85.0609 105.949 84.2128 103.265 83.3739 100.558L82.0464 96.2631C81.6985 95.0265 81.2673 93.8153 80.7557 92.6382C80.2642 91.5285 79.5285 90.5467 78.6047 89.7675C77.6471 89.0421 76.5916 88.4589 75.4703 88.0358C74.1581 87.4927 72.8245 86.9992 71.5 86.484C70.1756 85.9689 68.8174 85.3916 67.453 84.9137C66.5987 84.6033 65.514 84.5164 64.9639 85.3885C64.7027 85.7982 65.3511 86.1768 65.6092 85.7702C65.8673 85.3637 66.4235 85.4847 66.7954 85.5716C67.3811 85.7395 67.955 85.9468 68.5131 86.1923L72.425 87.7037C74.6559 88.5634 77.271 89.2834 78.9027 91.1579C79.6476 92.0779 80.2156 93.1305 80.5775 94.2613C81.0261 95.5027 81.3887 96.7814 81.7821 98.0414C82.2061 99.4131 82.6333 100.779 83.0543 102.15C83.4758 103.419 83.7903 104.72 83.9946 106.042C84.3449 108.711 83.6873 111.334 83.0235 113.9C82.3567 116.526 81.8466 119.145 81.8712 121.87C81.885 123.197 82.0021 124.521 82.2215 125.83C82.4305 127.087 82.7931 128.297 83.0942 129.532C83.3401 130.547 83.5767 131.726 83.1526 132.729C82.6794 133.837 81.4902 134.2 80.4423 134.529C70.3392 137.667 59.5965 138.068 49.2919 135.69C48.0848 135.433 46.8927 135.109 45.7212 134.718C44.8362 134.408 43.8467 133.933 43.4103 133.042C43.1368 132.493 43.1768 131.866 43.226 131.27C43.2843 130.572 43.3366 129.874 43.3642 129.175C43.4165 127.76 43.395 126.348 43.3427 124.936C43.2382 122.127 43.0108 119.325 42.9955 116.516C42.9976 113.705 43.2206 110.898 43.6623 108.121C44.0925 105.328 44.6764 102.563 45.2817 99.8041C45.8257 97.3214 46.2682 94.6896 47.6633 92.5141C50.3429 88.3337 55.3886 86.7727 59.998 86.0402C61.2672 85.8416 62.5424 85.6802 63.8146 85.4878C64.085 85.4475 64.0236 84.9851 63.747 85.0037L63.7132 84.9851Z" fill="#18C4FF"/>
<path d="M75.5006 135.908L34.1723 115.07C32.9743 114.466 31.5182 114.957 30.9201 116.167L12.0444 154.352C11.4463 155.562 11.9326 157.033 13.1307 157.637L54.459 178.474C55.6571 179.078 57.1131 178.587 57.7112 177.377L76.5869 139.192C77.185 137.982 76.6987 136.512 75.5006 135.908Z" fill="white"/>
<path d="M54.6266 178.176L50.5611 176.128L40.786 171.2L28.9307 165.216L18.6363 160.03C16.894 159.152 15.1516 158.28 13.4123 157.395C13.1428 157.273 12.9011 157.096 12.7023 156.876C12.5035 156.655 12.3517 156.396 12.2566 156.113C12.1615 155.831 12.1249 155.531 12.1493 155.234C12.1737 154.937 12.2584 154.648 12.3983 154.385L13.3416 152.476L17.7114 143.647L23.5499 131.81L28.7739 121.277C29.5821 119.639 30.3657 117.984 31.2016 116.361C31.4462 115.858 31.8767 115.472 32.4002 115.287C32.9238 115.101 33.4986 115.13 34.001 115.368L34.3083 115.517L36.4409 116.594L45.1465 120.982L56.8022 126.86L67.8494 132.428L74.6314 135.842C75.415 136.239 76.1863 136.59 76.4413 137.555C76.6749 138.433 76.2416 139.135 75.8759 139.876L72.2191 147.272L66.5219 158.798L60.9476 170.073L57.6503 176.746L57.4383 177.174C57.1948 177.677 56.7651 178.064 56.242 178.25C55.7189 178.436 55.1442 178.408 54.6419 178.17C54.2455 177.981 53.8983 178.577 54.2947 178.766C54.9505 179.092 55.7063 179.146 56.4013 178.918C57.0963 178.69 57.6756 178.196 58.016 177.543C58.0744 177.431 58.1297 177.317 58.185 177.202L59.3558 174.837L64.0605 165.315L70.0312 153.243L75.0247 143.11L76.469 140.187C76.8654 139.383 77.2864 138.635 77.142 137.676C77.0702 137.229 76.8931 136.805 76.6258 136.441C76.3585 136.077 76.0086 135.783 75.6055 135.584L75.0892 135.324L72.5694 134.054L63.2369 129.346L51.2986 123.329L40.5156 117.885L34.6125 114.909C34.465 114.834 34.3052 114.757 34.1608 114.692C33.5163 114.421 32.7949 114.405 32.1393 114.647C31.4837 114.888 30.9417 115.369 30.6208 115.995C30.3964 116.423 30.1906 116.861 29.9755 117.295L25.9192 125.504L20.0529 137.369L14.6046 148.389C13.6827 150.282 12.7271 152.169 11.799 154.065C11.6202 154.401 11.5096 154.768 11.4737 155.148C11.4379 155.527 11.4776 155.909 11.5904 156.272C11.7032 156.636 11.887 156.972 12.1307 157.263C12.3745 157.553 12.6734 157.791 13.0098 157.963L14.5893 158.758L22.7233 162.861L34.3728 168.732L45.7888 174.496L53.2376 178.251L54.2793 178.778C54.6726 178.971 55.0199 178.375 54.6266 178.176Z" fill="black"/>
<path d="M44.8432 134.125L50.2553 123.177L59.4079 127.791L53.9958 138.74L44.8432 134.125Z" fill="black"/>
<path d="M254.251 23.3906H208.058C206.719 23.3906 205.634 24.4869 205.634 25.8393V68.5182C205.634 69.8706 206.719 70.9669 208.058 70.9669H254.251C255.59 70.9669 256.675 69.8706 256.675 68.5182V25.8393C256.675 24.4869 255.59 23.3906 254.251 23.3906Z" fill="black"/>
<path d="M254.251 70.6231H214.026C212.081 70.6231 210.136 70.6231 208.187 70.6231C207.892 70.6323 207.598 70.58 207.324 70.4694C207.049 70.3589 206.801 70.1924 206.593 69.9804C206.385 69.7685 206.222 69.5155 206.116 69.2374C206.009 68.9593 205.96 68.6619 205.972 68.3638V31.358C205.972 29.527 205.944 27.6959 205.972 25.8649C205.973 25.3044 206.193 24.7671 206.583 24.3688C206.974 23.9705 207.503 23.7432 208.058 23.7359H253.461C254.337 23.7359 255.179 23.7079 255.827 24.4652C256.414 25.1448 256.334 25.9797 256.334 26.8083V68.0131V68.4942C256.333 69.0543 256.114 69.5916 255.725 69.99C255.335 70.3884 254.805 70.6158 254.251 70.6231C254.16 70.6231 254.074 70.6594 254.01 70.724C253.946 70.7886 253.91 70.8763 253.91 70.9676C253.91 71.059 253.946 71.1466 254.01 71.2112C254.074 71.2758 254.16 71.3121 254.251 71.3121C254.981 71.3009 255.678 71.003 256.194 70.4816C256.71 69.9602 257.005 69.2563 257.016 68.519V26.7711C257.016 25.868 257.056 25.0021 256.488 24.2169C256.224 23.8528 255.879 23.5568 255.481 23.3535C255.082 23.1501 254.642 23.045 254.195 23.0469H208.366C208.19 23.0469 208.018 23.0469 207.843 23.0469C207.151 23.1093 206.506 23.4299 206.034 23.9463C205.563 24.4626 205.298 25.1377 205.293 25.84V27.2925V62.0513V68.3948C205.284 68.7755 205.35 69.1541 205.489 69.5083C205.627 69.8624 205.834 70.1851 206.098 70.457C206.362 70.729 206.677 70.9447 207.025 71.0916C207.372 71.2385 207.746 71.3135 208.123 71.3121H209.887H254.251C254.341 71.3121 254.428 71.2758 254.492 71.2112C254.556 71.1466 254.592 71.059 254.592 70.9676C254.592 70.8763 254.556 70.7886 254.492 70.724C254.428 70.6594 254.341 70.6231 254.251 70.6231Z" fill="black"/>
<path d="M218.949 23.3906H229.179V35.6276H218.949V23.3906Z" fill="black"/>
<path d="M233.054 23.3906H186.861C185.522 23.3906 184.437 24.4869 184.437 25.8393V68.5182C184.437 69.8706 185.522 70.9669 186.861 70.9669H233.054C234.393 70.9669 235.478 69.8706 235.478 68.5182V25.8393C235.478 24.4869 234.393 23.3906 233.054 23.3906Z" fill="white"/>
<path d="M233.054 70.6232H192.826C190.884 70.6232 188.939 70.6232 186.987 70.6232C186.692 70.6324 186.398 70.58 186.124 70.4695C185.849 70.3589 185.6 70.1924 185.393 69.9805C185.185 69.7685 185.022 69.5156 184.916 69.2374C184.809 68.9593 184.76 68.6619 184.772 68.3638C184.772 67.6531 184.772 66.9424 184.772 66.2286V31.358C184.772 29.527 184.741 27.6959 184.772 25.8649C184.772 25.3047 184.991 24.7674 185.381 24.369C185.771 23.9707 186.301 23.7432 186.855 23.7359H232.261C233.137 23.7359 233.979 23.708 234.63 24.4652C235.217 25.1449 235.137 25.9797 235.137 26.8083V68.0131V68.4942C235.136 69.0543 234.917 69.5916 234.527 69.99C234.138 70.3884 233.608 70.6158 233.054 70.6232C232.963 70.6232 232.876 70.6595 232.812 70.7241C232.748 70.7887 232.713 70.8763 232.713 70.9676C232.713 71.059 232.748 71.1466 232.812 71.2112C232.876 71.2758 232.963 71.3121 233.054 71.3121C233.784 71.3017 234.481 71.0041 234.998 70.4825C235.514 69.9609 235.809 69.2565 235.819 68.519C235.819 68.3918 235.819 68.2645 235.819 68.1373V26.7711C235.819 25.868 235.859 25.0021 235.294 24.2169C235.03 23.8523 234.685 23.5562 234.286 23.3528C233.887 23.1494 233.445 23.0445 232.998 23.0469H187.165C186.993 23.0469 186.818 23.0469 186.646 23.0469C185.953 23.1087 185.308 23.4291 184.836 23.9455C184.365 24.462 184.101 25.1375 184.096 25.84V27.2925V62.0514V68.3949C184.086 68.7756 184.152 69.1544 184.291 69.5088C184.429 69.8632 184.636 70.1859 184.9 70.458C185.164 70.73 185.479 70.9458 185.827 71.0925C186.175 71.2392 186.549 71.3139 186.926 71.3121H188.69H233.054C233.144 71.3121 233.231 71.2758 233.295 71.2112C233.359 71.1466 233.395 71.059 233.395 70.9676C233.395 70.8763 233.359 70.7887 233.295 70.7241C233.231 70.6595 233.144 70.6232 233.054 70.6232Z" fill="black"/>
<path d="M204.841 23.3906H215.071V35.6276H204.841V23.3906Z" fill="black"/>
<path d="M266.561 241.707H229.308C227.969 241.707 226.883 242.803 226.883 244.156V278.502C226.883 279.854 227.969 280.95 229.308 280.95H266.561C267.9 280.95 268.985 279.854 268.985 278.502V244.156C268.985 242.803 267.9 241.707 266.561 241.707Z" fill="black"/>
<path d="M266.561 280.603H233.917C232.402 280.603 230.89 280.603 229.375 280.603C229.088 280.606 228.804 280.55 228.539 280.439C228.273 280.329 228.033 280.165 227.832 279.958C227.631 279.751 227.474 279.505 227.369 279.235C227.265 278.965 227.216 278.677 227.224 278.387V248.358C227.224 246.961 227.2 245.565 227.224 244.162C227.231 243.605 227.453 243.073 227.843 242.68C228.233 242.287 228.76 242.063 229.311 242.058H266.008C266.856 242.058 267.67 242.138 268.236 242.908C268.684 243.529 268.644 244.205 268.644 244.913V278.496C268.638 279.052 268.417 279.584 268.027 279.977C267.638 280.371 267.112 280.596 266.561 280.603C266.47 280.603 266.384 280.639 266.32 280.704C266.256 280.768 266.22 280.856 266.22 280.947C266.22 281.039 266.256 281.126 266.32 281.191C266.384 281.255 266.47 281.292 266.561 281.292C268.217 281.255 269.327 279.914 269.327 278.3V244.882C269.327 244.115 269.342 243.377 268.915 242.688C268.662 242.283 268.313 241.95 267.898 241.717C267.484 241.485 267.019 241.362 266.546 241.359H229.56C229.44 241.359 229.32 241.359 229.2 241.359C228.585 241.388 227.997 241.621 227.527 242.023C227.057 242.424 226.731 242.971 226.6 243.578C226.533 244.093 226.513 244.612 226.542 245.13V273.229V278.415C226.536 278.789 226.604 279.161 226.741 279.509C226.878 279.857 227.082 280.174 227.34 280.442C227.599 280.71 227.908 280.924 228.248 281.072C228.589 281.219 228.955 281.297 229.326 281.301H230.589H266.561C266.653 281.301 266.741 281.264 266.805 281.199C266.87 281.133 266.907 281.045 266.907 280.952C266.907 280.859 266.87 280.771 266.805 280.705C266.741 280.64 266.653 280.603 266.561 280.603Z" fill="black"/>
<path d="M237.866 241.707H246.304V251.8H237.866V241.707Z" fill="black"/>
<path d="M249.076 241.707H211.823C210.484 241.707 209.398 242.803 209.398 244.156V278.502C209.398 279.854 210.484 280.95 211.823 280.95H249.076C250.415 280.95 251.5 279.854 251.5 278.502V244.156C251.5 242.803 250.415 241.707 249.076 241.707Z" fill="white"/>
<path d="M249.076 280.603H216.432C214.917 280.603 213.405 280.603 211.89 280.603C211.603 280.606 211.319 280.55 211.053 280.439C210.788 280.329 210.548 280.165 210.347 279.958C210.146 279.751 209.989 279.505 209.884 279.235C209.78 278.965 209.73 278.677 209.739 278.387V248.358C209.739 246.961 209.715 245.565 209.739 244.162C209.746 243.605 209.968 243.073 210.358 242.68C210.748 242.287 211.275 242.063 211.826 242.058H248.523C249.371 242.058 250.185 242.138 250.751 242.908C251.199 243.529 251.159 244.205 251.159 244.913V278.496C251.153 279.052 250.931 279.584 250.542 279.977C250.153 280.371 249.627 280.596 249.076 280.603C248.985 280.603 248.899 280.639 248.835 280.704C248.771 280.768 248.735 280.856 248.735 280.947C248.735 281.039 248.771 281.126 248.835 281.191C248.899 281.255 248.985 281.292 249.076 281.292C250.732 281.255 251.841 279.914 251.841 278.3V244.882C251.841 244.115 251.857 243.377 251.43 242.688C251.177 242.283 250.827 241.95 250.413 241.717C249.999 241.485 249.534 241.362 249.06 241.359H212.078C211.958 241.359 211.838 241.359 211.718 241.359C211.104 241.388 210.516 241.622 210.046 242.023C209.577 242.424 209.252 242.971 209.121 243.578C209.051 244.092 209.03 244.612 209.06 245.13V273.229V278.415C209.054 278.789 209.122 279.161 209.259 279.509C209.396 279.857 209.6 280.174 209.858 280.442C210.117 280.71 210.426 280.924 210.766 281.072C211.107 281.219 211.473 281.297 211.844 281.301H213.107H249.076C249.167 281.301 249.255 281.264 249.32 281.199C249.385 281.133 249.422 281.045 249.422 280.952C249.422 280.859 249.385 280.771 249.32 280.705C249.255 280.64 249.167 280.603 249.076 280.603Z" fill="black"/>
<path d="M226.229 241.707H234.667V251.8H226.229V241.707Z" fill="black"/>
<path d="M218.482 241.707H181.229C179.889 241.707 178.804 242.803 178.804 244.156V278.502C178.804 279.854 179.889 280.95 181.229 280.95H218.482C219.821 280.95 220.906 279.854 220.906 278.502V244.156C220.906 242.803 219.821 241.707 218.482 241.707Z" fill="black"/>
<path d="M218.479 280.603H185.838C184.323 280.603 182.811 280.603 181.296 280.603C181.009 280.606 180.725 280.55 180.459 280.439C180.194 280.329 179.954 280.165 179.753 279.958C179.552 279.751 179.395 279.505 179.29 279.235C179.186 278.965 179.136 278.677 179.145 278.387C179.145 277.813 179.145 277.239 179.145 276.664V248.358C179.145 246.961 179.12 245.565 179.145 244.162C179.151 243.606 179.373 243.074 179.762 242.681C180.152 242.288 180.678 242.064 181.229 242.058H217.916C218.768 242.058 219.582 242.138 220.147 242.908C220.596 243.529 220.556 244.205 220.556 244.913V278.496C220.549 279.052 220.327 279.584 219.937 279.978C219.547 280.371 219.021 280.596 218.469 280.603C218.379 280.603 218.292 280.639 218.228 280.704C218.164 280.768 218.128 280.856 218.128 280.947C218.128 281.039 218.164 281.126 218.228 281.191C218.292 281.255 218.379 281.292 218.469 281.292C220.129 281.255 221.235 279.914 221.235 278.3V244.882C221.235 244.115 221.235 243.377 220.823 242.688C220.571 242.283 220.221 241.95 219.807 241.717C219.393 241.485 218.928 241.362 218.454 241.359H181.48C181.361 241.359 181.241 241.359 181.121 241.359C180.506 241.388 179.918 241.621 179.448 242.023C178.978 242.424 178.652 242.971 178.521 243.578C178.452 244.092 178.432 244.612 178.463 245.13V273.229V278.415C178.457 278.789 178.525 279.161 178.662 279.509C178.799 279.857 179.002 280.174 179.261 280.442C179.52 280.71 179.828 280.924 180.169 281.072C180.51 281.219 180.876 281.297 181.247 281.301H182.51H218.479C218.57 281.301 218.658 281.264 218.723 281.199C218.788 281.133 218.824 281.045 218.824 280.952C218.824 280.859 218.788 280.771 218.723 280.705C218.658 280.64 218.57 280.603 218.479 280.603Z" fill="black"/>
<path d="M189.787 241.707H198.225V251.8H189.787V241.707Z" fill="black"/>
<path d="M200.997 241.707H163.744C162.404 241.707 161.319 242.803 161.319 244.156V278.502C161.319 279.854 162.404 280.95 163.744 280.95H200.997C202.336 280.95 203.421 279.854 203.421 278.502V244.156C203.421 242.803 202.336 241.707 200.997 241.707Z" fill="white"/>
<path d="M200.997 280.603H168.353C166.838 280.603 165.326 280.603 163.811 280.603C163.524 280.606 163.24 280.55 162.974 280.439C162.709 280.329 162.469 280.165 162.268 279.958C162.067 279.751 161.91 279.505 161.805 279.235C161.701 278.965 161.651 278.677 161.66 278.387V248.358C161.66 246.961 161.635 245.565 161.66 244.162C161.666 243.605 161.888 243.073 162.278 242.68C162.668 242.287 163.195 242.063 163.747 242.058H200.441C201.292 242.058 202.106 242.138 202.671 242.908C203.12 243.529 203.08 244.205 203.08 244.913V278.496C203.074 279.052 202.852 279.584 202.463 279.977C202.074 280.371 201.548 280.596 200.997 280.603C200.906 280.603 200.819 280.639 200.756 280.704C200.692 280.768 200.656 280.856 200.656 280.947C200.656 281.039 200.692 281.126 200.756 281.191C200.819 281.255 200.906 281.292 200.997 281.292C202.653 281.255 203.762 279.914 203.762 278.3V244.882C203.762 244.115 203.762 243.377 203.351 242.688C203.098 242.283 202.748 241.95 202.334 241.717C201.92 241.485 201.455 241.362 200.981 241.359H163.995C163.876 241.359 163.756 241.359 163.636 241.359C163.021 241.388 162.433 241.621 161.963 242.023C161.493 242.424 161.167 242.971 161.036 243.578C160.968 244.093 160.949 244.612 160.978 245.13V273.229V278.415C160.972 278.789 161.04 279.161 161.177 279.509C161.314 279.857 161.517 280.174 161.776 280.442C162.035 280.71 162.343 280.924 162.684 281.072C163.025 281.219 163.391 281.297 163.762 281.301H165.025H200.997C201.088 281.301 201.176 281.264 201.241 281.199C201.306 281.133 201.342 281.045 201.342 280.952C201.342 280.859 201.306 280.771 201.241 280.705C201.176 280.64 201.088 280.603 200.997 280.603Z" fill="black"/>
<path d="M178.149 241.707H186.588V251.8H178.149V241.707Z" fill="black"/>
<path d="M254.601 160.891H233.929C232.59 160.891 231.505 161.987 231.505 163.339V208.616C231.505 209.968 232.59 211.064 233.929 211.064H254.601C255.94 211.064 257.026 209.968 257.026 208.616V163.339C257.026 161.987 255.94 160.891 254.601 160.891Z" fill="black"/>
<path d="M254.601 210.718H239.796C237.857 210.718 235.914 210.743 233.975 210.718C233.691 210.719 233.409 210.663 233.147 210.552C232.885 210.44 232.648 210.277 232.449 210.072C232.25 209.866 232.095 209.623 231.991 209.355C231.887 209.088 231.838 208.802 231.846 208.515C231.846 208.111 231.846 207.711 231.846 207.308V166.094C231.846 165.163 231.831 164.256 231.846 163.341C231.852 162.784 232.074 162.253 232.463 161.859C232.852 161.465 233.379 161.241 233.929 161.234H254.564C254.974 161.232 255.375 161.35 255.72 161.573C256.065 161.796 256.339 162.114 256.509 162.49C256.667 162.942 256.727 163.423 256.684 163.899V208.431C256.684 209.673 255.873 210.69 254.601 210.718C254.516 210.727 254.437 210.767 254.379 210.831C254.321 210.895 254.289 210.978 254.289 211.064C254.289 211.151 254.321 211.234 254.379 211.298C254.437 211.362 254.516 211.402 254.601 211.41C255.348 211.397 256.059 211.084 256.577 210.541C257.096 209.998 257.38 209.269 257.367 208.515C257.367 208.099 257.367 207.68 257.367 207.274V165.6C257.367 164.446 257.585 162.891 256.955 161.876C256.703 161.473 256.354 161.14 255.941 160.909C255.528 160.677 255.064 160.554 254.592 160.551H234.31C234.151 160.551 234.003 160.551 233.834 160.551C233.272 160.578 232.732 160.775 232.283 161.117C231.833 161.458 231.496 161.928 231.314 162.466C231.19 162.937 231.143 163.425 231.176 163.912V205.042V208.562C231.173 209.308 231.461 210.027 231.979 210.56C232.497 211.093 233.202 211.399 233.942 211.41H235.712H254.601C254.686 211.402 254.765 211.362 254.823 211.298C254.881 211.234 254.913 211.151 254.913 211.064C254.913 210.978 254.881 210.895 254.823 210.831C254.765 210.767 254.686 210.727 254.601 210.718Z" fill="black"/>
<path d="M238.161 160.891H243.277V167.008H238.161V160.891Z" fill="black"/>
<path d="M244.002 160.891H223.331C221.992 160.891 220.906 161.987 220.906 163.339V208.616C220.906 209.968 221.992 211.064 223.331 211.064H244.002C245.341 211.064 246.427 209.968 246.427 208.616V163.339C246.427 161.987 245.341 160.891 244.002 160.891Z" fill="white"/>
<path d="M244.002 210.718H229.197C227.258 210.718 225.316 210.743 223.377 210.718C223.093 210.719 222.811 210.663 222.549 210.552C222.286 210.44 222.049 210.277 221.85 210.072C221.652 209.866 221.496 209.623 221.392 209.355C221.289 209.088 221.24 208.802 221.247 208.515C221.247 208.111 221.247 207.711 221.247 207.308V166.094C221.247 165.163 221.232 164.256 221.247 163.341C221.254 162.784 221.475 162.253 221.864 161.859C222.254 161.465 222.78 161.241 223.331 161.234H243.963C244.373 161.231 244.775 161.349 245.12 161.572C245.466 161.795 245.74 162.114 245.911 162.49C246.068 162.942 246.128 163.423 246.086 163.899V208.431C246.086 209.673 245.275 210.69 244.002 210.718C243.917 210.727 243.838 210.767 243.78 210.831C243.723 210.895 243.691 210.978 243.691 211.064C243.691 211.151 243.723 211.234 243.78 211.298C243.838 211.362 243.917 211.402 244.002 211.41C244.749 211.397 245.46 211.084 245.979 210.541C246.497 209.998 246.781 209.269 246.768 208.515C246.768 208.099 246.768 207.68 246.768 207.274V165.6C246.768 164.446 246.986 162.891 246.356 161.876C246.104 161.473 245.755 161.14 245.342 160.909C244.929 160.677 244.466 160.554 243.993 160.551H223.712C223.552 160.551 223.405 160.551 223.236 160.551C222.674 160.578 222.133 160.775 221.684 161.116C221.234 161.458 220.897 161.928 220.716 162.466C220.592 162.937 220.545 163.425 220.577 163.912V205.042V208.562C220.574 209.308 220.863 210.027 221.38 210.56C221.898 211.093 222.604 211.399 223.343 211.41H225.11H244.002C244.088 211.402 244.167 211.362 244.225 211.298C244.282 211.234 244.314 211.151 244.314 211.064C244.314 210.978 244.282 210.895 244.225 210.831C244.167 210.767 244.088 210.727 244.002 210.718Z" fill="black"/>
<path d="M231.108 160.891H236.225V167.008H231.108V160.891Z" fill="black"/>
<path d="M225.592 160.891H204.921C203.582 160.891 202.496 161.987 202.496 163.339V208.616C202.496 209.968 203.582 211.064 204.921 211.064H225.592C226.931 211.064 228.017 209.968 228.017 208.616V163.339C228.017 161.987 226.931 160.891 225.592 160.891Z" fill="black"/>
<path d="M225.599 210.718H210.787C208.848 210.718 206.906 210.743 204.967 210.718C204.683 210.719 204.401 210.663 204.139 210.552C203.877 210.44 203.639 210.277 203.44 210.072C203.242 209.866 203.086 209.623 202.983 209.355C202.879 209.088 202.83 208.802 202.837 208.515V166.094C202.837 165.163 202.837 164.256 202.837 163.341C202.845 162.785 203.066 162.253 203.455 161.86C203.844 161.466 204.37 161.242 204.921 161.234H225.556C225.965 161.232 226.367 161.35 226.712 161.573C227.057 161.796 227.331 162.114 227.501 162.49C227.658 162.942 227.718 163.423 227.676 163.899V208.431C227.676 209.673 226.868 210.69 225.593 210.718C225.507 210.727 225.428 210.767 225.37 210.831C225.313 210.895 225.281 210.978 225.281 211.064C225.281 211.151 225.313 211.234 225.37 211.298C225.428 211.362 225.507 211.402 225.593 211.41C225.962 211.404 226.327 211.324 226.667 211.175C227.006 211.026 227.313 210.811 227.57 210.542C227.827 210.273 228.028 209.955 228.164 209.608C228.299 209.26 228.365 208.889 228.358 208.515C228.358 208.099 228.358 207.68 228.358 207.274V165.6C228.358 164.446 228.576 162.891 227.946 161.876C227.694 161.473 227.345 161.14 226.932 160.909C226.52 160.677 226.056 160.554 225.583 160.551H205.302C205.145 160.551 204.995 160.551 204.826 160.551C204.264 160.578 203.723 160.775 203.274 161.117C202.825 161.458 202.487 161.928 202.306 162.466C202.182 162.937 202.135 163.425 202.168 163.912V205.042V208.562C202.165 209.308 202.454 210.026 202.971 210.559C203.489 211.092 204.194 211.398 204.933 211.41H206.7H225.599C225.684 211.402 225.763 211.362 225.821 211.298C225.878 211.234 225.91 211.151 225.91 211.064C225.91 210.978 225.878 210.895 225.821 210.831C225.763 210.767 225.684 210.727 225.599 210.718Z" fill="black"/>
<path d="M209.152 160.891H214.269V167.008H209.152V160.891Z" fill="black"/>
<path d="M214.994 160.891H194.322C192.983 160.891 191.898 161.987 191.898 163.339V208.616C191.898 209.968 192.983 211.064 194.322 211.064H214.994C216.333 211.064 217.418 209.968 217.418 208.616V163.339C217.418 161.987 216.333 160.891 214.994 160.891Z" fill="white"/>
<path d="M214.994 210.718H200.188C198.249 210.718 196.307 210.743 194.368 210.718C194.084 210.719 193.802 210.663 193.54 210.552C193.278 210.44 193.04 210.277 192.842 210.072C192.643 209.866 192.488 209.623 192.384 209.355C192.28 209.088 192.231 208.802 192.239 208.515C192.239 208.111 192.239 207.711 192.239 207.308V166.094C192.239 165.163 192.223 164.256 192.239 163.341C192.245 162.784 192.467 162.253 192.856 161.859C193.245 161.465 193.771 161.241 194.322 161.234H214.957C215.367 161.232 215.768 161.35 216.113 161.573C216.458 161.796 216.732 162.114 216.902 162.49C217.06 162.942 217.119 163.423 217.077 163.899V208.431C217.077 209.673 216.266 210.69 214.994 210.718C214.909 210.727 214.829 210.767 214.772 210.831C214.714 210.895 214.682 210.978 214.682 211.064C214.682 211.151 214.714 211.234 214.772 211.298C214.829 211.362 214.909 211.402 214.994 211.41C215.741 211.397 216.452 211.084 216.97 210.541C217.489 209.998 217.773 209.269 217.76 208.515C217.76 208.099 217.76 207.68 217.76 207.274V165.6C217.76 164.446 217.978 162.891 217.348 161.876C217.095 161.473 216.747 161.14 216.334 160.909C215.921 160.677 215.457 160.554 214.985 160.551H194.703C194.544 160.551 194.396 160.551 194.227 160.551C193.665 160.578 193.125 160.775 192.675 161.117C192.226 161.458 191.889 161.928 191.707 162.466C191.583 162.937 191.536 163.425 191.569 163.912V205.042V208.562C191.566 209.308 191.854 210.027 192.372 210.56C192.89 211.093 193.595 211.399 194.335 211.41H196.105H214.994C215.079 211.402 215.158 211.362 215.216 211.298C215.274 211.234 215.306 211.151 215.306 211.064C215.306 210.978 215.274 210.895 215.216 210.831C215.158 210.767 215.079 210.727 214.994 210.718Z" fill="black"/>
<path d="M202.1 160.891H207.216V167.008H202.1V160.891Z" fill="black"/>
<path d="M196.584 160.891H175.912C174.573 160.891 173.488 161.987 173.488 163.339V208.616C173.488 209.968 174.573 211.064 175.912 211.064H196.584C197.923 211.064 199.008 209.968 199.008 208.616V163.339C199.008 161.987 197.923 160.891 196.584 160.891Z" fill="black"/>
<path d="M196.584 210.718H181.778C179.839 210.718 177.897 210.743 175.958 210.718C175.674 210.719 175.392 210.663 175.13 210.552C174.868 210.44 174.63 210.277 174.432 210.072C174.233 209.866 174.077 209.623 173.974 209.355C173.87 209.088 173.821 208.802 173.829 208.515V166.094C173.829 165.163 173.829 164.256 173.829 163.341C173.836 162.785 174.058 162.253 174.447 161.86C174.836 161.466 175.362 161.242 175.912 161.234H196.547C196.957 161.231 197.358 161.349 197.704 161.572C198.049 161.795 198.323 162.114 198.492 162.49C198.65 162.942 198.709 163.423 198.667 163.899V208.431C198.667 209.673 197.859 210.69 196.584 210.718C196.499 210.727 196.419 210.767 196.362 210.831C196.304 210.895 196.272 210.978 196.272 211.064C196.272 211.151 196.304 211.234 196.362 211.298C196.419 211.362 196.499 211.402 196.584 211.41C196.954 211.404 197.319 211.324 197.658 211.175C197.997 211.026 198.304 210.811 198.561 210.542C198.818 210.273 199.02 209.955 199.155 209.608C199.29 209.26 199.356 208.889 199.35 208.515C199.35 208.099 199.35 207.68 199.35 207.274V165.6C199.35 164.446 199.568 162.891 198.938 161.876C198.685 161.473 198.337 161.14 197.924 160.909C197.511 160.677 197.047 160.554 196.575 160.551H176.293C176.137 160.551 175.986 160.551 175.817 160.551C175.255 160.578 174.715 160.775 174.265 161.117C173.816 161.458 173.479 161.928 173.297 162.466C173.173 162.937 173.126 163.425 173.159 163.912V205.042V208.562C173.156 209.311 173.447 210.031 173.968 210.565C174.489 211.098 175.198 211.402 175.94 211.41H177.707H196.596C196.681 211.401 196.76 211.36 196.817 211.294C196.873 211.229 196.904 211.145 196.902 211.059C196.901 210.972 196.867 210.889 196.808 210.826C196.749 210.763 196.669 210.725 196.584 210.718Z" fill="black"/>
<path d="M180.147 160.891H185.263V167.008H180.147V160.891Z" fill="black"/>
<path d="M185.985 160.891H165.314C163.975 160.891 162.889 161.987 162.889 163.339V208.616C162.889 209.968 163.975 211.064 165.314 211.064H185.985C187.324 211.064 188.41 209.968 188.41 208.616V163.339C188.41 161.987 187.324 160.891 185.985 160.891Z" fill="white"/>
<path d="M185.985 210.718H171.18C169.241 210.718 167.299 210.743 165.36 210.718C165.075 210.719 164.794 210.663 164.532 210.552C164.269 210.44 164.032 210.277 163.833 210.072C163.635 209.866 163.479 209.623 163.375 209.355C163.272 209.088 163.222 208.802 163.23 208.515V166.094C163.23 165.163 163.23 164.256 163.23 163.341C163.237 162.785 163.459 162.253 163.848 161.86C164.237 161.466 164.763 161.242 165.314 161.234H185.958C186.367 161.232 186.769 161.35 187.114 161.573C187.459 161.796 187.733 162.114 187.903 162.49C188.06 162.942 188.12 163.423 188.078 163.899V208.431C188.078 209.673 187.27 210.69 185.995 210.718C185.909 210.727 185.83 210.767 185.772 210.831C185.715 210.895 185.683 210.978 185.683 211.064C185.683 211.151 185.715 211.234 185.772 211.298C185.83 211.362 185.909 211.402 185.995 211.41C186.365 211.404 186.73 211.324 187.069 211.175C187.408 211.026 187.715 210.811 187.972 210.542C188.229 210.273 188.43 209.955 188.566 209.608C188.701 209.26 188.767 208.889 188.76 208.515C188.76 208.099 188.76 207.68 188.76 207.274V165.6C188.76 164.446 188.978 162.891 188.348 161.876C188.096 161.473 187.747 161.14 187.335 160.909C186.922 160.677 186.458 160.554 185.985 160.551H165.676C165.52 160.551 165.369 160.551 165.2 160.551C164.638 160.578 164.098 160.775 163.649 161.117C163.199 161.458 162.862 161.928 162.68 162.466C162.556 162.937 162.509 163.425 162.542 163.912V205.042V208.562C162.539 209.308 162.828 210.026 163.346 210.559C163.864 211.092 164.568 211.398 165.308 211.41H167.075H185.964C186.05 211.405 186.131 211.368 186.191 211.306C186.251 211.244 186.285 211.161 186.288 211.074C186.291 210.988 186.261 210.903 186.205 210.837C186.149 210.771 186.071 210.729 185.985 210.718Z" fill="black"/>
<path d="M173.091 160.891H178.208V167.008H173.091V160.891Z" fill="black"/>
<path d="M235.168 90.5898H186.164C184.825 90.5898 183.739 91.6861 183.739 93.0385V138.337C183.739 139.689 184.825 140.785 186.164 140.785H235.168C236.507 140.785 237.592 139.689 237.592 138.337V93.0385C237.592 91.6861 236.507 90.5898 235.168 90.5898Z" fill="black"/>
<path d="M235.165 140.442H186.305C186.008 140.454 185.712 140.404 185.435 140.295C185.158 140.186 184.906 140.02 184.696 139.808C184.486 139.595 184.322 139.341 184.213 139.062C184.105 138.782 184.056 138.483 184.068 138.183V98.9362C184.068 96.981 184.037 95.0258 184.068 93.0706C184.067 92.5094 184.285 91.9705 184.675 91.5708C185.065 91.1711 185.596 90.9428 186.151 90.9354H234.289C235.155 90.9354 236.001 90.8795 236.673 91.5871C237.346 92.2947 237.248 93.1792 237.248 94.0544V137.77V138.304C237.25 138.865 237.032 139.405 236.642 139.806C236.252 140.206 235.721 140.435 235.165 140.442C235.074 140.442 234.987 140.478 234.923 140.543C234.86 140.608 234.824 140.695 234.824 140.787C234.824 140.878 234.86 140.965 234.923 141.03C234.987 141.095 235.074 141.131 235.165 141.131C235.895 141.121 236.592 140.823 237.109 140.301C237.625 139.78 237.92 139.075 237.93 138.338C237.93 138.192 237.93 138.046 237.93 137.897V93.9799C237.93 93.0489 237.967 92.1396 237.35 91.3327C237.08 90.9881 236.736 90.7108 236.343 90.5225C235.95 90.3341 235.52 90.2396 235.085 90.2464H186.477C186.302 90.2464 186.124 90.2464 185.949 90.2464C185.256 90.3088 184.61 90.6293 184.138 91.1456C183.666 91.6618 183.401 92.3369 183.395 93.0396V94.6378V131.492V138.211C183.386 138.593 183.453 138.974 183.593 139.33C183.732 139.685 183.941 140.009 184.207 140.282C184.474 140.554 184.791 140.77 185.142 140.916C185.492 141.062 185.868 141.135 186.247 141.131H235.165C235.255 141.131 235.342 141.095 235.406 141.03C235.47 140.965 235.506 140.878 235.506 140.787C235.506 140.695 235.47 140.608 235.406 140.543C235.342 140.478 235.255 140.442 235.165 140.442Z" fill="black"/>
<path d="M179.75 90.5898H190.546V103.5H179.75V90.5898Z" fill="black"/>
<path d="M194.768 90.5898H145.764C144.425 90.5898 143.339 91.6861 143.339 93.0385V138.337C143.339 139.689 144.425 140.785 145.764 140.785H194.768C196.107 140.785 197.192 139.689 197.192 138.337V93.0385C197.192 91.6861 196.107 90.5898 194.768 90.5898Z" fill="white"/>
<path d="M194.765 140.442H145.905C145.608 140.454 145.312 140.404 145.035 140.295C144.758 140.186 144.506 140.02 144.296 139.808C144.086 139.595 143.922 139.341 143.813 139.062C143.705 138.782 143.656 138.483 143.668 138.183V98.9362C143.668 96.981 143.637 95.0258 143.668 93.0706C143.667 92.5094 143.885 91.9705 144.275 91.5708C144.665 91.1711 145.196 90.9428 145.751 90.9354H193.889C194.755 90.9354 195.601 90.8795 196.274 91.5871C196.946 92.2947 196.848 93.1792 196.848 94.0544V137.77V138.304C196.85 138.865 196.632 139.405 196.242 139.806C195.852 140.206 195.321 140.435 194.765 140.442C194.674 140.442 194.587 140.478 194.524 140.543C194.46 140.608 194.424 140.695 194.424 140.787C194.424 140.878 194.46 140.965 194.524 141.03C194.587 141.095 194.674 141.131 194.765 141.131C195.495 141.121 196.192 140.823 196.709 140.301C197.225 139.78 197.52 139.075 197.53 138.338C197.53 138.192 197.53 138.046 197.53 137.897V93.9799C197.53 93.0489 197.567 92.1396 196.95 91.3327C196.68 90.9881 196.336 90.7108 195.943 90.5225C195.55 90.3341 195.12 90.2396 194.685 90.2464H146.077C145.902 90.2464 145.724 90.2464 145.549 90.2464C144.856 90.3088 144.21 90.6293 143.738 91.1456C143.266 91.6618 143.001 92.3369 142.995 93.0396V94.6378V131.492V138.211C142.986 138.593 143.053 138.974 143.193 139.33C143.332 139.685 143.541 140.009 143.807 140.282C144.074 140.554 144.391 140.77 144.742 140.916C145.092 141.062 145.468 141.135 145.847 141.131H194.765C194.855 141.131 194.942 141.095 195.006 141.03C195.07 140.965 195.106 140.878 195.106 140.787C195.106 140.695 195.07 140.608 195.006 140.543C194.942 140.478 194.855 140.442 194.765 140.442Z" fill="black"/>
<path d="M164.868 90.5898H175.663V103.5H164.868V90.5898Z" fill="black"/>
<path d="M43.2874 115.708L38.678 120.071C38.3368 120.336 38.082 120.698 37.9467 121.111C37.8115 121.731 38.2017 122.309 38.5613 122.824C42.0613 128.016 43.0969 134.437 44.5627 140.542C46.0285 146.646 48.2748 153.024 53.2745 156.757C54.5467 157.707 55.994 158.483 56.962 159.74C57.93 160.996 58.2742 162.98 57.174 164.131C56.9955 164.332 56.7643 164.477 56.5072 164.55C55.4993 164.795 54.8417 163.526 54.5743 162.514C55.4993 164.202 56.0793 166.061 56.2798 167.979C56.3444 168.6 56.3382 169.304 55.8896 169.727C55.3364 170.245 54.3777 170.009 53.8768 169.441C53.3759 168.873 53.21 168.085 53.0655 167.337C53.3552 167.963 53.5152 168.642 53.5357 169.332C53.508 170.021 53.1208 170.744 52.4663 170.94C51.7442 171.157 50.9667 170.651 50.6225 169.981C50.2784 169.311 50.2323 168.522 50.2046 167.762C50.3311 168.758 50.364 169.764 50.303 170.766C50.3095 171.043 50.2403 171.315 50.1032 171.555C49.6515 172.2 48.5668 171.79 48.1796 171.108C47.7924 170.425 47.7309 169.575 47.2976 168.917C47.6664 169.888 47.8139 171.353 46.8183 171.629C46.3696 171.753 45.8964 171.527 45.5184 171.26C42.722 169.314 42.1382 165.124 41.2562 162.083C40.0271 157.878 37.2891 154.672 34.674 151.255C28.648 143.381 23.1259 133.587 23.1382 123.354C23.1382 120.043 23.7036 116.673 25.1448 113.678C27.5141 108.743 31.4321 104.594 35.2855 100.802C35.9226 100.181 36.5639 99.5601 37.2092 98.9395" fill="white"/>
<path d="M46.7537 171.392C46.1023 171.492 45.4723 170.84 45.0452 170.415C44.6678 170.035 44.3376 169.609 44.0618 169.149C43.5027 168.189 43.063 167.163 42.7528 166.095C42.0429 163.814 41.6311 161.474 40.6017 159.298C39.4555 156.859 37.8361 154.696 36.1797 152.585C34.4866 150.413 32.8302 148.241 31.3245 145.925C28.2792 141.255 25.7225 136.187 24.4073 130.718C23.0921 125.25 22.9723 119.09 25.4306 113.922C27.8521 108.83 31.8346 104.696 35.8171 100.819C36.3703 100.283 36.9234 99.7519 37.4735 99.2119C37.8361 98.855 37.2891 98.3118 36.9173 98.6532C34.7386 100.662 32.6617 102.78 30.6946 105C28.7578 107.12 27.0537 109.446 25.6119 111.936C24.1692 114.5 23.2566 117.332 22.9292 120.263C22.6158 123.168 22.7359 126.105 23.2857 128.974C24.3244 134.601 26.7796 139.914 29.7389 144.755C31.2231 147.173 32.8579 149.494 34.5726 151.751C36.2412 153.948 37.9928 156.114 39.3264 158.544C40.0027 159.768 40.5397 161.065 40.9274 162.411C41.2347 163.491 41.4867 164.583 41.7971 165.667C42.3963 167.755 43.269 170.17 45.1589 171.423C45.3973 171.612 45.6724 171.748 45.9663 171.822C46.2602 171.895 46.5662 171.906 46.8643 171.852C47.1716 171.771 47.0334 171.343 46.7384 171.386L46.7537 171.392Z" fill="black"/>
<path d="M43.1185 115.53C42.1966 116.302 41.2747 117.103 40.3836 117.922C39.9749 118.295 39.5754 118.68 39.1728 119.058C38.7565 119.418 38.3624 119.804 37.9928 120.213C37.2953 121.054 37.5196 121.957 38.0697 122.807C38.6246 123.643 39.1374 124.507 39.6061 125.395C41.5052 129.12 42.5008 133.21 43.4258 137.254C45.0698 144.426 46.8982 152.495 53.1209 157.116C54.7741 158.342 56.9713 159.41 57.423 161.638C57.5859 162.47 57.423 163.785 56.5165 164.142C55.61 164.499 55.1152 163.025 54.9493 162.407L54.2456 162.718C55.1181 164.357 55.6818 166.146 55.9081 167.994C55.9726 168.484 56.7347 168.509 56.6886 167.994C56.493 166.003 55.8869 164.076 54.9093 162.336C54.863 162.251 54.787 162.187 54.6963 162.156C54.6055 162.125 54.5065 162.129 54.4188 162.168C54.331 162.207 54.2608 162.278 54.2219 162.366C54.1831 162.455 54.1784 162.555 54.2087 162.646C54.4207 163.419 54.7834 164.294 55.4778 164.751C56.1723 165.207 57.0635 164.906 57.5859 164.266C58.7136 162.879 58.2496 160.8 57.2294 159.5C55.9726 157.892 54.0336 157.017 52.5278 155.698C51.1286 154.444 49.9302 152.978 48.9755 151.353C46.9689 148.014 45.795 144.246 44.8916 140.472C43.899 136.301 43.1584 132.009 41.6158 127.996C41.1988 126.901 40.7186 125.832 40.1777 124.793C39.8888 124.25 39.5846 123.72 39.2558 123.201C38.9485 122.736 38.5613 122.27 38.3831 121.749C38.1618 121.091 38.6412 120.678 39.0714 120.269L40.4973 118.919C41.5216 117.944 42.51 116.938 43.4627 115.902C43.5021 115.856 43.5228 115.796 43.5205 115.735C43.5182 115.674 43.4932 115.616 43.4505 115.573C43.4077 115.53 43.3504 115.504 43.2899 115.502C43.2295 115.5 43.1705 115.521 43.1246 115.561L43.1185 115.53Z" fill="black"/>
<path d="M72.213 82.3565C71.346 84.7829 70.6649 87.273 70.1756 89.8048C70.1543 90.0157 70.0779 90.217 69.9544 90.3883C69.8412 90.4885 69.709 90.5644 69.5658 90.6113C69.4226 90.6583 69.2715 90.6753 69.1216 90.6614C67.3219 90.6837 65.5462 90.2425 63.9621 89.3797C62.388 88.5153 60.9698 87.3884 59.7676 86.0465C61.3426 83.767 62.6153 81.289 63.5534 78.6758C63.5903 78.5734 63.5995 78.4182 63.492 78.3965" fill="white"/>
<path d="M71.9979 82.2289C71.3647 83.6007 70.8506 85.0253 70.4615 86.4869C70.2494 87.2255 70.0528 87.9672 69.8776 88.7152C69.7946 89.0721 69.7147 89.429 69.641 89.789C69.5887 90.0373 69.4259 90.4376 69.5887 90.6704C69.6222 90.7261 69.6678 90.7735 69.7219 90.8091C69.776 90.8447 69.8374 90.8675 69.9015 90.8758C69.9655 90.8842 70.0306 90.8779 70.0919 90.8573C70.1532 90.8368 70.2091 90.8026 70.2556 90.7573C70.3597 90.6485 70.4209 90.505 70.4276 90.3538C70.4276 90.2402 70.383 90.1313 70.3034 90.051C70.2239 89.9707 70.1161 89.9255 70.0036 89.9255C69.8223 89.9255 69.7485 90.0311 69.6103 90.1242C69.4206 90.2214 69.2074 90.2623 68.9957 90.2421C68.4813 90.2488 67.9673 90.2114 67.4592 90.1304C66.4726 89.9668 65.5136 89.6638 64.6106 89.2304C62.8887 88.3647 61.3437 87.1792 60.0565 85.7358L60.121 86.2355C61.0278 84.9003 61.8332 83.4976 62.5302 82.0396C62.8652 81.3444 63.1755 80.6368 63.4521 79.923C63.624 79.5439 63.7718 79.1542 63.8946 78.7561C63.9423 78.6311 63.9458 78.4933 63.9043 78.366C63.8629 78.2387 63.7791 78.1298 63.6672 78.0579C63.2677 77.8003 62.899 78.4427 63.2954 78.6972L63.3538 78.7375L63.1878 78.5172C63.2185 78.6134 63.0772 78.8586 63.0434 78.9486C62.9789 79.1223 62.9112 79.2961 62.8436 79.4668C62.7207 79.7772 62.5917 80.0875 62.4565 80.3979C62.1799 81.033 61.8828 81.6537 61.5653 82.26C60.924 83.4856 60.2055 84.6684 59.4142 85.801C59.3689 85.8798 59.3506 85.9716 59.3623 86.0619C59.3739 86.1523 59.4149 86.2363 59.4788 86.3007C60.8647 87.8834 62.5513 89.1688 64.4385 90.0807C65.4143 90.5325 66.4491 90.8408 67.5114 90.9962C68.3841 91.1204 69.6041 91.3407 70.3017 90.6611L69.9944 90.7883L69.5703 90.36L69.6441 90.1583L70.3109 90.2452C70.36 90.4314 70.3908 90.4376 70.4 90.2669C70.4 90.1862 70.4338 90.1055 70.4492 90.0217C70.486 89.8542 70.5198 89.6897 70.5567 89.5221C70.6335 89.1807 70.7134 88.8362 70.7995 88.4979C70.9685 87.8121 71.1436 87.1293 71.3311 86.4527C71.6998 85.1089 72.1208 83.7838 72.4404 82.4182C72.5019 82.1544 72.1147 81.9589 71.9856 82.2258L71.9979 82.2289Z" fill="black"/>
<path d="M77.5569 65.1636C77.9037 67.3316 78.7592 69.3843 80.0521 71.1502C80.4884 71.743 80.974 72.6212 80.427 73.1271C80.257 73.2506 80.0771 73.3596 79.8892 73.453C79.121 73.9402 79.1118 75.042 79.1579 75.9575C79.2562 77.9065 79.121 80.0944 77.7136 81.432C76.3062 82.7696 74.1859 82.7758 72.3175 82.4251C67.1888 81.463 62.3243 77.7947 61.1013 72.674C60.5267 70.275 60.7663 67.7333 61.4608 65.3715C61.9771 63.6088 62.773 61.877 64.0974 60.617C66.4881 58.3453 70.274 58.038 73.3162 59.2577C75.4058 60.0956 77.4155 62.8857 77.5476 65.1543" fill="white"/>
<path d="M61.3379 72.6211C60.9939 70.8494 61.0113 69.0255 61.3891 67.2608C61.7669 65.4961 62.4971 63.8278 63.535 62.3579C64.5455 60.9482 65.9719 59.8977 67.6097 59.3568C69.518 58.7862 71.5677 58.9476 73.3654 59.81C74.417 60.2924 75.3286 61.0389 76.0134 61.9782C76.6982 62.9176 77.1333 64.0185 77.2772 65.1759C77.3202 65.5265 77.8426 65.5545 77.8396 65.1759C77.8027 60.4027 72.6524 57.6748 68.4179 58.3824C64.5061 59.0372 61.8787 62.5534 60.8923 66.231C60.319 68.3637 60.3095 70.6108 60.8646 72.7483C60.9445 73.0587 61.3993 72.9283 61.3379 72.618V72.6211Z" fill="black"/>
<path d="M77.0037 63.4902C75.2456 65.7848 73.1453 67.7898 70.7779 69.4334C70.5213 69.0419 70.1514 68.7398 69.7187 68.5682C69.2859 68.3966 68.8113 68.3638 68.3595 68.4744C67.9145 68.6102 67.5347 68.9068 67.2927 69.3076C67.0506 69.7083 66.9633 70.1851 67.0474 70.6468C67.2686 71.5779 68.1751 72.121 69.0018 72.5741C67.3608 75.4014 65.2128 77.8903 63.0802 80.3607C62.6751 80.8746 62.205 81.3326 61.682 81.7231C58.9748 83.5604 54.1165 82.8435 52.7244 79.6345C52.202 78.4335 52.1098 76.8569 52.9795 75.7924C53.3052 75.3889 53.8215 74.9731 53.6678 74.4765C53.593 74.3035 53.489 74.145 53.3605 74.0079C53.1311 73.7246 52.9711 73.3906 52.8936 73.033C52.8162 72.6755 52.8234 72.3045 52.9148 71.9503C53.0061 71.5961 53.179 71.2687 53.4193 70.9947C53.6596 70.7208 53.9606 70.508 54.2978 70.3737C54.8939 70.1348 55.6499 70.1006 55.9971 69.5575C56.1332 69.252 56.2362 68.9326 56.3044 68.6048C56.6117 67.742 57.5889 67.3634 58.4554 67.0313C61.1962 66.02 63.8744 64.8438 66.4758 63.5089" fill="black"/>
<path d="M76.8378 63.3219C75.0441 65.5497 72.9482 67.5107 70.612 69.1471L71.0607 69.2651C70.105 67.8809 68.0215 67.583 67.029 69.1006C66.8127 69.4247 66.6909 69.8037 66.6773 70.1943C66.6637 70.5849 66.759 70.9716 66.9522 71.3103C67.3639 72.0334 68.126 72.4803 68.8297 72.862L68.7037 72.3872C67.7723 73.9473 66.7266 75.4349 65.5755 76.8375C65.0101 77.5389 64.4293 78.2248 63.8454 78.9076C63.2616 79.5903 62.733 80.2545 62.1184 80.8659C60.4222 82.5417 57.5582 82.7279 55.4594 81.7659C54.4264 81.3287 53.5864 80.5267 53.0963 79.5096C52.7869 78.8375 52.6657 78.0926 52.746 77.3558C52.7846 77.007 52.8889 76.6689 53.0533 76.3596C53.2737 76.0413 53.5128 75.7366 53.7693 75.4472C53.9748 75.2011 54.0841 74.8876 54.0766 74.5658C54.0489 74.1561 53.7477 73.9141 53.5419 73.5944C53.3329 73.2701 53.2242 72.8904 53.2297 72.5035C53.2352 72.1166 53.3545 71.7401 53.5726 71.422C54.0274 70.7765 54.6942 70.6989 55.3764 70.4475C55.6611 70.3567 55.9217 70.2017 56.1385 69.9944C56.3831 69.6945 56.5453 69.3349 56.6087 68.9516C56.8238 68.1664 57.5305 67.8064 58.2435 67.5333C59.1653 67.1764 60.0872 66.8413 61.0091 66.4657C62.9328 65.6775 64.8226 64.8085 66.6787 63.8588C67.1427 63.6199 66.734 62.9278 66.27 63.1512C64.4784 64.0823 62.6531 64.914 60.794 65.6775C59.9182 66.0375 59.0301 66.3695 58.1451 66.7078C57.4662 66.9151 56.8472 67.2857 56.3413 67.7878C56.1081 68.0609 55.9409 68.3849 55.8527 68.7344C55.7298 69.1875 55.6407 69.4916 55.1797 69.6654C54.4853 69.9323 53.8123 70.0254 53.2561 70.5778C52.983 70.8478 52.77 71.1734 52.6311 71.533C52.4923 71.8926 52.4309 72.278 52.451 72.6634C52.4752 73.0573 52.5799 73.4419 52.7583 73.793C52.9119 74.1034 53.4067 74.4665 53.2592 74.8172C53.1117 75.1679 52.7798 75.3944 52.577 75.6768C52.3363 76.017 52.1621 76.4004 52.0638 76.8065C51.8939 77.5582 51.9172 78.3413 52.1314 79.0814C52.4826 80.3177 53.2811 81.3756 54.3685 82.0452C55.4407 82.6963 56.6606 83.0582 57.9111 83.0963C59.1617 83.1343 60.4009 82.8472 61.51 82.2624C62.2507 81.795 62.9048 81.2006 63.4429 80.5058C64.1527 79.6772 64.8595 78.8517 65.5509 78.0076C66.943 76.3546 68.1999 74.5901 69.3091 72.7317C69.3534 72.6518 69.3653 72.5578 69.3424 72.4692C69.3195 72.3807 69.2635 72.3045 69.1862 72.2568C68.2489 71.7479 66.8784 70.8882 67.5114 69.6158C68.1445 68.3433 69.7762 68.5482 70.5014 69.5878C70.5462 69.6635 70.6185 69.7185 70.7029 69.7411C70.7873 69.7637 70.8771 69.7521 70.9531 69.7089C73.3594 68.0339 75.4754 65.9692 77.2158 63.5981C77.3725 63.3809 77.016 63.1016 76.847 63.3095L76.8378 63.3219Z" fill="black"/>
<path d="M77.3141 65.1629C77.4991 66.8262 78.001 68.4375 78.7922 69.9081C79.1824 70.6188 79.7355 71.2426 80.1012 71.9626C80.2364 72.2357 80.4085 72.6268 80.1596 72.8937C79.9863 73.0108 79.8045 73.1146 79.6157 73.204C79.4848 73.2974 79.3679 73.4092 79.2685 73.5361C78.4295 74.6006 78.8475 76.2547 78.7922 77.5023C78.7307 78.9424 78.3712 80.5127 77.1696 81.4251C75.7899 82.4741 73.9369 82.3344 72.3175 82.1638C72.0102 82.1327 71.9426 82.6448 72.2437 82.7224C73.7402 83.1165 75.4396 83.1476 76.8531 82.4834C78.2667 81.8193 79.1056 80.4072 79.3852 78.8803C79.5152 78.1149 79.5688 77.3382 79.545 76.562C79.5297 75.8606 79.4129 75.1065 79.6311 74.4268C79.6837 74.2635 79.7693 74.1129 79.8825 73.9847C79.9957 73.8565 80.134 73.7534 80.2887 73.682C80.4665 73.603 80.6238 73.4835 80.748 73.3327C80.8723 73.1819 80.9601 73.004 81.0047 72.813C81.1522 72.0526 80.6175 71.3451 80.2088 70.7647C79.0216 69.0659 78.1979 67.1359 77.7904 65.0978C77.7351 64.8278 77.271 64.8836 77.3079 65.1629H77.3141Z" fill="black"/>
<path d="M76.8903 68.9775L76.7857 69.0334C76.7335 69.0653 76.6842 69.1017 76.6381 69.1421C76.559 69.2077 76.4941 69.2891 76.4475 69.3812C76.4207 69.4345 76.4 69.4908 76.386 69.5489C76.3747 69.5935 76.3695 69.6395 76.3706 69.6855C76.3725 69.7314 76.3777 69.7771 76.386 69.8222C76.4121 69.9426 76.4757 70.0514 76.5674 70.1327L76.6443 70.1886C76.6843 70.2164 76.7311 70.2325 76.7796 70.2352C76.8604 70.2448 76.9421 70.2285 77.0132 70.1886C77.0397 70.1739 77.0645 70.1561 77.087 70.1358C77.1133 70.1196 77.1371 70.0997 77.1578 70.0768C77.2179 70.008 77.2639 69.9278 77.293 69.8408C77.3139 69.781 77.3243 69.7179 77.3238 69.6545C77.3298 69.6081 77.3298 69.5611 77.3238 69.5148C77.3255 69.4982 77.3255 69.4816 77.3238 69.4651C77.3059 69.3997 77.272 69.3399 77.2254 69.2912L77.1455 69.2322C77.0945 69.201 77.0367 69.183 76.9771 69.1797C76.9176 69.1765 76.8582 69.1881 76.8042 69.2135C76.7581 69.2316 76.7163 69.2592 76.6814 69.2945C76.6465 69.3298 76.6192 69.372 76.6012 69.4185C76.5785 69.4736 76.5683 69.5333 76.5715 69.593C76.5747 69.6526 76.5912 69.7108 76.6197 69.7632L76.5797 69.67C76.5877 69.6899 76.5929 69.7108 76.5951 69.7321V69.6296C76.5965 69.6503 76.5965 69.6711 76.5951 69.6918L76.6105 69.5893C76.6072 69.6094 76.602 69.6291 76.5951 69.6483L76.632 69.5582C76.6237 69.5779 76.6134 69.5966 76.6012 69.6141L76.6597 69.5365C76.6477 69.5532 76.6332 69.5679 76.6166 69.58L76.6904 69.5241H77.0594H77.044L77.1209 69.58C77.1036 69.5687 77.0889 69.5539 77.0778 69.5365L77.1332 69.611C77.1212 69.5945 77.1109 69.5768 77.1024 69.5582L77.1393 69.6452C77.1244 69.6062 77.1141 69.5655 77.1086 69.5241V69.6172C77.1055 69.5842 77.1055 69.5509 77.1086 69.5179V69.6079C77.1155 69.5708 77.1258 69.5344 77.1393 69.4992L77.1086 69.5769C77.1554 69.4791 77.212 69.3865 77.2777 69.3005L77.3023 69.2415C77.3113 69.209 77.3113 69.1746 77.3023 69.1421C77.2972 69.1009 77.282 69.0616 77.2582 69.0278C77.2344 68.9939 77.2026 68.9665 77.1658 68.9481C77.1289 68.9296 77.0882 68.9207 77.047 68.922C77.0059 68.9234 76.9658 68.935 76.9302 68.9558L76.8903 68.9775Z" fill="black"/>
<path d="M69.0511 70.0744C69.088 70.0744 69.0511 70.0744 69.0326 70.0744H69.0726H69.0542H69.0849C69.0388 70.0495 69.1126 70.0744 69.0849 70.0744L69.1126 70.0899C69.1203 70.0998 69.1296 70.1082 69.1402 70.1147L69.1618 70.1396C69.131 70.0899 69.1833 70.1582 69.1618 70.1396L69.1987 70.1986C69.1969 70.2089 69.1969 70.2194 69.1987 70.2296C69.1864 70.1986 69.1864 70.1924 69.1987 70.211C69.2003 70.216 69.2003 70.2215 69.1987 70.2265C69.2082 70.2509 69.2165 70.2758 69.2233 70.3011C69.2233 70.3507 69.2448 70.3973 69.254 70.447C69.2632 70.4967 69.254 70.4718 69.254 70.4812C69.254 70.4159 69.254 70.4905 69.254 70.4812C69.2555 70.5049 69.2555 70.5288 69.254 70.5526V70.6333C69.254 70.6333 69.254 70.6551 69.254 70.6675C69.254 70.6085 69.254 70.6799 69.254 70.6675C69.2554 70.6892 69.2554 70.711 69.254 70.7327C69.254 70.7327 69.2325 70.7886 69.254 70.7513C69.2755 70.7141 69.254 70.7513 69.254 70.7668L69.6168 70.6706C69.6506 70.6985 69.6629 70.7078 69.6476 70.6923C69.6322 70.6768 69.6476 70.6923 69.6691 70.7234C69.6691 70.7762 69.6691 70.7886 69.6691 70.7668V70.7482C69.6691 70.7482 69.6506 70.8289 69.6691 70.7793C69.6875 70.7296 69.6691 70.8041 69.6691 70.8041L69.6445 70.8383C69.6752 70.8041 69.5861 70.8755 69.626 70.8383C69.6897 70.8008 69.7359 70.7393 69.7547 70.6674C69.7734 70.5955 69.7631 70.519 69.726 70.4548C69.7076 70.423 69.6832 70.3951 69.6542 70.3728C69.6252 70.3505 69.5921 70.3342 69.5568 70.3249C69.4856 70.3059 69.4099 70.3164 69.3463 70.3538C69.282 70.3973 69.2293 70.456 69.1925 70.5246C69.1572 70.595 69.1383 70.6725 69.1372 70.7513C69.1391 70.8285 69.1594 70.904 69.1964 70.9715C69.2333 71.0391 69.2857 71.0967 69.3493 71.1395C69.4102 71.1747 69.4824 71.1843 69.5502 71.1663C69.6181 71.1483 69.6763 71.1041 69.7121 71.0432C69.7814 70.8951 69.8121 70.7316 69.8013 70.5681C69.7924 70.4212 69.7645 70.2761 69.7183 70.1365C69.6612 69.9696 69.5537 69.8252 69.4108 69.7235C69.3444 69.6743 69.2681 69.6407 69.1872 69.6251C69.1064 69.6096 69.0231 69.6124 68.9435 69.6334C68.8863 69.6544 68.8389 69.6963 68.8108 69.7508C68.7828 69.8054 68.776 69.8686 68.7918 69.9279C68.8077 69.9872 68.845 70.0384 68.8964 70.0713C68.9479 70.1042 69.0096 70.1163 69.0695 70.1054L69.0511 70.0744Z" fill="black"/>
<path d="M75.2767 66.8574H75.3074L75.1415 66.786C75.289 66.9412 75.5256 66.8698 75.7069 66.8419L76.131 66.7767C76.4383 66.7333 76.7179 66.7023 77.0068 66.6371C77.09 66.6132 77.1606 66.5571 77.2032 66.481C77.2457 66.4049 77.2569 66.3149 77.2342 66.2305C77.2091 66.1472 77.1535 66.0767 77.0786 66.0334C77.0038 65.9901 76.9154 65.9774 76.8316 65.9978C76.5489 66.0412 76.2662 66.1157 75.9835 66.1809L75.5686 66.2709C75.4119 66.305 75.1784 66.3298 75.1046 66.4974L75.246 66.3888H75.2152C75.1617 66.4046 75.1155 66.4393 75.085 66.4866C75.0546 66.5338 75.0419 66.5905 75.0493 66.6464C75.0567 66.7021 75.0838 66.7532 75.1256 66.7902C75.1674 66.8273 75.2211 66.8479 75.2767 66.8481V66.8574Z" fill="black"/>
<path d="M74.2995 74.6956C74.2052 75.053 74.2067 75.4294 74.3039 75.7861C74.4011 76.1427 74.5905 76.4669 74.8526 76.7252C74.9067 76.7705 74.9755 76.7939 75.0457 76.7907C75.1159 76.7876 75.1824 76.7582 75.2323 76.7082C75.2822 76.6582 75.3118 76.5913 75.3155 76.5204C75.3192 76.4495 75.2966 76.3798 75.2521 76.3249C75.1968 76.2731 75.1445 76.2182 75.0954 76.1604L75.077 76.1356L75.0585 76.1107L74.994 76.0114C74.954 75.9463 74.9202 75.878 74.8864 75.8097C74.8806 75.7936 74.8734 75.778 74.8649 75.7632C74.8465 75.7197 74.8803 75.7973 74.8649 75.7632L74.825 75.6514C74.8035 75.5832 74.7881 75.5118 74.7727 75.4435V75.3783C74.7727 75.3318 74.7727 75.4125 74.7727 75.3783V75.2728C74.7681 75.1974 74.7681 75.1217 74.7727 75.0463C74.7727 75.0276 74.7727 75.009 74.7727 74.9904V74.9656C74.7727 74.9283 74.7881 74.888 74.7942 74.8476C74.8083 74.7846 74.7978 74.7185 74.7649 74.6631C74.732 74.6077 74.6792 74.5672 74.6176 74.5501C74.5559 74.5329 74.49 74.5404 74.4337 74.5709C74.3773 74.6015 74.3348 74.6528 74.3149 74.7142L74.2995 74.6956Z" fill="black"/>
<path d="M77.9532 63.8903C78.07 64.2007 77.6767 64.4148 77.3724 64.4893C68.295 66.7269 61.6267 68.1917 52.3741 69.5169C51.9685 69.5728 51.403 69.5169 51.3631 69.101C51.365 69.0015 51.3892 68.9037 51.4339 68.815C51.4786 68.7263 51.5426 68.649 51.6212 68.589C52.2051 68.0335 53.0348 67.8535 53.8184 67.6797C56.3228 67.121 56.3075 66.8945 58.7166 66.0069C59.0319 65.9067 59.3295 65.7569 59.5986 65.5631C60.2808 65.0169 60.3576 62.0282 60.5727 61.1748C61.218 58.633 62.7729 57.5189 65.0899 56.3303C66.8784 55.3992 68.9126 54.822 70.9285 54.9337C72.8982 55.0423 74.3794 56.0634 75.8974 57.2427C76.7687 57.9785 77.3588 58.998 77.566 60.1258C77.7679 61.2442 77.8411 62.3825 77.7842 63.5179C77.8037 63.7444 77.7521 63.9713 77.6367 64.1665" fill="white"/>
<path d="M63.1294 67.7075C63.0601 67.5814 62.9842 67.4592 62.902 67.3413C62.1589 66.2831 61.1354 65.4581 59.9489 64.9609C59.8871 65.1949 59.7664 65.4087 59.5986 65.5816C59.3291 65.7733 59.0315 65.921 58.7166 66.0192C56.3075 66.9068 56.3228 67.1334 53.8184 67.692C53.0348 67.8658 52.2051 68.0458 51.6212 68.6013C51.5426 68.6614 51.4786 68.7387 51.4339 68.8274C51.3892 68.9161 51.365 69.0139 51.3631 69.1134C51.403 69.5261 51.9777 69.5851 52.3741 69.5293C56.2952 68.9551 59.7522 68.3561 63.1294 67.7075Z" fill="#18C4FF"/>
<path d="M77.732 63.9513C77.7781 64.2306 76.3369 64.4137 76.1279 64.4603C75.4918 64.603 74.8588 64.7706 74.2227 64.9103C73.0345 65.1916 71.8432 65.4699 70.6489 65.7451C68.379 66.2623 66.103 66.7486 63.8208 67.2037C61.5387 67.6589 59.2381 68.0727 56.919 68.4451C55.6673 68.652 54.4166 68.8465 53.167 69.0286C52.8597 69.072 52.5524 69.1372 52.2451 69.1589C52.1522 69.1697 52.0584 69.1697 51.9654 69.1589C51.8272 69.1372 51.735 69.1341 51.7596 68.9975C51.7995 68.7896 52.1744 68.6065 52.3403 68.5165C52.5987 68.3835 52.8708 68.2794 53.1516 68.2062C54.0735 67.9455 55.0507 67.7872 55.9725 67.4675C56.7039 67.2161 57.4076 66.8903 58.1236 66.611C58.8918 66.3006 59.8414 66.1268 60.2009 65.292C60.4605 64.5804 60.6198 63.8355 60.6741 63.0792C60.7255 62.3988 60.8282 61.7234 60.9814 61.0589C61.2123 60.2029 61.6397 59.4139 62.229 58.7561C62.8443 58.1179 63.5545 57.5807 64.334 57.164C65.3304 56.5802 66.3878 56.1097 67.4868 55.7612C68.6624 55.3844 69.8978 55.2349 71.1283 55.3205C72.2287 55.4477 73.2827 55.8405 74.2012 56.4657C75.1231 57.0492 76.0911 57.6916 76.6411 58.6599C77.2557 59.7275 77.4032 60.9689 77.4339 62.1792V63.0699C77.4765 63.3766 77.4427 63.6891 77.3356 63.9792C77.3046 64.0599 77.3029 64.1492 77.3309 64.231C77.3588 64.3129 77.4146 64.3821 77.4883 64.4263C77.5619 64.4706 77.6488 64.4871 77.7333 64.4729C77.8179 64.4586 77.8947 64.4146 77.9502 64.3485C78.2575 63.8427 78.1592 63.1071 78.1561 62.5516C78.1603 61.8514 78.1089 61.1519 78.0024 60.4599C77.845 59.2756 77.3262 58.1703 76.5182 57.2974C76.0856 56.892 75.6188 56.5255 75.1231 56.2019C74.6442 55.8502 74.1375 55.5388 73.6081 55.2709C72.5177 54.7447 71.3152 54.4994 70.1081 54.5571C67.6497 54.6471 65.2436 55.6402 63.2093 56.9902C61.6728 58.0112 60.4683 59.5226 60.1702 61.4002C60.035 62.2258 59.9858 63.0668 59.8414 63.883C59.79 64.2588 59.6962 64.6274 59.5617 64.9816C59.3804 65.4006 58.9472 65.5216 58.5569 65.6737C57.6842 65.9841 56.836 66.3844 55.9633 66.7041C54.9831 67.061 53.9598 67.2286 52.958 67.5079C52.2697 67.6972 50.3644 68.5103 51.1757 69.5282C51.4553 69.8758 51.9685 69.9162 52.3772 69.8665C53.0686 69.7889 53.76 69.6679 54.4484 69.5562C57.0665 69.161 59.6775 68.7162 62.2813 68.2217C64.7704 67.7417 67.2502 67.2172 69.7209 66.6482C71.0074 66.3544 72.2939 66.0513 73.5805 65.7389L75.5933 65.2516C76.266 65.115 76.9283 64.9304 77.5753 64.6992C77.944 64.5472 78.3067 64.2523 78.1899 63.8085C78.1736 63.7489 78.1345 63.6982 78.0812 63.6676C78.0279 63.6371 77.9647 63.6291 77.9056 63.6456C77.8465 63.6621 77.7964 63.7016 77.7661 63.7554C77.7358 63.8092 77.728 63.873 77.7443 63.9327L77.732 63.9513Z" fill="black"/>
<path d="M60.8892 83.9941C59.8055 84.4084 58.7666 84.9336 57.7886 85.5614C57.6091 85.6564 57.4608 85.8019 57.3615 85.9804C57.2263 86.2907 57.3984 86.6383 57.5674 86.9114C58.4127 88.3452 59.351 89.7209 60.3761 91.0297C61.1013 91.9608 61.9494 92.8918 63.0895 93.1463C63.2539 93.1917 63.4266 93.197 63.5934 93.1618C63.7743 93.1006 63.9406 93.0024 64.082 92.8732L66.5803 90.8745C66.6145 90.8338 66.6585 90.8026 66.7081 90.784C66.7577 90.7655 66.8112 90.7601 66.8634 90.7685C66.9156 90.777 66.9648 90.7989 67.0062 90.8321C67.0476 90.8654 67.0798 90.9088 67.0996 90.9583C67.4868 91.5604 67.8494 92.1842 68.1813 92.8204C68.3104 93.0625 68.4579 93.3325 68.7191 93.407C69.1923 93.5435 69.5488 92.9787 69.7209 92.5132L70.3354 90.8807C70.3662 90.8 70.4061 90.7101 70.486 90.6852C70.5659 90.6604 70.6735 90.7349 70.7441 90.8032C71.2991 91.3352 71.9186 91.794 72.5879 92.1687C72.8645 92.3239 73.2578 92.4418 73.4545 92.1935C73.5208 92.0926 73.56 91.976 73.5682 91.8552C73.7777 90.6573 73.7401 89.4285 73.4575 88.2459C73.1678 87.056 72.4602 86.0128 71.4663 85.31C70.7899 87.0228 69.9577 88.6684 68.9803 90.2259L63.618 86.4676C63.0526 86.0673 62.4841 85.67 61.9463 85.2262C61.5714 84.9448 61.2191 84.649 60.8892 84.3386" fill="black"/>
<path d="M60.8124 83.7578C60.173 83.9698 59.5487 84.2259 58.9441 84.5244C58.3909 84.8037 57.6934 85.0985 57.2478 85.5454C56.8022 85.9923 56.9405 86.5665 57.2201 87.0537C57.5612 87.6744 57.9546 88.2734 58.3448 88.863C59.0612 89.9884 59.8615 91.057 60.7386 92.0596C61.4178 92.8013 62.69 93.8969 63.787 93.5027C64.0302 93.3927 64.2544 93.2439 64.4508 93.062L65.4034 92.3017L66.2392 91.6375C66.3775 91.5258 66.5158 91.4141 66.6571 91.3055C66.7247 91.2496 66.8937 91.2093 66.8046 91.1627C66.7155 91.1162 66.9183 91.4203 66.9122 91.411C67.2686 91.9851 67.5759 92.5872 67.914 93.1707C68.169 93.6113 68.5931 93.9496 69.1185 93.7913C69.644 93.6331 69.8837 93.1272 70.0619 92.6834C70.1849 92.3731 70.2955 92.0627 70.4092 91.7524C70.4706 91.5941 70.529 91.442 70.5874 91.2775C70.6273 91.1936 70.6602 91.1064 70.6857 91.0168L70.4522 91.1006L70.5505 91.1937C70.7678 91.4355 71.0182 91.6445 71.2942 91.8144C71.561 92.0203 71.839 92.2109 72.127 92.3855C72.5357 92.6338 73.0949 92.9193 73.5528 92.612C73.6684 92.518 73.7622 92.3995 73.8275 92.2649C73.8928 92.1303 73.928 91.9829 73.9308 91.8331C73.9886 91.437 74.0265 91.0382 74.0445 90.6382C74.0868 89.8513 74.0174 89.0622 73.8386 88.2951C73.5373 86.9555 72.7557 85.7759 71.6445 84.9837C71.5918 84.9536 71.533 84.936 71.4726 84.9321C71.4122 84.9281 71.3516 84.938 71.2955 84.961C71.2394 84.984 71.1891 85.0194 71.1485 85.0647C71.1078 85.11 71.0778 85.164 71.0606 85.2227C70.3861 86.8995 69.5633 88.5115 68.6023 90.0392L69.1493 89.8934L65.0346 87.0071C63.7102 86.0761 62.3489 85.1854 61.1811 84.0526C60.8032 83.6864 60.2285 84.2668 60.6065 84.633C61.7896 85.7782 63.1632 86.6813 64.503 87.6216L68.7436 90.5917C68.8361 90.6442 68.9453 90.6584 69.0479 90.6312C69.1506 90.604 69.2387 90.5375 69.2937 90.4458C70.2814 88.8563 71.1248 87.1798 71.8135 85.4368L71.2297 85.6758C72.0703 86.2732 72.6856 87.1407 72.9751 88.1368C73.1628 88.7401 73.2662 89.3668 73.2824 89.9989C73.2824 90.2906 73.2762 90.5823 73.2639 90.8741C73.2742 91.2002 73.239 91.5261 73.1595 91.8424C73.1072 91.9758 73.1379 91.9727 72.9904 91.9541C72.8884 91.9292 72.7917 91.8861 72.7047 91.8268C72.2067 91.5445 71.7391 91.2106 71.3096 90.8306C71.1428 90.6407 70.9441 90.482 70.7226 90.362C70.1664 90.1603 69.982 90.7468 69.8315 91.1472C69.6723 91.6907 69.4667 92.2193 69.2169 92.7268C69.1431 92.8541 69.0018 93.0993 68.8235 93.0651C68.6453 93.031 68.4917 92.612 68.4148 92.4662C68.1291 91.9386 67.831 91.4203 67.493 90.9144C67.2133 90.483 66.8507 90.241 66.3806 90.5761C65.9104 90.9113 65.4157 91.3489 64.9394 91.7337L64.2264 92.3048C64.0161 92.5278 63.7645 92.707 63.4859 92.8324C63.0218 92.9472 62.3888 92.522 62.0354 92.2737C61.1443 91.6158 60.4682 90.6289 59.8198 89.7382C59.4296 89.2013 59.0516 88.652 58.689 88.0965C58.5077 87.8172 58.3295 87.5347 58.1574 87.2523C57.9539 86.989 57.7912 86.696 57.6749 86.3833C57.5797 85.983 58.0744 85.7627 58.3571 85.6013C58.6398 85.4399 58.9164 85.2661 59.1991 85.1109C59.7891 84.8006 60.3883 84.4902 61.0029 84.2233C61.258 84.1147 61.0767 83.6802 60.8155 83.7702L60.8124 83.7578Z" fill="black"/>
<path d="M54.8939 86.8008C46.3872 90.4107 38.7089 95.7534 32.3386 102.495C31.8868 102.973 31.4167 103.516 31.3644 104.177C31.3654 104.674 31.4946 105.162 31.7393 105.592C33.4961 109.367 35.8408 112.833 38.6842 115.859C39.6522 116.886 40.8076 117.922 42.2119 117.978C43.3981 118.028 44.4859 117.358 45.4784 116.703C49.7242 113.899 53.82 110.87 57.7487 107.628C58.2169 107.299 58.5995 106.86 58.8642 106.35C59.0854 105.822 58.9932 105.108 58.5077 104.813" fill="#18C4FF"/>
<path d="M54.8171 86.5263C50.5023 88.2774 46.3949 90.5102 42.5715 93.1832C38.7441 95.8262 35.2021 98.8677 32.0036 102.258C31.2108 103.105 30.6946 104.033 31.1248 105.209C31.5751 106.333 32.1146 107.419 32.7381 108.455C33.9073 110.533 35.2597 112.499 36.779 114.33C37.5196 115.264 38.3279 116.14 39.1974 116.953C39.9994 117.673 40.9305 118.272 42.0183 118.38C43.2014 118.498 44.3138 117.93 45.2818 117.316C46.3635 116.63 47.4175 115.898 48.4684 115.168C50.6154 113.676 52.7234 112.125 54.7925 110.513C55.8035 109.725 56.8084 108.924 57.7979 108.111C58.5753 107.472 59.4726 106.724 59.362 105.6C59.3449 105.373 59.2761 105.154 59.1609 104.958C59.0458 104.763 58.8874 104.597 58.6982 104.474C58.2711 104.185 57.8901 104.868 58.2988 105.163C58.6368 105.405 58.6061 105.92 58.4524 106.258C58.225 106.752 57.7456 107.102 57.3369 107.437C56.3946 108.215 55.4409 108.981 54.476 109.734C52.5749 111.222 50.6359 112.658 48.659 114.042C47.6613 114.743 46.6523 115.433 45.6321 116.112C44.7502 116.698 43.816 117.384 42.7436 117.545C41.6711 117.707 40.6662 117.158 39.8642 116.459C39.0553 115.717 38.3024 114.915 37.6117 114.06C36.179 112.366 34.8948 110.548 33.7737 108.629C33.2041 107.655 32.6776 106.657 32.1942 105.637C31.9637 105.15 31.6656 104.604 31.7824 104.048C31.8869 103.546 32.2771 103.142 32.6121 102.785C35.5876 99.6096 38.8682 96.7403 42.4055 94.2198C46.3749 91.411 50.6107 89.0075 55.0507 87.0446C55.3364 86.9142 55.1306 86.4052 54.8325 86.5263H54.8171Z" fill="#18C4FF"/>
<path d="M47.0241 168.143C47.0161 168.476 47.0639 168.809 47.1655 169.127C47.253 169.449 47.3735 169.761 47.525 170.058C47.8156 170.661 48.2355 171.191 48.7542 171.609C49.0123 171.808 49.2981 171.392 49.0891 171.169C48.6712 170.751 48.3142 170.276 48.029 169.757C47.9064 169.501 47.8037 169.237 47.7217 168.965C47.6264 168.655 47.5926 168.344 47.5035 168.068C47.4862 168.015 47.4512 167.97 47.4044 167.941C47.3577 167.911 47.3022 167.899 47.2476 167.906C47.1929 167.914 47.1425 167.94 47.1051 167.981C47.0677 168.022 47.0455 168.075 47.0426 168.13L47.0241 168.143Z" fill="black"/>
<path d="M49.9926 167.377C50.1177 168.122 50.3238 168.85 50.6072 169.55C50.8407 170.114 51.1081 170.865 51.738 171.08C51.803 171.095 51.8715 171.087 51.9312 171.057C51.9909 171.027 52.0381 170.976 52.0642 170.914C52.0904 170.851 52.0939 170.782 52.0741 170.717C52.0543 170.653 52.0125 170.598 51.9562 170.561C51.4645 170.285 51.2586 169.692 51.0558 169.193C50.8052 168.566 50.5998 167.922 50.4412 167.265C50.3675 166.971 49.9403 167.098 49.9956 167.389L49.9926 167.377Z" fill="black"/>
<path d="M52.7736 166.866C52.9056 167.072 53.0158 167.292 53.1024 167.521L53.4281 168.204C53.6555 168.672 53.8768 169.135 54.1165 169.61C54.158 169.679 54.2246 169.729 54.302 169.749C54.3795 169.769 54.4618 169.758 54.5313 169.718C54.5989 169.676 54.6479 169.61 54.6679 169.532C54.688 169.455 54.6775 169.372 54.6389 169.302C54.4022 168.818 54.1472 168.34 53.8983 167.862L53.5142 167.146C53.4082 166.916 53.2648 166.706 53.0901 166.525C52.8689 166.314 52.58 166.627 52.7644 166.857L52.7736 166.866Z" fill="black"/>
<path d="M43.1123 118.253C44.7778 117.322 46.3911 116.292 47.9921 115.249C49.5931 114.206 51.2064 113.232 52.6476 112.028C52.9057 111.81 52.5739 111.407 52.2942 111.562C50.6809 112.527 49.1752 113.7 47.6142 114.743C46.0531 115.786 44.449 116.804 42.8788 117.847C42.8258 117.878 42.7873 117.929 42.7717 117.989C42.7562 118.049 42.7648 118.113 42.7958 118.166C42.8268 118.22 42.8775 118.259 42.9369 118.274C42.9962 118.29 43.0593 118.281 43.1123 118.25V118.253Z" fill="black"/>
<path d="M83.1926 103.115C84.2343 105.458 84.2128 108.106 83.8317 110.598C83.6382 111.87 83.3554 113.127 83.0758 114.381C82.7685 115.712 82.3936 117.053 82.2185 118.415C82.1724 118.782 82.7316 118.822 82.833 118.499C83.2694 117.137 83.4906 115.675 83.7979 114.278C84.0868 112.96 84.3726 111.641 84.5477 110.303C84.8796 107.792 84.7536 105.176 83.5982 102.886C83.4599 102.609 83.0697 102.852 83.1926 103.125V103.115Z" fill="black"/>
<path d="M83.2448 120.495C87.3472 123.455 92.2239 125.513 97.2789 125.898C101.845 126.245 106.381 125.029 110.363 122.794C114.322 120.532 117.753 117.438 120.427 113.723C123.586 109.403 125.7 104.412 128.647 99.9682C129.351 98.9037 130.092 97.8703 131.186 97.1751C132.28 96.4799 133.352 96.0454 134.277 95.1858C134.741 94.741 135.179 94.2695 135.589 93.7737C135.989 93.3479 136.338 92.876 136.628 92.3678C137.08 91.4678 136.935 90.3102 135.918 89.9006C135.731 89.8223 135.526 89.798 135.325 89.8303C135.125 89.8626 134.938 89.9503 134.784 90.0837C134.437 90.3568 134.922 90.8409 135.267 90.5709C135.611 90.3009 136.099 90.7944 136.188 91.1109C136.348 91.6695 135.924 92.2778 135.601 92.6875C134.893 93.6694 134.052 94.5468 133.103 95.2944C132.16 95.9709 131.047 96.3651 130.144 97.1037C129.241 97.8423 128.583 98.8386 127.95 99.8068C125.184 104.037 123.132 108.705 120.197 112.841C117.688 116.392 114.49 119.388 110.797 121.649C107.14 123.859 102.964 125.206 98.6802 125.184C93.8587 125.162 89.1817 123.437 85.064 120.985C84.5477 120.675 84.0315 120.364 83.5275 120.054C83.2202 119.865 82.9836 120.321 83.2571 120.519L83.2448 120.495Z" fill="black"/>
<path d="M92.3007 103.816C93.6735 105.304 95.2085 106.631 96.8763 107.77C97.6569 108.298 98.5603 109.011 99.5467 109.011C100.469 109.011 101.39 108.416 102.186 108.009C105.587 106.231 108.813 104.131 111.82 101.737C117.904 97.0134 123.436 91.5886 129.705 87.1041C131.502 85.8192 133.426 84.5406 135.635 84.1558C138.069 83.7337 140.451 84.702 142.669 85.5896C143.05 85.7416 143.207 85.1271 142.838 84.9689C140.902 84.1682 138.883 83.3644 136.757 83.3954C134.821 83.4233 133.005 84.2054 131.37 85.2016C129.716 86.2469 128.123 87.3867 126.598 88.6154C125.114 89.7699 123.663 90.9648 122.228 92.1782C116.389 97.1097 110.751 102.386 104.125 106.237C103.204 106.775 102.265 107.282 101.311 107.758C100.8 108.009 100.263 108.338 99.685 108.378C99.055 108.444 98.4804 108.068 97.9642 107.758C96.0197 106.549 94.2274 105.107 92.6265 103.462C92.4175 103.248 92.0979 103.574 92.3007 103.795V103.816Z" fill="black"/>
<path d="M137.252 86.8015C137.596 87.1659 137.89 87.575 138.127 88.018C138.239 88.2024 138.325 88.4006 138.386 88.6077C138.389 88.6386 138.389 88.6699 138.386 88.7008V88.7567V88.7815V88.8311V88.8529C138.386 88.8373 138.444 88.8249 138.386 88.8529C138.322 88.8724 138.269 88.9162 138.236 88.975C138.204 89.0338 138.196 89.1029 138.214 89.1676C138.232 89.2323 138.273 89.2875 138.331 89.3215C138.388 89.3554 138.456 89.3655 138.521 89.3494C138.645 89.3139 138.753 89.2373 138.828 89.132C138.903 89.0267 138.941 88.8988 138.936 88.7691C138.918 88.4944 138.835 88.2282 138.693 87.9932C138.401 87.4362 138.028 86.9267 137.587 86.4818C137.542 86.4444 137.485 86.4252 137.427 86.428C137.369 86.4308 137.314 86.4553 137.273 86.4968C137.232 86.5383 137.207 86.5938 137.205 86.6524C137.202 86.7111 137.221 86.7686 137.258 86.8139L137.252 86.8015Z" fill="black"/>
<path d="M137.959 91.5063C138.024 91.4991 138.085 91.4678 138.129 91.4181C138.173 91.3685 138.198 91.3042 138.198 91.2375C138.198 91.1708 138.173 91.1065 138.129 91.0569C138.085 91.0073 138.024 90.9759 137.959 90.9688C137.893 90.9759 137.832 91.0073 137.788 91.0569C137.744 91.1065 137.72 91.1708 137.72 91.2375C137.72 91.3042 137.744 91.3685 137.788 91.4181C137.832 91.4678 137.893 91.4991 137.959 91.5063Z" fill="black"/>
<path d="M149.78 70.7031H279.922V76.8728H149.78V70.7031Z" fill="#18C4FF"/>
<path d="M279.922 76.1818H155.062C153.388 76.1818 151.682 76.07 150.001 76.1818C149.928 76.1818 149.854 76.1818 149.78 76.1818L150.462 76.8738V70.7041L149.78 71.3931H274.637C276.311 71.3931 278.017 71.5079 279.701 71.3931H279.922L279.237 70.7041V76.8738C279.237 77.7614 280.604 77.7614 280.604 76.8738V70.7041C280.602 70.5222 280.529 70.3483 280.402 70.2196C280.274 70.0909 280.102 70.0176 279.922 70.0152H155.062C153.375 70.0152 151.682 69.981 150.001 70.0152H149.78C149.6 70.0176 149.428 70.0909 149.3 70.2196C149.173 70.3483 149.1 70.5222 149.098 70.7041V76.8738C149.1 77.0558 149.173 77.2297 149.3 77.3584C149.428 77.487 149.6 77.5604 149.78 77.5628H274.637C276.324 77.5628 278.017 77.5939 279.701 77.5628H279.922C280.801 77.5628 280.801 76.1818 279.922 76.1818Z" fill="#18C4FF"/>
<path d="M149.78 140.785H279.922V146.955H149.78V140.785Z" fill="#18C4FF"/>
<path d="M279.922 146.253H155.062C153.388 146.253 151.682 146.138 150.001 146.253H149.78L150.462 146.942V140.784L149.78 141.476H274.637C276.311 141.476 278.017 141.588 279.701 141.476H279.922L279.237 140.784V146.954C279.237 147.842 280.604 147.845 280.604 146.954V140.784C280.602 140.602 280.529 140.428 280.402 140.3C280.274 140.171 280.102 140.098 279.922 140.095H155.062C153.375 140.095 151.682 140.061 150.001 140.095H149.78C149.6 140.098 149.428 140.171 149.3 140.3C149.173 140.428 149.1 140.602 149.098 140.784V146.954C149.1 147.136 149.173 147.31 149.3 147.438C149.428 147.567 149.6 147.64 149.78 147.643H274.637C276.324 147.643 278.017 147.677 279.701 147.643H279.922C280.801 147.643 280.801 146.253 279.922 146.253Z" fill="#18C4FF"/>
<path d="M149.78 210.867H279.922V217.037H149.78V210.867Z" fill="#18C4FF"/>
<path d="M279.922 216.344H155.062C153.388 216.344 151.682 216.232 150.001 216.344C149.928 216.344 149.854 216.344 149.78 216.344L150.462 217.033V210.866L149.78 211.555H274.637C276.311 211.555 278.017 211.667 279.701 211.555H279.922L279.237 210.866V217.033C279.237 217.923 280.604 217.923 280.604 217.033V210.866C280.602 210.684 280.529 210.51 280.402 210.38C280.275 210.251 280.102 210.177 279.922 210.174H155.062C153.375 210.174 151.682 210.143 150.001 210.174H149.78C149.6 210.177 149.427 210.251 149.3 210.38C149.173 210.51 149.1 210.684 149.098 210.866V217.033C149.099 217.215 149.172 217.39 149.299 217.519C149.427 217.648 149.599 217.722 149.78 217.725H274.637C276.324 217.725 278.017 217.756 279.701 217.725H279.922C280.801 217.725 280.801 216.344 279.922 216.344Z" fill="#18C4FF"/>
<path d="M149.78 280.947H279.922V287.117H149.78V280.947Z" fill="#18C4FF"/>
<path d="M279.922 286.426H155.062C153.388 286.426 151.682 286.311 150.001 286.426H149.78L150.462 287.115V280.942L149.78 281.631H274.637C276.311 281.631 278.017 281.746 279.701 281.631H279.922L279.237 280.942V287.112C279.237 288 280.604 288 280.604 287.112V280.942C280.602 280.76 280.529 280.587 280.402 280.458C280.274 280.329 280.102 280.256 279.922 280.253H155.062C153.375 280.253 151.682 280.219 150.001 280.253H149.78C149.6 280.256 149.428 280.329 149.3 280.458C149.173 280.587 149.1 280.76 149.098 280.942V287.112C149.1 287.294 149.173 287.468 149.3 287.597C149.428 287.725 149.6 287.799 149.78 287.801H274.637C276.324 287.801 278.017 287.835 279.701 287.801H279.922C280.801 287.804 280.801 286.426 279.922 286.426Z" fill="#18C4FF"/>
<path d="M299.656 287.119H276.781V33.4726C276.781 32.7905 276.914 32.115 277.172 31.4847C277.43 30.8544 277.809 30.2816 278.286 29.7992C278.764 29.3167 279.33 28.934 279.954 28.6729C280.578 28.4117 281.247 28.2773 281.923 28.2773H294.522C295.885 28.279 297.191 28.8272 298.154 29.8014C299.117 30.7756 299.657 32.0961 299.656 33.4726V287.119Z" fill="black"/>
<path d="M299.656 286.429H276.781L277.464 287.118V34.4956C277.464 34.1852 277.464 33.8749 277.464 33.5645C277.534 30.9887 279.357 29.049 281.932 28.9466C284.104 28.8597 286.298 28.9466 288.474 28.9466C290.65 28.9466 292.963 28.6983 295.118 28.9931C297.45 29.3035 298.919 31.3176 298.974 33.6049V34.6042V287.118C298.974 288.006 300.338 288.006 300.338 287.118V34.1387C300.338 30.6597 298.187 27.6959 294.5 27.5872C292.281 27.5221 290.05 27.5872 287.829 27.5872C285.659 27.5872 283.379 27.3762 281.219 27.6338C277.795 28.0404 276.09 31.0476 276.09 34.2318V287.118C276.093 287.301 276.166 287.474 276.294 287.603C276.422 287.732 276.595 287.805 276.775 287.807H299.656C300.535 287.807 300.538 286.429 299.656 286.429Z" fill="black"/>
<path d="M285.522 43.9609L288.219 41.2376L290.915 43.9609L288.219 46.6843L285.522 43.9609Z" fill="white"/>
<path d="M285.52 65.2676L288.216 62.5442L290.913 65.2676L288.216 67.9909L285.52 65.2676Z" fill="white"/>
<path d="M285.523 86.5762L288.219 83.8528L290.916 86.5762L288.219 89.2995L285.523 86.5762Z" fill="white"/>
<path d="M285.521 107.883L288.217 105.159L290.914 107.883L288.217 110.606L285.521 107.883Z" fill="white"/>
<path d="M285.521 129.186L288.218 126.462L290.915 129.186L288.218 131.909L285.521 129.186Z" fill="white"/>
<path d="M285.521 150.494L288.218 147.771L290.915 150.494L288.218 153.217L285.521 150.494Z" fill="white"/>
<path d="M285.522 171.801L288.219 169.077L290.915 171.801L288.219 174.524L285.522 171.801Z" fill="white"/>
<path d="M285.522 193.109L288.219 190.386L290.915 193.109L288.219 195.833L285.522 193.109Z" fill="white"/>
<path d="M285.52 214.416L288.217 211.693L290.913 214.416L288.217 217.139L285.52 214.416Z" fill="white"/>
<path d="M285.521 235.723L288.218 232.999L290.914 235.723L288.218 238.446L285.521 235.723Z" fill="white"/>
<path d="M285.521 257.027L288.218 254.304L290.914 257.027L288.218 259.751L285.521 257.027Z" fill="white"/>
<path d="M71.1191 162.938C71.5907 167.186 71.5142 171.477 70.8917 175.706C70.8395 176.056 71.3681 176.205 71.4203 175.854C72.0546 171.577 72.1135 167.232 71.5954 162.938C71.5586 162.627 71.0853 162.627 71.1191 162.938Z" fill="#18C4FF"/>
<path d="M11.75 270.584C11.7098 270.623 11.6608 270.651 11.6073 270.667C11.5538 270.683 11.4973 270.685 11.4427 270.674C11.3685 270.653 11.2893 270.663 11.2225 270.702C11.1556 270.74 11.1066 270.804 11.0862 270.879C11.0659 270.953 11.0758 271.033 11.1138 271.101C11.1518 271.169 11.2149 271.218 11.289 271.239C13.6242 272.158 16.0535 272.811 18.532 273.188C19.0427 273.223 19.5479 273.316 20.0377 273.467C20.6953 273.737 20.4187 274.292 20.4249 274.857C20.4204 275.071 20.4757 275.282 20.5844 275.465C20.6931 275.648 20.8508 275.797 21.0395 275.894C21.4881 276.086 21.82 275.782 22.0935 275.459C22.4573 275.03 22.9318 274.71 23.4644 274.536C23.997 274.362 24.5669 274.34 25.1111 274.472C25.1984 274.489 25.2887 274.472 25.3641 274.425C25.4396 274.378 25.4946 274.303 25.5183 274.217C25.5419 274.13 25.5324 274.038 25.4917 273.958C25.451 273.879 25.382 273.817 25.2986 273.787C24.3725 273.556 23.3943 273.688 22.5606 274.156C22.1522 274.4 21.7901 274.715 21.4912 275.087C21.4328 275.155 21.3806 275.254 21.2853 275.223C21.19 275.192 21.1593 274.991 21.1501 274.913C21.1132 274.618 21.2331 274.314 21.2208 274.016C21.1808 272.995 20.1821 272.719 19.3494 272.607C18.0658 272.442 16.7918 272.208 15.5328 271.906C14.1518 271.569 12.7887 271.16 11.4488 270.683L11.372 271.257C11.4988 271.255 11.6237 271.226 11.739 271.173C11.8543 271.119 11.9574 271.042 12.0419 270.947C12.214 270.761 11.9866 270.425 11.7592 270.578L11.75 270.584Z" fill="#18C4FF"/>
<path d="M91.9967 276.32C95.1864 276.665 98.2409 275.535 101.215 274.564C101.801 274.318 102.425 274.18 103.059 274.154C103.303 274.148 103.542 274.221 103.741 274.362C103.926 274.583 104.072 274.835 104.172 275.107C104.408 275.513 104.888 275.787 105.287 275.399C105.628 275.067 105.545 274.542 105.951 274.235C106.817 273.583 108.04 273.614 108.667 272.624C108.901 272.246 108.317 271.907 108.077 272.277C107.58 273.04 106.461 273.099 105.736 273.546C105.366 273.763 105.087 274.108 104.949 274.517C104.921 274.607 104.918 274.775 104.86 274.843C104.802 274.911 104.805 274.89 104.734 274.775C104.617 274.532 104.485 274.297 104.341 274.07C103.646 273.211 102.34 273.555 101.455 273.844C99.9986 274.319 98.5574 274.843 97.0762 275.24C95.4226 275.728 93.6975 275.921 91.9782 275.811C91.6494 275.78 91.6709 276.286 91.9782 276.32H91.9967Z" fill="#18C4FF"/>
</svg>
