<svg width="49" height="70" viewBox="0 0 49 70" fill="none" xmlns="http://www.w3.org/2000/svg">
<g clip-path="url(#clip0_579_672)">
<path d="M24.701 7.18964L7.56037 24.3302L24.701 41.4708L41.8415 24.3302L24.701 7.18964ZM26.1292 2.90298L46.1282 22.902C46.5069 23.2808 46.7197 23.7946 46.7197 24.3302C46.7197 24.8659 46.5069 25.3796 46.1282 25.7584L26.1292 45.7575C25.7503 46.1362 25.2366 46.3489 24.701 46.3489C24.1653 46.3489 23.6516 46.1362 23.2727 45.7575L3.27371 25.7584C2.895 25.3796 2.68225 24.8659 2.68225 24.3302C2.68225 23.7946 2.895 23.2808 3.27371 22.902L23.2727 2.90298C23.6516 2.52427 24.1653 2.31152 24.701 2.31152C25.2366 2.31152 25.7503 2.52427 26.1292 2.90298ZM26.7211 20.29V15.2398L33.7914 22.3101L26.7211 29.3805V24.3302H20.6607V30.3905H16.6205V22.3101C16.6205 21.7744 16.8334 21.2605 17.2122 20.8817C17.5911 20.5029 18.1049 20.29 18.6406 20.29H26.7211Z" fill="#4285F4"/>
</g>
<path d="M4.80488 62.2305H2.34125V54.2471H4.91403C5.68846 54.2471 6.35114 54.4069 6.90208 54.7265C7.45302 55.0436 7.87531 55.4997 8.16897 56.0948C8.46263 56.6873 8.60946 57.3968 8.60946 58.2232C8.60946 59.0548 8.46134 59.7707 8.16508 60.3711C7.86882 60.9688 7.43742 61.4288 6.87089 61.751C6.30436 62.0706 5.61569 62.2305 4.80488 62.2305ZM3.30799 61.3729H4.74251C5.40259 61.3729 5.94963 61.2455 6.38363 60.9909C6.81762 60.7362 7.14116 60.3737 7.35426 59.9033C7.56736 59.4329 7.67391 58.8729 7.67391 58.2232C7.67391 57.5787 7.56866 57.0238 7.35816 56.5587C7.14766 56.0909 6.83321 55.7323 6.41481 55.4828C5.99641 55.2307 5.47536 55.1047 4.85166 55.1047H3.30799V61.3729ZM10.1064 62.2305V56.2429H11.0263V62.2305H10.1064ZM10.5741 55.245C10.3948 55.245 10.2402 55.1839 10.1102 55.0618C9.98291 54.9396 9.91924 54.7928 9.91924 54.6213C9.91924 54.4498 9.98291 54.3029 10.1102 54.1808C10.2402 54.0587 10.3948 53.9976 10.5741 53.9976C10.7534 53.9976 10.9068 54.0587 11.0341 54.1808C11.164 54.3029 11.229 54.4498 11.229 54.6213C11.229 54.7928 11.164 54.9396 11.0341 55.0618C10.9068 55.1839 10.7534 55.245 10.5741 55.245ZM12.7113 62.2305V56.2429H13.6001V57.1473H13.6624C13.7716 56.851 13.9691 56.6106 14.2549 56.4261C14.5408 56.2416 14.8631 56.1494 15.2217 56.1494C15.2893 56.1494 15.3737 56.1507 15.4751 56.1533C15.5764 56.1559 15.6531 56.1598 15.7051 56.165V57.1005C15.6739 57.0927 15.6024 57.081 15.4907 57.0654C15.3815 57.0472 15.2659 57.0381 15.1437 57.0381C14.8527 57.0381 14.5928 57.0992 14.3641 57.2214C14.138 57.3409 13.9587 57.5072 13.8262 57.7203C13.6962 57.9308 13.6312 58.1712 13.6312 58.4415V62.2305H12.7113ZM19.1237 62.3552C18.5468 62.3552 18.0491 62.2279 17.6307 61.9732C17.2149 61.7159 16.894 61.3573 16.6679 60.8973C16.4444 60.4347 16.3327 59.8968 16.3327 59.2835C16.3327 58.6702 16.4444 58.1296 16.6679 57.6618C16.894 57.1915 17.2084 56.825 17.6113 56.5626C18.0167 56.2975 18.4896 56.165 19.0302 56.165C19.342 56.165 19.65 56.2169 19.954 56.3209C20.2581 56.4248 20.5349 56.5938 20.7843 56.8276C21.0338 57.0589 21.2326 57.3656 21.3808 57.7476C21.5289 58.1296 21.6029 58.6 21.6029 59.1587V59.5485H16.9875V58.7533H20.6674C20.6674 58.4155 20.5998 58.114 20.4647 57.849C20.3322 57.5839 20.1424 57.3747 19.8956 57.2214C19.6513 57.068 19.3628 56.9914 19.0302 56.9914C18.6637 56.9914 18.3467 57.0823 18.079 57.2642C17.814 57.4435 17.61 57.6774 17.467 57.9659C17.3241 58.2544 17.2526 58.5636 17.2526 58.8937V59.4238C17.2526 59.876 17.3306 60.2593 17.4865 60.5738C17.645 60.8856 17.8646 61.1234 18.1453 61.2871C18.426 61.4482 18.7521 61.5288 19.1237 61.5288C19.3654 61.5288 19.5837 61.495 19.7786 61.4275C19.9761 61.3573 20.1463 61.2533 20.2893 61.1156C20.4322 60.9753 20.5427 60.8011 20.6206 60.5932L21.5094 60.8427C21.4158 61.1442 21.2586 61.4093 21.0377 61.638C20.8168 61.864 20.544 62.0408 20.2191 62.1681C19.8943 62.2928 19.5291 62.3552 19.1237 62.3552ZM25.4348 62.3552C24.8735 62.3552 24.3901 62.2227 23.9847 61.9576C23.5793 61.6925 23.2675 61.3274 23.0492 60.8622C22.8309 60.397 22.7217 59.8656 22.7217 59.2679C22.7217 58.6598 22.8335 58.1231 23.057 57.6579C23.283 57.1902 23.5975 56.825 24.0003 56.5626C24.4057 56.2975 24.8787 56.165 25.4192 56.165C25.8402 56.165 26.2196 56.2429 26.5575 56.3988C26.8953 56.5548 27.1721 56.7731 27.3878 57.0537C27.6035 57.3344 27.7373 57.6618 27.7893 58.0361H26.8693C26.7992 57.7632 26.6432 57.5215 26.4016 57.311C26.1625 57.0979 25.8402 56.9914 25.4348 56.9914C25.0762 56.9914 24.7617 57.0849 24.4915 57.272C24.2238 57.4565 24.0146 57.7177 23.8639 58.0556C23.7157 58.3908 23.6417 58.7845 23.6417 59.2367C23.6417 59.6993 23.7144 60.1021 23.86 60.4451C24.0081 60.7882 24.216 61.0545 24.4837 61.2442C24.7539 61.4339 25.071 61.5288 25.4348 61.5288C25.6739 61.5288 25.8909 61.4872 26.0858 61.4041C26.2807 61.3209 26.4457 61.2014 26.5809 61.0454C26.716 60.8895 26.8122 60.7024 26.8693 60.4841H27.7893C27.7373 60.8375 27.6087 61.1559 27.4034 61.4391C27.2007 61.7198 26.9317 61.9433 26.5965 62.1096C26.2638 62.2733 25.8766 62.3552 25.4348 62.3552ZM31.7381 56.2429V57.0225H28.6352V56.2429H31.7381ZM29.5396 54.8084H30.4595V60.5153C30.4595 60.7752 30.4972 60.9701 30.5726 61.1C30.6505 61.2273 30.7493 61.3131 30.8688 61.3573C30.991 61.3989 31.1196 61.4197 31.2548 61.4197C31.3561 61.4197 31.4393 61.4145 31.5042 61.4041C31.5692 61.3911 31.6212 61.3807 31.6602 61.3729L31.8473 62.1993C31.7849 62.2227 31.6978 62.2461 31.5861 62.2695C31.4743 62.2954 31.3327 62.3084 31.1612 62.3084C30.9013 62.3084 30.6466 62.2526 30.3972 62.1408C30.1503 62.0291 29.945 61.8588 29.7813 61.6302C29.6201 61.4015 29.5396 61.113 29.5396 60.7648V54.8084ZM33.122 62.2305V56.2429H34.0419V62.2305H33.122ZM33.5897 55.245C33.4104 55.245 33.2558 55.1839 33.1259 55.0618C32.9985 54.9396 32.9349 54.7928 32.9349 54.6213C32.9349 54.4498 32.9985 54.3029 33.1259 54.1808C33.2558 54.0587 33.4104 53.9976 33.5897 53.9976C33.7691 53.9976 33.9224 54.0587 34.0497 54.1808C34.1797 54.3029 34.2446 54.4498 34.2446 54.6213C34.2446 54.7928 34.1797 54.9396 34.0497 55.0618C33.9224 55.1839 33.7691 55.245 33.5897 55.245ZM38.1593 62.3552C37.6188 62.3552 37.1445 62.2266 36.7365 61.9693C36.3311 61.712 36.0141 61.3521 35.7854 60.8895C35.5593 60.4269 35.4462 59.8864 35.4462 59.2679C35.4462 58.6442 35.5593 58.0997 35.7854 57.6346C36.0141 57.1694 36.3311 56.8082 36.7365 56.5509C37.1445 56.2936 37.6188 56.165 38.1593 56.165C38.6999 56.165 39.1729 56.2936 39.5783 56.5509C39.9863 56.8082 40.3033 57.1694 40.5294 57.6346C40.7581 58.0997 40.8724 58.6442 40.8724 59.2679C40.8724 59.8864 40.7581 60.4269 40.5294 60.8895C40.3033 61.3521 39.9863 61.712 39.5783 61.9693C39.1729 62.2266 38.6999 62.3552 38.1593 62.3552ZM38.1593 61.5288C38.5699 61.5288 38.9078 61.4236 39.1729 61.2131C39.4379 61.0026 39.6341 60.7258 39.7615 60.3827C39.8888 60.0397 39.9525 59.6681 39.9525 59.2679C39.9525 58.8677 39.8888 58.4947 39.7615 58.1491C39.6341 57.8035 39.4379 57.5241 39.1729 57.311C38.9078 57.0979 38.5699 56.9914 38.1593 56.9914C37.7487 56.9914 37.4109 57.0979 37.1458 57.311C36.8807 57.5241 36.6845 57.8035 36.5572 58.1491C36.4299 58.4947 36.3662 58.8677 36.3662 59.2679C36.3662 59.6681 36.4299 60.0397 36.5572 60.3827C36.6845 60.7258 36.8807 61.0026 37.1458 61.2131C37.4109 61.4236 37.7487 61.5288 38.1593 61.5288ZM43.1967 58.6286V62.2305H42.2767V56.2429H43.1655V57.1785H43.2435C43.3838 56.8744 43.5969 56.6301 43.8828 56.4456C44.1686 56.2585 44.5377 56.165 44.9899 56.165C45.3953 56.165 45.75 56.2481 46.054 56.4144C46.3581 56.5782 46.5946 56.8276 46.7635 57.1629C46.9324 57.4955 47.0169 57.9165 47.0169 58.4259V62.2305H46.0969V58.4883C46.0969 58.0179 45.9748 57.6515 45.7305 57.389C45.4862 57.1239 45.151 56.9914 44.7248 56.9914C44.4311 56.9914 44.1686 57.055 43.9374 57.1824C43.7087 57.3097 43.5281 57.4955 43.3955 57.7398C43.263 57.9841 43.1967 58.2804 43.1967 58.6286Z" fill="#4285F4"/>
<defs>
<clipPath id="clip0_579_672">
<rect width="48.4825" height="48.4825" fill="white" transform="translate(0.459717 0.0888672)"/>
</clipPath>
</defs>
</svg>
