<svg width="200" height="200" viewBox="0 0 200 200" fill="none" xmlns="http://www.w3.org/2000/svg">
  <g transform="translate(50, 50)">
    <rect x="0" y="0" width="100" height="100" stroke="#fff" stroke-width="2"/>
    <polygon points="10,0 90,0 100,10 100,90 90,100 10,100 0,90 0,10" stroke="#fff" stroke-width="2" fill="none"/>

    <line x1="10" y1="10" x2="90" y2="10" stroke="#fff" stroke-width="2"/>
    <line x1="10" y1="90" x2="90" y2="90" stroke="#fff" stroke-width="2"/>
    <line x1="10" y1="10" x2="10" y2="90" stroke="#fff" stroke-width="2"/>
    <line x1="90" y1="10" x2="90" y2="100" stroke="#fff" stroke-width="2"/>

    <line x1="0" y1="25" x2="25" y2="0" stroke="#fff" stroke-width="2"/>
    <line x1="75" y1="0" x2="100" y2="25" stroke="#fff" stroke-width="2"/>
    <line x1="100" y1="75" x2="75" y2="100" stroke="#fff" stroke-width="2"/>
    <line x1="25" y1="100" x2="0" y2="75" stroke="#fff" stroke-width="2"/>

    <circle cx="50" cy="50" r="15" stroke="#fff" stroke-width="2" fill="none"/>
    <circle cx="50" cy="50" r="5" fill="white"/>
  </g>
</svg>