<svg width="196" height="673" viewBox="0 0 196 673" fill="none" xmlns="http://www.w3.org/2000/svg">
<g clip-path="url(#clip0_579_622)">
<rect width="195.336" height="672.446" transform="translate(0.298523 0.435547)" fill="white"/>
<rect x="0.298218" y="0.435547" width="195.336" height="89.8548" fill="#D9D9D9"/>
<path d="M162.815 8.75363L163.052 7.40214H163.232L162.995 8.75583C162.989 8.79685 162.99 8.82688 162.997 8.84592C163.006 8.86497 163.031 8.87449 163.072 8.87449H163.105L163.074 9.03931H163.037C162.936 9.03931 162.87 9.01294 162.839 8.9602C162.808 8.90599 162.8 8.83713 162.815 8.75363ZM164.313 8.46136L164.295 8.57123C164.272 8.72653 164.216 8.84519 164.128 8.92723C164.042 9.00928 163.929 9.0503 163.79 9.0503C163.687 9.0503 163.602 9.02686 163.535 8.97997C163.469 8.93309 163.423 8.86863 163.397 8.78659C163.37 8.70455 163.365 8.61152 163.381 8.5075L163.399 8.39543C163.424 8.246 163.479 8.12953 163.564 8.04602C163.65 7.96105 163.764 7.91857 163.904 7.91857C164.008 7.91857 164.093 7.94274 164.159 7.99108C164.225 8.03943 164.271 8.10462 164.298 8.18666C164.324 8.26724 164.329 8.3588 164.313 8.46136ZM164.126 8.45696C164.144 8.34708 164.133 8.25772 164.095 8.18886C164.057 8.11854 163.993 8.08338 163.902 8.08338C163.817 8.08338 163.747 8.11048 163.691 8.16469C163.637 8.21889 163.602 8.29581 163.586 8.39543L163.568 8.5119C163.55 8.62471 163.561 8.71554 163.599 8.78439C163.638 8.85325 163.703 8.88768 163.792 8.88768C163.877 8.88768 163.947 8.86131 164.001 8.80857C164.057 8.75436 164.092 8.67525 164.109 8.57123L164.126 8.45696ZM165.084 8.08558C165.004 8.08558 164.936 8.11268 164.882 8.16689C164.828 8.21963 164.793 8.29581 164.777 8.39543L164.757 8.5141C164.739 8.62251 164.746 8.71188 164.777 8.7822C164.809 8.85105 164.878 8.88548 164.983 8.88548C165.061 8.88548 165.149 8.86717 165.249 8.83054L165.28 8.98657C165.164 9.02905 165.06 9.0503 164.968 9.0503C164.859 9.0503 164.774 9.02686 164.711 8.97997C164.648 8.93163 164.606 8.86644 164.585 8.78439C164.565 8.70235 164.563 8.61006 164.579 8.5075L164.596 8.39543C164.621 8.24746 164.675 8.13099 164.759 8.04602C164.844 7.96105 164.951 7.91857 165.08 7.91857C165.133 7.91857 165.186 7.92589 165.24 7.94054C165.294 7.95519 165.349 7.9757 165.403 8.00207L165.339 8.1559C165.294 8.13392 165.249 8.11708 165.205 8.10536C165.163 8.09217 165.122 8.08558 165.084 8.08558ZM166.428 9.03931C166.356 9.03931 166.302 9.02173 166.267 8.98657C166.233 8.94994 166.215 8.90453 166.212 8.85032C166.143 8.92504 166.077 8.97704 166.014 9.00634C165.951 9.03565 165.892 9.0503 165.836 9.0503C165.765 9.0503 165.705 9.02759 165.658 8.98217C165.613 8.93676 165.582 8.87449 165.564 8.79538C165.546 8.71627 165.545 8.6269 165.56 8.52728L165.575 8.4196C165.598 8.26285 165.653 8.14052 165.74 8.05261C165.826 7.96325 165.94 7.91857 166.08 7.91857C166.154 7.91857 166.226 7.93102 166.298 7.95592C166.371 7.97936 166.441 8.01306 166.509 8.05701L166.39 8.73165C166.383 8.7756 166.384 8.81076 166.395 8.83713C166.405 8.86204 166.428 8.87449 166.465 8.87449H166.496L166.465 9.03931H166.428ZM165.746 8.52728C165.73 8.64302 165.735 8.73239 165.76 8.79538C165.784 8.85691 165.826 8.88768 165.885 8.88768C165.929 8.88768 165.98 8.86863 166.039 8.83054C166.097 8.79245 166.16 8.72579 166.228 8.63057L166.313 8.14271C166.234 8.10316 166.16 8.08338 166.091 8.08338C165.996 8.08338 165.921 8.11488 165.865 8.17787C165.811 8.23941 165.776 8.31998 165.762 8.4196L165.746 8.52728ZM167.337 8.99096C167.243 9.03052 167.155 9.0503 167.071 9.0503C166.996 9.0503 166.938 9.03418 166.897 9.00195C166.856 8.96825 166.83 8.92504 166.818 8.8723C166.807 8.81955 166.806 8.76315 166.816 8.70309L166.922 8.09876H166.733L166.759 7.94054H166.95L167.003 7.63728H167.183L167.13 7.94054H167.486L167.458 8.09876H167.102L166.994 8.70309C166.982 8.77048 166.988 8.81809 167.01 8.84592C167.031 8.8723 167.064 8.88548 167.106 8.88548C167.13 8.88548 167.157 8.88255 167.19 8.87669C167.223 8.86937 167.259 8.85691 167.297 8.83933L167.337 8.99096ZM168 7.67464H167.798L167.831 7.47247H168.033L168 7.67464ZM167.748 9.02832H167.567L167.761 7.94054H167.941L167.748 9.02832ZM169.103 8.46136L169.085 8.57123C169.062 8.72653 169.006 8.84519 168.918 8.92723C168.832 9.00928 168.719 9.0503 168.58 9.0503C168.477 9.0503 168.392 9.02686 168.325 8.97997C168.259 8.93309 168.213 8.86863 168.187 8.78659C168.16 8.70455 168.155 8.61152 168.171 8.5075L168.189 8.39543C168.214 8.246 168.269 8.12953 168.354 8.04602C168.44 7.96105 168.554 7.91857 168.694 7.91857C168.798 7.91857 168.883 7.94274 168.949 7.99108C169.015 8.03943 169.061 8.10462 169.088 8.18666C169.114 8.26724 169.119 8.3588 169.103 8.46136ZM168.916 8.45696C168.934 8.34708 168.923 8.25772 168.885 8.18886C168.847 8.11854 168.783 8.08338 168.692 8.08338C168.607 8.08338 168.537 8.11048 168.481 8.16469C168.427 8.21889 168.392 8.29581 168.376 8.39543L168.358 8.5119C168.34 8.62471 168.351 8.71554 168.389 8.78439C168.428 8.85325 168.493 8.88768 168.582 8.88768C168.667 8.88768 168.737 8.86131 168.791 8.80857C168.847 8.75436 168.882 8.67525 168.899 8.57123L168.916 8.45696ZM170.028 8.08778C170 8.08778 169.968 8.09437 169.931 8.10755C169.895 8.11927 169.852 8.14271 169.804 8.17787C169.755 8.21157 169.7 8.26211 169.637 8.3295L169.512 9.02832H169.331L169.525 7.94054H169.694L169.661 8.14052C169.747 8.04968 169.824 7.99035 169.892 7.96252C169.961 7.93322 170.022 7.91857 170.076 7.91857C170.176 7.91857 170.249 7.95519 170.296 8.02844C170.344 8.10023 170.358 8.19399 170.338 8.30973L170.21 9.02832H170.03L170.153 8.32511C170.183 8.16689 170.141 8.08778 170.028 8.08778ZM170.879 8.88988C170.964 8.88988 171.025 8.87523 171.061 8.84592C171.1 8.81662 171.119 8.77853 171.119 8.73165C171.119 8.69356 171.107 8.6628 171.083 8.63936C171.06 8.61592 171.02 8.59394 170.965 8.57343L170.859 8.53168C170.785 8.50384 170.728 8.46648 170.69 8.4196C170.653 8.37272 170.635 8.31339 170.635 8.2416C170.635 8.183 170.648 8.12953 170.673 8.08118C170.699 8.03284 170.741 7.99401 170.798 7.96471C170.855 7.93395 170.93 7.91857 171.022 7.91857C171.135 7.91857 171.249 7.94494 171.365 7.99768L171.308 8.1515C171.255 8.1266 171.205 8.10902 171.158 8.09876C171.111 8.08704 171.064 8.08118 171.018 8.08118C170.946 8.08118 170.894 8.09437 170.861 8.12074C170.831 8.14711 170.815 8.183 170.815 8.22842C170.815 8.26065 170.825 8.28848 170.844 8.31192C170.864 8.33536 170.899 8.35661 170.947 8.37565L171.055 8.41521C171.135 8.44451 171.196 8.4826 171.237 8.52948C171.278 8.57636 171.299 8.63716 171.299 8.71188C171.299 8.76901 171.285 8.82395 171.257 8.87669C171.229 8.92797 171.184 8.96972 171.121 9.00195C171.059 9.03418 170.977 9.0503 170.875 9.0503C170.753 9.0503 170.631 9.02319 170.508 8.96899L170.565 8.81736C170.622 8.84226 170.676 8.86058 170.727 8.8723C170.779 8.88402 170.829 8.88988 170.879 8.88988Z" fill="black"/>
<path d="M180.766 9.03931C180.694 9.03931 180.641 9.02173 180.606 8.98657C180.572 8.94994 180.554 8.90453 180.551 8.85032C180.482 8.92504 180.416 8.97704 180.353 9.00634C180.29 9.03565 180.231 9.0503 180.175 9.0503C180.103 9.0503 180.044 9.02759 179.997 8.98217C179.951 8.93676 179.92 8.87449 179.902 8.79538C179.885 8.71627 179.883 8.6269 179.898 8.52728L179.913 8.4196C179.937 8.26285 179.992 8.14052 180.078 8.05261C180.165 7.96325 180.278 7.91857 180.419 7.91857C180.492 7.91857 180.565 7.93102 180.636 7.95592C180.71 7.97936 180.78 8.01306 180.847 8.05701L180.729 8.73165C180.721 8.7756 180.723 8.81076 180.733 8.83713C180.743 8.86204 180.767 8.87449 180.803 8.87449H180.834L180.803 9.03931H180.766ZM180.085 8.52728C180.069 8.64302 180.073 8.73239 180.098 8.79538C180.123 8.85691 180.165 8.88768 180.223 8.88768C180.267 8.88768 180.318 8.86863 180.377 8.83054C180.436 8.79245 180.499 8.72579 180.566 8.63057L180.652 8.14271C180.573 8.10316 180.499 8.08338 180.43 8.08338C180.335 8.08338 180.259 8.11488 180.203 8.17787C180.149 8.23941 180.115 8.31998 180.1 8.4196L180.085 8.52728ZM182.031 8.54926C182.008 8.70895 181.953 8.83274 181.867 8.92064C181.782 9.00708 181.667 9.0503 181.522 9.0503C181.442 9.0503 181.366 9.03784 181.293 9.01294C181.221 8.98657 181.15 8.95287 181.08 8.91185L181.348 7.40214H181.528L181.401 8.12074C181.468 8.04456 181.532 7.99182 181.592 7.96252C181.653 7.93322 181.711 7.91857 181.765 7.91857C181.839 7.91857 181.899 7.94127 181.946 7.98669C181.993 8.0321 182.025 8.09437 182.042 8.17348C182.061 8.25259 182.063 8.34269 182.047 8.44378L182.031 8.54926ZM181.715 8.08338C181.67 8.08338 181.617 8.10389 181.557 8.14491C181.497 8.18447 181.431 8.25479 181.359 8.35587L181.278 8.82615C181.358 8.86717 181.436 8.88768 181.511 8.88768C181.61 8.88768 181.687 8.85765 181.741 8.79758C181.796 8.73605 181.83 8.65327 181.845 8.54926L181.86 8.44378C181.878 8.32804 181.873 8.23941 181.847 8.17787C181.822 8.11488 181.778 8.08338 181.715 8.08338ZM183.246 8.46136L183.228 8.57123C183.205 8.72653 183.149 8.84519 183.061 8.92723C182.975 9.00928 182.862 9.0503 182.723 9.0503C182.62 9.0503 182.536 9.02686 182.468 8.97997C182.402 8.93309 182.356 8.86863 182.33 8.78659C182.303 8.70455 182.298 8.61152 182.314 8.5075L182.332 8.39543C182.357 8.246 182.412 8.12953 182.497 8.04602C182.583 7.96105 182.697 7.91857 182.837 7.91857C182.941 7.91857 183.026 7.94274 183.092 7.99108C183.158 8.03943 183.204 8.10462 183.231 8.18666C183.257 8.26724 183.262 8.3588 183.246 8.46136ZM183.059 8.45696C183.077 8.34708 183.067 8.25772 183.028 8.18886C182.99 8.11854 182.926 8.08338 182.835 8.08338C182.75 8.08338 182.68 8.11048 182.624 8.16469C182.57 8.21889 182.535 8.29581 182.519 8.39543L182.501 8.5119C182.484 8.62471 182.494 8.71554 182.532 8.78439C182.571 8.85325 182.636 8.88768 182.725 8.88768C182.81 8.88768 182.88 8.86131 182.934 8.80857C182.99 8.75436 183.026 8.67525 183.042 8.57123L183.059 8.45696ZM184.145 9.02832L184.18 8.83054C184.095 8.91991 184.02 8.97924 183.954 9.00854C183.889 9.03638 183.831 9.0503 183.778 9.0503C183.68 9.0503 183.608 9.0144 183.562 8.94262C183.518 8.87083 183.507 8.77707 183.527 8.66133L183.655 7.94054H183.835L183.712 8.64375C183.697 8.72433 183.7 8.78439 183.721 8.82395C183.743 8.86204 183.777 8.88109 183.824 8.88109C183.852 8.88109 183.883 8.87523 183.918 8.86351C183.954 8.85032 183.995 8.82615 184.041 8.79099C184.088 8.75583 184.143 8.70528 184.204 8.63936L184.327 7.94054H184.507L184.316 9.02832H184.145ZM185.311 8.99096C185.217 9.03052 185.128 9.0503 185.045 9.0503C184.97 9.0503 184.912 9.03418 184.871 9.00195C184.83 8.96825 184.804 8.92504 184.792 8.8723C184.78 8.81955 184.78 8.76315 184.79 8.70309L184.895 8.09876H184.706L184.733 7.94054H184.924L184.977 7.63728H185.157L185.104 7.94054H185.46L185.432 8.09876H185.076L184.968 8.70309C184.956 8.77048 184.961 8.81809 184.983 8.84592C185.005 8.8723 185.038 8.88548 185.08 8.88548C185.103 8.88548 185.131 8.88255 185.164 8.87669C185.197 8.86937 185.233 8.85691 185.271 8.83933L185.311 8.99096Z" fill="black"/>
<path d="M150.879 8.08778C150.838 8.08778 150.787 8.10389 150.726 8.13612C150.665 8.16689 150.589 8.23208 150.497 8.3317L150.374 9.02832H150.194L150.387 7.94054H150.556L150.523 8.13832C150.608 8.04895 150.684 7.99035 150.75 7.96252C150.816 7.93322 150.875 7.91857 150.928 7.91857C151 7.91857 151.057 7.93908 151.101 7.9801C151.145 8.02112 151.172 8.07679 151.183 8.14711C151.269 8.05481 151.347 7.99401 151.418 7.96471C151.488 7.93395 151.55 7.91857 151.605 7.91857C151.703 7.91857 151.774 7.95446 151.818 8.02624C151.863 8.09803 151.876 8.19252 151.855 8.30973L151.728 9.02832H151.547L151.673 8.32511C151.687 8.246 151.684 8.18666 151.662 8.14711C151.64 8.10755 151.605 8.08778 151.556 8.08778C151.53 8.08778 151.498 8.09437 151.462 8.10755C151.427 8.12074 151.386 8.14491 151.339 8.18007C151.292 8.21377 151.237 8.26431 151.174 8.3317L151.051 9.02832H150.871L150.994 8.32511C151.008 8.246 151.005 8.18666 150.983 8.14711C150.962 8.10755 150.928 8.08778 150.879 8.08778ZM152.906 8.98437C152.843 9.00781 152.782 9.02466 152.723 9.03491C152.665 9.04517 152.609 9.0503 152.556 9.0503C152.439 9.0503 152.347 9.02686 152.28 8.97997C152.214 8.93163 152.17 8.86644 152.148 8.78439C152.126 8.70235 152.123 8.61006 152.139 8.5075L152.159 8.39543C152.182 8.25186 152.237 8.13685 152.323 8.05042C152.411 7.96252 152.522 7.91857 152.655 7.91857C152.721 7.91857 152.783 7.93029 152.84 7.95373C152.898 7.97717 152.945 8.01379 152.981 8.0636C153.016 8.11341 153.033 8.17714 153.033 8.25479C153.033 8.29727 153.027 8.34269 153.013 8.39104C153.002 8.43792 152.979 8.48919 152.945 8.54486H152.31C152.297 8.64595 152.309 8.72872 152.345 8.79318C152.382 8.85618 152.458 8.88768 152.572 8.88768C152.613 8.88768 152.66 8.88328 152.712 8.87449C152.765 8.86424 152.82 8.84959 152.877 8.83054L152.906 8.98437ZM152.649 8.07899C152.565 8.07899 152.496 8.10682 152.442 8.16249C152.388 8.2167 152.353 8.29288 152.337 8.39104H152.829C152.841 8.36613 152.848 8.34269 152.851 8.32071C152.855 8.29874 152.857 8.27823 152.857 8.25918C152.857 8.19765 152.838 8.15224 152.798 8.12294C152.759 8.09364 152.709 8.07899 152.649 8.07899ZM153.91 8.08778C153.882 8.08778 153.85 8.09437 153.813 8.10755C153.777 8.11927 153.734 8.14271 153.686 8.17787C153.637 8.21157 153.582 8.26211 153.519 8.3295L153.393 9.02832H153.213L153.407 7.94054H153.576L153.543 8.14052C153.629 8.04968 153.706 7.99035 153.774 7.96252C153.842 7.93322 153.904 7.91857 153.958 7.91857C154.058 7.91857 154.131 7.95519 154.178 8.02844C154.226 8.10023 154.24 8.19399 154.22 8.30973L154.092 9.02832H153.912L154.035 8.32511C154.064 8.16689 154.023 8.08778 153.91 8.08778ZM155.135 9.02832L155.17 8.83054C155.085 8.91991 155.009 8.97924 154.943 9.00854C154.879 9.03638 154.82 9.0503 154.768 9.0503C154.669 9.0503 154.598 9.0144 154.552 8.94262C154.508 8.87083 154.497 8.77707 154.517 8.66133L154.645 7.94054H154.825L154.702 8.64375C154.687 8.72433 154.69 8.78439 154.71 8.82395C154.732 8.86204 154.767 8.88109 154.814 8.88109C154.842 8.88109 154.873 8.87523 154.908 8.86351C154.943 8.85032 154.984 8.82615 155.031 8.79099C155.078 8.75583 155.132 8.70528 155.194 8.63936L155.317 7.94054H155.497L155.306 9.02832H155.135Z" fill="black"/>
<path d="M138.926 8.08778C138.898 8.08778 138.865 8.09437 138.827 8.10755C138.791 8.11927 138.748 8.14271 138.7 8.17787C138.652 8.21303 138.596 8.26431 138.533 8.3317L138.41 9.02832H138.23L138.515 7.40214H138.696L138.568 8.12953C138.652 8.04309 138.726 7.98669 138.792 7.96032C138.86 7.93248 138.92 7.91857 138.975 7.91857C139.076 7.91857 139.15 7.95446 139.197 8.02624C139.243 8.09803 139.257 8.19252 139.236 8.30973L139.109 9.02832H138.928L139.052 8.32511C139.068 8.246 139.064 8.18666 139.041 8.14711C139.019 8.10755 138.98 8.08778 138.926 8.08778ZM140.45 8.46136L140.432 8.57123C140.409 8.72653 140.353 8.84519 140.265 8.92723C140.179 9.00928 140.066 9.0503 139.927 9.0503C139.824 9.0503 139.739 9.02686 139.672 8.97997C139.606 8.93309 139.56 8.86863 139.533 8.78659C139.507 8.70455 139.502 8.61152 139.518 8.5075L139.536 8.39543C139.561 8.246 139.615 8.12953 139.7 8.04602C139.787 7.96105 139.9 7.91857 140.041 7.91857C140.145 7.91857 140.23 7.94274 140.296 7.99108C140.362 8.03943 140.408 8.10462 140.434 8.18666C140.461 8.26724 140.466 8.3588 140.45 8.46136ZM140.263 8.45696C140.281 8.34708 140.27 8.25772 140.232 8.18886C140.194 8.11854 140.13 8.08338 140.039 8.08338C139.954 8.08338 139.884 8.11048 139.828 8.16469C139.774 8.21889 139.739 8.29581 139.722 8.39543L139.705 8.5119C139.687 8.62471 139.697 8.71554 139.736 8.78439C139.775 8.85325 139.84 8.88768 139.929 8.88768C140.014 8.88768 140.084 8.86131 140.138 8.80857C140.193 8.75436 140.229 8.67525 140.245 8.57123L140.263 8.45696ZM141.364 8.08778C141.323 8.08778 141.272 8.10389 141.21 8.13612C141.15 8.16689 141.074 8.23208 140.982 8.3317L140.858 9.02832H140.678L140.872 7.94054H141.041L141.008 8.13832C141.093 8.04895 141.168 7.99035 141.234 7.96252C141.3 7.93322 141.359 7.91857 141.412 7.91857C141.484 7.91857 141.542 7.93908 141.586 7.9801C141.63 8.02112 141.657 8.07679 141.667 8.14711C141.754 8.05481 141.832 7.99401 141.902 7.96471C141.973 7.93395 142.035 7.91857 142.089 7.91857C142.187 7.91857 142.258 7.95446 142.302 8.02624C142.348 8.09803 142.36 8.19252 142.34 8.30973L142.212 9.02832H142.032L142.157 8.32511C142.172 8.246 142.168 8.18666 142.146 8.14711C142.124 8.10755 142.089 8.08778 142.041 8.08778C142.014 8.08778 141.983 8.09437 141.946 8.10755C141.911 8.12074 141.87 8.14491 141.823 8.18007C141.776 8.21377 141.721 8.26431 141.658 8.3317L141.535 9.02832H141.355L141.478 8.32511C141.493 8.246 141.489 8.18666 141.467 8.14711C141.447 8.10755 141.412 8.08778 141.364 8.08778ZM143.39 8.98437C143.327 9.00781 143.267 9.02466 143.208 9.03491C143.149 9.04517 143.094 9.0503 143.041 9.0503C142.924 9.0503 142.831 9.02686 142.764 8.97997C142.698 8.93163 142.654 8.86644 142.632 8.78439C142.61 8.70235 142.607 8.61006 142.623 8.5075L142.643 8.39543C142.667 8.25186 142.722 8.13685 142.808 8.05042C142.896 7.96252 143.006 7.91857 143.14 7.91857C143.206 7.91857 143.267 7.93029 143.324 7.95373C143.383 7.97717 143.43 8.01379 143.465 8.0636C143.5 8.11341 143.518 8.17714 143.518 8.25479C143.518 8.29727 143.511 8.34269 143.498 8.39104C143.486 8.43792 143.464 8.48919 143.43 8.54486H142.795C142.782 8.64595 142.793 8.72872 142.83 8.79318C142.867 8.85618 142.942 8.88768 143.056 8.88768C143.097 8.88768 143.144 8.88328 143.197 8.87449C143.25 8.86424 143.305 8.84959 143.362 8.83054L143.39 8.98437ZM143.133 8.07899C143.05 8.07899 142.981 8.10682 142.927 8.16249C142.872 8.2167 142.837 8.29288 142.821 8.39104H143.313C143.325 8.36613 143.332 8.34269 143.335 8.32071C143.34 8.29874 143.342 8.27823 143.342 8.25918C143.342 8.19765 143.322 8.15224 143.283 8.12294C143.243 8.09364 143.193 8.07899 143.133 8.07899Z" fill="black"/>
<rect x="2.74011" y="128.87" width="71.0536" height="71.0536" fill="#D9D9D9"/>
<rect x="2.74011" y="219.335" width="71.0536" height="71.0536" fill="#D9D9D9"/>
<rect x="2.74011" y="309.8" width="71.0536" height="71.0536" fill="#D9D9D9"/>
<rect x="2.74011" y="400.265" width="71.0536" height="71.0536" fill="#D9D9D9"/>
<rect x="2.74011" y="490.73" width="71.0536" height="71.0536" fill="#D9D9D9"/>
<rect x="83.0723" y="141.444" width="110.121" height="6.22635" fill="#D9D9D9"/>
<rect x="83.0723" y="231.909" width="110.121" height="6.22635" fill="#D9D9D9"/>
<rect x="83.0723" y="322.374" width="110.121" height="6.22635" fill="#D9D9D9"/>
<rect x="83.0723" y="412.84" width="110.121" height="6.22635" fill="#D9D9D9"/>
<rect x="83.0723" y="503.305" width="110.121" height="6.22635" fill="#D9D9D9"/>
<rect x="83.0723" y="149.989" width="110.121" height="6.22635" fill="#D9D9D9"/>
<rect x="83.0723" y="240.456" width="110.121" height="6.22635" fill="#D9D9D9"/>
<rect x="83.0723" y="330.92" width="110.121" height="6.22635" fill="#D9D9D9"/>
<rect x="83.0723" y="421.385" width="110.121" height="6.22635" fill="#D9D9D9"/>
<rect x="83.0723" y="511.852" width="110.121" height="6.22635" fill="#D9D9D9"/>
<rect x="83.0723" y="158.536" width="110.121" height="6.22635" fill="#D9D9D9"/>
<rect x="83.0723" y="249.001" width="110.121" height="6.22635" fill="#D9D9D9"/>
<rect x="83.0723" y="339.467" width="110.121" height="6.22635" fill="#D9D9D9"/>
<rect x="83.0723" y="429.932" width="110.121" height="6.22635" fill="#D9D9D9"/>
<rect x="83.0723" y="520.397" width="110.121" height="6.22635" fill="#D9D9D9"/>
<rect x="83.0723" y="167.082" width="110.121" height="6.22635" fill="#D9D9D9"/>
<rect x="83.0723" y="257.548" width="110.121" height="6.22635" fill="#D9D9D9"/>
<rect x="83.0723" y="348.013" width="110.121" height="6.22635" fill="#D9D9D9"/>
<rect x="83.0723" y="438.479" width="110.121" height="6.22635" fill="#D9D9D9"/>
<rect x="83.0723" y="528.942" width="110.121" height="6.22635" fill="#D9D9D9"/>
<rect x="83.0723" y="175.628" width="110.121" height="6.22635" fill="#D9D9D9"/>
<rect x="83.0723" y="266.093" width="110.121" height="6.22635" fill="#D9D9D9"/>
<rect x="83.0723" y="356.559" width="110.121" height="6.22635" fill="#D9D9D9"/>
<rect x="83.0723" y="447.023" width="110.121" height="6.22635" fill="#D9D9D9"/>
<rect x="83.0723" y="537.488" width="110.121" height="6.22635" fill="#D9D9D9"/>
<rect x="83.0723" y="184.174" width="110.121" height="6.22635" fill="#D9D9D9"/>
<rect x="83.0723" y="274.64" width="110.121" height="6.22635" fill="#D9D9D9"/>
<rect x="83.0723" y="365.104" width="110.121" height="6.22635" fill="#D9D9D9"/>
<rect x="83.0723" y="455.569" width="110.121" height="6.22635" fill="#D9D9D9"/>
<rect x="83.0723" y="546.035" width="110.121" height="6.22635" fill="#D9D9D9"/>
<rect x="2.74011" y="610.13" width="195.336" height="62.7518" fill="#D9D9D9"/>
</g>
<defs>
<clipPath id="clip0_579_622">
<rect width="195.336" height="672.446" fill="white" transform="translate(0.298523 0.435547)"/>
</clipPath>
</defs>
</svg>
