<svg width="196" height="673" viewBox="0 0 196 673" fill="none" xmlns="http://www.w3.org/2000/svg">
<g clip-path="url(#clip0_579_575)">
<rect width="195.336" height="672.446" transform="translate(0.052002 0.435547)" fill="white"/>
<rect x="0.0523682" y="0.435547" width="195.336" height="89.8548" fill="#D9D9D9"/>
<path d="M162.569 8.75363L162.806 7.40214H162.986L162.749 8.75583C162.743 8.79685 162.744 8.82688 162.751 8.84592C162.76 8.86497 162.785 8.87449 162.826 8.87449H162.859L162.828 9.03931H162.791C162.69 9.03931 162.624 9.01294 162.593 8.9602C162.562 8.90599 162.554 8.83713 162.569 8.75363ZM164.067 8.46136L164.049 8.57123C164.026 8.72653 163.97 8.84519 163.882 8.92723C163.796 9.00928 163.683 9.0503 163.544 9.0503C163.441 9.0503 163.356 9.02686 163.289 8.97997C163.223 8.93309 163.177 8.86863 163.15 8.78659C163.124 8.70455 163.119 8.61152 163.135 8.5075L163.153 8.39543C163.177 8.246 163.232 8.12953 163.317 8.04602C163.404 7.96105 163.517 7.91857 163.658 7.91857C163.762 7.91857 163.847 7.94274 163.913 7.99108C163.979 8.03943 164.025 8.10462 164.051 8.18666C164.078 8.26724 164.083 8.3588 164.067 8.46136ZM163.88 8.45696C163.898 8.34708 163.887 8.25772 163.849 8.18886C163.811 8.11854 163.747 8.08338 163.656 8.08338C163.571 8.08338 163.501 8.11048 163.445 8.16469C163.391 8.21889 163.355 8.29581 163.339 8.39543L163.322 8.5119C163.304 8.62471 163.314 8.71554 163.353 8.78439C163.392 8.85325 163.457 8.88768 163.546 8.88768C163.631 8.88768 163.7 8.86131 163.755 8.80857C163.81 8.75436 163.846 8.67525 163.862 8.57123L163.88 8.45696ZM164.838 8.08558C164.757 8.08558 164.69 8.11268 164.636 8.16689C164.582 8.21963 164.546 8.29581 164.53 8.39543L164.511 8.5141C164.493 8.62251 164.5 8.71188 164.53 8.7822C164.563 8.85105 164.631 8.88548 164.737 8.88548C164.815 8.88548 164.903 8.86717 165.003 8.83054L165.034 8.98657C164.918 9.02905 164.814 9.0503 164.722 9.0503C164.613 9.0503 164.527 9.02686 164.464 8.97997C164.401 8.93163 164.36 8.86644 164.339 8.78439C164.319 8.70235 164.316 8.61006 164.333 8.5075L164.35 8.39543C164.375 8.24746 164.429 8.13099 164.513 8.04602C164.598 7.96105 164.705 7.91857 164.834 7.91857C164.886 7.91857 164.94 7.92589 164.994 7.94054C165.048 7.95519 165.102 7.9757 165.157 8.00207L165.093 8.1559C165.048 8.13392 165.003 8.11708 164.959 8.10536C164.916 8.09217 164.876 8.08558 164.838 8.08558ZM166.181 9.03931C166.11 9.03931 166.056 9.02173 166.021 8.98657C165.987 8.94994 165.969 8.90453 165.966 8.85032C165.897 8.92504 165.831 8.97704 165.768 9.00634C165.705 9.03565 165.646 9.0503 165.59 9.0503C165.518 9.0503 165.459 9.02759 165.412 8.98217C165.367 8.93676 165.335 8.87449 165.318 8.79538C165.3 8.71627 165.299 8.6269 165.313 8.52728L165.329 8.4196C165.352 8.26285 165.407 8.14052 165.494 8.05261C165.58 7.96325 165.693 7.91857 165.834 7.91857C165.907 7.91857 165.98 7.93102 166.052 7.95592C166.125 7.97936 166.195 8.01306 166.263 8.05701L166.144 8.73165C166.137 8.7756 166.138 8.81076 166.148 8.83713C166.159 8.86204 166.182 8.87449 166.219 8.87449H166.249L166.219 9.03931H166.181ZM165.5 8.52728C165.484 8.64302 165.488 8.73239 165.513 8.79538C165.538 8.85691 165.58 8.88768 165.639 8.88768C165.682 8.88768 165.734 8.86863 165.792 8.83054C165.851 8.79245 165.914 8.72579 165.981 8.63057L166.067 8.14271C165.988 8.10316 165.914 8.08338 165.845 8.08338C165.75 8.08338 165.674 8.11488 165.619 8.17787C165.565 8.23941 165.53 8.31998 165.515 8.4196L165.5 8.52728ZM167.091 8.99096C166.997 9.03052 166.908 9.0503 166.825 9.0503C166.75 9.0503 166.692 9.03418 166.651 9.00195C166.61 8.96825 166.584 8.92504 166.572 8.8723C166.56 8.81955 166.56 8.76315 166.57 8.70309L166.675 8.09876H166.486L166.513 7.94054H166.704L166.757 7.63728H166.937L166.884 7.94054H167.24L167.212 8.09876H166.856L166.748 8.70309C166.736 8.77048 166.741 8.81809 166.763 8.84592C166.785 8.8723 166.818 8.88548 166.86 8.88548C166.883 8.88548 166.911 8.88255 166.944 8.87669C166.977 8.86937 167.013 8.85691 167.051 8.83933L167.091 8.99096ZM167.754 7.67464H167.552L167.585 7.47247H167.787L167.754 7.67464ZM167.501 9.02832H167.321L167.515 7.94054H167.695L167.501 9.02832ZM168.857 8.46136L168.839 8.57123C168.816 8.72653 168.76 8.84519 168.672 8.92723C168.586 9.00928 168.473 9.0503 168.334 9.0503C168.231 9.0503 168.146 9.02686 168.079 8.97997C168.013 8.93309 167.967 8.86863 167.94 8.78659C167.914 8.70455 167.909 8.61152 167.925 8.5075L167.943 8.39543C167.967 8.246 168.022 8.12953 168.107 8.04602C168.194 7.96105 168.307 7.91857 168.448 7.91857C168.552 7.91857 168.637 7.94274 168.703 7.99108C168.769 8.03943 168.815 8.10462 168.841 8.18666C168.868 8.26724 168.873 8.3588 168.857 8.46136ZM168.67 8.45696C168.687 8.34708 168.677 8.25772 168.639 8.18886C168.601 8.11854 168.537 8.08338 168.446 8.08338C168.361 8.08338 168.29 8.11048 168.235 8.16469C168.181 8.21889 168.145 8.29581 168.129 8.39543L168.112 8.5119C168.094 8.62471 168.104 8.71554 168.142 8.78439C168.182 8.85325 168.246 8.88768 168.336 8.88768C168.421 8.88768 168.49 8.86131 168.545 8.80857C168.6 8.75436 168.636 8.67525 168.652 8.57123L168.67 8.45696ZM169.782 8.08778C169.754 8.08778 169.722 8.09437 169.685 8.10755C169.648 8.11927 169.606 8.14271 169.558 8.17787C169.509 8.21157 169.454 8.26211 169.391 8.3295L169.265 9.02832H169.085L169.279 7.94054H169.448L169.415 8.14052C169.501 8.04968 169.578 7.99035 169.646 7.96252C169.714 7.93322 169.776 7.91857 169.83 7.91857C169.93 7.91857 170.003 7.95519 170.05 8.02844C170.098 8.10023 170.112 8.19399 170.092 8.30973L169.964 9.02832H169.784L169.907 8.32511C169.936 8.16689 169.895 8.08778 169.782 8.08778ZM170.633 8.88988C170.718 8.88988 170.779 8.87523 170.815 8.84592C170.853 8.81662 170.872 8.77853 170.872 8.73165C170.872 8.69356 170.861 8.6628 170.837 8.63936C170.814 8.61592 170.774 8.59394 170.719 8.57343L170.613 8.53168C170.538 8.50384 170.482 8.46648 170.444 8.4196C170.407 8.37272 170.389 8.31339 170.389 8.2416C170.389 8.183 170.401 8.12953 170.426 8.08118C170.453 8.03284 170.494 7.99401 170.552 7.96471C170.609 7.93395 170.683 7.91857 170.776 7.91857C170.889 7.91857 171.003 7.94494 171.119 7.99768L171.061 8.1515C171.009 8.1266 170.959 8.10902 170.912 8.09876C170.865 8.08704 170.818 8.08118 170.771 8.08118C170.7 8.08118 170.648 8.09437 170.615 8.12074C170.585 8.14711 170.569 8.183 170.569 8.22842C170.569 8.26065 170.579 8.28848 170.598 8.31192C170.618 8.33536 170.653 8.35661 170.701 8.37565L170.809 8.41521C170.889 8.44451 170.95 8.4826 170.991 8.52948C171.032 8.57636 171.053 8.63716 171.053 8.71188C171.053 8.76901 171.039 8.82395 171.011 8.87669C170.983 8.92797 170.938 8.96972 170.875 9.00195C170.813 9.03418 170.731 9.0503 170.628 9.0503C170.507 9.0503 170.385 9.02319 170.261 8.96899L170.319 8.81736C170.376 8.84226 170.43 8.86058 170.481 8.8723C170.533 8.88402 170.583 8.88988 170.633 8.88988Z" fill="black"/>
<path d="M180.52 9.03931C180.448 9.03931 180.395 9.02173 180.359 8.98657C180.326 8.94994 180.307 8.90453 180.305 8.85032C180.236 8.92504 180.17 8.97704 180.107 9.00634C180.044 9.03565 179.984 9.0503 179.929 9.0503C179.857 9.0503 179.798 9.02759 179.751 8.98217C179.705 8.93676 179.674 8.87449 179.656 8.79538C179.639 8.71627 179.637 8.6269 179.652 8.52728L179.667 8.4196C179.691 8.26285 179.746 8.14052 179.832 8.05261C179.919 7.96325 180.032 7.91857 180.173 7.91857C180.246 7.91857 180.318 7.93102 180.39 7.95592C180.463 7.97936 180.534 8.01306 180.601 8.05701L180.483 8.73165C180.475 8.7756 180.477 8.81076 180.487 8.83713C180.497 8.86204 180.521 8.87449 180.557 8.87449H180.588L180.557 9.03931H180.52ZM179.839 8.52728C179.823 8.64302 179.827 8.73239 179.852 8.79538C179.877 8.85691 179.919 8.88768 179.977 8.88768C180.021 8.88768 180.072 8.86863 180.131 8.83054C180.19 8.79245 180.253 8.72579 180.32 8.63057L180.406 8.14271C180.327 8.10316 180.253 8.08338 180.184 8.08338C180.088 8.08338 180.013 8.11488 179.957 8.17787C179.903 8.23941 179.869 8.31998 179.854 8.4196L179.839 8.52728ZM181.785 8.54926C181.762 8.70895 181.707 8.83274 181.62 8.92064C181.536 9.00708 181.421 9.0503 181.275 9.0503C181.196 9.0503 181.12 9.03784 181.047 9.01294C180.975 8.98657 180.904 8.95287 180.834 8.91185L181.102 7.40214H181.282L181.155 8.12074C181.222 8.04456 181.286 7.99182 181.346 7.96252C181.407 7.93322 181.465 7.91857 181.519 7.91857C181.593 7.91857 181.653 7.94127 181.7 7.98669C181.746 8.0321 181.779 8.09437 181.796 8.17348C181.815 8.25259 181.817 8.34269 181.801 8.44378L181.785 8.54926ZM181.469 8.08338C181.423 8.08338 181.371 8.10389 181.311 8.14491C181.251 8.18447 181.185 8.25479 181.113 8.35587L181.032 8.82615C181.112 8.86717 181.19 8.88768 181.264 8.88768C181.364 8.88768 181.441 8.85765 181.495 8.79758C181.549 8.73605 181.584 8.65327 181.599 8.54926L181.614 8.44378C181.631 8.32804 181.627 8.23941 181.601 8.17787C181.576 8.11488 181.532 8.08338 181.469 8.08338ZM183 8.46136L182.982 8.57123C182.959 8.72653 182.903 8.84519 182.815 8.92723C182.729 9.00928 182.616 9.0503 182.477 9.0503C182.374 9.0503 182.289 9.02686 182.222 8.97997C182.156 8.93309 182.11 8.86863 182.084 8.78659C182.057 8.70455 182.052 8.61152 182.068 8.5075L182.086 8.39543C182.111 8.246 182.166 8.12953 182.251 8.04602C182.337 7.96105 182.451 7.91857 182.591 7.91857C182.695 7.91857 182.78 7.94274 182.846 7.99108C182.912 8.03943 182.958 8.10462 182.985 8.18666C183.011 8.26724 183.016 8.3588 183 8.46136ZM182.813 8.45696C182.831 8.34708 182.82 8.25772 182.782 8.18886C182.744 8.11854 182.68 8.08338 182.589 8.08338C182.504 8.08338 182.434 8.11048 182.378 8.16469C182.324 8.21889 182.289 8.29581 182.273 8.39543L182.255 8.5119C182.237 8.62471 182.248 8.71554 182.286 8.78439C182.325 8.85325 182.39 8.88768 182.479 8.88768C182.564 8.88768 182.634 8.86131 182.688 8.80857C182.744 8.75436 182.779 8.67525 182.796 8.57123L182.813 8.45696ZM183.899 9.02832L183.934 8.83054C183.849 8.91991 183.773 8.97924 183.707 9.00854C183.643 9.03638 183.584 9.0503 183.532 9.0503C183.434 9.0503 183.362 9.0144 183.316 8.94262C183.272 8.87083 183.261 8.77707 183.281 8.66133L183.409 7.94054H183.589L183.466 8.64375C183.451 8.72433 183.454 8.78439 183.475 8.82395C183.497 8.86204 183.531 8.88109 183.578 8.88109C183.606 8.88109 183.637 8.87523 183.672 8.86351C183.707 8.85032 183.749 8.82615 183.795 8.79099C183.842 8.75583 183.896 8.70528 183.958 8.63936L184.081 7.94054H184.261L184.07 9.02832H183.899ZM185.065 8.99096C184.971 9.03052 184.882 9.0503 184.799 9.0503C184.724 9.0503 184.666 9.03418 184.625 9.00195C184.584 8.96825 184.558 8.92504 184.546 8.8723C184.534 8.81955 184.534 8.76315 184.544 8.70309L184.649 8.09876H184.46L184.487 7.94054H184.678L184.731 7.63728H184.911L184.858 7.94054H185.214L185.186 8.09876H184.83L184.722 8.70309C184.71 8.77048 184.715 8.81809 184.737 8.84592C184.759 8.8723 184.791 8.88548 184.834 8.88548C184.857 8.88548 184.885 8.88255 184.917 8.87669C184.951 8.86937 184.987 8.85691 185.025 8.83933L185.065 8.99096Z" fill="black"/>
<path d="M150.633 8.08778C150.592 8.08778 150.541 8.10389 150.479 8.13612C150.419 8.16689 150.343 8.23208 150.251 8.3317L150.128 9.02832H149.948L150.141 7.94054H150.31L150.277 8.13832C150.362 8.04895 150.438 7.99035 150.504 7.96252C150.57 7.93322 150.629 7.91857 150.682 7.91857C150.753 7.91857 150.811 7.93908 150.855 7.9801C150.899 8.02112 150.926 8.07679 150.937 8.14711C151.023 8.05481 151.101 7.99401 151.172 7.96471C151.242 7.93395 151.304 7.91857 151.358 7.91857C151.457 7.91857 151.528 7.95446 151.572 8.02624C151.617 8.09803 151.629 8.19252 151.609 8.30973L151.482 9.02832H151.301L151.427 8.32511C151.441 8.246 151.438 8.18666 151.416 8.14711C151.394 8.10755 151.358 8.08778 151.31 8.08778C151.284 8.08778 151.252 8.09437 151.216 8.10755C151.18 8.12074 151.139 8.14491 151.093 8.18007C151.046 8.21377 150.991 8.26431 150.928 8.3317L150.805 9.02832H150.624L150.748 8.32511C150.762 8.246 150.759 8.18666 150.737 8.14711C150.716 8.10755 150.682 8.08778 150.633 8.08778ZM152.66 8.98437C152.597 9.00781 152.536 9.02466 152.477 9.03491C152.419 9.04517 152.363 9.0503 152.31 9.0503C152.193 9.0503 152.101 9.02686 152.033 8.97997C151.967 8.93163 151.924 8.86644 151.902 8.78439C151.88 8.70235 151.877 8.61006 151.893 8.5075L151.913 8.39543C151.936 8.25186 151.991 8.13685 152.077 8.05042C152.165 7.96252 152.276 7.91857 152.409 7.91857C152.475 7.91857 152.537 7.93029 152.594 7.95373C152.652 7.97717 152.699 8.01379 152.734 8.0636C152.77 8.11341 152.787 8.17714 152.787 8.25479C152.787 8.29727 152.781 8.34269 152.767 8.39104C152.756 8.43792 152.733 8.48919 152.699 8.54486H152.064C152.051 8.64595 152.063 8.72872 152.099 8.79318C152.136 8.85618 152.211 8.88768 152.326 8.88768C152.367 8.88768 152.414 8.88328 152.466 8.87449C152.519 8.86424 152.574 8.84959 152.631 8.83054L152.66 8.98437ZM152.403 8.07899C152.319 8.07899 152.25 8.10682 152.196 8.16249C152.142 8.2167 152.107 8.29288 152.091 8.39104H152.583C152.595 8.36613 152.602 8.34269 152.605 8.32071C152.609 8.29874 152.611 8.27823 152.611 8.25918C152.611 8.19765 152.592 8.15224 152.552 8.12294C152.512 8.09364 152.463 8.07899 152.403 8.07899ZM153.664 8.08778C153.636 8.08778 153.604 8.09437 153.567 8.10755C153.53 8.11927 153.488 8.14271 153.44 8.17787C153.391 8.21157 153.336 8.26211 153.273 8.3295L153.147 9.02832H152.967L153.16 7.94054H153.33L153.297 8.14052C153.383 8.04968 153.46 7.99035 153.527 7.96252C153.596 7.93322 153.658 7.91857 153.712 7.91857C153.812 7.91857 153.885 7.95519 153.932 8.02844C153.98 8.10023 153.994 8.19399 153.974 8.30973L153.846 9.02832H153.666L153.789 8.32511C153.818 8.16689 153.777 8.08778 153.664 8.08778ZM154.888 9.02832L154.924 8.83054C154.839 8.91991 154.763 8.97924 154.697 9.00854C154.633 9.03638 154.574 9.0503 154.522 9.0503C154.423 9.0503 154.352 9.0144 154.306 8.94262C154.262 8.87083 154.25 8.77707 154.271 8.66133L154.398 7.94054H154.579L154.456 8.64375C154.441 8.72433 154.444 8.78439 154.464 8.82395C154.486 8.86204 154.521 8.88109 154.568 8.88109C154.595 8.88109 154.627 8.87523 154.662 8.86351C154.697 8.85032 154.738 8.82615 154.785 8.79099C154.832 8.75583 154.886 8.70528 154.948 8.63936L155.071 7.94054H155.251L155.06 9.02832H154.888Z" fill="black"/>
<path d="M138.68 8.08778C138.652 8.08778 138.619 8.09437 138.581 8.10755C138.545 8.11927 138.502 8.14271 138.454 8.17787C138.405 8.21303 138.35 8.26431 138.287 8.3317L138.164 9.02832H137.983L138.269 7.40214H138.449L138.322 8.12953C138.405 8.04309 138.48 7.98669 138.546 7.96032C138.613 7.93248 138.674 7.91857 138.728 7.91857C138.829 7.91857 138.903 7.95446 138.95 8.02624C138.997 8.09803 139.01 8.19252 138.99 8.30973L138.862 9.02832H138.682L138.805 8.32511C138.821 8.246 138.818 8.18666 138.794 8.14711C138.772 8.10755 138.734 8.08778 138.68 8.08778ZM140.204 8.46136L140.186 8.57123C140.163 8.72653 140.107 8.84519 140.019 8.92723C139.933 9.00928 139.82 9.0503 139.681 9.0503C139.578 9.0503 139.493 9.02686 139.426 8.97997C139.36 8.93309 139.314 8.86863 139.287 8.78659C139.261 8.70455 139.256 8.61152 139.272 8.5075L139.289 8.39543C139.314 8.246 139.369 8.12953 139.454 8.04602C139.541 7.96105 139.654 7.91857 139.795 7.91857C139.899 7.91857 139.984 7.94274 140.05 7.99108C140.116 8.03943 140.162 8.10462 140.188 8.18666C140.215 8.26724 140.22 8.3588 140.204 8.46136ZM140.017 8.45696C140.034 8.34708 140.024 8.25772 139.986 8.18886C139.948 8.11854 139.883 8.08338 139.793 8.08338C139.708 8.08338 139.637 8.11048 139.582 8.16469C139.527 8.21889 139.492 8.29581 139.476 8.39543L139.459 8.5119C139.441 8.62471 139.451 8.71554 139.489 8.78439C139.529 8.85325 139.593 8.88768 139.683 8.88768C139.768 8.88768 139.837 8.86131 139.892 8.80857C139.947 8.75436 139.983 8.67525 139.999 8.57123L140.017 8.45696ZM141.118 8.08778C141.077 8.08778 141.025 8.10389 140.964 8.13612C140.904 8.16689 140.828 8.23208 140.735 8.3317L140.612 9.02832H140.432L140.625 7.94054H140.795L140.762 8.13832C140.847 8.04895 140.922 7.99035 140.988 7.96252C141.054 7.93322 141.113 7.91857 141.166 7.91857C141.238 7.91857 141.296 7.93908 141.34 7.9801C141.384 8.02112 141.411 8.07679 141.421 8.14711C141.507 8.05481 141.586 7.99401 141.656 7.96471C141.726 7.93395 141.789 7.91857 141.843 7.91857C141.941 7.91857 142.012 7.95446 142.056 8.02624C142.101 8.09803 142.114 8.19252 142.093 8.30973L141.966 9.02832H141.786L141.911 8.32511C141.926 8.246 141.922 8.18666 141.9 8.14711C141.878 8.10755 141.843 8.08778 141.795 8.08778C141.768 8.08778 141.737 8.09437 141.7 8.10755C141.665 8.12074 141.624 8.14491 141.577 8.18007C141.53 8.21377 141.475 8.26431 141.412 8.3317L141.289 9.02832H141.109L141.232 8.32511C141.247 8.246 141.243 8.18666 141.221 8.14711C141.2 8.10755 141.166 8.08778 141.118 8.08778ZM143.144 8.98437C143.081 9.00781 143.02 9.02466 142.962 9.03491C142.903 9.04517 142.847 9.0503 142.795 9.0503C142.677 9.0503 142.585 9.02686 142.518 8.97997C142.452 8.93163 142.408 8.86644 142.386 8.78439C142.364 8.70235 142.361 8.61006 142.377 8.5075L142.397 8.39543C142.42 8.25186 142.475 8.13685 142.562 8.05042C142.65 7.96252 142.76 7.91857 142.894 7.91857C142.96 7.91857 143.021 7.93029 143.078 7.95373C143.137 7.97717 143.184 8.01379 143.219 8.0636C143.254 8.11341 143.272 8.17714 143.272 8.25479C143.272 8.29727 143.265 8.34269 143.252 8.39104C143.24 8.43792 143.217 8.48919 143.184 8.54486H142.549C142.535 8.64595 142.547 8.72872 142.584 8.79318C142.62 8.85618 142.696 8.88768 142.81 8.88768C142.851 8.88768 142.898 8.88328 142.951 8.87449C143.003 8.86424 143.058 8.84959 143.116 8.83054L143.144 8.98437ZM142.887 8.07899C142.803 8.07899 142.735 8.10682 142.68 8.16249C142.626 8.2167 142.591 8.29288 142.575 8.39104H143.067C143.079 8.36613 143.086 8.34269 143.089 8.32071C143.094 8.29874 143.096 8.27823 143.096 8.25918C143.096 8.19765 143.076 8.15224 143.036 8.12294C142.997 8.09364 142.947 8.07899 142.887 8.07899Z" fill="black"/>
<rect x="2.86023" y="121.056" width="61.0426" height="61.0426" fill="#D9D9D9"/>
<rect x="2.86023" y="205.173" width="61.0426" height="61.0426" fill="#D9D9D9"/>
<rect x="2.86023" y="278.424" width="61.0426" height="61.0426" fill="#D9D9D9"/>
<rect x="2.4939" y="351.675" width="61.0426" height="61.0426" fill="#D9D9D9"/>
<rect x="2.4939" y="424.927" width="61.0426" height="61.0426" fill="#D9D9D9"/>
<rect x="3.34863" y="509.044" width="61.0426" height="61.0426" fill="#D9D9D9"/>
<rect x="67.0771" y="205.173" width="61.0426" height="61.0426" fill="#D9D9D9"/>
<rect x="67.0771" y="278.424" width="61.0426" height="61.0426" fill="#D9D9D9"/>
<rect x="66.7108" y="351.675" width="61.0426" height="61.0426" fill="#D9D9D9"/>
<rect x="66.7108" y="424.927" width="61.0426" height="61.0426" fill="#D9D9D9"/>
<rect x="67.1992" y="509.044" width="61.0426" height="61.0426" fill="#D9D9D9"/>
<rect x="131.294" y="205.173" width="61.0426" height="61.0426" fill="#D9D9D9"/>
<rect x="131.294" y="278.424" width="61.0426" height="61.0426" fill="#D9D9D9"/>
<rect x="130.806" y="351.675" width="61.0426" height="61.0426" fill="#D9D9D9"/>
<rect x="66.589" y="121.056" width="61.0426" height="61.0426" fill="#D9D9D9"/>
<path d="M4.50106 114.625V114.991C4.34869 114.991 4.22661 114.974 4.1348 114.939C4.04299 114.903 3.97072 114.853 3.91798 114.786C3.86719 114.72 3.82617 114.639 3.79491 114.543L3.75975 114.44C3.5273 114.433 3.35052 114.356 3.22942 114.212C3.11026 114.067 3.05068 113.871 3.05068 113.623V113.204C3.05068 112.95 3.11319 112.751 3.23821 112.606C3.36517 112.462 3.55172 112.389 3.79784 112.389C4.04202 112.389 4.22758 112.462 4.35455 112.606C4.48152 112.751 4.54501 112.95 4.54501 113.204V113.623C4.54501 113.82 4.50594 113.986 4.4278 114.121C4.35162 114.254 4.23833 114.346 4.08792 114.396C4.1055 114.459 4.12992 114.507 4.16117 114.54C4.19242 114.573 4.23442 114.596 4.28716 114.607C4.34186 114.619 4.41315 114.625 4.50106 114.625ZM4.18461 113.204C4.18461 113.044 4.15336 112.924 4.09085 112.844C4.02834 112.762 3.93067 112.72 3.79784 112.72C3.66502 112.72 3.56735 112.762 3.50484 112.844C3.44233 112.924 3.41108 113.044 3.41108 113.204V113.623C3.41108 113.783 3.44233 113.904 3.50484 113.986C3.56735 114.068 3.66502 114.109 3.79784 114.109C3.93067 114.109 4.02834 114.068 4.09085 113.986C4.15336 113.904 4.18461 113.783 4.18461 113.623V113.204ZM6.0133 114.411L5.89024 114.021H5.20754L5.08448 114.411H4.7358L5.40092 112.419H5.71151L6.37956 114.411H6.0133ZM5.39799 113.412L5.30716 113.699H5.78769L5.69686 113.412L5.55036 112.908L5.39799 113.412ZM6.28333 112.756V112.419H7.74835V112.756H7.19164V114.411H6.84004V112.756H6.28333ZM8.93191 114.411L8.80884 114.021H8.12614L8.00308 114.411H7.65441L8.31953 112.419H8.63011L9.29816 114.411H8.93191ZM8.3166 113.412L8.22576 113.699H8.70629L8.61546 113.412L8.46896 112.908L8.3166 113.412ZM9.98258 113.679V114.411H9.63097V112.419H10.2961C10.4973 112.419 10.6516 112.47 10.759 112.574C10.8684 112.676 10.9231 112.812 10.9231 112.984V113.11C10.9231 113.223 10.8987 113.323 10.8499 113.409C10.801 113.495 10.7307 113.56 10.6389 113.605C10.7991 113.879 10.9358 114.147 11.0491 114.411H10.6477C10.55 114.167 10.4338 113.923 10.299 113.679H9.98258ZM10.2961 112.741H9.98258V113.356H10.2961C10.382 113.356 10.4475 113.335 10.4924 113.292C10.5393 113.247 10.5627 113.186 10.5627 113.11V112.984C10.5627 112.91 10.5393 112.851 10.4924 112.808C10.4475 112.763 10.382 112.741 10.2961 112.741Z" fill="black"/>
<path d="M0.700932 196.872V196.535H2.16596V196.872H1.60925V198.527H1.25764V196.872H0.700932ZM3.34951 198.527L3.22645 198.138H2.54375L2.42069 198.527H2.07201L2.73713 196.535H3.04772L3.71577 198.527H3.34951ZM2.7342 197.528L2.64337 197.815H3.1239L3.03307 197.528L2.88656 197.024L2.7342 197.528ZM4.43242 196.535L4.98913 197.897L5.5429 196.535H5.92674V198.527H5.58979V197.766L5.63374 197.068L5.13856 198.293H4.82504L4.34158 197.065L4.38554 197.766V198.527H4.04858V196.535H4.43242ZM6.82949 198.527H6.47789V196.535H6.82949V198.527ZM8.5278 198.19V198.527H7.37922V196.535H7.73083V198.19H8.5278ZM8.86427 198.527V196.535H9.18658C9.34089 196.736 9.4874 196.949 9.62609 197.174C9.76477 197.396 9.89077 197.626 10.0041 197.862L9.97769 197.267V196.535H10.3146V198.527H9.99234C9.86733 198.281 9.73743 198.034 9.60264 197.786C9.46982 197.536 9.3282 197.301 9.17779 197.08L9.20123 197.766V198.527H8.86427ZM11.9251 198.527L11.802 198.138H11.1193L10.9962 198.527H10.6476L11.3127 196.535H11.6233L12.2913 198.527H11.9251ZM11.3097 197.528L11.2189 197.815H11.6994L11.6086 197.528L11.4621 197.024L11.3097 197.528ZM12.6241 198.527V196.535H13.298C13.5363 196.535 13.718 196.601 13.843 196.734C13.968 196.867 14.0305 197.062 14.0305 197.32V197.739C14.0305 197.999 13.968 198.195 13.843 198.328C13.718 198.461 13.5363 198.527 13.298 198.527H12.6241ZM13.2834 196.872H12.9757V198.19H13.2834C13.4221 198.19 13.5207 198.156 13.5793 198.088C13.6399 198.019 13.6701 197.903 13.6701 197.739V197.32C13.6701 197.158 13.6399 197.043 13.5793 196.974C13.5207 196.906 13.4221 196.872 13.2834 196.872ZM14.4486 196.535H14.809V197.812C14.809 197.941 14.8373 198.043 14.8939 198.117C14.9506 198.189 15.0414 198.226 15.1664 198.226C15.2915 198.226 15.3823 198.189 15.4389 198.117C15.4956 198.043 15.5239 197.941 15.5239 197.812V196.535H15.8843V197.812C15.8843 198.037 15.8247 198.218 15.7056 198.354C15.5864 198.489 15.4067 198.557 15.1664 198.557C14.9242 198.557 14.7435 198.489 14.6244 198.354C14.5072 198.218 14.4486 198.037 14.4486 197.812V196.535Z" fill="black"/>
<path d="M3.82707 502.398L3.32896 501.528C3.29575 501.565 3.26157 501.602 3.22641 501.64C3.1932 501.677 3.15804 501.715 3.12093 501.754V502.398H2.76932V500.406H3.12093V501.352C3.26938 501.182 3.39635 501.021 3.50183 500.869C3.60731 500.715 3.69815 500.56 3.77433 500.406H4.15816C4.07417 500.574 3.98431 500.733 3.8886 500.884C3.79484 501.032 3.69522 501.17 3.58973 501.297L4.25192 502.398H3.82707ZM5.63553 502.398L5.51246 502.009H4.82976L4.7067 502.398H4.35802L5.02315 500.406H5.33373L6.00178 502.398H5.63553ZM5.02022 501.399L4.92938 501.686H5.40991L5.31908 501.399L5.17258 500.895L5.02022 501.399ZM6.6862 501.666V502.398H6.33459V500.406H6.99971C7.20091 500.406 7.35523 500.458 7.46266 500.561C7.57205 500.663 7.62674 500.8 7.62674 500.972V501.097C7.62674 501.211 7.60233 501.31 7.55349 501.396C7.50466 501.482 7.43434 501.548 7.34253 501.593C7.50271 501.866 7.63944 502.135 7.75274 502.398H7.35132C7.25365 502.154 7.13743 501.91 7.00264 501.666H6.6862ZM6.99971 500.728H6.6862V501.344H6.99971C7.08566 501.344 7.1511 501.322 7.19603 501.279C7.24291 501.234 7.26635 501.174 7.26635 501.097V500.972C7.26635 500.897 7.24291 500.839 7.19603 500.796C7.1511 500.751 7.08566 500.728 6.99971 500.728ZM8.12009 502.398V500.406H8.4424C8.59671 500.607 8.74321 500.82 8.8819 501.045C9.02059 501.267 9.14658 501.497 9.25988 501.733L9.23351 501.139V500.406H9.57046V502.398H9.24816C9.12314 502.152 8.99325 501.905 8.85846 501.657C8.72563 501.407 8.58402 501.172 8.43361 500.951L8.45705 501.637V502.398H8.12009ZM11.1809 502.398L11.0578 502.009H10.3751L10.252 502.398H9.90337L10.5685 500.406H10.8791L11.5471 502.398H11.1809ZM10.5656 501.399L10.4747 501.686H10.9553L10.8644 501.399L10.7179 500.895L10.5656 501.399ZM11.4509 500.743V500.406H12.9159V500.743H12.3592V502.398H12.0076V500.743H11.4509ZM14.0995 502.398L13.9764 502.009H13.2937L13.1706 502.398H12.822L13.4871 500.406H13.7977L14.4657 502.398H14.0995ZM13.4842 501.399L13.3933 501.686H13.8739L13.783 501.399L13.6365 500.895L13.4842 501.399ZM15.8563 502.398L15.3582 501.528C15.325 501.565 15.2908 501.602 15.2556 501.64C15.2224 501.677 15.1873 501.715 15.1501 501.754V502.398H14.7985V500.406H15.1501V501.352C15.2986 501.182 15.4256 501.021 15.5311 500.869C15.6365 500.715 15.7274 500.56 15.8035 500.406H16.1874C16.1034 500.574 16.0135 500.733 15.9178 500.884C15.8241 501.032 15.7244 501.17 15.619 501.297L16.2811 502.398H15.8563ZM17.6647 502.398L17.5417 502.009H16.859L16.7359 502.398H16.3872L17.0524 500.406H17.3629L18.031 502.398H17.6647ZM17.0494 501.399L16.9586 501.686H17.4391L17.3483 501.399L17.2018 500.895L17.0494 501.399Z" fill="black"/>
<rect x="-3.48816" y="610.13" width="198.877" height="62.7518" fill="#D9D9D9"/>
</g>
<defs>
<clipPath id="clip0_579_575">
<rect width="195.336" height="672.446" fill="white" transform="translate(0.052002 0.435547)"/>
</clipPath>
</defs>
</svg>
