<svg width="402" height="352" viewBox="0 0 402 352" fill="none" xmlns="http://www.w3.org/2000/svg">
<g clip-path="url(#clip0_618_2014)">
<rect width="401.28" height="352" transform="matrix(-1 0 0 1 401.28 0)" fill="white"/>
<rect x="12.6265" y="54.8164" width="383.172" height="276.004" fill="#F0F3F5"/>
<rect width="183.637" height="129.368" transform="matrix(-1 0 0 1 396.072 54.543)" fill="#D9D9D9"/>
<rect width="183.637" height="128.272" transform="matrix(-1 0 0 1 395.798 202.547)" fill="#D9D9D9"/>
<rect width="183.637" height="129.368" transform="matrix(-1 0 0 1 195.716 201.453)" fill="#D9D9D9"/>
<path d="M87.2884 267.766L86.7418 265.972H87.0314L87.4192 267.345H87.4379L87.821 265.972H88.1153L88.4937 267.34H88.5124L88.9002 265.972H89.1898L88.6432 267.766H88.3723L87.9798 266.387H87.9518L87.5593 267.766H87.2884ZM90.0822 267.808C89.9685 267.808 89.8653 267.786 89.7727 267.743C89.68 267.7 89.6064 267.637 89.5519 267.555C89.4974 267.473 89.4702 267.373 89.4702 267.256C89.4702 267.154 89.4904 267.07 89.5309 267.006C89.5714 266.942 89.6255 266.891 89.6932 266.855C89.761 266.818 89.8357 266.791 89.9175 266.773C90 266.754 90.083 266.739 90.1663 266.728C90.2753 266.714 90.3637 266.704 90.4314 266.697C90.4999 266.689 90.5498 266.676 90.5809 266.658C90.6128 266.64 90.6288 266.609 90.6288 266.565V266.556C90.6288 266.44 90.5973 266.351 90.5342 266.287C90.4719 266.223 90.3773 266.191 90.2504 266.191C90.1188 266.191 90.0156 266.22 89.9409 266.278C89.8661 266.335 89.8135 266.397 89.7832 266.462L89.5216 266.369C89.5683 266.26 89.6306 266.175 89.7084 266.114C89.7871 266.053 89.8727 266.01 89.9654 265.986C90.0588 265.961 90.1507 265.948 90.241 265.948C90.2986 265.948 90.3648 265.955 90.4396 265.969C90.5151 265.983 90.5879 266.01 90.658 266.052C90.7289 266.094 90.7876 266.158 90.8344 266.243C90.8811 266.327 90.9044 266.441 90.9044 266.584V267.766H90.6288V267.523H90.6148C90.5961 267.562 90.5649 267.603 90.5213 267.648C90.4777 267.692 90.4197 267.73 90.3473 267.761C90.2749 267.792 90.1865 267.808 90.0822 267.808ZM90.1242 267.56C90.2332 267.56 90.3251 267.539 90.3999 267.496C90.4754 267.453 90.5322 267.398 90.5704 267.33C90.6093 267.262 90.6288 267.191 90.6288 267.116V266.864C90.6171 266.878 90.5914 266.891 90.5517 266.902C90.5128 266.913 90.4676 266.923 90.4162 266.932C90.3656 266.939 90.3162 266.946 90.2679 266.953C90.2204 266.958 90.1818 266.963 90.1523 266.967C90.0806 266.976 90.0137 266.991 89.9514 267.012C89.8899 267.033 89.84 267.063 89.8019 267.105C89.7645 267.145 89.7458 267.2 89.7458 267.27C89.7458 267.366 89.7812 267.439 89.8521 267.488C89.9237 267.536 90.0144 267.56 90.1242 267.56ZM91.4075 267.766V265.972H91.6738V266.243H91.6925C91.7252 266.154 91.7844 266.082 91.8701 266.027C91.9557 265.971 92.0523 265.944 92.1597 265.944C92.18 265.944 92.2053 265.944 92.2356 265.945C92.266 265.946 92.289 265.947 92.3046 265.948V266.229C92.2952 266.226 92.2738 266.223 92.2403 266.218C92.2076 266.213 92.173 266.21 92.1364 266.21C92.0492 266.21 91.9713 266.228 91.9028 266.265C91.835 266.301 91.7813 266.35 91.7416 266.414C91.7027 266.477 91.6832 266.549 91.6832 266.63V267.766H91.4075ZM93.3289 267.803C93.156 267.803 93.0069 267.765 92.8815 267.689C92.7569 267.611 92.6608 267.504 92.593 267.366C92.5261 267.228 92.4926 267.066 92.4926 266.883C92.4926 266.699 92.5261 266.537 92.593 266.397C92.6608 266.256 92.755 266.146 92.8757 266.067C92.9972 265.988 93.1389 265.948 93.3008 265.948C93.3943 265.948 93.4865 265.964 93.5776 265.995C93.6688 266.026 93.7517 266.077 93.8264 266.147C93.9012 266.216 93.9607 266.308 94.0051 266.422C94.0495 266.537 94.0717 266.678 94.0717 266.845V266.962H92.6888V266.724H93.7914C93.7914 266.623 93.7711 266.532 93.7307 266.453C93.6909 266.373 93.6341 266.311 93.5601 266.265C93.4869 266.219 93.4005 266.196 93.3008 266.196C93.191 266.196 93.0961 266.223 93.0159 266.278C92.9364 266.331 92.8753 266.401 92.8325 266.488C92.7897 266.574 92.7682 266.667 92.7682 266.766V266.925C92.7682 267.06 92.7916 267.175 92.8383 267.269C92.8858 267.363 92.9516 267.434 93.0357 267.483C93.1198 267.531 93.2175 267.555 93.3289 267.555C93.4013 267.555 93.4667 267.545 93.5251 267.525C93.5843 267.504 93.6353 267.473 93.6781 267.432C93.7209 267.39 93.754 267.337 93.7774 267.275L94.0437 267.35C94.0156 267.44 93.9685 267.52 93.9023 267.588C93.8362 267.656 93.7544 267.709 93.6571 267.747C93.5597 267.784 93.4503 267.803 93.3289 267.803ZM94.7667 266.686V267.766H94.491V265.374H94.7667V266.252H94.79C94.8321 266.159 94.8951 266.086 94.9792 266.031C95.0641 265.976 95.177 265.948 95.3179 265.948C95.4402 265.948 95.5472 265.973 95.6391 266.022C95.731 266.07 95.8023 266.144 95.8529 266.245C95.9043 266.345 95.93 266.472 95.93 266.626V267.766H95.6543V266.644C95.6543 266.502 95.6173 266.392 95.5434 266.314C95.4702 266.235 95.3685 266.196 95.2385 266.196C95.1482 266.196 95.0672 266.215 94.9956 266.253C94.9247 266.291 94.8687 266.347 94.8274 266.42C94.7869 266.493 94.7667 266.582 94.7667 266.686ZM97.163 267.803C97.0011 267.803 96.859 267.764 96.7367 267.687C96.6153 267.61 96.5203 267.502 96.4518 267.364C96.384 267.225 96.3501 267.063 96.3501 266.878C96.3501 266.691 96.384 266.528 96.4518 266.389C96.5203 266.249 96.6153 266.141 96.7367 266.064C96.859 265.987 97.0011 265.948 97.163 265.948C97.325 265.948 97.4667 265.987 97.5882 266.064C97.7104 266.141 97.8054 266.249 97.8732 266.389C97.9417 266.528 97.976 266.691 97.976 266.878C97.976 267.063 97.9417 267.225 97.8732 267.364C97.8054 267.502 97.7104 267.61 97.5882 267.687C97.4667 267.764 97.325 267.803 97.163 267.803ZM97.163 267.555C97.2861 267.555 97.3873 267.524 97.4667 267.461C97.5461 267.398 97.6049 267.315 97.6431 267.212C97.6812 267.109 97.7003 266.998 97.7003 266.878C97.7003 266.758 97.6812 266.646 97.6431 266.543C97.6049 266.439 97.5461 266.355 97.4667 266.292C97.3873 266.228 97.2861 266.196 97.163 266.196C97.04 266.196 96.9388 266.228 96.8594 266.292C96.78 266.355 96.7212 266.439 96.683 266.543C96.6449 266.646 96.6258 266.758 96.6258 266.878C96.6258 266.998 96.6449 267.109 96.683 267.212C96.7212 267.315 96.78 267.398 96.8594 267.461C96.9388 267.524 97.04 267.555 97.163 267.555ZM99.5273 267.032V265.972H99.803V267.766H99.5273V267.462H99.5086C99.4666 267.553 99.4012 267.631 99.3124 267.694C99.2237 267.757 99.1115 267.789 98.976 267.789C98.8639 267.789 98.7643 267.764 98.677 267.715C98.5898 267.666 98.5213 267.591 98.4715 267.491C98.4216 267.391 98.3967 267.264 98.3967 267.112V265.972H98.6724V267.093C98.6724 267.224 98.709 267.328 98.7822 267.406C98.8561 267.484 98.9503 267.523 99.0648 267.523C99.1333 267.523 99.203 267.505 99.2739 267.47C99.3455 267.435 99.4055 267.381 99.4537 267.309C99.5028 267.237 99.5273 267.144 99.5273 267.032ZM101.579 266.373L101.331 266.443C101.315 266.402 101.292 266.362 101.262 266.323C101.232 266.283 101.192 266.251 101.141 266.225C101.089 266.199 101.023 266.187 100.943 266.187C100.833 266.187 100.742 266.212 100.669 266.262C100.596 266.312 100.56 266.376 100.56 266.453C100.56 266.521 100.585 266.575 100.635 266.615C100.685 266.655 100.763 266.688 100.868 266.714L101.135 266.78C101.295 266.819 101.415 266.878 101.493 266.959C101.572 267.038 101.611 267.14 101.611 267.266C101.611 267.369 101.582 267.46 101.523 267.541C101.464 267.622 101.382 267.686 101.277 267.733C101.172 267.78 101.05 267.803 100.911 267.803C100.728 267.803 100.576 267.763 100.456 267.684C100.336 267.604 100.26 267.488 100.228 267.336L100.49 267.27C100.515 267.367 100.562 267.439 100.631 267.488C100.701 267.536 100.793 267.56 100.906 267.56C101.034 267.56 101.136 267.533 101.212 267.478C101.288 267.423 101.326 267.357 101.326 267.28C101.326 267.217 101.305 267.165 101.261 267.123C101.217 267.08 101.15 267.048 101.06 267.027L100.761 266.957C100.597 266.918 100.476 266.858 100.399 266.776C100.323 266.694 100.284 266.591 100.284 266.467C100.284 266.366 100.313 266.276 100.37 266.198C100.427 266.12 100.506 266.059 100.604 266.015C100.704 265.97 100.817 265.948 100.943 265.948C101.121 265.948 101.26 265.987 101.361 266.065C101.463 266.143 101.536 266.246 101.579 266.373ZM102.778 267.803C102.606 267.803 102.456 267.765 102.331 267.689C102.206 267.611 102.11 267.504 102.043 267.366C101.976 267.228 101.942 267.066 101.942 266.883C101.942 266.699 101.976 266.537 102.043 266.397C102.11 266.256 102.205 266.146 102.325 266.067C102.447 265.988 102.588 265.948 102.75 265.948C102.844 265.948 102.936 265.964 103.027 265.995C103.118 266.026 103.201 266.077 103.276 266.147C103.351 266.216 103.41 266.308 103.455 266.422C103.499 266.537 103.521 266.678 103.521 266.845V266.962H102.138V266.724H103.241C103.241 266.623 103.221 266.532 103.18 266.453C103.14 266.373 103.084 266.311 103.01 266.265C102.936 266.219 102.85 266.196 102.75 266.196C102.641 266.196 102.546 266.223 102.465 266.278C102.386 266.331 102.325 266.401 102.282 266.488C102.239 266.574 102.218 266.667 102.218 266.766V266.925C102.218 267.06 102.241 267.175 102.288 267.269C102.335 267.363 102.401 267.434 102.485 267.483C102.569 267.531 102.667 267.555 102.778 267.555C102.851 267.555 102.916 267.545 102.975 267.525C103.034 267.504 103.085 267.473 103.128 267.432C103.17 267.39 103.204 267.337 103.227 267.275L103.493 267.35C103.465 267.44 103.418 267.52 103.352 267.588C103.286 267.656 103.204 267.709 103.107 267.747C103.009 267.784 102.9 267.803 102.778 267.803ZM105.996 267.032V265.972H106.272V267.766H105.996V267.462H105.977C105.935 267.553 105.87 267.631 105.781 267.694C105.693 267.757 105.58 267.789 105.445 267.789C105.333 267.789 105.233 267.764 105.146 267.715C105.059 267.666 104.99 267.591 104.94 267.491C104.89 267.391 104.866 267.264 104.866 267.112V265.972H105.141V267.093C105.141 267.224 105.178 267.328 105.251 267.406C105.325 267.484 105.419 267.523 105.534 267.523C105.602 267.523 105.672 267.505 105.743 267.47C105.814 267.435 105.874 267.381 105.923 267.309C105.972 267.237 105.996 267.144 105.996 267.032ZM107.557 265.972V266.205H106.627V265.972H107.557ZM106.898 265.542H107.174V267.252C107.174 267.33 107.185 267.388 107.208 267.427C107.231 267.465 107.261 267.491 107.296 267.504C107.333 267.516 107.372 267.523 107.412 267.523C107.442 267.523 107.467 267.521 107.487 267.518C107.506 267.514 107.522 267.511 107.534 267.509L107.59 267.756C107.571 267.763 107.545 267.77 107.511 267.777C107.478 267.785 107.435 267.789 107.384 267.789C107.306 267.789 107.23 267.772 107.155 267.739C107.081 267.705 107.02 267.654 106.971 267.586C106.922 267.517 106.898 267.431 106.898 267.326V265.542ZM107.972 267.766V265.972H108.247V267.766H107.972ZM108.112 265.673C108.058 265.673 108.012 265.654 107.973 265.618C107.935 265.581 107.915 265.537 107.915 265.486C107.915 265.434 107.935 265.39 107.973 265.354C108.012 265.317 108.058 265.299 108.112 265.299C108.165 265.299 108.211 265.317 108.249 265.354C108.288 265.39 108.308 265.434 108.308 265.486C108.308 265.537 108.288 265.581 108.249 265.618C108.211 265.654 108.165 265.673 108.112 265.673ZM109.028 265.374V267.766H108.752V265.374H109.028ZM109.533 267.766V265.972H109.808V267.766H109.533ZM109.673 265.673C109.619 265.673 109.573 265.654 109.534 265.618C109.496 265.581 109.476 265.537 109.476 265.486C109.476 265.434 109.496 265.39 109.534 265.354C109.573 265.317 109.619 265.299 109.673 265.299C109.726 265.299 109.772 265.317 109.811 265.354C109.849 265.39 109.869 265.434 109.869 265.486C109.869 265.537 109.849 265.581 109.811 265.618C109.772 265.654 109.726 265.673 109.673 265.673ZM110.262 267.766V267.555L111.28 266.247V266.229H110.294V265.972H111.635V266.191L110.645 267.49V267.509H111.668V267.766H110.262ZM112.62 267.808C112.507 267.808 112.404 267.786 112.311 267.743C112.218 267.7 112.145 267.637 112.09 267.555C112.036 267.473 112.008 267.373 112.008 267.256C112.008 267.154 112.029 267.07 112.069 267.006C112.11 266.942 112.164 266.891 112.231 266.855C112.299 266.818 112.374 266.791 112.456 266.773C112.538 266.754 112.621 266.739 112.704 266.728C112.813 266.714 112.902 266.704 112.97 266.697C113.038 266.689 113.088 266.676 113.119 266.658C113.151 266.64 113.167 266.609 113.167 266.565V266.556C113.167 266.44 113.135 266.351 113.072 266.287C113.01 266.223 112.915 266.191 112.789 266.191C112.657 266.191 112.554 266.22 112.479 266.278C112.404 266.335 112.352 266.397 112.321 266.462L112.06 266.369C112.106 266.26 112.169 266.175 112.247 266.114C112.325 266.053 112.411 266.01 112.504 265.986C112.597 265.961 112.689 265.948 112.779 265.948C112.837 265.948 112.903 265.955 112.978 265.969C113.053 265.983 113.126 266.01 113.196 266.052C113.267 266.094 113.326 266.158 113.373 266.243C113.419 266.327 113.443 266.441 113.443 266.584V267.766H113.167V267.523H113.153C113.134 267.562 113.103 267.603 113.06 267.648C113.016 267.692 112.958 267.73 112.885 267.761C112.813 267.792 112.725 267.808 112.62 267.808ZM112.662 267.56C112.771 267.56 112.863 267.539 112.938 267.496C113.014 267.453 113.07 267.398 113.109 267.33C113.148 267.262 113.167 267.191 113.167 267.116V266.864C113.155 266.878 113.13 266.891 113.09 266.902C113.051 266.913 113.006 266.923 112.954 266.932C112.904 266.939 112.854 266.946 112.806 266.953C112.759 266.958 112.72 266.963 112.69 266.967C112.619 266.976 112.552 266.991 112.49 267.012C112.428 267.033 112.378 267.063 112.34 267.105C112.303 267.145 112.284 267.2 112.284 267.27C112.284 267.366 112.319 267.439 112.39 267.488C112.462 267.536 112.553 267.56 112.662 267.56ZM114.726 265.972V266.205H113.796V265.972H114.726ZM114.067 265.542H114.343V267.252C114.343 267.33 114.354 267.388 114.377 267.427C114.4 267.465 114.43 267.491 114.465 267.504C114.502 267.516 114.541 267.523 114.581 267.523C114.611 267.523 114.636 267.521 114.656 267.518C114.675 267.514 114.691 267.511 114.703 267.509L114.759 267.756C114.74 267.763 114.714 267.77 114.68 267.777C114.647 267.785 114.604 267.789 114.553 267.789C114.475 267.789 114.399 267.772 114.324 267.739C114.25 267.705 114.189 267.654 114.14 267.586C114.091 267.517 114.067 267.431 114.067 267.326V265.542ZM115.141 267.766V265.972H115.416V267.766H115.141ZM115.281 265.673C115.227 265.673 115.181 265.654 115.142 265.618C115.104 265.581 115.085 265.537 115.085 265.486C115.085 265.434 115.104 265.39 115.142 265.354C115.181 265.317 115.227 265.299 115.281 265.299C115.334 265.299 115.38 265.317 115.419 265.354C115.457 265.39 115.477 265.434 115.477 265.486C115.477 265.537 115.457 265.581 115.419 265.618C115.38 265.654 115.334 265.673 115.281 265.673ZM116.65 267.803C116.488 267.803 116.346 267.764 116.224 267.687C116.102 267.61 116.007 267.502 115.939 267.364C115.871 267.225 115.837 267.063 115.837 266.878C115.837 266.691 115.871 266.528 115.939 266.389C116.007 266.249 116.102 266.141 116.224 266.064C116.346 265.987 116.488 265.948 116.65 265.948C116.812 265.948 116.954 265.987 117.075 266.064C117.197 266.141 117.292 266.249 117.36 266.389C117.429 266.528 117.463 266.691 117.463 266.878C117.463 267.063 117.429 267.225 117.36 267.364C117.292 267.502 117.197 267.61 117.075 267.687C116.954 267.764 116.812 267.803 116.65 267.803ZM116.65 267.555C116.773 267.555 116.874 267.524 116.954 267.461C117.033 267.398 117.092 267.315 117.13 267.212C117.168 267.109 117.187 266.998 117.187 266.878C117.187 266.758 117.168 266.646 117.13 266.543C117.092 266.439 117.033 266.355 116.954 266.292C116.874 266.228 116.773 266.196 116.65 266.196C116.527 266.196 116.426 266.228 116.346 266.292C116.267 266.355 116.208 266.439 116.17 266.543C116.132 266.646 116.113 266.758 116.113 266.878C116.113 266.998 116.132 267.109 116.17 267.212C116.208 267.315 116.267 267.398 116.346 267.461C116.426 267.524 116.527 267.555 116.65 267.555ZM118.159 266.686V267.766H117.884V265.972H118.15V266.252H118.173C118.215 266.161 118.279 266.088 118.365 266.032C118.45 265.976 118.561 265.948 118.696 265.948C118.818 265.948 118.924 265.973 119.015 266.023C119.106 266.072 119.177 266.147 119.228 266.247C119.279 266.347 119.304 266.473 119.304 266.626V267.766H119.028V266.644C119.028 266.503 118.992 266.394 118.918 266.315C118.845 266.236 118.745 266.196 118.617 266.196C118.529 266.196 118.45 266.215 118.381 266.253C118.313 266.291 118.258 266.347 118.219 266.42C118.179 266.493 118.159 266.582 118.159 266.686Z" fill="black"/>
<rect width="183.637" height="129.368" transform="matrix(-1 0 0 1 195.99 54.543)" fill="#D9D9D9"/>
<path d="M284.946 116.723L284.698 116.793C284.683 116.752 284.66 116.712 284.629 116.673C284.6 116.633 284.559 116.6 284.508 116.575C284.457 116.549 284.391 116.536 284.311 116.536C284.201 116.536 284.109 116.561 284.036 116.612C283.964 116.662 283.927 116.725 283.927 116.802C283.927 116.871 283.952 116.925 284.002 116.965C284.052 117.004 284.13 117.038 284.236 117.064L284.502 117.129C284.662 117.168 284.782 117.228 284.861 117.308C284.939 117.388 284.979 117.49 284.979 117.615C284.979 117.718 284.949 117.81 284.89 117.891C284.831 117.972 284.75 118.036 284.645 118.083C284.539 118.129 284.417 118.153 284.278 118.153C284.095 118.153 283.943 118.113 283.823 118.033C283.704 117.954 283.628 117.838 283.596 117.685L283.857 117.62C283.882 117.717 283.929 117.789 283.999 117.837C284.069 117.886 284.16 117.91 284.273 117.91C284.402 117.91 284.504 117.882 284.579 117.828C284.655 117.773 284.694 117.706 284.694 117.629C284.694 117.567 284.672 117.515 284.628 117.473C284.585 117.43 284.518 117.398 284.427 117.377L284.128 117.307C283.964 117.268 283.843 117.208 283.766 117.126C283.69 117.043 283.652 116.94 283.652 116.816C283.652 116.715 283.68 116.626 283.737 116.548C283.795 116.47 283.873 116.409 283.972 116.364C284.071 116.32 284.184 116.298 284.311 116.298C284.488 116.298 284.627 116.337 284.729 116.415C284.831 116.493 284.903 116.595 284.946 116.723ZM286.174 116.321V116.555H285.244V116.321H286.174ZM285.515 115.891H285.791V117.601C285.791 117.679 285.802 117.738 285.825 117.777C285.848 117.815 285.877 117.84 285.913 117.854C285.95 117.866 285.988 117.872 286.029 117.872C286.059 117.872 286.084 117.871 286.104 117.868C286.123 117.864 286.139 117.861 286.15 117.858L286.206 118.106C286.188 118.113 286.162 118.12 286.128 118.127C286.095 118.135 286.052 118.139 286.001 118.139C285.923 118.139 285.847 118.122 285.772 118.088C285.698 118.055 285.636 118.004 285.587 117.935C285.539 117.867 285.515 117.78 285.515 117.676V115.891ZM287.298 118.153C287.136 118.153 286.994 118.114 286.872 118.037C286.75 117.96 286.655 117.852 286.587 117.713C286.519 117.575 286.485 117.413 286.485 117.228C286.485 117.041 286.519 116.878 286.587 116.738C286.655 116.599 286.75 116.491 286.872 116.413C286.994 116.336 287.136 116.298 287.298 116.298C287.46 116.298 287.602 116.336 287.723 116.413C287.845 116.491 287.94 116.599 288.008 116.738C288.077 116.878 288.111 117.041 288.111 117.228C288.111 117.413 288.077 117.575 288.008 117.713C287.94 117.852 287.845 117.96 287.723 118.037C287.602 118.114 287.46 118.153 287.298 118.153ZM287.298 117.905C287.421 117.905 287.522 117.873 287.602 117.81C287.681 117.747 287.74 117.664 287.778 117.562C287.816 117.459 287.835 117.347 287.835 117.228C287.835 117.108 287.816 116.996 287.778 116.892C287.74 116.789 287.681 116.705 287.602 116.641C287.522 116.577 287.421 116.545 287.298 116.545C287.175 116.545 287.074 116.577 286.994 116.641C286.915 116.705 286.856 116.789 286.818 116.892C286.78 116.996 286.761 117.108 286.761 117.228C286.761 117.347 286.78 117.459 286.818 117.562C286.856 117.664 286.915 117.747 286.994 117.81C287.074 117.873 287.175 117.905 287.298 117.905ZM289.26 118.153C289.092 118.153 288.947 118.113 288.826 118.033C288.704 117.954 288.611 117.845 288.546 117.705C288.48 117.566 288.447 117.407 288.447 117.228C288.447 117.045 288.481 116.885 288.548 116.745C288.616 116.605 288.71 116.496 288.831 116.417C288.952 116.338 289.094 116.298 289.256 116.298C289.382 116.298 289.496 116.321 289.597 116.368C289.698 116.415 289.781 116.48 289.846 116.564C289.91 116.648 289.95 116.746 289.966 116.858H289.69C289.669 116.777 289.622 116.704 289.55 116.641C289.478 116.577 289.382 116.545 289.26 116.545C289.153 116.545 289.059 116.574 288.978 116.63C288.898 116.685 288.835 116.763 288.79 116.864C288.745 116.965 288.723 117.083 288.723 117.218C288.723 117.357 288.745 117.478 288.789 117.58C288.833 117.683 288.895 117.763 288.975 117.82C289.056 117.877 289.151 117.905 289.26 117.905C289.332 117.905 289.397 117.893 289.455 117.868C289.514 117.843 289.563 117.807 289.604 117.76C289.644 117.713 289.673 117.657 289.69 117.592H289.966C289.95 117.698 289.912 117.793 289.85 117.878C289.79 117.962 289.709 118.029 289.608 118.079C289.509 118.128 289.393 118.153 289.26 118.153ZM290.626 117.461L290.621 117.12H290.677L291.462 116.321H291.803L290.967 117.167H290.943L290.626 117.461ZM290.369 118.115V115.723H290.644V118.115H290.369ZM291.509 118.115L290.808 117.228L291.004 117.036L291.859 118.115H291.509ZM293.359 115.723V118.115H293.083V115.723H293.359ZM294.616 118.153C294.443 118.153 294.294 118.114 294.168 118.038C294.044 117.961 293.948 117.854 293.88 117.716C293.813 117.577 293.779 117.416 293.779 117.232C293.779 117.048 293.813 116.887 293.88 116.746C293.948 116.605 294.042 116.496 294.162 116.417C294.284 116.338 294.426 116.298 294.588 116.298C294.681 116.298 294.773 116.313 294.864 116.345C294.955 116.376 295.038 116.426 295.113 116.496C295.188 116.566 295.247 116.658 295.292 116.772C295.336 116.887 295.358 117.027 295.358 117.195V117.312H293.976V117.073H295.078C295.078 116.972 295.058 116.882 295.017 116.802C294.978 116.723 294.921 116.66 294.847 116.614C294.774 116.568 294.687 116.545 294.588 116.545C294.478 116.545 294.383 116.573 294.303 116.627C294.223 116.681 294.162 116.751 294.119 116.837C294.076 116.924 294.055 117.017 294.055 117.115V117.274C294.055 117.41 294.078 117.525 294.125 117.619C294.173 117.712 294.238 117.784 294.322 117.833C294.407 117.881 294.504 117.905 294.616 117.905C294.688 117.905 294.753 117.895 294.812 117.875C294.871 117.854 294.922 117.822 294.965 117.781C295.008 117.739 295.041 117.687 295.064 117.625L295.33 117.699C295.302 117.79 295.255 117.869 295.189 117.938C295.123 118.005 295.041 118.058 294.944 118.097C294.846 118.134 294.737 118.153 294.616 118.153ZM297.19 116.321L296.527 118.115H296.246L295.583 116.321H295.882L296.377 117.751H296.396L296.891 116.321H297.19ZM298.242 118.153C298.069 118.153 297.92 118.114 297.795 118.038C297.67 117.961 297.574 117.854 297.506 117.716C297.439 117.577 297.406 117.416 297.406 117.232C297.406 117.048 297.439 116.887 297.506 116.746C297.574 116.605 297.668 116.496 297.789 116.417C297.91 116.338 298.052 116.298 298.214 116.298C298.307 116.298 298.4 116.313 298.491 116.345C298.582 116.376 298.665 116.426 298.739 116.496C298.814 116.566 298.874 116.658 298.918 116.772C298.963 116.887 298.985 117.027 298.985 117.195V117.312H297.602V117.073H298.704C298.704 116.972 298.684 116.882 298.644 116.802C298.604 116.723 298.547 116.66 298.473 116.614C298.4 116.568 298.314 116.545 298.214 116.545C298.104 116.545 298.009 116.573 297.929 116.627C297.849 116.681 297.788 116.751 297.745 116.837C297.703 116.924 297.681 117.017 297.681 117.115V117.274C297.681 117.41 297.705 117.525 297.751 117.619C297.799 117.712 297.865 117.784 297.949 117.833C298.033 117.881 298.131 117.905 298.242 117.905C298.314 117.905 298.38 117.895 298.438 117.875C298.497 117.854 298.548 117.822 298.591 117.781C298.634 117.739 298.667 117.687 298.69 117.625L298.957 117.699C298.929 117.79 298.882 117.869 298.815 117.938C298.749 118.005 298.667 118.058 298.57 118.097C298.473 118.134 298.363 118.153 298.242 118.153ZM299.68 115.723V118.115H299.404V115.723H299.68ZM301.455 116.723L301.208 116.793C301.192 116.752 301.169 116.712 301.139 116.673C301.109 116.633 301.069 116.6 301.017 116.575C300.966 116.549 300.9 116.536 300.82 116.536C300.71 116.536 300.619 116.561 300.545 116.612C300.473 116.662 300.437 116.725 300.437 116.802C300.437 116.871 300.462 116.925 300.512 116.965C300.561 117.004 300.639 117.038 300.745 117.064L301.011 117.129C301.172 117.168 301.291 117.228 301.37 117.308C301.449 117.388 301.488 117.49 301.488 117.615C301.488 117.718 301.458 117.81 301.399 117.891C301.341 117.972 301.259 118.036 301.154 118.083C301.049 118.129 300.927 118.153 300.787 118.153C300.604 118.153 300.453 118.113 300.333 118.033C300.213 117.954 300.137 117.838 300.105 117.685L300.367 117.62C300.392 117.717 300.439 117.789 300.508 117.837C300.578 117.886 300.67 117.91 300.783 117.91C300.911 117.91 301.013 117.882 301.089 117.828C301.165 117.773 301.203 117.706 301.203 117.629C301.203 117.567 301.181 117.515 301.138 117.473C301.094 117.43 301.027 117.398 300.937 117.377L300.638 117.307C300.473 117.268 300.353 117.208 300.276 117.126C300.199 117.043 300.161 116.94 300.161 116.816C300.161 116.715 300.19 116.626 300.246 116.548C300.304 116.47 300.382 116.409 300.481 116.364C300.581 116.32 300.694 116.298 300.82 116.298C300.997 116.298 301.137 116.337 301.238 116.415C301.34 116.493 301.412 116.595 301.455 116.723ZM302.828 118.115V116.321H303.104V118.115H302.828ZM302.968 116.022C302.914 116.022 302.868 116.004 302.829 115.967C302.791 115.931 302.772 115.887 302.772 115.835C302.772 115.784 302.791 115.74 302.829 115.703C302.868 115.667 302.914 115.648 302.968 115.648C303.022 115.648 303.068 115.667 303.106 115.703C303.145 115.74 303.164 115.784 303.164 115.835C303.164 115.887 303.145 115.931 303.106 115.967C303.068 116.004 303.022 116.022 302.968 116.022ZM303.884 117.036V118.115H303.608V116.321H303.875V116.602H303.898C303.94 116.51 304.004 116.437 304.09 116.382C304.175 116.326 304.286 116.298 304.421 116.298C304.543 116.298 304.649 116.323 304.74 116.373C304.831 116.422 304.902 116.496 304.953 116.597C305.003 116.697 305.029 116.823 305.029 116.975V118.115H304.753V116.994C304.753 116.853 304.716 116.743 304.643 116.665C304.57 116.585 304.47 116.545 304.342 116.545C304.254 116.545 304.175 116.565 304.106 116.603C304.037 116.641 303.983 116.697 303.944 116.77C303.904 116.843 303.884 116.932 303.884 117.036ZM306.985 118.157C306.872 118.157 306.768 118.136 306.676 118.093C306.583 118.049 306.51 117.987 306.455 117.905C306.401 117.822 306.373 117.723 306.373 117.606C306.373 117.503 306.394 117.42 306.434 117.356C306.475 117.291 306.529 117.241 306.596 117.204C306.664 117.168 306.739 117.14 306.821 117.122C306.903 117.104 306.986 117.089 307.069 117.078C307.178 117.064 307.267 117.054 307.335 117.047C307.403 117.039 307.453 117.026 307.484 117.008C307.516 116.99 307.532 116.959 307.532 116.915V116.905C307.532 116.79 307.5 116.7 307.437 116.637C307.375 116.573 307.28 116.541 307.154 116.541C307.022 116.541 306.919 116.57 306.844 116.627C306.769 116.685 306.717 116.746 306.686 116.812L306.425 116.718C306.471 116.609 306.534 116.524 306.612 116.464C306.69 116.402 306.776 116.359 306.869 116.335C306.962 116.31 307.054 116.298 307.144 116.298C307.202 116.298 307.268 116.305 307.343 116.319C307.418 116.332 307.491 116.36 307.561 116.402C307.632 116.444 307.691 116.507 307.738 116.592C307.784 116.677 307.808 116.791 307.808 116.933V118.115H307.532V117.872H307.518C307.499 117.911 307.468 117.953 307.425 117.997C307.381 118.042 307.323 118.079 307.25 118.111C307.178 118.142 307.09 118.157 306.985 118.157ZM307.027 117.91C307.136 117.91 307.228 117.888 307.303 117.845C307.379 117.803 307.435 117.747 307.474 117.68C307.512 117.612 307.532 117.541 307.532 117.466V117.214C307.52 117.228 307.495 117.24 307.455 117.252C307.416 117.263 307.371 117.273 307.319 117.281C307.269 117.289 307.219 117.296 307.171 117.302C307.124 117.308 307.085 117.312 307.055 117.316C306.984 117.326 306.917 117.341 306.855 117.362C306.793 117.382 306.743 117.413 306.705 117.454C306.668 117.495 306.649 117.55 306.649 117.62C306.649 117.716 306.684 117.788 306.755 117.837C306.827 117.886 306.918 117.91 307.027 117.91ZM309.236 118.115V116.321H309.502V116.602H309.525C309.563 116.506 309.623 116.431 309.706 116.378C309.79 116.325 309.89 116.298 310.007 116.298C310.125 116.298 310.223 116.325 310.302 116.378C310.382 116.431 310.443 116.506 310.488 116.602H310.507C310.552 116.509 310.621 116.435 310.713 116.381C310.805 116.326 310.915 116.298 311.044 116.298C311.204 116.298 311.335 116.348 311.437 116.449C311.539 116.548 311.59 116.704 311.59 116.915V118.115H311.315V116.915C311.315 116.782 311.279 116.688 311.206 116.631C311.134 116.574 311.048 116.545 310.95 116.545C310.824 116.545 310.726 116.584 310.657 116.66C310.588 116.735 310.553 116.831 310.553 116.947V118.115H310.273V116.887C310.273 116.785 310.24 116.702 310.174 116.64C310.107 116.577 310.022 116.545 309.918 116.545C309.846 116.545 309.779 116.565 309.717 116.603C309.655 116.641 309.606 116.694 309.567 116.762C309.53 116.829 309.511 116.906 309.511 116.994V118.115H309.236ZM312.847 118.153C312.674 118.153 312.525 118.114 312.399 118.038C312.275 117.961 312.178 117.854 312.111 117.716C312.044 117.577 312.01 117.416 312.01 117.232C312.01 117.048 312.044 116.887 312.111 116.746C312.178 116.605 312.273 116.496 312.393 116.417C312.515 116.338 312.657 116.298 312.819 116.298C312.912 116.298 313.004 116.313 313.095 116.345C313.186 116.376 313.269 116.426 313.344 116.496C313.419 116.566 313.478 116.658 313.523 116.772C313.567 116.887 313.589 117.027 313.589 117.195V117.312H312.207V117.073H313.309C313.309 116.972 313.289 116.882 313.248 116.802C313.209 116.723 313.152 116.66 313.078 116.614C313.005 116.568 312.918 116.545 312.819 116.545C312.709 116.545 312.614 116.573 312.534 116.627C312.454 116.681 312.393 116.751 312.35 116.837C312.307 116.924 312.286 117.017 312.286 117.115V117.274C312.286 117.41 312.309 117.525 312.356 117.619C312.404 117.712 312.469 117.784 312.553 117.833C312.637 117.881 312.735 117.905 312.847 117.905C312.919 117.905 312.984 117.895 313.043 117.875C313.102 117.854 313.153 117.822 313.196 117.781C313.239 117.739 313.272 117.687 313.295 117.625L313.561 117.699C313.533 117.79 313.486 117.869 313.42 117.938C313.354 118.005 313.272 118.058 313.175 118.097C313.077 118.134 312.968 118.153 312.847 118.153ZM314.789 116.321V116.555H313.859V116.321H314.789ZM314.13 115.891H314.406V117.601C314.406 117.679 314.417 117.738 314.44 117.777C314.463 117.815 314.493 117.84 314.528 117.854C314.565 117.866 314.604 117.872 314.644 117.872C314.674 117.872 314.699 117.871 314.719 117.868C314.738 117.864 314.754 117.861 314.766 117.858L314.822 118.106C314.803 118.113 314.777 118.12 314.743 118.127C314.71 118.135 314.667 118.139 314.616 118.139C314.538 118.139 314.462 118.122 314.387 118.088C314.313 118.055 314.252 118.004 314.203 117.935C314.154 117.867 314.13 117.78 314.13 117.676V115.891ZM315.936 118.153C315.764 118.153 315.614 118.114 315.489 118.038C315.365 117.961 315.268 117.854 315.201 117.716C315.134 117.577 315.1 117.416 315.1 117.232C315.1 117.048 315.134 116.887 315.201 116.746C315.268 116.605 315.363 116.496 315.483 116.417C315.605 116.338 315.746 116.298 315.908 116.298C316.002 116.298 316.094 116.313 316.185 116.345C316.276 116.376 316.359 116.426 316.434 116.496C316.509 116.566 316.568 116.658 316.613 116.772C316.657 116.887 316.679 117.027 316.679 117.195V117.312H315.296V117.073H316.399C316.399 116.972 316.379 116.882 316.338 116.802C316.299 116.723 316.242 116.66 316.168 116.614C316.095 116.568 316.008 116.545 315.908 116.545C315.799 116.545 315.704 116.573 315.623 116.627C315.544 116.681 315.483 116.751 315.44 116.837C315.397 116.924 315.376 117.017 315.376 117.115V117.274C315.376 117.41 315.399 117.525 315.446 117.619C315.493 117.712 315.559 117.784 315.643 117.833C315.727 117.881 315.825 117.905 315.936 117.905C316.009 117.905 316.074 117.895 316.133 117.875C316.192 117.854 316.243 117.822 316.286 117.781C316.328 117.739 316.362 117.687 316.385 117.625L316.651 117.699C316.623 117.79 316.576 117.869 316.51 117.938C316.444 118.005 316.362 118.058 316.265 118.097C316.167 118.134 316.058 118.153 315.936 118.153ZM317.099 118.115V116.321H317.365V116.592H317.384C317.416 116.503 317.475 116.431 317.561 116.376C317.647 116.321 317.743 116.293 317.851 116.293C317.871 116.293 317.896 116.294 317.927 116.294C317.957 116.295 317.98 116.296 317.996 116.298V116.578C317.986 116.576 317.965 116.572 317.931 116.568C317.899 116.562 317.864 116.559 317.827 116.559C317.74 116.559 317.662 116.578 317.594 116.614C317.526 116.65 317.472 116.7 317.433 116.764C317.394 116.827 317.374 116.899 317.374 116.98V118.115H317.099Z" fill="black"/>
<path d="M82.4716 117.143C82.4576 117.025 82.4007 116.933 82.301 116.868C82.2014 116.802 82.0791 116.77 81.9343 116.77C81.8284 116.77 81.7357 116.787 81.6563 116.821C81.5777 116.855 81.5162 116.902 81.4718 116.962C81.4282 117.022 81.4064 117.091 81.4064 117.167C81.4064 117.231 81.4216 117.286 81.4519 117.332C81.4831 117.377 81.5228 117.414 81.5711 117.445C81.6193 117.474 81.67 117.499 81.7229 117.518C81.7758 117.537 81.8245 117.552 81.8689 117.564L82.1118 117.629C82.1741 117.646 82.2434 117.668 82.3197 117.697C82.3968 117.726 82.4704 117.765 82.5405 117.815C82.6113 117.864 82.6697 117.927 82.7157 118.004C82.7616 118.081 82.7846 118.176 82.7846 118.288C82.7846 118.417 82.7507 118.534 82.683 118.638C82.616 118.743 82.5179 118.826 82.3886 118.887C82.2602 118.949 82.104 118.98 81.9203 118.98C81.749 118.98 81.6007 118.952 81.4753 118.897C81.3507 118.841 81.2526 118.764 81.181 118.665C81.1101 118.566 81.07 118.452 81.0607 118.321H81.3597C81.3674 118.411 81.3978 118.486 81.4508 118.545C81.5045 118.603 81.5722 118.647 81.654 118.676C81.7365 118.704 81.8253 118.718 81.9203 118.718C82.0309 118.718 82.1301 118.7 82.2181 118.664C82.3061 118.628 82.3758 118.577 82.4272 118.512C82.4786 118.447 82.5043 118.371 82.5043 118.283C82.5043 118.204 82.4821 118.139 82.4377 118.09C82.3933 118.04 82.3349 117.999 82.2625 117.968C82.1901 117.937 82.1118 117.91 82.0277 117.886L81.7334 117.802C81.5465 117.748 81.3986 117.672 81.2896 117.572C81.1806 117.472 81.1261 117.342 81.1261 117.181C81.1261 117.047 81.1623 116.93 81.2347 116.83C81.3079 116.73 81.406 116.652 81.529 116.597C81.6528 116.541 81.791 116.513 81.9436 116.513C82.0978 116.513 82.2349 116.54 82.3548 116.596C82.4747 116.65 82.5697 116.725 82.6398 116.82C82.7106 116.915 82.748 117.023 82.7519 117.143H82.4716ZM84.0037 117.143V117.377H83.074V117.143H84.0037ZM83.3449 116.714H83.6206V118.424C83.6206 118.501 83.6319 118.56 83.6544 118.599C83.6778 118.637 83.7074 118.663 83.7432 118.676C83.7798 118.688 83.8183 118.695 83.8588 118.695C83.8892 118.695 83.9141 118.693 83.9336 118.69C83.9531 118.686 83.9686 118.683 83.9803 118.681L84.0364 118.928C84.0177 118.935 83.9916 118.942 83.9581 118.949C83.9246 118.957 83.8822 118.961 83.8308 118.961C83.7529 118.961 83.6766 118.944 83.6019 118.911C83.5279 118.877 83.4664 118.826 83.4173 118.758C83.3691 118.689 83.3449 118.603 83.3449 118.498V116.714ZM85.1278 118.975C84.9659 118.975 84.8238 118.936 84.7015 118.859C84.5801 118.782 84.4851 118.674 84.4165 118.536C84.3488 118.397 84.3149 118.235 84.3149 118.05C84.3149 117.863 84.3488 117.7 84.4165 117.56C84.4851 117.421 84.5801 117.313 84.7015 117.236C84.8238 117.159 84.9659 117.12 85.1278 117.12C85.2898 117.12 85.4315 117.159 85.553 117.236C85.6752 117.313 85.7702 117.421 85.838 117.56C85.9065 117.7 85.9408 117.863 85.9408 118.05C85.9408 118.235 85.9065 118.397 85.838 118.536C85.7702 118.674 85.6752 118.782 85.553 118.859C85.4315 118.936 85.2898 118.975 85.1278 118.975ZM85.1278 118.727C85.2509 118.727 85.3521 118.696 85.4315 118.633C85.5109 118.57 85.5697 118.487 85.6079 118.384C85.646 118.281 85.6651 118.17 85.6651 118.05C85.6651 117.93 85.646 117.818 85.6079 117.715C85.5697 117.611 85.5109 117.527 85.4315 117.464C85.3521 117.4 85.2509 117.368 85.1278 117.368C85.0048 117.368 84.9036 117.4 84.8242 117.464C84.7448 117.527 84.686 117.611 84.6478 117.715C84.6097 117.818 84.5906 117.93 84.5906 118.05C84.5906 118.17 84.6097 118.281 84.6478 118.384C84.686 118.487 84.7448 118.57 84.8242 118.633C84.9036 118.696 85.0048 118.727 85.1278 118.727ZM87.0903 118.975C86.9222 118.975 86.7773 118.935 86.6559 118.856C86.5344 118.776 86.4409 118.667 86.3755 118.528C86.3101 118.388 86.2774 118.229 86.2774 118.05C86.2774 117.868 86.3109 117.707 86.3779 117.567C86.4456 117.427 86.5398 117.318 86.6605 117.239C86.782 117.16 86.9237 117.12 87.0857 117.12C87.2118 117.12 87.3255 117.143 87.4267 117.19C87.5279 117.237 87.6109 117.302 87.6755 117.386C87.7401 117.471 87.7802 117.569 87.7958 117.681H87.5202C87.4991 117.599 87.4524 117.527 87.38 117.464C87.3084 117.4 87.2118 117.368 87.0903 117.368C86.9829 117.368 86.8887 117.396 86.8077 117.452C86.7275 117.507 86.6648 117.585 86.6196 117.687C86.5753 117.787 86.5531 117.905 86.5531 118.04C86.5531 118.179 86.5749 118.3 86.6185 118.403C86.6629 118.505 86.7252 118.585 86.8054 118.642C86.8863 118.699 86.9813 118.727 87.0903 118.727C87.162 118.727 87.227 118.715 87.2854 118.69C87.3438 118.665 87.3932 118.629 87.4337 118.582C87.4742 118.536 87.503 118.48 87.5202 118.414H87.7958C87.7802 118.52 87.7417 118.616 87.6802 118.7C87.6194 118.784 87.5388 118.851 87.4384 118.901C87.3387 118.95 87.2227 118.975 87.0903 118.975ZM88.4557 118.283L88.451 117.942H88.5071L89.292 117.143H89.633L88.7968 117.989H88.7734L88.4557 118.283ZM88.1988 118.938V116.545H88.4744V118.938H88.1988ZM89.3387 118.938L88.6379 118.05L88.8341 117.858L89.6891 118.938H89.3387ZM91.0483 118.938H90.7447L91.623 116.545H91.922L92.8003 118.938H92.4966L91.7818 116.924H91.7631L91.0483 118.938ZM91.1605 118.003H92.3845V118.26H91.1605V118.003ZM93.8597 119.648C93.7265 119.648 93.612 119.631 93.5163 119.596C93.4205 119.563 93.3407 119.518 93.2768 119.463C93.2138 119.409 93.1635 119.35 93.1262 119.288L93.3457 119.134C93.3707 119.166 93.4022 119.204 93.4403 119.246C93.4785 119.289 93.5307 119.326 93.5969 119.357C93.6638 119.389 93.7514 119.405 93.8597 119.405C94.0045 119.405 94.124 119.37 94.2182 119.3C94.3124 119.229 94.3595 119.12 94.3595 118.97V118.606H94.3362C94.3159 118.638 94.2871 118.679 94.2498 118.727C94.2132 118.775 94.1602 118.817 94.0909 118.855C94.0224 118.891 93.9297 118.909 93.8129 118.909C93.6681 118.909 93.5381 118.875 93.4228 118.807C93.3084 118.738 93.2177 118.638 93.1507 118.508C93.0845 118.377 93.0514 118.218 93.0514 118.031C93.0514 117.847 93.0837 117.687 93.1484 117.551C93.213 117.414 93.3029 117.308 93.4182 117.233C93.5334 117.158 93.6665 117.12 93.8176 117.12C93.9344 117.12 94.0271 117.14 94.0956 117.179C94.1649 117.217 94.2178 117.26 94.2544 117.309C94.2918 117.358 94.3206 117.397 94.3409 117.428H94.3689V117.143H94.6352V118.989C94.6352 119.143 94.6002 119.268 94.5301 119.365C94.4608 119.462 94.3673 119.534 94.2498 119.579C94.133 119.625 94.0029 119.648 93.8597 119.648ZM93.8503 118.662C93.9609 118.662 94.0543 118.637 94.1306 118.586C94.2069 118.535 94.2649 118.463 94.3047 118.368C94.3444 118.273 94.3642 118.159 94.3642 118.026C94.3642 117.897 94.3448 117.783 94.3058 117.684C94.2669 117.585 94.2093 117.508 94.133 117.452C94.0567 117.396 93.9624 117.368 93.8503 117.368C93.7335 117.368 93.6362 117.397 93.5583 117.457C93.4812 117.516 93.4232 117.595 93.3843 117.695C93.3461 117.794 93.3271 117.905 93.3271 118.026C93.3271 118.151 93.3465 118.261 93.3855 118.357C93.4252 118.452 93.4836 118.527 93.5606 118.581C93.6385 118.635 93.7351 118.662 93.8503 118.662ZM95.1398 118.938V117.143H95.4154V118.938H95.1398ZM95.2799 116.844C95.2262 116.844 95.1799 116.826 95.1409 116.79C95.1028 116.753 95.0837 116.709 95.0837 116.658C95.0837 116.606 95.1028 116.562 95.1409 116.526C95.1799 116.489 95.2262 116.471 95.2799 116.471C95.3336 116.471 95.3796 116.489 95.4177 116.526C95.4567 116.562 95.4761 116.606 95.4761 116.658C95.4761 116.709 95.4567 116.753 95.4177 116.79C95.3796 116.826 95.3336 116.844 95.2799 116.844ZM96.1959 117.858V118.938H95.9203V117.143H96.1866V117.424H96.2099C96.252 117.333 96.3158 117.26 96.4015 117.204C96.4871 117.148 96.5977 117.12 96.7332 117.12C96.8546 117.12 96.9609 117.145 97.052 117.195C97.1431 117.244 97.214 117.319 97.2646 117.419C97.3152 117.519 97.3405 117.645 97.3405 117.798V118.938H97.0649V117.816C97.0649 117.675 97.0283 117.566 96.9551 117.487C96.8819 117.407 96.7814 117.368 96.6537 117.368C96.5658 117.368 96.4871 117.387 96.4178 117.425C96.3493 117.463 96.2952 117.519 96.2555 117.592C96.2158 117.665 96.1959 117.754 96.1959 117.858ZM98.5684 119.648C98.4352 119.648 98.3207 119.631 98.225 119.596C98.1292 119.563 98.0494 119.518 97.9855 119.463C97.9225 119.409 97.8722 119.35 97.8349 119.288L98.0544 119.134C98.0794 119.166 98.1109 119.204 98.1491 119.246C98.1872 119.289 98.2394 119.326 98.3056 119.357C98.3725 119.389 98.4601 119.405 98.5684 119.405C98.7132 119.405 98.8327 119.37 98.9269 119.3C99.0211 119.229 99.0683 119.12 99.0683 118.97V118.606H99.0449C99.0246 118.638 98.9958 118.679 98.9585 118.727C98.9219 118.775 98.8689 118.817 98.7996 118.855C98.7311 118.891 98.6384 118.909 98.5216 118.909C98.3768 118.909 98.2468 118.875 98.1315 118.807C98.0171 118.738 97.9264 118.638 97.8594 118.508C97.7932 118.377 97.7601 118.218 97.7601 118.031C97.7601 117.847 97.7924 117.687 97.8571 117.551C97.9217 117.414 98.0116 117.308 98.1269 117.233C98.2421 117.158 98.3753 117.12 98.5263 117.12C98.6431 117.12 98.7358 117.14 98.8043 117.179C98.8736 117.217 98.9265 117.26 98.9631 117.309C99.0005 117.358 99.0293 117.397 99.0496 117.428H99.0776V117.143H99.3439V118.989C99.3439 119.143 99.3089 119.268 99.2388 119.365C99.1695 119.462 99.076 119.534 98.9585 119.579C98.8417 119.625 98.7116 119.648 98.5684 119.648ZM98.559 118.662C98.6696 118.662 98.763 118.637 98.8393 118.586C98.9156 118.535 98.9736 118.463 99.0134 118.368C99.0531 118.273 99.0729 118.159 99.0729 118.026C99.0729 117.897 99.0535 117.783 99.0145 117.684C98.9756 117.585 98.918 117.508 98.8417 117.452C98.7654 117.396 98.6711 117.368 98.559 117.368C98.4422 117.368 98.3449 117.397 98.267 117.457C98.1899 117.516 98.1319 117.595 98.093 117.695C98.0548 117.794 98.0358 117.905 98.0358 118.026C98.0358 118.151 98.0552 118.261 98.0942 118.357C98.1339 118.452 98.1923 118.527 98.2694 118.581C98.3472 118.635 98.4438 118.662 98.559 118.662ZM100.773 118.938V117.143H101.049V118.938H100.773ZM100.914 116.844C100.86 116.844 100.814 116.826 100.775 116.79C100.737 116.753 100.717 116.709 100.717 116.658C100.717 116.606 100.737 116.562 100.775 116.526C100.814 116.489 100.86 116.471 100.914 116.471C100.967 116.471 101.013 116.489 101.051 116.526C101.09 116.562 101.11 116.606 101.11 116.658C101.11 116.709 101.09 116.753 101.051 116.79C101.013 116.826 100.967 116.844 100.914 116.844ZM101.83 117.858V118.938H101.554V117.143H101.82V117.424H101.844C101.886 117.333 101.95 117.26 102.035 117.204C102.121 117.148 102.231 117.12 102.367 117.12C102.488 117.12 102.595 117.145 102.686 117.195C102.777 117.244 102.848 117.319 102.898 117.419C102.949 117.519 102.974 117.645 102.974 117.798V118.938H102.699V117.816C102.699 117.675 102.662 117.566 102.589 117.487C102.516 117.407 102.415 117.368 102.287 117.368C102.2 117.368 102.121 117.387 102.052 117.425C101.983 117.463 101.929 117.519 101.889 117.592C101.849 117.665 101.83 117.754 101.83 117.858ZM104.44 118.938V116.545H104.716V117.428H104.739C104.76 117.397 104.788 117.358 104.823 117.309C104.86 117.26 104.912 117.217 104.98 117.179C105.048 117.14 105.141 117.12 105.258 117.12C105.409 117.12 105.542 117.158 105.657 117.233C105.773 117.309 105.863 117.416 105.927 117.555C105.992 117.693 106.024 117.857 106.024 118.045C106.024 118.235 105.992 118.4 105.927 118.539C105.863 118.678 105.773 118.785 105.659 118.862C105.544 118.937 105.412 118.975 105.263 118.975C105.147 118.975 105.055 118.956 104.986 118.918C104.917 118.879 104.863 118.835 104.826 118.786C104.788 118.736 104.76 118.695 104.739 118.662H104.707V118.938H104.44ZM104.711 118.04C104.711 118.176 104.731 118.296 104.771 118.399C104.811 118.502 104.869 118.582 104.945 118.641C105.021 118.698 105.115 118.727 105.225 118.727C105.34 118.727 105.437 118.697 105.514 118.636C105.592 118.575 105.65 118.492 105.689 118.389C105.729 118.284 105.749 118.168 105.749 118.04C105.749 117.914 105.729 117.801 105.69 117.699C105.652 117.597 105.594 117.517 105.516 117.458C105.439 117.398 105.342 117.368 105.225 117.368C105.113 117.368 105.019 117.396 104.943 117.453C104.866 117.509 104.809 117.588 104.77 117.689C104.731 117.789 104.711 117.907 104.711 118.04ZM106.974 118.98C106.86 118.98 106.757 118.958 106.664 118.915C106.572 118.872 106.498 118.809 106.443 118.727C106.389 118.645 106.362 118.545 106.362 118.428C106.362 118.325 106.382 118.242 106.422 118.178C106.463 118.114 106.517 118.063 106.585 118.026C106.653 117.99 106.727 117.963 106.809 117.945C106.892 117.926 106.974 117.911 107.058 117.9C107.167 117.886 107.255 117.876 107.323 117.869C107.391 117.861 107.441 117.848 107.472 117.83C107.504 117.812 107.52 117.781 107.52 117.737V117.727C107.52 117.612 107.489 117.523 107.426 117.459C107.363 117.395 107.269 117.363 107.142 117.363C107.01 117.363 106.907 117.392 106.832 117.449C106.758 117.507 106.705 117.569 106.675 117.634L106.413 117.541C106.46 117.432 106.522 117.347 106.6 117.286C106.679 117.224 106.764 117.182 106.857 117.158C106.95 117.133 107.042 117.12 107.133 117.12C107.19 117.12 107.256 117.127 107.331 117.141C107.407 117.154 107.479 117.182 107.55 117.224C107.62 117.266 107.679 117.33 107.726 117.414C107.773 117.499 107.796 117.613 107.796 117.756V118.938H107.52V118.695H107.506C107.488 118.733 107.456 118.775 107.413 118.82C107.369 118.864 107.311 118.902 107.239 118.933C107.166 118.964 107.078 118.98 106.974 118.98ZM107.016 118.732C107.125 118.732 107.217 118.711 107.291 118.668C107.367 118.625 107.424 118.57 107.462 118.502C107.501 118.434 107.52 118.363 107.52 118.288V118.036C107.509 118.05 107.483 118.063 107.443 118.074C107.404 118.085 107.359 118.095 107.308 118.104C107.257 118.111 107.208 118.118 107.159 118.125C107.112 118.13 107.073 118.135 107.044 118.139C106.972 118.148 106.905 118.163 106.843 118.184C106.781 118.204 106.732 118.235 106.693 118.276C106.656 118.317 106.637 118.372 106.637 118.442C106.637 118.538 106.673 118.61 106.744 118.66C106.815 118.708 106.906 118.732 107.016 118.732ZM108.299 118.938V117.143H108.565V117.414H108.584C108.617 117.326 108.676 117.254 108.762 117.198C108.847 117.143 108.944 117.115 109.051 117.115C109.071 117.115 109.097 117.116 109.127 117.117C109.158 117.117 109.181 117.119 109.196 117.12V117.4C109.187 117.398 109.165 117.395 109.132 117.39C109.099 117.384 109.064 117.382 109.028 117.382C108.941 117.382 108.863 117.4 108.794 117.437C108.727 117.472 108.673 117.522 108.633 117.586C108.594 117.649 108.575 117.721 108.575 117.802V118.938H108.299ZM111.172 119.648C111.039 119.648 110.924 119.631 110.829 119.596C110.733 119.563 110.653 119.518 110.589 119.463C110.526 119.409 110.476 119.35 110.439 119.288L110.658 119.134C110.683 119.166 110.715 119.204 110.753 119.246C110.791 119.289 110.843 119.326 110.909 119.357C110.976 119.389 111.064 119.405 111.172 119.405C111.317 119.405 111.436 119.37 111.531 119.3C111.625 119.229 111.672 119.12 111.672 118.97V118.606H111.649C111.628 118.638 111.599 118.679 111.562 118.727C111.526 118.775 111.473 118.817 111.403 118.855C111.335 118.891 111.242 118.909 111.125 118.909C110.98 118.909 110.85 118.875 110.735 118.807C110.621 118.738 110.53 118.638 110.463 118.508C110.397 118.377 110.364 118.218 110.364 118.031C110.364 117.847 110.396 117.687 110.461 117.551C110.525 117.414 110.615 117.308 110.731 117.233C110.846 117.158 110.979 117.12 111.13 117.12C111.247 117.12 111.339 117.14 111.408 117.179C111.477 117.217 111.53 117.26 111.567 117.309C111.604 117.358 111.633 117.397 111.653 117.428H111.681V117.143H111.948V118.989C111.948 119.143 111.913 119.268 111.842 119.365C111.773 119.462 111.68 119.534 111.562 119.579C111.445 119.625 111.315 119.648 111.172 119.648ZM111.163 118.662C111.273 118.662 111.367 118.637 111.443 118.586C111.519 118.535 111.577 118.463 111.617 118.368C111.657 118.273 111.677 118.159 111.677 118.026C111.677 117.897 111.657 117.783 111.618 117.684C111.579 117.585 111.522 117.508 111.445 117.452C111.369 117.396 111.275 117.368 111.163 117.368C111.046 117.368 110.949 117.397 110.871 117.457C110.794 117.516 110.736 117.595 110.697 117.695C110.658 117.794 110.639 117.905 110.639 118.026C110.639 118.151 110.659 118.261 110.698 118.357C110.738 118.452 110.796 118.527 110.873 118.581C110.951 118.635 111.047 118.662 111.163 118.662ZM112.452 118.938V117.143H112.718V117.414H112.737C112.77 117.326 112.829 117.254 112.915 117.198C113 117.143 113.097 117.115 113.204 117.115C113.225 117.115 113.25 117.116 113.28 117.117C113.311 117.117 113.334 117.119 113.349 117.12V117.4C113.34 117.398 113.318 117.395 113.285 117.39C113.252 117.384 113.218 117.382 113.181 117.382C113.094 117.382 113.016 117.4 112.947 117.437C112.88 117.472 112.826 117.522 112.786 117.586C112.747 117.649 112.728 117.721 112.728 117.802V118.938H112.452ZM114.204 118.98C114.09 118.98 113.987 118.958 113.894 118.915C113.802 118.872 113.728 118.809 113.674 118.727C113.619 118.645 113.592 118.545 113.592 118.428C113.592 118.325 113.612 118.242 113.653 118.178C113.693 118.114 113.747 118.063 113.815 118.026C113.883 117.99 113.957 117.963 114.039 117.945C114.122 117.926 114.205 117.911 114.288 117.9C114.397 117.886 114.485 117.876 114.553 117.869C114.622 117.861 114.671 117.848 114.703 117.83C114.734 117.812 114.75 117.781 114.75 117.737V117.727C114.75 117.612 114.719 117.523 114.656 117.459C114.594 117.395 114.499 117.363 114.372 117.363C114.24 117.363 114.137 117.392 114.062 117.449C113.988 117.507 113.935 117.569 113.905 117.634L113.643 117.541C113.69 117.432 113.752 117.347 113.83 117.286C113.909 117.224 113.994 117.182 114.087 117.158C114.18 117.133 114.272 117.12 114.363 117.12C114.42 117.12 114.486 117.127 114.561 117.141C114.637 117.154 114.71 117.182 114.78 117.224C114.85 117.266 114.909 117.33 114.956 117.414C115.003 117.499 115.026 117.613 115.026 117.756V118.938H114.75V118.695H114.736C114.718 118.733 114.687 118.775 114.643 118.82C114.599 118.864 114.541 118.902 114.469 118.933C114.397 118.964 114.308 118.98 114.204 118.98ZM114.246 118.732C114.355 118.732 114.447 118.711 114.521 118.668C114.597 118.625 114.654 118.57 114.692 118.502C114.731 118.434 114.75 118.363 114.75 118.288V118.036C114.739 118.05 114.713 118.063 114.673 118.074C114.634 118.085 114.589 118.095 114.538 118.104C114.487 118.111 114.438 118.118 114.389 118.125C114.342 118.13 114.303 118.135 114.274 118.139C114.202 118.148 114.135 118.163 114.073 118.184C114.011 118.204 113.962 118.235 113.923 118.276C113.886 118.317 113.867 118.372 113.867 118.442C113.867 118.538 113.903 118.61 113.974 118.66C114.045 118.708 114.136 118.732 114.246 118.732ZM115.529 119.61V117.143H115.795V117.428H115.828C115.848 117.397 115.876 117.358 115.912 117.309C115.949 117.26 116.001 117.217 116.069 117.179C116.137 117.14 116.23 117.12 116.347 117.12C116.498 117.12 116.631 117.158 116.746 117.233C116.861 117.309 116.951 117.416 117.016 117.555C117.081 117.693 117.113 117.857 117.113 118.045C117.113 118.235 117.081 118.4 117.016 118.539C116.951 118.678 116.862 118.785 116.747 118.862C116.633 118.937 116.501 118.975 116.351 118.975C116.236 118.975 116.144 118.956 116.075 118.918C116.005 118.879 115.952 118.835 115.915 118.786C115.877 118.736 115.848 118.695 115.828 118.662H115.805V119.61H115.529ZM115.8 118.04C115.8 118.176 115.82 118.296 115.86 118.399C115.899 118.502 115.957 118.582 116.034 118.641C116.11 118.698 116.203 118.727 116.314 118.727C116.429 118.727 116.525 118.697 116.603 118.636C116.68 118.575 116.739 118.492 116.778 118.389C116.817 118.284 116.837 118.168 116.837 118.04C116.837 117.914 116.818 117.801 116.779 117.699C116.741 117.597 116.683 117.517 116.605 117.458C116.528 117.398 116.431 117.368 116.314 117.368C116.202 117.368 116.108 117.396 116.031 117.453C115.955 117.509 115.897 117.588 115.859 117.689C115.82 117.789 115.8 117.907 115.8 118.04ZM117.809 117.858V118.938H117.533V116.545H117.809V117.424H117.832C117.874 117.331 117.938 117.258 118.022 117.203C118.106 117.148 118.219 117.12 118.36 117.12C118.483 117.12 118.59 117.145 118.682 117.194C118.773 117.242 118.845 117.316 118.895 117.417C118.947 117.516 118.972 117.643 118.972 117.798V118.938H118.697V117.816C118.697 117.674 118.66 117.564 118.586 117.486C118.513 117.407 118.411 117.368 118.281 117.368C118.191 117.368 118.11 117.387 118.038 117.425C117.967 117.463 117.911 117.519 117.87 117.592C117.829 117.665 117.809 117.754 117.809 117.858Z" fill="black"/>
<path d="M287.649 265.745C287.649 265.998 287.604 266.216 287.513 266.399C287.422 266.583 287.297 266.725 287.138 266.825C286.979 266.924 286.798 266.974 286.594 266.974C286.39 266.974 286.208 266.924 286.049 266.825C285.891 266.725 285.766 266.583 285.674 266.399C285.583 266.216 285.538 265.998 285.538 265.745C285.538 265.493 285.583 265.275 285.674 265.091C285.766 264.908 285.891 264.766 286.049 264.666C286.208 264.567 286.39 264.517 286.594 264.517C286.798 264.517 286.979 264.567 287.138 264.666C287.297 264.766 287.422 264.908 287.513 265.091C287.604 265.275 287.649 265.493 287.649 265.745ZM287.369 265.745C287.369 265.538 287.335 265.363 287.265 265.221C287.197 265.078 287.104 264.971 286.986 264.897C286.869 264.824 286.738 264.788 286.594 264.788C286.449 264.788 286.318 264.824 286.2 264.897C286.083 264.971 285.99 265.078 285.921 265.221C285.852 265.363 285.818 265.538 285.818 265.745C285.818 265.953 285.852 266.127 285.921 266.27C285.99 266.412 286.083 266.52 286.2 266.593C286.318 266.667 286.449 266.703 286.594 266.703C286.738 266.703 286.869 266.667 286.986 266.593C287.104 266.52 287.197 266.412 287.265 266.27C287.335 266.127 287.369 265.953 287.369 265.745ZM288.099 266.941V265.147H288.365V265.418H288.384C288.417 265.33 288.476 265.258 288.562 265.202C288.647 265.147 288.744 265.119 288.851 265.119C288.872 265.119 288.897 265.12 288.927 265.121C288.958 265.121 288.981 265.122 288.996 265.124V265.404C288.987 265.402 288.965 265.399 288.932 265.394C288.899 265.388 288.865 265.386 288.828 265.386C288.741 265.386 288.663 265.404 288.594 265.441C288.527 265.476 288.473 265.526 288.433 265.59C288.394 265.653 288.375 265.725 288.375 265.806V266.941H288.099ZM289.946 266.979C289.796 266.979 289.664 266.941 289.55 266.865C289.435 266.789 289.346 266.682 289.281 266.543C289.217 266.404 289.184 266.239 289.184 266.049C289.184 265.861 289.217 265.697 289.281 265.559C289.346 265.42 289.436 265.313 289.551 265.237C289.666 265.162 289.799 265.124 289.95 265.124C290.067 265.124 290.159 265.143 290.227 265.182C290.296 265.221 290.348 265.264 290.384 265.313C290.42 265.362 290.449 265.401 290.469 265.432H290.492V264.549H290.768V266.941H290.502V266.666H290.469C290.449 266.698 290.42 266.74 290.383 266.79C290.345 266.839 290.292 266.883 290.223 266.922C290.153 266.96 290.061 266.979 289.946 266.979ZM289.983 266.731C290.094 266.731 290.187 266.702 290.263 266.645C290.34 266.586 290.398 266.506 290.437 266.403C290.477 266.299 290.497 266.18 290.497 266.044C290.497 265.91 290.478 265.793 290.439 265.693C290.4 265.592 290.342 265.513 290.266 265.457C290.189 265.4 290.095 265.372 289.983 265.372C289.866 265.372 289.769 265.402 289.691 265.462C289.614 265.521 289.556 265.601 289.517 265.703C289.479 265.805 289.46 265.918 289.46 266.044C289.46 266.172 289.479 266.288 289.518 266.392C289.558 266.496 289.616 266.579 289.693 266.64C289.771 266.701 289.868 266.731 289.983 266.731ZM292.063 266.979C291.89 266.979 291.741 266.941 291.616 266.864C291.491 266.787 291.395 266.68 291.327 266.542C291.26 266.403 291.227 266.242 291.227 266.058C291.227 265.875 291.26 265.713 291.327 265.573C291.395 265.432 291.489 265.322 291.61 265.243C291.732 265.164 291.873 265.124 292.035 265.124C292.129 265.124 292.221 265.14 292.312 265.171C292.403 265.202 292.486 265.253 292.561 265.323C292.636 265.392 292.695 265.484 292.74 265.598C292.784 265.713 292.806 265.854 292.806 266.021V266.138H291.423V265.9H292.526C292.526 265.798 292.506 265.708 292.465 265.629C292.425 265.549 292.368 265.486 292.295 265.441C292.221 265.395 292.135 265.372 292.035 265.372C291.925 265.372 291.83 265.399 291.75 265.453C291.671 265.507 291.61 265.577 291.567 265.664C291.524 265.75 291.503 265.843 291.503 265.942V266.1C291.503 266.236 291.526 266.351 291.573 266.445C291.62 266.538 291.686 266.61 291.77 266.659C291.854 266.707 291.952 266.731 292.063 266.731C292.136 266.731 292.201 266.721 292.259 266.701C292.319 266.68 292.37 266.649 292.412 266.607C292.455 266.565 292.488 266.513 292.512 266.451L292.778 266.526C292.75 266.616 292.703 266.695 292.637 266.764C292.571 266.832 292.489 266.885 292.391 266.923C292.294 266.96 292.185 266.979 292.063 266.979ZM293.225 266.941V265.147H293.492V265.418H293.51C293.543 265.33 293.602 265.258 293.688 265.202C293.774 265.147 293.87 265.119 293.978 265.119C293.998 265.119 294.023 265.12 294.054 265.121C294.084 265.121 294.107 265.122 294.122 265.124V265.404C294.113 265.402 294.092 265.399 294.058 265.394C294.025 265.388 293.991 265.386 293.954 265.386C293.867 265.386 293.789 265.404 293.721 265.441C293.653 265.476 293.599 265.526 293.559 265.59C293.521 265.653 293.501 265.725 293.501 265.806V266.941H293.225ZM295.412 266.941V264.549H296.846V264.806H295.701V265.615H296.738V265.872H295.701V266.941H295.412ZM298.323 266.208V265.147H298.598V266.941H298.323V266.638H298.304C298.262 266.729 298.197 266.806 298.108 266.87C298.019 266.933 297.907 266.965 297.771 266.965C297.659 266.965 297.56 266.94 297.472 266.891C297.385 266.841 297.317 266.767 297.267 266.667C297.217 266.566 297.192 266.44 297.192 266.287V265.147H297.468V266.269C297.468 266.399 297.504 266.504 297.578 266.582C297.652 266.66 297.746 266.698 297.86 266.698C297.929 266.698 297.998 266.681 298.069 266.646C298.141 266.611 298.201 266.557 298.249 266.485C298.298 266.412 298.323 266.32 298.323 266.208ZM299.379 264.549V266.941H299.103V264.549H299.379ZM300.683 265.147V265.381H299.716V265.147H300.683ZM300.005 266.941V264.9C300.005 264.797 300.029 264.711 300.078 264.643C300.126 264.574 300.189 264.523 300.266 264.489C300.343 264.454 300.424 264.437 300.51 264.437C300.578 264.437 300.633 264.443 300.676 264.454C300.718 264.465 300.75 264.475 300.771 264.484L300.692 264.722C300.678 264.718 300.659 264.712 300.634 264.705C300.609 264.698 300.578 264.694 300.538 264.694C300.447 264.694 300.381 264.717 300.34 264.763C300.301 264.809 300.281 264.876 300.281 264.965V266.941H300.005ZM301.069 266.941V265.147H301.345V266.941H301.069ZM301.209 264.848C301.155 264.848 301.109 264.83 301.07 264.793C301.032 264.757 301.013 264.713 301.013 264.662C301.013 264.61 301.032 264.566 301.07 264.53C301.109 264.493 301.155 264.475 301.209 264.475C301.263 264.475 301.309 264.493 301.347 264.53C301.386 264.566 301.405 264.61 301.405 264.662C301.405 264.713 301.386 264.757 301.347 264.793C301.309 264.83 301.263 264.848 301.209 264.848ZM302.125 264.549V266.941H301.849V264.549H302.125ZM302.906 264.549V266.941H302.63V264.549H302.906ZM303.41 266.941V265.147H303.677V265.428H303.7C303.738 265.332 303.798 265.258 303.881 265.205C303.964 265.151 304.065 265.124 304.181 265.124C304.3 265.124 304.398 265.151 304.477 265.205C304.556 265.258 304.618 265.332 304.663 265.428H304.681C304.727 265.335 304.796 265.261 304.888 265.207C304.98 265.152 305.09 265.124 305.218 265.124C305.379 265.124 305.51 265.174 305.612 265.275C305.714 265.374 305.765 265.53 305.765 265.741V266.941H305.489V265.741C305.489 265.608 305.453 265.514 305.381 265.457C305.308 265.4 305.223 265.372 305.125 265.372C304.999 265.372 304.901 265.41 304.832 265.486C304.763 265.562 304.728 265.657 304.728 265.773V266.941H304.448V265.713C304.448 265.611 304.415 265.529 304.348 265.466C304.282 265.403 304.197 265.372 304.093 265.372C304.021 265.372 303.954 265.391 303.892 265.429C303.83 265.467 303.78 265.52 303.742 265.588C303.705 265.655 303.686 265.732 303.686 265.82V266.941H303.41ZM307.021 266.979C306.848 266.979 306.699 266.941 306.574 266.864C306.449 266.787 306.353 266.68 306.285 266.542C306.218 266.403 306.185 266.242 306.185 266.058C306.185 265.875 306.218 265.713 306.285 265.573C306.353 265.432 306.447 265.322 306.568 265.243C306.69 265.164 306.831 265.124 306.993 265.124C307.087 265.124 307.179 265.14 307.27 265.171C307.361 265.202 307.444 265.253 307.519 265.323C307.594 265.392 307.653 265.484 307.698 265.598C307.742 265.713 307.764 265.854 307.764 266.021V266.138H306.381V265.9H307.484C307.484 265.798 307.464 265.708 307.423 265.629C307.383 265.549 307.327 265.486 307.253 265.441C307.179 265.395 307.093 265.372 306.993 265.372C306.883 265.372 306.788 265.399 306.708 265.453C306.629 265.507 306.568 265.577 306.525 265.664C306.482 265.75 306.461 265.843 306.461 265.942V266.1C306.461 266.236 306.484 266.351 306.531 266.445C306.578 266.538 306.644 266.61 306.728 266.659C306.812 266.707 306.91 266.731 307.021 266.731C307.094 266.731 307.159 266.721 307.217 266.701C307.277 266.68 307.328 266.649 307.37 266.607C307.413 266.565 307.446 266.513 307.47 266.451L307.736 266.526C307.708 266.616 307.661 266.695 307.595 266.764C307.529 266.832 307.447 266.885 307.349 266.923C307.252 266.96 307.143 266.979 307.021 266.979ZM308.459 265.862V266.941H308.183V265.147H308.45V265.428H308.473C308.515 265.337 308.579 265.263 308.665 265.208C308.75 265.152 308.861 265.124 308.996 265.124C309.118 265.124 309.224 265.149 309.315 265.199C309.406 265.248 309.477 265.323 309.528 265.423C309.578 265.523 309.604 265.649 309.604 265.801V266.941H309.328V265.82C309.328 265.679 309.291 265.569 309.218 265.491C309.145 265.411 309.045 265.372 308.917 265.372C308.829 265.372 308.75 265.391 308.681 265.429C308.612 265.467 308.558 265.523 308.519 265.596C308.479 265.669 308.459 265.758 308.459 265.862ZM310.888 265.147V265.381H309.958V265.147H310.888ZM310.229 264.718H310.504V266.427C310.504 266.505 310.516 266.564 310.538 266.603C310.562 266.641 310.591 266.667 310.627 266.68C310.664 266.692 310.702 266.698 310.743 266.698C310.773 266.698 310.798 266.697 310.817 266.694C310.837 266.69 310.853 266.687 310.864 266.684L310.92 266.932C310.902 266.939 310.876 266.946 310.842 266.953C310.809 266.961 310.766 266.965 310.715 266.965C310.637 266.965 310.561 266.948 310.486 266.915C310.412 266.881 310.35 266.83 310.301 266.762C310.253 266.693 310.229 266.607 310.229 266.502V264.718ZM312.134 264.806V264.549H313.928V264.806H313.176V266.941H312.886V264.806H312.134ZM314.337 266.941V265.147H314.613V266.941H314.337ZM314.478 264.848C314.424 264.848 314.378 264.83 314.339 264.793C314.301 264.757 314.281 264.713 314.281 264.662C314.281 264.61 314.301 264.566 314.339 264.53C314.378 264.493 314.424 264.475 314.478 264.475C314.531 264.475 314.577 264.493 314.615 264.53C314.654 264.566 314.674 264.61 314.674 264.662C314.674 264.713 314.654 264.757 314.615 264.793C314.577 264.83 314.531 264.848 314.478 264.848ZM315.118 266.941V265.147H315.384V265.428H315.408C315.445 265.332 315.505 265.258 315.589 265.205C315.672 265.151 315.772 265.124 315.889 265.124C316.007 265.124 316.106 265.151 316.184 265.205C316.264 265.258 316.326 265.332 316.37 265.428H316.389C316.435 265.335 316.504 265.261 316.595 265.207C316.687 265.152 316.798 265.124 316.926 265.124C317.086 265.124 317.218 265.174 317.32 265.275C317.422 265.374 317.473 265.53 317.473 265.741V266.941H317.197V265.741C317.197 265.608 317.161 265.514 317.088 265.457C317.016 265.4 316.931 265.372 316.833 265.372C316.706 265.372 316.609 265.41 316.539 265.486C316.47 265.562 316.435 265.657 316.435 265.773V266.941H316.155V265.713C316.155 265.611 316.122 265.529 316.056 265.466C315.99 265.403 315.904 265.372 315.8 265.372C315.728 265.372 315.661 265.391 315.599 265.429C315.538 265.467 315.488 265.52 315.45 265.588C315.412 265.655 315.394 265.732 315.394 265.82V266.941H315.118ZM318.729 266.979C318.556 266.979 318.407 266.941 318.281 266.864C318.157 266.787 318.061 266.68 317.993 266.542C317.926 266.403 317.893 266.242 317.893 266.058C317.893 265.875 317.926 265.713 317.993 265.573C318.061 265.432 318.155 265.322 318.276 265.243C318.397 265.164 318.539 265.124 318.701 265.124C318.794 265.124 318.886 265.14 318.978 265.171C319.069 265.202 319.152 265.253 319.226 265.323C319.301 265.392 319.361 265.484 319.405 265.598C319.449 265.713 319.472 265.854 319.472 266.021V266.138H318.089V265.9H319.191C319.191 265.798 319.171 265.708 319.131 265.629C319.091 265.549 319.034 265.486 318.96 265.441C318.887 265.395 318.8 265.372 318.701 265.372C318.591 265.372 318.496 265.399 318.416 265.453C318.336 265.507 318.275 265.577 318.232 265.664C318.19 265.75 318.168 265.843 318.168 265.942V266.1C318.168 266.236 318.192 266.351 318.238 266.445C318.286 266.538 318.352 266.61 318.436 266.659C318.52 266.707 318.617 266.731 318.729 266.731C318.801 266.731 318.867 266.721 318.925 266.701C318.984 266.68 319.035 266.649 319.078 266.607C319.121 266.565 319.154 266.513 319.177 266.451L319.444 266.526C319.416 266.616 319.368 266.695 319.302 266.764C319.236 266.832 319.154 266.885 319.057 266.923C318.96 266.96 318.85 266.979 318.729 266.979Z" fill="black"/>
<rect width="394.683" height="22.7491" transform="matrix(-1 0 0 1 401.28 0)" fill="#0075A2"/>
<rect width="394.683" height="15.6229" transform="matrix(-1 0 0 1 401.28 21.3789)" fill="#F0F3F5"/>
<circle cx="6.85214" cy="6.85214" r="6.85214" transform="matrix(-1 0 0 1 382.094 4.38477)" fill="#54DED9"/>
<path d="M15.6105 31.1348H15.2056L16.3767 27.9454H16.7754L17.9465 31.1348H17.5416L16.5885 28.45H16.5636L15.6105 31.1348ZM15.76 29.8889H17.3921V30.2315H15.76V29.8889ZM18.761 27.9454V31.1348H18.3934V27.9454H18.761ZM19.8016 27.9454V31.1348H19.4341V27.9454H19.8016Z" fill="black"/>
<path d="M42.0659 31.1348V27.9454H43.9783V28.288H42.4521V29.3657H43.835V29.7083H42.4521V31.1348H42.0659ZM45.2938 31.1908C45.1422 31.1908 45.0047 31.1623 44.8811 31.1052C44.7576 31.047 44.6595 30.9635 44.5868 30.8545C44.5141 30.7444 44.4778 30.6115 44.4778 30.4558C44.4778 30.3187 44.5048 30.2077 44.5588 30.1225C44.6127 30.0363 44.6849 29.9689 44.7752 29.9201C44.8655 29.8713 44.9652 29.8349 45.0742 29.8111C45.1843 29.7861 45.2948 29.7664 45.4059 29.7519C45.5513 29.7332 45.6691 29.7192 45.7594 29.7098C45.8508 29.6995 45.9172 29.6823 45.9588 29.6584C46.0013 29.6346 46.0226 29.593 46.0226 29.5339V29.5214C46.0226 29.3677 45.9806 29.2484 45.8965 29.1632C45.8134 29.0781 45.6873 29.0355 45.5181 29.0355C45.3426 29.0355 45.205 29.0739 45.1054 29.1508C45.0057 29.2276 44.9356 29.3096 44.8951 29.3968L44.5463 29.2722C44.6086 29.1269 44.6916 29.0137 44.7955 28.9327C44.9003 28.8507 45.0145 28.7936 45.1381 28.7614C45.2627 28.7282 45.3852 28.7116 45.5056 28.7116C45.5824 28.7116 45.6707 28.7209 45.7703 28.7396C45.871 28.7573 45.9681 28.7941 46.0616 28.8502C46.156 28.9063 46.2344 28.9909 46.2967 29.104C46.359 29.2172 46.3901 29.3688 46.3901 29.5588V31.1348H46.0226V30.8108H46.0039C45.979 30.8628 45.9375 30.9183 45.8793 30.9775C45.8212 31.0367 45.7439 31.087 45.6473 31.1285C45.5508 31.1701 45.4329 31.1908 45.2938 31.1908ZM45.3499 30.8607C45.4952 30.8607 45.6177 30.8321 45.7174 30.775C45.8181 30.7179 45.8939 30.6442 45.9448 30.5539C45.9967 30.4636 46.0226 30.3686 46.0226 30.2689V29.9325C46.007 29.9512 45.9728 29.9683 45.9198 29.9839C45.8679 29.9985 45.8077 30.0114 45.7392 30.0229C45.6717 30.0332 45.6058 30.0426 45.5414 30.0509C45.4781 30.0581 45.4267 30.0644 45.3872 30.0696C45.2917 30.082 45.2024 30.1023 45.1194 30.1303C45.0374 30.1573 44.9709 30.1983 44.92 30.2533C44.8702 30.3073 44.8453 30.381 44.8453 30.4745C44.8453 30.6022 44.8925 30.6987 44.987 30.7641C45.0825 30.8285 45.2035 30.8607 45.3499 30.8607ZM48.9313 28.7427L48.0467 31.1348H47.673L46.7884 28.7427H47.1871L47.8474 30.6489H47.8723L48.5326 28.7427H48.9313ZM50.3025 31.1846C50.0865 31.1846 49.8971 31.1332 49.7341 31.0304C49.5721 30.9276 49.4454 30.7839 49.3541 30.5991C49.2638 30.4143 49.2186 30.1983 49.2186 29.9512C49.2186 29.702 49.2638 29.4845 49.3541 29.2987C49.4454 29.1129 49.5721 28.9686 49.7341 28.8658C49.8971 28.763 50.0865 28.7116 50.3025 28.7116C50.5184 28.7116 50.7074 28.763 50.8693 28.8658C51.0323 28.9686 51.159 29.1129 51.2493 29.2987C51.3407 29.4845 51.3864 29.702 51.3864 29.9512C51.3864 30.1983 51.3407 30.4143 51.2493 30.5991C51.159 30.7839 51.0323 30.9276 50.8693 31.0304C50.7074 31.1332 50.5184 31.1846 50.3025 31.1846ZM50.3025 30.8545C50.4665 30.8545 50.6015 30.8124 50.7074 30.7283C50.8133 30.6442 50.8917 30.5336 50.9425 30.3966C50.9934 30.2596 51.0188 30.1111 51.0188 29.9512C51.0188 29.7913 50.9934 29.6423 50.9425 29.5043C50.8917 29.3662 50.8133 29.2546 50.7074 29.1694C50.6015 29.0843 50.4665 29.0417 50.3025 29.0417C50.1384 29.0417 50.0035 29.0843 49.8976 29.1694C49.7917 29.2546 49.7133 29.3662 49.6624 29.5043C49.6116 29.6423 49.5861 29.7913 49.5861 29.9512C49.5861 30.1111 49.6116 30.2596 49.6624 30.3966C49.7133 30.5336 49.7917 30.6442 49.8976 30.7283C50.0035 30.8124 50.1384 30.8545 50.3025 30.8545ZM53.4549 30.1568V28.7427H53.8224V31.1348H53.4549V30.7299H53.4299C53.3739 30.8513 53.2867 30.9546 53.1683 31.0398C53.05 31.1239 52.9005 31.1659 52.7198 31.1659C52.5703 31.1659 52.4374 31.1332 52.3211 31.0678C52.2049 31.0014 52.1135 30.9017 52.0471 30.7688C51.9806 30.6349 51.9474 30.4662 51.9474 30.2627V28.7427H52.3149V30.2378C52.3149 30.4122 52.3637 30.5513 52.4613 30.6551C52.5599 30.7589 52.6855 30.8108 52.8382 30.8108C52.9295 30.8108 53.0224 30.7875 53.1169 30.7408C53.2124 30.694 53.2924 30.6224 53.3567 30.5259C53.4222 30.4293 53.4549 30.3063 53.4549 30.1568ZM54.4955 31.1348V28.7427H54.8506V29.104H54.8755C54.9191 28.9857 54.998 28.8897 55.1122 28.8159C55.2264 28.7422 55.3552 28.7054 55.4984 28.7054C55.5254 28.7054 55.5592 28.7059 55.5997 28.7069C55.6401 28.708 55.6708 28.7095 55.6915 28.7116V29.0854C55.6791 29.0822 55.6505 29.0776 55.6059 29.0713C55.5623 29.0641 55.5161 29.0604 55.4673 29.0604C55.351 29.0604 55.2472 29.0848 55.1558 29.1336C55.0655 29.1814 54.9939 29.2478 54.9409 29.333C54.889 29.4171 54.863 29.5131 54.863 29.6211V31.1348H54.4955ZM56.1272 31.1348V28.7427H56.4947V31.1348H56.1272ZM56.3141 28.3441C56.2424 28.3441 56.1807 28.3197 56.1287 28.2709C56.0779 28.2221 56.0524 28.1634 56.0524 28.0949C56.0524 28.0264 56.0779 27.9677 56.1287 27.9189C56.1807 27.8701 56.2424 27.8457 56.3141 27.8457C56.3857 27.8457 56.447 27.8701 56.4978 27.9189C56.5497 27.9677 56.5757 28.0264 56.5757 28.0949C56.5757 28.1634 56.5497 28.2221 56.4978 28.2709C56.447 28.3197 56.3857 28.3441 56.3141 28.3441ZM58.2081 28.7427V29.0542H56.9685V28.7427H58.2081ZM57.3298 28.1697H57.6973V30.4496C57.6973 30.5534 57.7124 30.6312 57.7425 30.6831C57.7736 30.734 57.8131 30.7683 57.8609 30.7859C57.9097 30.8025 57.961 30.8108 58.015 30.8108C58.0555 30.8108 58.0887 30.8088 58.1147 30.8046C58.1407 30.7994 58.1614 30.7953 58.177 30.7922L58.2517 31.1223C58.2268 31.1317 58.192 31.141 58.1474 31.1503C58.1028 31.1607 58.0462 31.1659 57.9777 31.1659C57.8738 31.1659 57.7721 31.1436 57.6724 31.0989C57.5738 31.0543 57.4918 30.9863 57.4264 30.8949C57.362 30.8036 57.3298 30.6883 57.3298 30.5492V28.1697ZM59.7382 31.1846C59.5077 31.1846 59.3089 31.1337 59.1417 31.032C58.9756 30.9292 58.8474 30.7859 58.7571 30.6022C58.6678 30.4174 58.6232 30.2025 58.6232 29.9574C58.6232 29.7124 58.6678 29.4965 58.7571 29.3096C58.8474 29.1217 58.973 28.9753 59.134 28.8704C59.2959 28.7645 59.4849 28.7116 59.7008 28.7116C59.8254 28.7116 59.9484 28.7324 60.0699 28.7739C60.1914 28.8154 60.3019 28.8829 60.4016 28.9763C60.5013 29.0687 60.5807 29.1912 60.6399 29.3439C60.699 29.4965 60.7286 29.6844 60.7286 29.9076V30.0633H58.8848V29.7457H60.3549C60.3549 29.6107 60.3279 29.4903 60.2739 29.3844C60.221 29.2785 60.1452 29.1949 60.0465 29.1336C59.9489 29.0724 59.8337 29.0417 59.7008 29.0417C59.5544 29.0417 59.4278 29.0781 59.3208 29.1508C59.2149 29.2224 59.1334 29.3158 59.0763 29.4311C59.0192 29.5463 58.9907 29.6699 58.9907 29.8017V30.0135C58.9907 30.1942 59.0218 30.3473 59.0841 30.4729C59.1475 30.5975 59.2352 30.6925 59.3473 30.7579C59.4594 30.8223 59.5897 30.8545 59.7382 30.8545C59.8347 30.8545 59.922 30.841 59.9998 30.814C60.0787 30.7859 60.1467 30.7444 60.2038 30.6894C60.2609 30.6333 60.305 30.5638 60.3362 30.4807L60.6913 30.5804C60.6539 30.7008 60.5911 30.8067 60.5028 30.8981C60.4146 30.9884 60.3056 31.059 60.1758 31.1098C60.046 31.1597 59.9001 31.1846 59.7382 31.1846ZM62.9821 29.2785L62.6519 29.3719C62.6311 29.3169 62.6005 29.2634 62.56 29.2115C62.5206 29.1585 62.4666 29.1149 62.3981 29.0807C62.3295 29.0464 62.2418 29.0293 62.1349 29.0293C61.9885 29.0293 61.8665 29.063 61.7689 29.1305C61.6724 29.197 61.6241 29.2816 61.6241 29.3844C61.6241 29.4757 61.6573 29.5479 61.7238 29.6008C61.7902 29.6538 61.894 29.6979 62.0352 29.7332L62.3903 29.8204C62.6041 29.8723 62.7635 29.9517 62.8684 30.0587C62.9732 30.1646 63.0257 30.3011 63.0257 30.4682C63.0257 30.6053 62.9862 30.7278 62.9073 30.8358C62.8294 30.9437 62.7204 31.0289 62.5803 31.0912C62.4401 31.1535 62.2771 31.1846 62.0913 31.1846C61.8473 31.1846 61.6454 31.1317 61.4855 31.0258C61.3256 30.9199 61.2244 30.7652 61.1818 30.5617L61.5306 30.4745C61.5639 30.6032 61.6267 30.6998 61.7191 30.7641C61.8125 30.8285 61.9345 30.8607 62.085 30.8607C62.2563 30.8607 62.3924 30.8243 62.4931 30.7517C62.5948 30.678 62.6457 30.5897 62.6457 30.4869C62.6457 30.4039 62.6166 30.3343 62.5585 30.2782C62.5003 30.2211 62.411 30.1786 62.2906 30.1505L61.8919 30.0571C61.6729 30.0052 61.512 29.9247 61.4092 29.8157C61.3074 29.7057 61.2566 29.5681 61.2566 29.403C61.2566 29.2681 61.2945 29.1487 61.3702 29.0449C61.4471 28.941 61.5514 28.8595 61.6833 28.8004C61.8162 28.7412 61.9667 28.7116 62.1349 28.7116C62.3716 28.7116 62.5574 28.7635 62.6924 28.8673C62.8284 28.9712 62.925 29.1082 62.9821 29.2785Z" fill="black"/>
<path d="M81.2602 31.1348V27.9454H81.6464V29.3657H83.347V27.9454H83.7332V31.1348H83.347V29.7083H81.6464V31.1348H81.2602ZM84.4566 31.1348V28.7427H84.8241V31.1348H84.4566ZM84.6435 28.3441C84.5718 28.3441 84.5101 28.3197 84.4582 28.2709C84.4073 28.2221 84.3819 28.1634 84.3819 28.0949C84.3819 28.0264 84.4073 27.9677 84.4582 27.9189C84.5101 27.8701 84.5718 27.8457 84.6435 27.8457C84.7151 27.8457 84.7764 27.8701 84.8272 27.9189C84.8792 27.9677 84.9051 28.0264 84.9051 28.0949C84.9051 28.1634 84.8792 28.2221 84.8272 28.2709C84.7764 28.3197 84.7151 28.3441 84.6435 28.3441ZM87.1916 29.2785L86.8615 29.3719C86.8407 29.3169 86.8101 29.2634 86.7696 29.2115C86.7301 29.1585 86.6762 29.1149 86.6076 29.0807C86.5391 29.0464 86.4514 29.0293 86.3444 29.0293C86.1981 29.0293 86.0761 29.063 85.9785 29.1305C85.8819 29.197 85.8336 29.2816 85.8336 29.3844C85.8336 29.4757 85.8669 29.5479 85.9333 29.6008C85.9998 29.6538 86.1036 29.6979 86.2448 29.7332L86.5998 29.8204C86.8137 29.8723 86.9731 29.9517 87.0779 30.0587C87.1828 30.1646 87.2352 30.3011 87.2352 30.4682C87.2352 30.6053 87.1958 30.7278 87.1169 30.8358C87.039 30.9437 86.93 31.0289 86.7898 31.0912C86.6497 31.1535 86.4867 31.1846 86.3008 31.1846C86.0569 31.1846 85.8549 31.1317 85.695 31.0258C85.5352 30.9199 85.4339 30.7652 85.3914 30.5617L85.7402 30.4745C85.7734 30.6032 85.8362 30.6998 85.9286 30.7641C86.0221 30.8285 86.1441 30.8607 86.2946 30.8607C86.4659 30.8607 86.6019 30.8243 86.7026 30.7517C86.8044 30.678 86.8552 30.5897 86.8552 30.4869C86.8552 30.4039 86.8262 30.3343 86.768 30.2782C86.7099 30.2211 86.6206 30.1786 86.5002 30.1505L86.1015 30.0571C85.8824 30.0052 85.7215 29.9247 85.6187 29.8157C85.517 29.7057 85.4661 29.5681 85.4661 29.403C85.4661 29.2681 85.504 29.1487 85.5798 29.0449C85.6566 28.941 85.761 28.8595 85.8928 28.8004C86.0257 28.7412 86.1763 28.7116 86.3444 28.7116C86.5812 28.7116 86.767 28.7635 86.902 28.8673C87.038 28.9712 87.1345 29.1082 87.1916 29.2785ZM88.8287 28.7427V29.0542H87.5891V28.7427H88.8287ZM87.9504 28.1697H88.3179V30.4496C88.3179 30.5534 88.333 30.6312 88.3631 30.6831C88.3942 30.734 88.4337 30.7683 88.4815 30.7859C88.5303 30.8025 88.5816 30.8108 88.6356 30.8108C88.6761 30.8108 88.7093 30.8088 88.7353 30.8046C88.7613 30.7994 88.782 30.7953 88.7976 30.7922L88.8723 31.1223C88.8474 31.1317 88.8126 31.141 88.768 31.1503C88.7234 31.1607 88.6668 31.1659 88.5983 31.1659C88.4944 31.1659 88.3927 31.1436 88.293 31.0989C88.1944 31.0543 88.1124 30.9863 88.047 30.8949C87.9826 30.8036 87.9504 30.6883 87.9504 30.5492V28.1697ZM90.3276 31.1846C90.1117 31.1846 89.9222 31.1332 89.7592 31.0304C89.5973 30.9276 89.4706 30.7839 89.3792 30.5991C89.2889 30.4143 89.2438 30.1983 89.2438 29.9512C89.2438 29.702 89.2889 29.4845 89.3792 29.2987C89.4706 29.1129 89.5973 28.9686 89.7592 28.8658C89.9222 28.763 90.1117 28.7116 90.3276 28.7116C90.5436 28.7116 90.7325 28.763 90.8945 28.8658C91.0575 28.9686 91.1842 29.1129 91.2745 29.2987C91.3658 29.4845 91.4115 29.702 91.4115 29.9512C91.4115 30.1983 91.3658 30.4143 91.2745 30.5991C91.1842 30.7839 91.0575 30.9276 90.8945 31.0304C90.7325 31.1332 90.5436 31.1846 90.3276 31.1846ZM90.3276 30.8545C90.4917 30.8545 90.6266 30.8124 90.7325 30.7283C90.8384 30.6442 90.9168 30.5336 90.9677 30.3966C91.0186 30.2596 91.044 30.1111 91.044 29.9512C91.044 29.7913 91.0186 29.6423 90.9677 29.5043C90.9168 29.3662 90.8384 29.2546 90.7325 29.1694C90.6266 29.0843 90.4917 29.0417 90.3276 29.0417C90.1636 29.0417 90.0286 29.0843 89.9227 29.1694C89.8168 29.2546 89.7385 29.3662 89.6876 29.5043C89.6367 29.6423 89.6113 29.7913 89.6113 29.9512C89.6113 30.1111 89.6367 30.2596 89.6876 30.3966C89.7385 30.5336 89.8168 30.6442 89.9227 30.7283C90.0286 30.8124 90.1636 30.8545 90.3276 30.8545ZM91.9725 31.1348V28.7427H92.3276V29.104H92.3525C92.3961 28.9857 92.475 28.8897 92.5892 28.8159C92.7034 28.7422 92.8322 28.7054 92.9754 28.7054C93.0024 28.7054 93.0362 28.7059 93.0767 28.7069C93.1172 28.708 93.1478 28.7095 93.1686 28.7116V29.0854C93.1561 29.0822 93.1275 29.0776 93.0829 29.0713C93.0393 29.0641 92.9931 29.0604 92.9443 29.0604C92.828 29.0604 92.7242 29.0848 92.6328 29.1336C92.5425 29.1814 92.4709 29.2478 92.4179 29.333C92.366 29.4171 92.3401 29.5131 92.3401 29.6211V31.1348H91.9725ZM93.9137 32.0318C93.8514 32.0318 93.7959 32.0266 93.7471 32.0162C93.6983 32.0069 93.6646 31.9975 93.6459 31.9882L93.7393 31.6642C93.8286 31.6871 93.9075 31.6954 93.976 31.6892C94.0445 31.6829 94.1053 31.6523 94.1582 31.5973C94.2122 31.5433 94.2615 31.4556 94.3062 31.3341L94.3747 31.1472L93.4901 28.7427H93.8888L94.5491 30.6489H94.574L95.2343 28.7427H95.633L94.6176 31.4836C94.5719 31.6071 94.5154 31.7094 94.4479 31.7904C94.3804 31.8724 94.302 31.9331 94.2127 31.9726C94.1245 32.012 94.0248 32.0318 93.9137 32.0318Z" fill="black"/>
<rect x="15.0935" y="4.11133" width="17.962" height="12.6079" fill="#B0916E"/>
<path d="M28.3276 6.35742L24.7654 11.5388H26.8433V16.7201H29.8118V11.5388H31.8897L28.3276 6.35742Z" fill="#FFF0A1"/>
<path d="M39.0569 13.4824V7.50237H41.4162C41.8678 7.50237 42.2532 7.58316 42.5725 7.74473C42.8937 7.90435 43.138 8.13113 43.3054 8.42508C43.4747 8.71707 43.5594 9.06065 43.5594 9.45582C43.5594 9.85293 43.4738 10.1946 43.3025 10.4807C43.1312 10.7649 42.883 10.9829 42.5579 11.1348C42.2347 11.2866 41.8435 11.3625 41.3841 11.3625H39.8044V10.3464H41.1797C41.421 10.3464 41.6215 10.3133 41.7812 10.2471C41.9408 10.1809 42.0595 10.0817 42.1374 9.94929C42.2172 9.81692 42.2571 9.65243 42.2571 9.45582C42.2571 9.25726 42.2172 9.08985 42.1374 8.95359C42.0595 8.81732 41.9398 8.71415 41.7782 8.64407C41.6186 8.57205 41.4171 8.53603 41.1738 8.53603H40.3212V13.4824H39.0569ZM42.2863 10.761L43.7726 13.4824H42.3768L40.9227 10.761H42.2863ZM45.7085 13.5671C45.4223 13.5671 45.1673 13.5175 44.9435 13.4182C44.7196 13.317 44.5425 13.168 44.412 12.9714C44.2836 12.7729 44.2193 12.5257 44.2193 12.2298C44.2193 11.9806 44.2651 11.7713 44.3566 11.602C44.4481 11.4326 44.5726 11.2964 44.7303 11.1932C44.888 11.09 45.0671 11.0121 45.2676 10.9596C45.47 10.907 45.6822 10.87 45.9041 10.8486C46.165 10.8214 46.3752 10.7961 46.5348 10.7727C46.6945 10.7474 46.8103 10.7104 46.8823 10.6618C46.9543 10.6131 46.9904 10.5411 46.9904 10.4457V10.4282C46.9904 10.2432 46.932 10.1002 46.8152 9.99893C46.7003 9.8977 46.5368 9.84709 46.3246 9.84709C46.1007 9.84709 45.9226 9.89673 45.7903 9.99601C45.6579 10.0933 45.5703 10.216 45.5275 10.3639L44.377 10.2705C44.4354 9.99795 44.5503 9.76241 44.7216 9.56385C44.8929 9.36335 45.1138 9.20957 45.3844 9.1025C45.6569 8.99349 45.9723 8.93899 46.3304 8.93899C46.5796 8.93899 46.8181 8.96819 47.0458 9.02658C47.2755 9.08498 47.479 9.1755 47.6561 9.29814C47.8352 9.42078 47.9763 9.57845 48.0795 9.77117C48.1827 9.96194 48.2342 10.1907 48.2342 10.4574V13.4824H47.0546V12.8605H47.0196C46.9475 13.0006 46.8512 13.1242 46.7305 13.2313C46.6098 13.3364 46.4648 13.4192 46.2954 13.4795C46.126 13.5379 45.9304 13.5671 45.7085 13.5671ZM46.0647 12.7086C46.2477 12.7086 46.4093 12.6726 46.5494 12.6006C46.6896 12.5266 46.7996 12.4273 46.8794 12.3028C46.9592 12.1782 46.9991 12.037 46.9991 11.8794V11.4034C46.9602 11.4287 46.9066 11.4521 46.8385 11.4735C46.7723 11.493 46.6974 11.5115 46.6137 11.529C46.53 11.5446 46.4463 11.5592 46.3626 11.5728C46.2789 11.5845 46.2029 11.5952 46.1348 11.6049C45.9888 11.6263 45.8613 11.6604 45.7523 11.7071C45.6433 11.7538 45.5586 11.8171 45.4983 11.8969C45.4379 11.9748 45.4077 12.0721 45.4077 12.1889C45.4077 12.3582 45.4691 12.4877 45.5917 12.5772C45.7163 12.6648 45.874 12.7086 46.0647 12.7086ZM51.2257 13.57C50.7663 13.57 50.3712 13.4727 50.0402 13.278C49.7113 13.0814 49.4582 12.8089 49.281 12.4604C49.1059 12.112 49.0183 11.711 49.0183 11.2574C49.0183 10.798 49.1068 10.3951 49.284 10.0486C49.4631 9.70012 49.7171 9.42856 50.0461 9.2339C50.3751 9.03729 50.7663 8.93899 51.2199 8.93899C51.6112 8.93899 51.9538 9.01004 52.2477 9.15214C52.5417 9.29425 52.7743 9.49378 52.9456 9.75073C53.1169 10.0077 53.2113 10.3094 53.2288 10.6559H52.055C52.0219 10.4321 51.9343 10.252 51.7922 10.1157C51.652 9.97751 51.4681 9.90841 51.2403 9.90841C51.0476 9.90841 50.8792 9.96097 50.7352 10.0661C50.5931 10.1693 50.4821 10.3201 50.4023 10.5187C50.3225 10.7172 50.2826 10.9576 50.2826 11.2399C50.2826 11.5261 50.3215 11.7694 50.3994 11.9699C50.4792 12.1704 50.5911 12.3232 50.7352 12.4283C50.8792 12.5334 51.0476 12.586 51.2403 12.586C51.3824 12.586 51.5099 12.5568 51.6228 12.4984C51.7377 12.44 51.8321 12.3553 51.9061 12.2444C51.982 12.1315 52.0316 11.9962 52.055 11.8385H53.2288C53.2093 12.1811 53.1159 12.4828 52.9485 12.7437C52.783 13.0026 52.5543 13.205 52.2623 13.351C51.9703 13.497 51.6248 13.57 51.2257 13.57ZM55.1523 12.1918L55.1552 10.6997H55.3363L56.7729 8.99739H58.2008L56.2707 11.2516H55.9758L55.1523 12.1918ZM54.0252 13.4824V7.50237H55.2691V13.4824H54.0252ZM56.8284 13.4824L55.5086 11.529L56.3378 10.6501L58.2854 13.4824H56.8284ZM63.5902 11.5728V8.99739H64.8341V13.4824H63.6399V12.6678H63.5932C63.4919 12.9306 63.3236 13.1418 63.088 13.3014C62.8544 13.461 62.5692 13.5408 62.2325 13.5408C61.9327 13.5408 61.6689 13.4727 61.4412 13.3364C61.2134 13.2002 61.0353 13.0065 60.9068 12.7554C60.7803 12.5042 60.716 12.2035 60.7141 11.8531V8.99739H61.958V11.6312C61.9599 11.8959 62.031 12.1052 62.1711 12.259C62.3113 12.4127 62.4992 12.4896 62.7347 12.4896C62.8846 12.4896 63.0247 12.4556 63.1552 12.3874C63.2856 12.3174 63.3907 12.2142 63.4705 12.0779C63.5523 11.9417 63.5922 11.7733 63.5902 11.5728ZM65.8291 15.1643V8.99739H67.0555V9.75073H67.111C67.1655 9.63004 67.2443 9.5074 67.3475 9.38282C67.4526 9.25629 67.5889 9.15117 67.7563 9.06746C67.9256 8.98181 68.1359 8.93899 68.387 8.93899C68.714 8.93899 69.0157 9.02464 69.2922 9.19594C69.5686 9.3653 69.7895 9.62128 69.955 9.96389C70.1205 10.3045 70.2032 10.7318 70.2032 11.2457C70.2032 11.746 70.1224 12.1684 69.9608 12.513C69.8012 12.8556 69.5832 13.1155 69.3068 13.2926C69.0323 13.4678 68.7247 13.5554 68.3841 13.5554C68.1427 13.5554 67.9373 13.5155 67.768 13.4357C67.6005 13.3559 67.4633 13.2556 67.3562 13.1349C67.2492 13.0123 67.1674 12.8887 67.111 12.7641H67.073V15.1643H65.8291ZM67.0467 11.2399C67.0467 11.5066 67.0837 11.7392 67.1577 11.9378C67.2317 12.1363 67.3387 12.2911 67.4789 12.402C67.619 12.5111 67.7894 12.5656 67.9899 12.5656C68.1923 12.5656 68.3636 12.5101 68.5038 12.3991C68.6439 12.2862 68.75 12.1305 68.8221 11.9319C68.896 11.7314 68.933 11.5008 68.933 11.2399C68.933 10.981 68.897 10.7532 68.825 10.5566C68.7529 10.36 68.6469 10.2062 68.5067 10.0953C68.3665 9.98433 68.1943 9.92885 67.9899 9.92885C67.7874 9.92885 67.6161 9.98238 67.476 10.0894C67.3377 10.1965 67.2317 10.3483 67.1577 10.545C67.0837 10.7416 67.0467 10.9732 67.0467 11.2399Z" fill="white"/>
<rect x="111.572" y="3.83789" width="185.008" height="13.4302" rx="2.74086" fill="white"/>
<path d="M286.658 11.2419C286.904 10.8544 287.048 10.3948 287.048 9.90064C287.048 8.52 285.93 7.40039 284.551 7.40039C283.171 7.40039 282.053 8.52 282.053 9.90064C282.053 11.2813 283.171 12.4009 284.55 12.4009C285.05 12.4009 285.517 12.2531 285.907 12.0003L286.021 11.9215L287.803 13.7044L288.357 13.1413L286.576 11.3584L286.658 11.2419ZM285.95 8.50358C286.323 8.87624 286.528 9.37202 286.528 9.89899C286.528 10.426 286.323 10.9217 285.95 11.2944C285.577 11.6671 285.082 11.8723 284.555 11.8723C284.028 11.8723 283.532 11.6671 283.159 11.2944C282.787 10.9217 282.581 10.426 282.581 9.89899C282.581 9.37202 282.787 8.87624 283.159 8.50358C283.532 8.13093 284.028 7.92572 284.555 7.92572C285.082 7.92572 285.577 8.13093 285.95 8.50358Z" fill="black" fill-opacity="0.4"/>
<path d="M194.029 9.70937C194.009 9.50964 193.921 9.3508 193.765 9.23283C193.608 9.11487 193.411 9.05589 193.174 9.05589C193.007 9.05589 192.86 9.0845 192.733 9.14173C192.607 9.19896 192.507 9.27838 192.435 9.38C192.364 9.48045 192.328 9.59491 192.328 9.72338C192.328 9.81799 192.348 9.90092 192.389 9.97216C192.43 10.0434 192.485 10.1047 192.554 10.1561C192.624 10.2063 192.701 10.2496 192.785 10.2858C192.871 10.322 192.956 10.3523 193.043 10.3769L193.421 10.4855C193.536 10.517 193.65 10.5573 193.765 10.6064C193.879 10.6554 193.984 10.7173 194.078 10.7921C194.174 10.8657 194.251 10.9562 194.308 11.0636C194.366 11.1699 194.395 11.2978 194.395 11.4473C194.395 11.6389 194.346 11.8111 194.246 11.9642C194.147 12.1172 194.005 12.2386 193.819 12.3286C193.633 12.4173 193.411 12.4617 193.151 12.4617C192.907 12.4617 192.695 12.4214 192.516 12.3408C192.336 12.2591 192.194 12.1464 192.092 12.0027C191.989 11.859 191.931 11.6926 191.918 11.5034H192.254C192.266 11.6447 192.313 11.7644 192.395 11.8625C192.476 11.9606 192.583 12.0354 192.713 12.0868C192.844 12.137 192.99 12.1621 193.151 12.1621C193.33 12.1621 193.489 12.1323 193.628 12.0728C193.768 12.012 193.878 11.9279 193.957 11.8205C194.038 11.7119 194.078 11.5857 194.078 11.4421C194.078 11.3206 194.047 11.219 193.984 11.1372C193.921 11.0543 193.832 10.9848 193.719 10.9287C193.607 10.8727 193.477 10.823 193.328 10.7798L192.899 10.6537C192.618 10.5696 192.399 10.4534 192.244 10.305C192.089 10.1567 192.011 9.96749 192.011 9.7374C192.011 9.54468 192.062 9.37533 192.165 9.22933C192.269 9.08216 192.409 8.9677 192.586 8.88594C192.763 8.80302 192.962 8.76155 193.183 8.76155C193.406 8.76155 193.603 8.80243 193.775 8.88419C193.947 8.96595 194.083 9.07866 194.183 9.22232C194.285 9.36482 194.339 9.52716 194.346 9.70937H194.029ZM196.207 12.4565C195.956 12.4565 195.739 12.3981 195.555 12.2813C195.372 12.1633 195.23 12.0004 195.129 11.7925C195.03 11.5834 194.981 11.3428 194.981 11.0706C194.981 10.7997 195.03 10.5591 195.129 10.3488C195.23 10.1374 195.368 9.97216 195.545 9.85303C195.722 9.73273 195.927 9.67258 196.16 9.67258C196.306 9.67258 196.446 9.69944 196.582 9.75317C196.717 9.80573 196.839 9.8869 196.946 9.99669C197.055 10.1053 197.141 10.2426 197.204 10.4084C197.267 10.5731 197.298 10.7681 197.298 10.9936V11.1477H195.196V10.8727H196.98C196.98 10.6998 196.944 10.5445 196.874 10.4067C196.805 10.2677 196.709 10.1579 196.585 10.0773C196.463 9.99669 196.321 9.9564 196.16 9.9564C195.989 9.9564 195.839 10.0019 195.709 10.093C195.58 10.1842 195.478 10.3045 195.405 10.454C195.332 10.6035 195.295 10.767 195.294 10.9445V11.1092C195.294 11.3229 195.331 11.5098 195.405 11.6698C195.479 11.8287 195.585 11.9519 195.722 12.0395C195.858 12.1271 196.02 12.1709 196.207 12.1709C196.334 12.1709 196.446 12.151 196.542 12.1113C196.638 12.0716 196.72 12.0185 196.785 11.9519C196.852 11.8841 196.902 11.81 196.936 11.7294L197.232 11.8257C197.191 11.939 197.124 12.0436 197.03 12.1393C196.938 12.2351 196.822 12.3122 196.683 12.3706C196.546 12.4278 196.387 12.4565 196.207 12.4565ZM198.737 12.4617C198.575 12.4617 198.427 12.4302 198.292 12.3671C198.158 12.3029 198.051 12.2106 197.972 12.0903C197.892 11.9688 197.852 11.8217 197.852 11.6488C197.852 11.5156 197.878 11.4035 197.928 11.3124C197.978 11.2213 198.049 11.1466 198.142 11.0882C198.234 11.0298 198.343 10.9836 198.469 10.9498C198.595 10.9159 198.734 10.8896 198.886 10.8709C199.037 10.8522 199.164 10.8359 199.268 10.8219C199.373 10.8079 199.453 10.7857 199.508 10.7553C199.563 10.7249 199.59 10.6759 199.59 10.6081V10.5451C199.59 10.3617 199.536 10.2174 199.426 10.1123C199.317 10.006 199.161 9.95289 198.956 9.95289C198.762 9.95289 198.604 9.99552 198.481 10.0808C198.36 10.166 198.275 10.2665 198.226 10.3821L197.93 10.2753C197.99 10.1281 198.074 10.0107 198.182 9.92311C198.289 9.83434 198.41 9.77069 198.543 9.73214C198.676 9.69243 198.811 9.67258 198.947 9.67258C199.05 9.67258 199.157 9.68601 199.268 9.71287C199.38 9.73974 199.484 9.78646 199.58 9.85303C199.676 9.91844 199.753 10.0101 199.813 10.1281C199.872 10.2449 199.902 10.3932 199.902 10.5731V12.4004H199.59V11.9747H199.571C199.534 12.0541 199.478 12.1312 199.405 12.2059C199.331 12.2807 199.239 12.342 199.128 12.3899C199.017 12.4378 198.887 12.4617 198.737 12.4617ZM198.779 12.1761C198.945 12.1761 199.089 12.1393 199.21 12.0658C199.332 11.9922 199.425 11.8947 199.491 11.7732C199.557 11.6505 199.59 11.5156 199.59 11.3685V10.9795C199.567 11.0017 199.528 11.0216 199.473 11.0391C199.419 11.0566 199.357 11.0724 199.286 11.0864C199.215 11.0993 199.145 11.1104 199.075 11.1197C199.005 11.129 198.942 11.1372 198.886 11.1442C198.734 11.1629 198.605 11.1921 198.497 11.2318C198.39 11.2715 198.307 11.3264 198.25 11.3965C198.193 11.4654 198.164 11.5542 198.164 11.6628C198.164 11.8263 198.223 11.9531 198.339 12.043C198.456 12.1318 198.603 12.1761 198.779 12.1761ZM200.732 12.4004V9.70937H201.035V10.1228H201.058C201.111 9.98735 201.205 9.87814 201.338 9.79522C201.472 9.71112 201.624 9.66907 201.793 9.66907C201.819 9.66907 201.848 9.66966 201.879 9.67083C201.911 9.67199 201.937 9.67316 201.958 9.67433V9.99144C201.944 9.9891 201.92 9.9856 201.885 9.98092C201.85 9.97625 201.812 9.97392 201.771 9.97392C201.631 9.97392 201.506 10.0037 201.396 10.0633C201.287 10.1217 201.201 10.2028 201.138 10.3068C201.075 10.4107 201.044 10.5293 201.044 10.6624V12.4004H200.732ZM203.46 12.4565C203.219 12.4565 203.009 12.3963 202.831 12.276C202.653 12.1557 202.515 11.991 202.417 11.7819C202.319 11.5729 202.27 11.3346 202.27 11.0671C202.27 10.7973 202.32 10.5573 202.419 10.3471C202.519 10.1368 202.658 9.97216 202.836 9.85303C203.013 9.73273 203.22 9.67258 203.454 9.67258C203.634 9.67258 203.797 9.70762 203.943 9.7777C204.089 9.84661 204.209 9.94413 204.304 10.0703C204.4 10.1952 204.46 10.3412 204.485 10.5083H204.169C204.136 10.3564 204.058 10.2268 203.933 10.1193C203.809 10.0107 203.651 9.9564 203.46 9.9564C203.288 9.9564 203.136 10.0031 203.004 10.0966C202.872 10.1888 202.769 10.3179 202.694 10.4837C202.62 10.6484 202.584 10.8394 202.584 11.0566C202.584 11.275 202.62 11.4683 202.692 11.6365C202.765 11.8036 202.866 11.9344 202.997 12.029C203.129 12.1236 203.283 12.1709 203.46 12.1709C203.579 12.1709 203.687 12.1487 203.785 12.1043C203.885 12.0588 203.968 11.9945 204.034 11.9116C204.102 11.8287 204.148 11.73 204.171 11.6155H204.486C204.463 11.7779 204.405 11.9227 204.313 12.05C204.222 12.1761 204.103 12.2754 203.957 12.3478C203.812 12.4202 203.646 12.4565 203.46 12.4565ZM205.466 10.7185V12.4004H205.155V8.81236H205.466V10.1316H205.495C205.558 9.9926 205.655 9.88165 205.787 9.79872C205.92 9.71579 206.088 9.67433 206.292 9.67433C206.474 9.67433 206.634 9.7117 206.772 9.78646C206.91 9.86121 207.017 9.97158 207.094 10.1176C207.171 10.2636 207.21 10.4434 207.21 10.6572V12.4004H206.896V10.6765C206.896 10.4545 206.834 10.2799 206.71 10.1526C206.588 10.0241 206.422 9.9599 206.213 9.9599C206.069 9.9599 205.941 9.99027 205.829 10.051C205.717 10.1117 205.628 10.1993 205.563 10.3138C205.499 10.4271 205.466 10.562 205.466 10.7185Z" fill="black" fill-opacity="0.4"/>
<path d="M339.337 9.59437C339.337 8.08087 338.109 6.85352 336.596 6.85352C335.082 6.85352 333.855 8.08087 333.855 9.59437V12.3352L332.21 13.4316V13.9797H340.981V13.4316L339.337 12.3352V9.59437Z" fill="#005D80"/>
<path d="M337.692 14.5273H335.5C335.5 15.1331 335.99 15.6237 336.596 15.6237C337.202 15.6237 337.692 15.1331 337.692 14.5273Z" fill="#005D80"/>
<circle cx="340.57" cy="7.26266" r="2.8779" fill="#FF4242"/>
<path d="M340.699 5.81501V8.20703H340.41V6.11869H340.396L339.812 6.50645V6.21212L340.41 5.81501H340.699Z" fill="white"/>
<path d="M374.061 13.4004H373.271V9.67501H374.061V13.4004ZM375.789 13.4004H374.999V9.67501H375.789V11.3797L376.1 10.9414L377.109 9.67501H377.985L376.686 11.3237L377.996 13.4004H377.099L376.123 11.8307L375.789 12.0703V13.4004Z" fill="white"/>
<rect x="15.0938" y="4.10938" width="17.962" height="12.6079" fill="#B0916E"/>
<path d="M22.0944 6.19727L18.4727 11.2498H20.5853V16.3024H23.6034V11.2498H25.7161L22.0944 6.19727Z" fill="#FFF0A1"/>
<path d="M39.0573 13.4805V7.50042H41.4167C41.8683 7.50042 42.2537 7.58121 42.573 7.74278C42.8942 7.9024 43.1385 8.12918 43.3059 8.42312C43.4752 8.71512 43.5599 9.0587 43.5599 9.45386C43.5599 9.85098 43.4743 10.1926 43.3029 10.4788C43.1316 10.763 42.8835 10.981 42.5584 11.1328C42.2352 11.2847 41.8439 11.3606 41.3845 11.3606H39.8049V10.3444H41.1801C41.4215 10.3444 41.622 10.3114 41.7817 10.2452C41.9413 10.179 42.06 10.0797 42.1379 9.94733C42.2177 9.81496 42.2576 9.65047 42.2576 9.45386C42.2576 9.25531 42.2177 9.0879 42.1379 8.95163C42.06 8.81537 41.9403 8.7122 41.7787 8.64212C41.6191 8.57009 41.4176 8.53408 41.1743 8.53408H40.3217V13.4805H39.0573ZM42.2868 10.7591L43.7731 13.4805H42.3773L40.9232 10.7591H42.2868ZM45.709 13.5651C45.4228 13.5651 45.1678 13.5155 44.944 13.4162C44.7201 13.315 44.543 13.1661 44.4125 12.9695C44.2841 12.7709 44.2198 12.5237 44.2198 12.2278C44.2198 11.9786 44.2656 11.7694 44.357 11.6C44.4485 11.4307 44.5731 11.2944 44.7308 11.1912C44.8885 11.0881 45.0676 11.0102 45.2681 10.9576C45.4705 10.9051 45.6827 10.8681 45.9046 10.8467C46.1655 10.8194 46.3757 10.7941 46.5353 10.7708C46.695 10.7455 46.8108 10.7085 46.8828 10.6598C46.9548 10.6111 46.9908 10.5391 46.9908 10.4437V10.4262C46.9908 10.2413 46.9324 10.0982 46.8156 9.99697C46.7008 9.89575 46.5373 9.84514 46.3251 9.84514C46.1012 9.84514 45.9231 9.89478 45.7907 9.99405C45.6584 10.0914 45.5708 10.214 45.5279 10.362L44.3775 10.2685C44.4359 9.996 44.5507 9.76046 44.722 9.5619C44.8933 9.3614 45.1143 9.20761 45.3849 9.10055C45.6574 8.99154 45.9728 8.93703 46.3309 8.93703C46.5801 8.93703 46.8186 8.96623 47.0463 9.02463C47.276 9.08303 47.4794 9.17355 47.6566 9.29619C47.8357 9.41882 47.9768 9.5765 48.08 9.76922C48.1832 9.95999 48.2347 10.1887 48.2347 10.4554V13.4805H47.0551V12.8585H47.02C46.948 12.9987 46.8517 13.1223 46.731 13.2294C46.6103 13.3345 46.4652 13.4172 46.2959 13.4775C46.1265 13.5359 45.9309 13.5651 45.709 13.5651ZM46.0652 12.7067C46.2482 12.7067 46.4098 12.6707 46.5499 12.5986C46.6901 12.5247 46.8001 12.4254 46.8799 12.3008C46.9597 12.1762 46.9996 12.0351 46.9996 11.8774V11.4015C46.9607 11.4268 46.9071 11.4501 46.839 11.4715C46.7728 11.491 46.6979 11.5095 46.6142 11.527C46.5305 11.5426 46.4468 11.5572 46.3631 11.5708C46.2793 11.5825 46.2034 11.5932 46.1353 11.6029C45.9893 11.6244 45.8618 11.6584 45.7528 11.7051C45.6438 11.7519 45.5591 11.8151 45.4987 11.8949C45.4384 11.9728 45.4082 12.0701 45.4082 12.1869C45.4082 12.3563 45.4695 12.4857 45.5922 12.5753C45.7168 12.6629 45.8744 12.7067 46.0652 12.7067ZM51.2262 13.5681C50.7668 13.5681 50.3717 13.4707 50.0407 13.2761C49.7117 13.0795 49.4587 12.8069 49.2815 12.4585C49.1063 12.11 49.0187 11.709 49.0187 11.2555C49.0187 10.7961 49.1073 10.3931 49.2845 10.0466C49.4635 9.69817 49.7176 9.42661 50.0466 9.23195C50.3755 9.03534 50.7668 8.93703 51.2204 8.93703C51.6117 8.93703 51.9543 9.00809 52.2482 9.15019C52.5421 9.29229 52.7748 9.49182 52.9461 9.74878C53.1174 10.0057 53.2118 10.3075 53.2293 10.654H52.0555C52.0224 10.4301 51.9348 10.25 51.7927 10.1138C51.6525 9.97556 51.4686 9.90646 51.2408 9.90646C51.0481 9.90646 50.8797 9.95901 50.7357 10.0641C50.5936 10.1673 50.4826 10.3182 50.4028 10.5167C50.323 10.7153 50.2831 10.9557 50.2831 11.238C50.2831 11.5241 50.322 11.7674 50.3999 11.9679C50.4797 12.1684 50.5916 12.3213 50.7357 12.4264C50.8797 12.5315 51.0481 12.584 51.2408 12.584C51.3829 12.584 51.5104 12.5548 51.6233 12.4964C51.7382 12.438 51.8326 12.3534 51.9066 12.2424C51.9825 12.1295 52.0321 11.9942 52.0555 11.8365H53.2293C53.2098 12.1791 53.1164 12.4809 52.949 12.7417C52.7835 13.0006 52.5548 13.2031 52.2628 13.3491C51.9708 13.4951 51.6253 13.5681 51.2262 13.5681ZM55.1528 12.1899L55.1557 10.6978H55.3368L56.7734 8.99543H58.2012L56.2712 11.2496H55.9762L55.1528 12.1899ZM54.0257 13.4805V7.50042H55.2696V13.4805H54.0257ZM56.8289 13.4805L55.5091 11.527L56.3383 10.6481L58.2859 13.4805H56.8289ZM63.5907 11.5708V8.99543H64.8346V13.4805H63.6404V12.6658H63.5937C63.4924 12.9286 63.324 13.1398 63.0885 13.2994C62.8549 13.4591 62.5697 13.5389 62.233 13.5389C61.9332 13.5389 61.6694 13.4707 61.4417 13.3345C61.2139 13.1982 61.0358 13.0045 60.9073 12.7534C60.7808 12.5023 60.7165 12.2015 60.7146 11.8511V8.99543H61.9585V11.6292C61.9604 11.894 62.0315 12.1032 62.1716 12.257C62.3118 12.4108 62.4996 12.4877 62.7352 12.4877C62.8851 12.4877 63.0252 12.4536 63.1557 12.3855C63.2861 12.3154 63.3912 12.2122 63.471 12.076C63.5528 11.9397 63.5927 11.7713 63.5907 11.5708ZM65.8296 15.1624V8.99543H67.056V9.74878H67.1115C67.166 9.62809 67.2448 9.50545 67.348 9.38087C67.4531 9.25433 67.5894 9.14922 67.7568 9.06551C67.9261 8.97986 68.1364 8.93703 68.3875 8.93703C68.7145 8.93703 69.0162 9.02269 69.2927 9.19399C69.5691 9.36335 69.79 9.61933 69.9555 9.96193C70.1209 10.3026 70.2037 10.7299 70.2037 11.2438C70.2037 11.7441 70.1229 12.1665 69.9613 12.511C69.8017 12.8537 69.5837 13.1135 69.3073 13.2907C69.0328 13.4659 68.7252 13.5535 68.3846 13.5535C68.1432 13.5535 67.9378 13.5136 67.7684 13.4337C67.601 13.3539 67.4638 13.2537 67.3567 13.133C67.2497 13.0104 67.1679 12.8867 67.1115 12.7622H67.0735V15.1624H65.8296ZM67.0472 11.238C67.0472 11.5046 67.0842 11.7373 67.1582 11.9358C67.2321 12.1344 67.3392 12.2891 67.4794 12.4001C67.6195 12.5091 67.7899 12.5636 67.9904 12.5636C68.1928 12.5636 68.3641 12.5081 68.5043 12.3972C68.6444 12.2843 68.7505 12.1285 68.8225 11.93C68.8965 11.7295 68.9335 11.4988 68.9335 11.238C68.9335 10.979 68.8975 10.7513 68.8255 10.5547C68.7534 10.3581 68.6473 10.2043 68.5072 10.0933C68.367 9.98237 68.1948 9.92689 67.9904 9.92689C67.7879 9.92689 67.6166 9.98043 67.4764 10.0875C67.3382 10.1946 67.2321 10.3464 67.1582 10.543C67.0842 10.7396 67.0472 10.9713 67.0472 11.238Z" fill="white"/>
</g>
<defs>
<clipPath id="clip0_618_2014">
<rect width="401.28" height="352" fill="white" transform="matrix(-1 0 0 1 401.28 0)"/>
</clipPath>
</defs>
</svg>
