<svg width="45" height="45" viewBox="0 0 45 45" fill="none" xmlns="http://www.w3.org/2000/svg">
<g clip-path="url(#clip0_962_1691)">
<path fill-rule="evenodd" clip-rule="evenodd" d="M45 5.51487C45 2.47113 42.5289 0 39.4851 0H5.51487C2.47113 0 0 2.47113 0 5.51487V39.4851C0 42.5289 2.47113 45 5.51487 45H39.4851C42.5289 45 45 42.5289 45 39.4851V5.51487ZM24.921 22.5002C24.921 28.4272 20.1488 33.2319 14.2625 33.2319C8.37606 33.2319 3.60352 28.4272 3.60352 22.5002C3.60352 16.5732 8.37562 11.7681 14.2625 11.7681C20.1492 11.7681 24.921 16.5732 24.921 22.5002ZM36.6138 22.5002C36.6138 28.0791 34.2278 32.6036 31.2844 32.6036C28.3409 32.6036 25.9549 28.0791 25.9549 22.5002C25.9549 16.9212 28.3406 12.3968 31.284 12.3968C34.2274 12.3968 36.6135 16.9197 36.6135 22.5002H36.6138ZM41.3965 22.5002C41.3965 27.4976 40.5574 31.5512 39.5221 31.5512C38.4868 31.5512 37.648 27.4987 37.648 22.5002C37.648 17.5017 38.4871 13.4491 39.5221 13.4491C40.557 13.4491 41.3965 17.5013 41.3965 22.5002Z" fill="black"/>
</g>
<defs>
<clipPath id="clip0_962_1691">
<rect width="45" height="45" fill="white"/>
</clipPath>
</defs>
</svg>
