<svg width="50" height="50" viewBox="0 0 50 50" fill="none" xmlns="http://www.w3.org/2000/svg">
<path d="M10.8594 10.3895C12.259 11.5265 12.7841 11.4398 15.4123 11.2644L40.1903 9.77663C40.7157 9.77663 40.2787 9.25237 40.1037 9.16523L35.9883 6.19037C35.2 5.57823 34.1493 4.87717 32.1361 5.05253L8.14359 6.80247C7.26863 6.88923 7.09383 7.3267 7.44233 7.6774L10.8594 10.3895ZM12.347 16.1639V42.2347C12.347 43.6357 13.0472 44.16 14.6231 44.0733L41.854 42.4977C43.4307 42.411 43.6063 41.447 43.6063 40.309V14.4132C43.6063 13.2769 43.1693 12.664 42.204 12.7515L13.7474 14.4132C12.6973 14.5015 12.347 15.0268 12.347 16.1639ZM39.2293 17.5624C39.404 18.3506 39.2293 19.1381 38.4397 19.2266L37.1277 19.488V38.735C35.9883 39.3473 34.938 39.6973 34.0627 39.6973C32.6612 39.6973 32.3102 39.2597 31.2604 37.948L22.6782 24.475V37.5107L25.3939 38.1233C25.3939 38.1233 25.3939 39.6973 23.2029 39.6973L17.1626 40.0477C16.9872 39.6973 17.1626 38.8233 17.7753 38.648L19.3515 38.2113V20.9759L17.163 20.8005C16.9875 20.0123 17.4246 18.8759 18.6513 18.7877L25.1312 18.3509L34.0627 31.9993V19.9255L31.7855 19.6641C31.6107 18.7006 32.3102 18.0009 33.1859 17.9142L39.2293 17.5624ZM6.12913 4.4404L31.0852 2.60262C34.15 2.33977 34.9383 2.51584 36.8647 3.91507L44.8307 9.51413C46.1453 10.477 46.5833 10.7391 46.5833 11.7887V42.4977C46.5833 44.422 45.8823 45.5603 43.431 45.7343L14.4497 47.4847C12.6097 47.5723 11.734 47.31 10.7704 46.0843L4.90386 38.473C3.85266 37.072 3.41553 36.0237 3.41553 34.7973V7.50137C3.41553 5.9275 4.11679 4.6147 6.12913 4.4404Z" fill="black"/>
</svg>
