<svg width="456" height="325" viewBox="0 0 456 325" fill="none" xmlns="http://www.w3.org/2000/svg">
<g clip-path="url(#clip0_638_2259)">
<rect width="456" height="324.267" transform="translate(0 0.535156)" fill="white"/>
<rect width="456" height="26.2833" transform="matrix(-1 0 0 1 456 0.535156)" fill="#0075A2"/>
<rect width="456" height="18.05" transform="matrix(-1 0 0 1 456 25.2344)" fill="#F0F3F5"/>
<circle cx="7.91667" cy="7.91667" r="7.91667" transform="matrix(-1 0 0 1 433.833 5.60156)" fill="#54DED9"/>
<path d="M10.414 36.8848H9.9462L11.2992 33.1999H11.7598L13.1129 36.8848H12.6451L11.5439 33.7829H11.5151L10.414 36.8848ZM10.5867 35.4454H12.4723V35.8412H10.5867V35.4454ZM14.0539 33.1999V36.8848H13.6292V33.1999H14.0539ZM15.2562 33.1999V36.8848H14.8316V33.1999H15.2562Z" fill="black"/>
<path d="M40.9794 36.8848V33.1999H43.1889V33.5958H41.4256V34.8408H43.0234V35.2367H41.4256V36.8848H40.9794ZM44.7088 36.9495C44.5337 36.9495 44.3747 36.9166 44.232 36.8506C44.0893 36.7834 43.9759 36.6868 43.8919 36.5609C43.808 36.4338 43.766 36.2802 43.766 36.1003C43.766 35.942 43.7972 35.8136 43.8596 35.7153C43.9219 35.6157 44.0053 35.5377 44.1096 35.4814C44.214 35.425 44.3292 35.383 44.4551 35.3554C44.5822 35.3266 44.71 35.3038 44.8383 35.287C45.0063 35.2654 45.1424 35.2493 45.2468 35.2385C45.3523 35.2265 45.4291 35.2067 45.4771 35.1791C45.5263 35.1515 45.5508 35.1035 45.5508 35.0351V35.0208C45.5508 34.8432 45.5023 34.7053 45.4051 34.6069C45.3091 34.5086 45.1634 34.4594 44.9679 34.4594C44.7652 34.4594 44.6062 34.5038 44.4911 34.5925C44.3759 34.6813 44.295 34.7761 44.2482 34.8768L43.8452 34.7329C43.9171 34.5649 44.0131 34.4342 44.133 34.3406C44.2542 34.2459 44.3861 34.1799 44.5289 34.1427C44.6728 34.1043 44.8144 34.0851 44.9535 34.0851C45.0423 34.0851 45.1442 34.0959 45.2594 34.1175C45.3757 34.1379 45.4879 34.1805 45.5958 34.2453C45.705 34.31 45.7955 34.4078 45.8675 34.5386C45.9395 34.6693 45.9755 34.8444 45.9755 35.0639V36.8848H45.5508V36.5105H45.5292C45.5005 36.5705 45.4525 36.6347 45.3853 36.703C45.3181 36.7714 45.2288 36.8296 45.1172 36.8776C45.0057 36.9255 44.8695 36.9495 44.7088 36.9495ZM44.7736 36.5681C44.9415 36.5681 45.083 36.5351 45.1982 36.4691C45.3145 36.4032 45.4021 36.318 45.4609 36.2136C45.5209 36.1093 45.5508 35.9995 45.5508 35.8844V35.4958C45.5328 35.5173 45.4933 35.5371 45.4321 35.5551C45.3721 35.5719 45.3025 35.5869 45.2234 35.6001C45.1454 35.6121 45.0692 35.6229 44.9949 35.6325C44.9217 35.6409 44.8623 35.6481 44.8167 35.6541C44.7064 35.6685 44.6032 35.6919 44.5073 35.7243C44.4125 35.7554 44.3358 35.8028 44.277 35.8664C44.2194 35.9288 44.1906 36.0139 44.1906 36.1219C44.1906 36.2694 44.2452 36.381 44.3543 36.4565C44.4647 36.5309 44.6044 36.5681 44.7736 36.5681ZM48.9114 34.1211L47.8894 36.8848H47.4576L46.4356 34.1211H46.8962L47.6591 36.3234H47.6879L48.4508 34.1211H48.9114ZM50.4956 36.9423C50.2461 36.9423 50.0272 36.883 49.8389 36.7642C49.6518 36.6455 49.5054 36.4793 49.3999 36.2658C49.2955 36.0523 49.2433 35.8028 49.2433 35.5173C49.2433 35.2295 49.2955 34.9782 49.3999 34.7635C49.5054 34.5487 49.6518 34.382 49.8389 34.2633C50.0272 34.1445 50.2461 34.0851 50.4956 34.0851C50.7451 34.0851 50.9634 34.1445 51.1505 34.2633C51.3389 34.382 51.4852 34.5487 51.5895 34.7635C51.6951 34.9782 51.7479 35.2295 51.7479 35.5173C51.7479 35.8028 51.6951 36.0523 51.5895 36.2658C51.4852 36.4793 51.3389 36.6455 51.1505 36.7642C50.9634 36.883 50.7451 36.9423 50.4956 36.9423ZM50.4956 36.5609C50.6851 36.5609 50.8411 36.5123 50.9634 36.4152C51.0858 36.318 51.1763 36.1903 51.2351 36.0319C51.2939 35.8736 51.3233 35.7021 51.3233 35.5173C51.3233 35.3326 51.2939 35.1605 51.2351 35.001C51.1763 34.8414 51.0858 34.7125 50.9634 34.6141C50.8411 34.5158 50.6851 34.4666 50.4956 34.4666C50.3061 34.4666 50.1502 34.5158 50.0278 34.6141C49.9055 34.7125 49.8149 34.8414 49.7561 35.001C49.6973 35.1605 49.668 35.3326 49.668 35.5173C49.668 35.7021 49.6973 35.8736 49.7561 36.0319C49.8149 36.1903 49.9055 36.318 50.0278 36.4152C50.1502 36.5123 50.3061 36.5609 50.4956 36.5609ZM54.1377 35.7548V34.1211H54.5623V36.8848H54.1377V36.417H54.1089C54.0442 36.5573 53.9434 36.6767 53.8067 36.775C53.6699 36.8722 53.4972 36.9208 53.2885 36.9208C53.1158 36.9208 52.9622 36.883 52.8279 36.8074C52.6935 36.7306 52.588 36.6155 52.5112 36.4619C52.4344 36.3072 52.3961 36.1123 52.3961 35.8772V34.1211H52.8207V35.8484C52.8207 36.0499 52.8771 36.2106 52.9898 36.3306C53.1038 36.4505 53.2489 36.5105 53.4252 36.5105C53.5308 36.5105 53.6381 36.4835 53.7473 36.4296C53.8576 36.3756 53.95 36.2928 54.0244 36.1813C54.0999 36.0697 54.1377 35.9276 54.1377 35.7548ZM55.3401 36.8848V34.1211H55.7503V34.5386H55.7791C55.8295 34.4018 55.9206 34.2909 56.0526 34.2057C56.1845 34.1205 56.3333 34.0779 56.4988 34.0779C56.53 34.0779 56.569 34.0785 56.6157 34.0797C56.6625 34.0809 56.6979 34.0827 56.7219 34.0851V34.517C56.7075 34.5134 56.6745 34.508 56.6229 34.5008C56.5725 34.4924 56.5192 34.4882 56.4628 34.4882C56.3285 34.4882 56.2085 34.5164 56.1029 34.5727C55.9986 34.6279 55.9158 34.7047 55.8547 34.803C55.7947 34.9002 55.7647 35.0112 55.7647 35.1359V36.8848H55.3401ZM57.2252 36.8848V34.1211H57.6498V36.8848H57.2252ZM57.4411 33.6605C57.3584 33.6605 57.287 33.6323 57.227 33.576C57.1682 33.5196 57.1389 33.4518 57.1389 33.3726C57.1389 33.2935 57.1682 33.2257 57.227 33.1693C57.287 33.113 57.3584 33.0848 57.4411 33.0848C57.5239 33.0848 57.5947 33.113 57.6534 33.1693C57.7134 33.2257 57.7434 33.2935 57.7434 33.3726C57.7434 33.4518 57.7134 33.5196 57.6534 33.576C57.5947 33.6323 57.5239 33.6605 57.4411 33.6605ZM59.6295 34.1211V34.481H58.1973V34.1211H59.6295ZM58.6147 33.459H59.0393V36.0931C59.0393 36.213 59.0567 36.303 59.0915 36.363C59.1275 36.4218 59.1731 36.4613 59.2282 36.4817C59.2846 36.5009 59.344 36.5105 59.4064 36.5105C59.4531 36.5105 59.4915 36.5081 59.5215 36.5033C59.5515 36.4973 59.5755 36.4925 59.5935 36.4889L59.6798 36.8704C59.6511 36.8812 59.6109 36.892 59.5593 36.9028C59.5077 36.9148 59.4423 36.9208 59.3632 36.9208C59.2432 36.9208 59.1257 36.895 59.0105 36.8434C58.8966 36.7918 58.8018 36.7132 58.7262 36.6077C58.6519 36.5021 58.6147 36.369 58.6147 36.2083V33.459ZM61.3972 36.9423C61.1309 36.9423 60.9012 36.8836 60.7081 36.766C60.5162 36.6473 60.3681 36.4817 60.2637 36.2694C60.1605 36.0559 60.109 35.8076 60.109 35.5245C60.109 35.2415 60.1605 34.992 60.2637 34.7761C60.3681 34.5589 60.5132 34.3898 60.6991 34.2687C60.8862 34.1463 61.1045 34.0851 61.354 34.0851C61.498 34.0851 61.6401 34.1091 61.7805 34.1571C61.9208 34.2051 62.0485 34.2831 62.1637 34.391C62.2788 34.4978 62.3706 34.6393 62.439 34.8156C62.5074 34.992 62.5415 35.2091 62.5415 35.467V35.6469H60.4112V35.2798H62.1097C62.1097 35.1239 62.0785 34.9848 62.0162 34.8624C61.955 34.7401 61.8674 34.6435 61.7535 34.5727C61.6407 34.502 61.5076 34.4666 61.354 34.4666C61.1849 34.4666 61.0386 34.5086 60.915 34.5925C60.7927 34.6753 60.6985 34.7833 60.6325 34.9164C60.5666 35.0495 60.5336 35.1923 60.5336 35.3446V35.5893C60.5336 35.798 60.5696 35.9749 60.6415 36.1201C60.7147 36.264 60.8161 36.3738 60.9456 36.4493C61.0752 36.5237 61.2257 36.5609 61.3972 36.5609C61.5088 36.5609 61.6095 36.5453 61.6995 36.5141C61.7907 36.4817 61.8692 36.4338 61.9352 36.3702C62.0012 36.3054 62.0521 36.225 62.0881 36.1291L62.4984 36.2442C62.4552 36.3834 62.3826 36.5057 62.2806 36.6113C62.1787 36.7156 62.0527 36.7972 61.9028 36.856C61.7529 36.9136 61.5843 36.9423 61.3972 36.9423ZM65.145 34.7401L64.7636 34.848C64.7396 34.7844 64.7042 34.7227 64.6574 34.6627C64.6119 34.6015 64.5495 34.5511 64.4703 34.5116C64.3912 34.472 64.2898 34.4522 64.1663 34.4522C63.9971 34.4522 63.8562 34.4912 63.7434 34.5691C63.6319 34.6459 63.5761 34.7437 63.5761 34.8624C63.5761 34.968 63.6145 35.0513 63.6913 35.1125C63.768 35.1737 63.888 35.2247 64.0511 35.2654L64.4613 35.3662C64.7084 35.4262 64.8925 35.5179 65.0137 35.6415C65.1348 35.7638 65.1954 35.9216 65.1954 36.1147C65.1954 36.273 65.1498 36.4146 65.0587 36.5393C64.9687 36.6641 64.8428 36.7624 64.6808 36.8344C64.5189 36.9064 64.3306 36.9423 64.1159 36.9423C63.834 36.9423 63.6007 36.8812 63.416 36.7588C63.2312 36.6365 63.1143 36.4577 63.0651 36.2226L63.4681 36.1219C63.5065 36.2706 63.5791 36.3822 63.6859 36.4565C63.7938 36.5309 63.9347 36.5681 64.1087 36.5681C64.3066 36.5681 64.4637 36.5261 64.5801 36.4422C64.6976 36.357 64.7564 36.255 64.7564 36.1363C64.7564 36.0403 64.7228 35.96 64.6556 35.8952C64.5885 35.8292 64.4853 35.78 64.3462 35.7476L63.8856 35.6397C63.6325 35.5797 63.4466 35.4868 63.3278 35.3608C63.2103 35.2337 63.1515 35.0747 63.1515 34.884C63.1515 34.7281 63.1953 34.5901 63.2828 34.4702C63.3716 34.3502 63.4921 34.2561 63.6445 34.1877C63.798 34.1193 63.9719 34.0851 64.1663 34.0851C64.4397 34.0851 64.6544 34.1451 64.8104 34.2651C64.9675 34.385 65.0791 34.5434 65.145 34.7401Z" fill="black"/>
<path d="M86.2629 36.8848V33.1999H86.7091V34.8408H88.6738V33.1999H89.1201V36.8848H88.6738V35.2367H86.7091V36.8848H86.2629ZM89.9558 36.8848V34.1211H90.3804V36.8848H89.9558ZM90.1717 33.6605C90.089 33.6605 90.0176 33.6323 89.9576 33.576C89.8988 33.5196 89.8694 33.4518 89.8694 33.3726C89.8694 33.2935 89.8988 33.2257 89.9576 33.1693C90.0176 33.113 90.089 33.0848 90.1717 33.0848C90.2545 33.0848 90.3253 33.113 90.384 33.1693C90.444 33.2257 90.474 33.2935 90.474 33.3726C90.474 33.4518 90.444 33.5196 90.384 33.576C90.3253 33.6323 90.2545 33.6605 90.1717 33.6605ZM93.1157 34.7401L92.7343 34.848C92.7103 34.7844 92.6749 34.7227 92.6281 34.6627C92.5826 34.6015 92.5202 34.5511 92.441 34.5116C92.3618 34.472 92.2605 34.4522 92.1369 34.4522C91.9678 34.4522 91.8269 34.4912 91.7141 34.5691C91.6026 34.6459 91.5468 34.7437 91.5468 34.8624C91.5468 34.968 91.5852 35.0513 91.6619 35.1125C91.7387 35.1737 91.8587 35.2247 92.0218 35.2654L92.432 35.3662C92.6791 35.4262 92.8632 35.5179 92.9844 35.6415C93.1055 35.7638 93.1661 35.9216 93.1661 36.1147C93.1661 36.273 93.1205 36.4146 93.0294 36.5393C92.9394 36.6641 92.8135 36.7624 92.6515 36.8344C92.4896 36.9064 92.3013 36.9423 92.0866 36.9423C91.8047 36.9423 91.5714 36.8812 91.3867 36.7588C91.2019 36.6365 91.085 36.4577 91.0358 36.2226L91.4388 36.1219C91.4772 36.2706 91.5498 36.3822 91.6565 36.4565C91.7645 36.5309 91.9054 36.5681 92.0794 36.5681C92.2773 36.5681 92.4344 36.5261 92.5508 36.4422C92.6683 36.357 92.7271 36.255 92.7271 36.1363C92.7271 36.0403 92.6935 35.96 92.6263 35.8952C92.5592 35.8292 92.456 35.78 92.3169 35.7476L91.8563 35.6397C91.6032 35.5797 91.4172 35.4868 91.2985 35.3608C91.1809 35.2337 91.1222 35.0747 91.1222 34.884C91.1222 34.7281 91.1659 34.5901 91.2535 34.4702C91.3423 34.3502 91.4628 34.2561 91.6152 34.1877C91.7687 34.1193 91.9426 34.0851 92.1369 34.0851C92.4104 34.0851 92.6251 34.1451 92.7811 34.2651C92.9382 34.385 93.0498 34.5434 93.1157 34.7401ZM95.0072 34.1211V34.481H93.575V34.1211H95.0072ZM93.9924 33.459H94.417V36.0931C94.417 36.213 94.4344 36.303 94.4692 36.363C94.5052 36.4218 94.5508 36.4613 94.6059 36.4817C94.6623 36.5009 94.7217 36.5105 94.7841 36.5105C94.8309 36.5105 94.8692 36.5081 94.8992 36.5033C94.9292 36.4973 94.9532 36.4925 94.9712 36.4889L95.0576 36.8704C95.0288 36.8812 94.9886 36.892 94.937 36.9028C94.8854 36.9148 94.8201 36.9208 94.7409 36.9208C94.6209 36.9208 94.5034 36.895 94.3882 36.8434C94.2743 36.7918 94.1795 36.7132 94.104 36.6077C94.0296 36.5021 93.9924 36.369 93.9924 36.2083V33.459ZM96.739 36.9423C96.4895 36.9423 96.2705 36.883 96.0822 36.7642C95.8951 36.6455 95.7488 36.4793 95.6432 36.2658C95.5389 36.0523 95.4867 35.8028 95.4867 35.5173C95.4867 35.2295 95.5389 34.9782 95.6432 34.7635C95.7488 34.5487 95.8951 34.382 96.0822 34.2633C96.2705 34.1445 96.4895 34.0851 96.739 34.0851C96.9884 34.0851 97.2068 34.1445 97.3939 34.2633C97.5822 34.382 97.7285 34.5487 97.8329 34.7635C97.9384 34.9782 97.9912 35.2295 97.9912 35.5173C97.9912 35.8028 97.9384 36.0523 97.8329 36.2658C97.7285 36.4793 97.5822 36.6455 97.3939 36.7642C97.2068 36.883 96.9884 36.9423 96.739 36.9423ZM96.739 36.5609C96.9285 36.5609 97.0844 36.5123 97.2068 36.4152C97.3291 36.318 97.4197 36.1903 97.4784 36.0319C97.5372 35.8736 97.5666 35.7021 97.5666 35.5173C97.5666 35.3326 97.5372 35.1605 97.4784 35.001C97.4197 34.8414 97.3291 34.7125 97.2068 34.6141C97.0844 34.5158 96.9285 34.4666 96.739 34.4666C96.5494 34.4666 96.3935 34.5158 96.2711 34.6141C96.1488 34.7125 96.0582 34.8414 95.9995 35.001C95.9407 35.1605 95.9113 35.3326 95.9113 35.5173C95.9113 35.7021 95.9407 35.8736 95.9995 36.0319C96.0582 36.1903 96.1488 36.318 96.2711 36.4152C96.3935 36.5123 96.5494 36.5609 96.739 36.5609ZM98.6394 36.8848V34.1211H99.0496V34.5386H99.0784C99.1288 34.4018 99.22 34.2909 99.3519 34.2057C99.4838 34.1205 99.6326 34.0779 99.7981 34.0779C99.8293 34.0779 99.8683 34.0785 99.9151 34.0797C99.9618 34.0809 99.9972 34.0827 100.021 34.0851V34.517C100.007 34.5134 99.9738 34.508 99.9223 34.5008C99.8719 34.4924 99.8185 34.4882 99.7621 34.4882C99.6278 34.4882 99.5078 34.5164 99.4023 34.5727C99.2979 34.6279 99.2152 34.7047 99.154 34.803C99.094 34.9002 99.064 35.0112 99.064 35.1359V36.8848H98.6394ZM100.882 37.9211C100.81 37.9211 100.746 37.9151 100.69 37.9031C100.633 37.8923 100.594 37.8815 100.573 37.8708L100.681 37.4965C100.784 37.5229 100.875 37.5325 100.954 37.5253C101.033 37.5181 101.103 37.4827 101.165 37.4191C101.227 37.3568 101.284 37.2554 101.336 37.1151L101.415 36.8992L100.393 34.1211H100.853L101.616 36.3234H101.645L102.408 34.1211H102.869L101.695 37.2878C101.643 37.4305 101.577 37.5487 101.499 37.6422C101.421 37.737 101.331 37.8072 101.228 37.8528C101.126 37.8983 101.011 37.9211 100.882 37.9211Z" fill="black"/>
<rect x="9.81665" y="5.28516" width="20.7525" height="14.5667" fill="#B0916E"/>
<path d="M25.1065 7.87891L20.991 13.8652H23.3917V19.8515H26.8214V13.8652H29.2221L25.1065 7.87891Z" fill="#FFF0A1"/>
<path d="M37.5031 15.8691V8.96005H40.2289C40.7507 8.96005 41.196 9.05339 41.5649 9.24006C41.936 9.42448 42.2182 9.68649 42.4116 10.0261C42.6073 10.3635 42.7051 10.7604 42.7051 11.217C42.7051 11.6758 42.6062 12.0705 42.4083 12.4011C42.2104 12.7295 41.9236 12.9814 41.548 13.1568C41.1747 13.3322 40.7226 13.4199 40.1918 13.4199H38.3667V12.2459H39.9557C40.2346 12.2459 40.4662 12.2077 40.6506 12.1312C40.8351 12.0547 40.9722 11.94 41.0622 11.7871C41.1544 11.6342 41.2005 11.4441 41.2005 11.217C41.2005 10.9876 41.1544 10.7942 41.0622 10.6367C40.9722 10.4793 40.8339 10.3601 40.6473 10.2791C40.4628 10.1959 40.2301 10.1543 39.9489 10.1543H38.9638V15.8691H37.5031ZM41.2343 12.725L42.9514 15.8691H41.3388L39.6588 12.725H41.2343ZM45.1881 15.967C44.8575 15.967 44.5629 15.9096 44.3042 15.7949C44.0456 15.678 43.8409 15.5059 43.6902 15.2788C43.5418 15.0494 43.4676 14.7637 43.4676 14.4219C43.4676 14.134 43.5204 13.8922 43.6261 13.6966C43.7318 13.5009 43.8758 13.3435 44.058 13.2243C44.2401 13.1051 44.447 13.0151 44.6787 12.9544C44.9126 12.8936 45.1577 12.8509 45.4141 12.8262C45.7155 12.7947 45.9584 12.7654 46.1428 12.7385C46.3272 12.7092 46.4611 12.6665 46.5443 12.6103C46.6275 12.554 46.6691 12.4708 46.6691 12.3606V12.3404C46.6691 12.1267 46.6016 11.9614 46.4667 11.8445C46.334 11.7275 46.1451 11.669 45.8999 11.669C45.6413 11.669 45.4355 11.7264 45.2826 11.8411C45.1296 11.9535 45.0284 12.0952 44.9789 12.2662L43.6497 12.1582C43.7172 11.8433 43.8499 11.5712 44.0478 11.3418C44.2457 11.1101 44.501 10.9325 44.8136 10.8088C45.1285 10.6828 45.4928 10.6199 45.9067 10.6199C46.1946 10.6199 46.4701 10.6536 46.7332 10.7211C46.9986 10.7885 47.2336 10.8931 47.4383 11.0348C47.6452 11.1765 47.8082 11.3587 47.9274 11.5813C48.0466 11.8017 48.1062 12.066 48.1062 12.3741V15.8691H46.7433V15.1506H46.7028C46.6196 15.3125 46.5083 15.4553 46.3689 15.579C46.2294 15.7005 46.0619 15.796 45.8662 15.8658C45.6705 15.9332 45.4445 15.967 45.1881 15.967ZM45.5997 14.9751C45.8111 14.9751 45.9978 14.9335 46.1597 14.8503C46.3216 14.7649 46.4487 14.6502 46.5409 14.5062C46.6331 14.3623 46.6792 14.1992 46.6792 14.017V13.4672C46.6342 13.4964 46.5724 13.5234 46.4937 13.5481C46.4172 13.5706 46.3306 13.592 46.2339 13.6122C46.1372 13.6302 46.0405 13.6471 45.9438 13.6628C45.8471 13.6763 45.7594 13.6887 45.6806 13.6999C45.512 13.7247 45.3646 13.764 45.2387 13.818C45.1128 13.872 45.0149 13.9451 44.9452 14.0373C44.8755 14.1272 44.8406 14.2397 44.8406 14.3746C44.8406 14.5703 44.9115 14.7199 45.0532 14.8233C45.1971 14.9245 45.3793 14.9751 45.5997 14.9751ZM51.5625 15.9703C51.0317 15.9703 50.5751 15.8579 50.1928 15.633C49.8127 15.4058 49.5203 15.091 49.3157 14.6884C49.1133 14.2858 49.0121 13.8225 49.0121 13.2985C49.0121 12.7677 49.1144 12.3021 49.319 11.9018C49.526 11.4992 49.8195 11.1855 50.1996 10.9606C50.5796 10.7334 51.0317 10.6199 51.5557 10.6199C52.0078 10.6199 52.4036 10.7019 52.7432 10.8661C53.0828 11.0303 53.3516 11.2608 53.5495 11.5577C53.7474 11.8546 53.8565 12.2032 53.8768 12.6035H52.5206C52.4823 12.3449 52.3811 12.1368 52.217 11.9794C52.055 11.8197 51.8425 11.7399 51.5793 11.7399C51.3567 11.7399 51.1621 11.8006 50.9957 11.9221C50.8315 12.0413 50.7033 12.2156 50.6111 12.445C50.5189 12.6744 50.4728 12.9521 50.4728 13.2782C50.4728 13.6088 50.5178 13.89 50.6078 14.1216C50.7 14.3533 50.8293 14.5298 50.9957 14.6513C51.1621 14.7727 51.3567 14.8335 51.5793 14.8335C51.7435 14.8335 51.8908 14.7997 52.0213 14.7322C52.154 14.6648 52.2631 14.5669 52.3485 14.4387C52.4362 14.3083 52.4936 14.152 52.5206 13.9698H53.8768C53.8543 14.3656 53.7463 14.7143 53.5529 15.0156C53.3617 15.3147 53.0975 15.5487 52.7601 15.7173C52.4227 15.886 52.0235 15.9703 51.5625 15.9703ZM56.0991 14.378L56.1025 12.6541H56.3116L57.9714 10.6873H59.6211L57.3912 13.2917H57.0504L56.0991 14.378ZM54.7969 15.8691V8.96005H56.234V15.8691H54.7969ZM58.0355 15.8691L56.5107 13.6122L57.4688 12.5968L59.7189 15.8691H58.0355ZM65.8479 13.6628V10.6873H67.285V15.8691H65.9053V14.9279H65.8513C65.7343 15.2315 65.5398 15.4756 65.2676 15.66C64.9978 15.8444 64.6683 15.9366 64.2792 15.9366C63.9328 15.9366 63.6281 15.8579 63.3649 15.7005C63.1018 15.543 62.896 15.3192 62.7476 15.0291C62.6014 14.739 62.5272 14.3915 62.5249 13.9867V10.6873H63.9621V13.7303C63.9643 14.0362 64.0464 14.2779 64.2083 14.4556C64.3703 14.6333 64.5873 14.7221 64.8594 14.7221C65.0326 14.7221 65.1946 14.6828 65.3452 14.604C65.4959 14.5231 65.6174 14.4039 65.7096 14.2464C65.804 14.089 65.8501 13.8945 65.8479 13.6628ZM68.4346 17.8123V10.6873H69.8515V11.5577H69.9156C69.9786 11.4183 70.0697 11.2766 70.1889 11.1326C70.3103 10.9864 70.4677 10.865 70.6612 10.7683C70.8568 10.6693 71.0997 10.6199 71.3898 10.6199C71.7677 10.6199 72.1163 10.7188 72.4357 10.9167C72.755 11.1124 73.0103 11.4081 73.2015 11.804C73.3926 12.1976 73.4882 12.6912 73.4882 13.285C73.4882 13.863 73.3949 14.351 73.2082 14.7491C73.0238 15.1449 72.7719 15.4452 72.4525 15.6499C72.1354 15.8523 71.7801 15.9535 71.3865 15.9535C71.1076 15.9535 70.8703 15.9074 70.6746 15.8152C70.4812 15.723 70.3227 15.6071 70.199 15.4677C70.0753 15.326 69.9808 15.1832 69.9156 15.0392H69.8717V17.8123H68.4346ZM69.8414 13.2782C69.8414 13.5864 69.8841 13.8551 69.9696 14.0845C70.055 14.3139 70.1787 14.4927 70.3407 14.6209C70.5026 14.7469 70.6994 14.8098 70.931 14.8098C71.1649 14.8098 71.3629 14.7457 71.5248 14.6175C71.6867 14.4871 71.8093 14.3072 71.8925 14.0778C71.978 13.8461 72.0207 13.5796 72.0207 13.2782C72.0207 12.9791 71.9791 12.716 71.8959 12.4888C71.8127 12.2617 71.6901 12.084 71.5282 11.9558C71.3662 11.8276 71.1672 11.7635 70.931 11.7635C70.6971 11.7635 70.4992 11.8253 70.3373 11.949C70.1776 12.0727 70.055 12.2482 69.9696 12.4753C69.8841 12.7025 69.8414 12.9701 69.8414 13.2782Z" fill="white"/>
<rect x="121.283" y="4.96875" width="213.75" height="15.5167" rx="3.16667" fill="white"/>
<path d="M323.57 13.5242C323.855 13.0766 324.022 12.5455 324.022 11.9746C324.022 10.3795 322.73 9.08594 321.137 9.08594C319.542 9.08594 318.25 10.3795 318.25 11.9746C318.25 13.5697 319.542 14.8633 321.135 14.8633C321.713 14.8633 322.252 14.6926 322.703 14.4005L322.834 14.3095L324.894 16.3693L325.533 15.7187L323.475 13.6589L323.57 13.5242ZM322.753 10.3605C323.183 10.7911 323.42 11.3639 323.42 11.9727C323.42 12.5816 323.183 13.1544 322.753 13.5849C322.322 14.0155 321.749 14.2526 321.141 14.2526C320.532 14.2526 319.959 14.0155 319.528 13.5849C319.098 13.1544 318.861 12.5816 318.861 11.9727C318.861 11.3639 319.098 10.7911 319.528 10.3605C319.959 9.92997 320.532 9.69288 321.141 9.69288C321.749 9.69288 322.322 9.92997 322.753 10.3605Z" fill="black" fill-opacity="0.4"/>
<path d="M216.551 11.9768C216.528 11.7461 216.427 11.5626 216.246 11.4263C216.065 11.29 215.838 11.2218 215.564 11.2218C215.371 11.2218 215.201 11.2549 215.054 11.321C214.908 11.3871 214.793 11.4789 214.709 11.5963C214.627 11.7124 214.586 11.8446 214.586 11.993C214.586 12.1023 214.61 12.1982 214.657 12.2805C214.704 12.3628 214.767 12.4336 214.847 12.493C214.928 12.551 215.017 12.601 215.114 12.6428C215.213 12.6846 215.312 12.7197 215.412 12.748L215.849 12.8735C215.981 12.91 216.114 12.9565 216.246 13.0132C216.378 13.0699 216.499 13.1414 216.608 13.2278C216.719 13.3128 216.807 13.4174 216.873 13.5415C216.941 13.6643 216.974 13.8121 216.974 13.9848C216.974 14.2061 216.917 14.4051 216.802 14.5819C216.688 14.7587 216.523 14.899 216.309 15.0029C216.094 15.1055 215.837 15.1568 215.537 15.1568C215.255 15.1568 215.01 15.1102 214.803 15.0171C214.595 14.9227 214.431 14.7924 214.313 14.6265C214.194 14.4605 214.127 14.2682 214.112 14.0496H214.501C214.514 14.2129 214.568 14.3512 214.663 14.4645C214.757 14.5779 214.88 14.6642 215.031 14.7236C215.182 14.7816 215.351 14.8107 215.537 14.8107C215.744 14.8107 215.927 14.7762 216.088 14.7074C216.25 14.6373 216.377 14.5401 216.468 14.4159C216.562 14.2904 216.608 14.1447 216.608 13.9787C216.608 13.8384 216.572 13.721 216.499 13.6265C216.426 13.5307 216.324 13.4504 216.193 13.3857C216.064 13.3209 215.913 13.2635 215.742 13.2136L215.246 13.0679C214.921 12.9707 214.668 12.8364 214.489 12.6651C214.309 12.4937 214.22 12.2751 214.22 12.0092C214.22 11.7866 214.279 11.5909 214.398 11.4222C214.518 11.2522 214.68 11.12 214.884 11.0255C215.089 10.9297 215.319 10.8818 215.574 10.8818C215.831 10.8818 216.06 10.929 216.258 11.0235C216.456 11.1179 216.613 11.2482 216.73 11.4141C216.847 11.5788 216.91 11.7663 216.918 11.9768H216.551ZM219.067 15.1507C218.777 15.1507 218.526 15.0832 218.314 14.9483C218.103 14.812 217.939 14.6238 217.823 14.3836C217.708 14.142 217.651 13.864 217.651 13.5496C217.651 13.2365 217.708 12.9586 217.823 12.7157C217.939 12.4714 218.099 12.2805 218.302 12.1428C218.507 12.0038 218.744 11.9343 219.013 11.9343C219.181 11.9343 219.344 11.9654 219.501 12.0275C219.657 12.0882 219.797 12.182 219.922 12.3088C220.047 12.4343 220.146 12.5929 220.219 12.7845C220.292 12.9748 220.328 13.2001 220.328 13.4605V13.6387H217.9V13.3209H219.96C219.96 13.1212 219.92 12.9417 219.839 12.7825C219.759 12.6219 219.648 12.495 219.505 12.4019C219.363 12.3088 219.199 12.2623 219.013 12.2623C218.816 12.2623 218.642 12.3149 218.493 12.4201C218.343 12.5254 218.225 12.6644 218.14 12.8371C218.057 13.0098 218.014 13.1988 218.013 13.4039V13.5941C218.013 13.8411 218.055 14.057 218.14 14.2419C218.227 14.4254 218.349 14.5678 218.507 14.669C218.665 14.7702 218.852 14.8208 219.067 14.8208C219.215 14.8208 219.343 14.7978 219.454 14.752C219.566 14.7061 219.66 14.6447 219.735 14.5678C219.812 14.4895 219.87 14.4038 219.909 14.3107L220.252 14.422C220.204 14.5529 220.127 14.6737 220.019 14.7843C219.912 14.895 219.779 14.9841 219.618 15.0515C219.459 15.1176 219.275 15.1507 219.067 15.1507ZM221.991 15.1568C221.803 15.1568 221.632 15.1203 221.477 15.0475C221.321 14.9733 221.198 14.8667 221.106 14.7277C221.014 14.5873 220.969 14.4173 220.969 14.2176C220.969 14.0637 220.998 13.9342 221.056 13.8289C221.114 13.7237 221.196 13.6373 221.303 13.5699C221.409 13.5024 221.535 13.4491 221.681 13.4099C221.827 13.3708 221.987 13.3404 222.163 13.3189C222.337 13.2973 222.484 13.2784 222.604 13.2622C222.726 13.246 222.818 13.2203 222.881 13.1853C222.945 13.1502 222.977 13.0935 222.977 13.0152V12.9424C222.977 12.7305 222.913 12.5638 222.786 12.4424C222.661 12.3196 222.48 12.2582 222.244 12.2582C222.02 12.2582 221.837 12.3075 221.695 12.406C221.555 12.5045 221.456 12.6205 221.4 12.7541L221.058 12.6306C221.128 12.4606 221.225 12.325 221.349 12.2238C221.473 12.1212 221.612 12.0477 221.766 12.0032C221.92 11.9573 222.076 11.9343 222.234 11.9343C222.352 11.9343 222.476 11.9499 222.604 11.9809C222.734 12.0119 222.854 12.0659 222.964 12.1428C223.075 12.2184 223.165 12.3243 223.234 12.4606C223.302 12.5956 223.337 12.7669 223.337 12.9748V15.0859H222.977V14.5941H222.954C222.911 14.6858 222.847 14.7749 222.762 14.8613C222.677 14.9476 222.57 15.0185 222.442 15.0738C222.314 15.1291 222.164 15.1568 221.991 15.1568ZM222.039 14.8268C222.231 14.8268 222.397 14.7843 222.537 14.6993C222.678 14.6143 222.786 14.5016 222.861 14.3613C222.938 14.2196 222.977 14.0637 222.977 13.8937V13.4444C222.95 13.47 222.904 13.4929 222.841 13.5132C222.779 13.5334 222.707 13.5516 222.624 13.5678C222.543 13.5827 222.462 13.5955 222.381 13.6063C222.301 13.6171 222.228 13.6265 222.163 13.6346C221.987 13.6562 221.838 13.69 221.714 13.7358C221.589 13.7817 221.494 13.8451 221.428 13.9261C221.362 14.0057 221.329 14.1083 221.329 14.2338C221.329 14.4227 221.396 14.5691 221.531 14.673C221.666 14.7756 221.836 14.8268 222.039 14.8268ZM224.295 15.0859V11.9768H224.645V12.4545H224.672C224.734 12.298 224.842 12.1718 224.996 12.076C225.151 11.9789 225.326 11.9303 225.522 11.9303C225.552 11.9303 225.585 11.931 225.621 11.9323C225.658 11.9337 225.688 11.935 225.712 11.9364V12.3027C225.696 12.3 225.668 12.296 225.627 12.2906C225.587 12.2852 225.543 12.2825 225.496 12.2825C225.334 12.2825 225.189 12.3169 225.062 12.3857C224.937 12.4532 224.838 12.547 224.765 12.6671C224.692 12.7872 224.656 12.9241 224.656 13.078V15.0859H224.295ZM227.447 15.1507C227.169 15.1507 226.927 15.0812 226.72 14.9422C226.515 14.8032 226.356 14.613 226.243 14.3714C226.129 14.1299 226.073 13.8546 226.073 13.5456C226.073 13.2338 226.13 12.9565 226.245 12.7136C226.361 12.4707 226.521 12.2805 226.726 12.1428C226.931 12.0038 227.17 11.9343 227.441 11.9343C227.649 11.9343 227.837 11.9748 228.006 12.0558C228.174 12.1354 228.313 12.2481 228.423 12.3938C228.533 12.5382 228.603 12.7069 228.631 12.8999H228.267C228.229 12.7244 228.138 12.5746 227.993 12.4505C227.85 12.325 227.668 12.2623 227.447 12.2623C227.249 12.2623 227.073 12.3162 226.921 12.4242C226.768 12.5308 226.649 12.6799 226.562 12.8715C226.477 13.0618 226.435 13.2824 226.435 13.5334C226.435 13.7858 226.477 14.0091 226.56 14.2034C226.644 14.3964 226.761 14.5475 226.913 14.6568C227.065 14.7661 227.243 14.8208 227.447 14.8208C227.585 14.8208 227.71 14.7951 227.823 14.7439C227.938 14.6912 228.034 14.617 228.111 14.5212C228.189 14.4254 228.242 14.3114 228.269 14.1791H228.633C228.606 14.3667 228.539 14.534 228.433 14.6811C228.327 14.8268 228.19 14.9415 228.022 15.0252C227.854 15.1089 227.663 15.1507 227.447 15.1507ZM229.766 13.1428V15.0859H229.405V10.9405H229.766V12.4647H229.798C229.871 12.3041 229.983 12.1759 230.136 12.0801C230.29 11.9843 230.484 11.9364 230.719 11.9364C230.929 11.9364 231.114 11.9795 231.274 12.0659C231.433 12.1523 231.557 12.2798 231.646 12.4485C231.735 12.6172 231.78 12.825 231.78 13.0719V15.0859H231.417V13.0942C231.417 12.8378 231.346 12.636 231.203 12.489C231.061 12.3405 230.869 12.2663 230.628 12.2663C230.462 12.2663 230.314 12.3014 230.185 12.3716C230.055 12.4417 229.952 12.5429 229.877 12.6752C229.803 12.8061 229.766 12.9619 229.766 13.1428Z" fill="black" fill-opacity="0.4"/>
<path d="M384.433 11.6198C384.433 9.87116 383.015 8.45312 381.267 8.45312C379.518 8.45312 378.1 9.87116 378.1 11.6198V14.7865L376.2 16.0531V16.6865H386.333V16.0531L384.433 14.7865V11.6198Z" fill="#005D80"/>
<path d="M382.533 17.3203H380C380 18.0201 380.567 18.587 381.267 18.587C381.967 18.587 382.533 18.0201 382.533 17.3203Z" fill="#005D80"/>
<circle cx="385.858" cy="8.92656" r="3.325" fill="#FF4242"/>
<path d="M386.008 7.7891V10.5527H385.673V8.13995H385.657L384.982 8.58796V8.2479L385.673 7.7891H386.008Z" fill="white"/>
<path d="M424.553 15.0859H423.64V10.7818H424.553V15.0859ZM426.549 15.0859H425.636V10.7818H426.549V12.7513L426.908 12.245L428.074 10.7818H429.087L427.585 12.6866L429.098 15.0859H428.062L426.934 13.2724L426.549 13.5492V15.0859Z" fill="white"/>
<path d="M200.283 32.5671V36.252H199.504V32.5671H200.283ZM201.676 34.6542V36.252H200.909V33.4883H201.64V33.9759H201.672C201.733 33.8152 201.836 33.688 201.98 33.5945C202.124 33.4997 202.298 33.4523 202.503 33.4523C202.695 33.4523 202.863 33.4943 203.005 33.5783C203.148 33.6622 203.259 33.7822 203.338 33.9381C203.417 34.0929 203.457 34.2776 203.457 34.4923V36.252H202.691V34.629C202.692 34.4599 202.649 34.328 202.561 34.2332C202.473 34.1372 202.353 34.0893 202.199 34.0893C202.096 34.0893 202.005 34.1115 201.926 34.1558C201.848 34.2002 201.787 34.265 201.742 34.3502C201.699 34.4341 201.677 34.5355 201.676 34.6542ZM206.539 33.4883L205.572 36.252H204.709L203.743 33.4883H204.552L205.126 35.4657H205.155L205.727 33.4883H206.539ZM208.101 36.3059C207.817 36.3059 207.572 36.2484 207.367 36.1332C207.163 36.0169 207.006 35.8525 206.896 35.6402C206.785 35.4267 206.73 35.1742 206.73 34.8827C206.73 34.5984 206.785 34.349 206.896 34.1342C207.006 33.9195 207.161 33.7522 207.362 33.6323C207.563 33.5123 207.8 33.4523 208.071 33.4523C208.253 33.4523 208.423 33.4817 208.58 33.5405C208.738 33.5981 208.876 33.685 208.994 33.8014C209.112 33.9177 209.205 34.0641 209.271 34.2404C209.337 34.4155 209.37 34.6206 209.37 34.8557V35.0663H207.036V34.5913H208.648C208.648 34.4809 208.624 34.3831 208.576 34.298C208.528 34.2128 208.462 34.1462 208.377 34.0983C208.293 34.0491 208.195 34.0245 208.083 34.0245C207.967 34.0245 207.864 34.0515 207.774 34.1055C207.685 34.1582 207.615 34.2296 207.565 34.3196C207.515 34.4083 207.489 34.5073 207.488 34.6164V35.0681C207.488 35.2048 207.513 35.3229 207.563 35.4225C207.615 35.5221 207.687 35.5988 207.781 35.6528C207.875 35.7068 207.986 35.7338 208.114 35.7338C208.199 35.7338 208.277 35.7218 208.348 35.6978C208.419 35.6738 208.479 35.6378 208.53 35.5898C208.58 35.5419 208.618 35.4831 208.645 35.4135L209.354 35.4603C209.318 35.6306 209.244 35.7794 209.132 35.9065C209.022 36.0324 208.879 36.1308 208.704 36.2016C208.53 36.2711 208.329 36.3059 208.101 36.3059ZM210.636 34.6542V36.252H209.87V33.4883H210.6V33.9759H210.633C210.694 33.8152 210.797 33.688 210.94 33.5945C211.084 33.4997 211.259 33.4523 211.464 33.4523C211.656 33.4523 211.823 33.4943 211.966 33.5783C212.109 33.6622 212.22 33.7822 212.299 33.9381C212.378 34.0929 212.418 34.2776 212.418 34.4923V36.252H211.651V34.629C211.652 34.4599 211.609 34.328 211.522 34.2332C211.434 34.1372 211.314 34.0893 211.16 34.0893C211.057 34.0893 210.966 34.1115 210.887 34.1558C210.809 34.2002 210.747 34.265 210.703 34.3502C210.66 34.4341 210.638 34.5355 210.636 34.6542ZM214.492 33.4883V34.0641H212.827V33.4883H214.492ZM213.205 32.8262H213.972V35.4027C213.972 35.4735 213.983 35.5287 214.004 35.5682C214.026 35.6066 214.056 35.6336 214.094 35.6492C214.134 35.6648 214.179 35.6726 214.231 35.6726C214.267 35.6726 214.303 35.6696 214.339 35.6636C214.375 35.6564 214.402 35.651 214.422 35.6474L214.542 36.2178C214.504 36.2298 214.45 36.2436 214.38 36.2592C214.311 36.2759 214.226 36.2861 214.127 36.2897C213.942 36.2969 213.78 36.2723 213.641 36.216C213.503 36.1596 213.395 36.072 213.319 35.9533C213.242 35.8345 213.204 35.6846 213.205 35.5035V32.8262ZM216.21 36.3059C215.931 36.3059 215.689 36.2466 215.485 36.1278C215.282 36.0079 215.126 35.8411 215.015 35.6276C214.905 35.4129 214.85 35.164 214.85 34.8809C214.85 34.5955 214.905 34.346 215.015 34.1324C215.126 33.9177 215.282 33.751 215.485 33.6323C215.689 33.5123 215.931 33.4523 216.21 33.4523C216.49 33.4523 216.731 33.5123 216.933 33.6323C217.137 33.751 217.294 33.9177 217.405 34.1324C217.515 34.346 217.57 34.5955 217.57 34.8809C217.57 35.164 217.515 35.4129 217.405 35.6276C217.294 35.8411 217.137 36.0079 216.933 36.1278C216.731 36.2466 216.49 36.3059 216.21 36.3059ZM216.214 35.7122C216.341 35.7122 216.447 35.6762 216.532 35.6042C216.617 35.5311 216.681 35.4315 216.725 35.3056C216.769 35.1796 216.791 35.0363 216.791 34.8755C216.791 34.7148 216.769 34.5715 216.725 34.4455C216.681 34.3196 216.617 34.22 216.532 34.1468C216.447 34.0737 216.341 34.0371 216.214 34.0371C216.085 34.0371 215.977 34.0737 215.89 34.1468C215.803 34.22 215.738 34.3196 215.694 34.4455C215.65 34.5715 215.629 34.7148 215.629 34.8755C215.629 35.0363 215.65 35.1796 215.694 35.3056C215.738 35.4315 215.803 35.5311 215.89 35.6042C215.977 35.6762 216.085 35.7122 216.214 35.7122ZM218.069 36.252V33.4883H218.812V33.9705H218.841C218.891 33.799 218.975 33.6694 219.094 33.5819C219.213 33.4931 219.35 33.4487 219.504 33.4487C219.543 33.4487 219.584 33.4511 219.629 33.4559C219.673 33.4607 219.712 33.4673 219.746 33.4757V34.1558C219.71 34.145 219.66 34.1354 219.596 34.127C219.533 34.1187 219.474 34.1145 219.422 34.1145C219.309 34.1145 219.208 34.139 219.119 34.1882C219.032 34.2362 218.962 34.3034 218.911 34.3897C218.86 34.4761 218.835 34.5757 218.835 34.6884V36.252H218.069ZM220.699 37.2883C220.602 37.2883 220.511 37.2805 220.426 37.2649C220.342 37.2505 220.272 37.2319 220.217 37.2092L220.39 36.637C220.48 36.6646 220.561 36.6796 220.633 36.682C220.706 36.6844 220.769 36.6676 220.821 36.6316C220.875 36.5956 220.919 36.5344 220.953 36.4481L220.998 36.3311L220.006 33.4883H220.812L221.385 35.5179H221.413L221.991 33.4883H222.802L221.728 36.5506C221.677 36.6994 221.607 36.8289 221.518 36.9393C221.43 37.0508 221.319 37.1366 221.185 37.1966C221.051 37.2577 220.889 37.2883 220.699 37.2883ZM224.367 36.252V33.4883H225.098V33.9759H225.13C225.188 33.814 225.284 33.6862 225.418 33.5927C225.552 33.4991 225.713 33.4523 225.9 33.4523C226.09 33.4523 226.251 33.4997 226.384 33.5945C226.517 33.688 226.606 33.8152 226.651 33.9759H226.679C226.736 33.8176 226.838 33.691 226.985 33.5963C227.134 33.5003 227.31 33.4523 227.512 33.4523C227.77 33.4523 227.98 33.5345 228.14 33.6988C228.302 33.862 228.383 34.0935 228.383 34.3933V36.252H227.619V34.5445C227.619 34.3909 227.578 34.2758 227.496 34.199C227.415 34.1222 227.313 34.0839 227.19 34.0839C227.051 34.0839 226.943 34.1282 226.865 34.217C226.787 34.3046 226.748 34.4203 226.748 34.5643V36.252H226.005V34.5283C226.005 34.3927 225.966 34.2848 225.888 34.2044C225.811 34.124 225.71 34.0839 225.584 34.0839C225.498 34.0839 225.422 34.1055 225.353 34.1486C225.286 34.1906 225.233 34.25 225.193 34.3268C225.154 34.4023 225.134 34.4911 225.134 34.5931V36.252H224.367ZM229.777 36.3041C229.6 36.3041 229.443 36.2735 229.305 36.2124C229.167 36.15 229.058 36.0582 228.978 35.9371C228.899 35.8147 228.859 35.6624 228.859 35.4801C228.859 35.3265 228.887 35.1976 228.944 35.0932C229 34.9889 229.077 34.9049 229.174 34.8413C229.271 34.7778 229.382 34.7298 229.505 34.6974C229.63 34.665 229.761 34.6422 229.897 34.629C230.058 34.6122 230.188 34.5967 230.286 34.5823C230.384 34.5667 230.456 34.5439 230.5 34.5139C230.544 34.4839 230.567 34.4395 230.567 34.3807V34.3699C230.567 34.256 230.531 34.1678 230.459 34.1055C230.388 34.0431 230.287 34.0119 230.156 34.0119C230.018 34.0119 229.909 34.0425 229.827 34.1037C229.746 34.1636 229.692 34.2392 229.665 34.3304L228.956 34.2728C228.992 34.1049 229.063 33.9597 229.169 33.8374C229.274 33.7138 229.41 33.6191 229.577 33.5531C229.745 33.4859 229.939 33.4523 230.16 33.4523C230.314 33.4523 230.46 33.4703 230.601 33.5063C230.742 33.5423 230.868 33.5981 230.977 33.6736C231.087 33.7492 231.174 33.8464 231.238 33.9651C231.301 34.0827 231.333 34.2236 231.333 34.3879V36.252H230.606V35.8687H230.585C230.54 35.9551 230.481 36.0312 230.407 36.0972C230.332 36.162 230.243 36.213 230.138 36.2502C230.034 36.2861 229.914 36.3041 229.777 36.3041ZM229.996 35.7752C230.109 35.7752 230.209 35.753 230.295 35.7086C230.381 35.663 230.449 35.6018 230.498 35.5251C230.547 35.4483 230.572 35.3613 230.572 35.2642V34.9709C230.548 34.9865 230.515 35.0009 230.473 35.0141C230.432 35.0261 230.386 35.0375 230.335 35.0483C230.283 35.0579 230.231 35.0669 230.18 35.0752C230.128 35.0824 230.081 35.089 230.039 35.095C229.949 35.1082 229.871 35.1292 229.804 35.158C229.737 35.1868 229.684 35.2258 229.647 35.275C229.61 35.3229 229.591 35.3829 229.591 35.4549C229.591 35.5592 229.629 35.639 229.705 35.6942C229.782 35.7482 229.879 35.7752 229.996 35.7752ZM232.694 34.6542V36.252H231.928V33.4883H232.658V33.9759H232.691C232.752 33.8152 232.854 33.688 232.998 33.5945C233.142 33.4997 233.317 33.4523 233.522 33.4523C233.714 33.4523 233.881 33.4943 234.024 33.5783C234.167 33.6622 234.278 33.7822 234.357 33.9381C234.436 34.0929 234.475 34.2776 234.475 34.4923V36.252H233.709V34.629C233.71 34.4599 233.667 34.328 233.579 34.2332C233.492 34.1372 233.371 34.0893 233.218 34.0893C233.115 34.0893 233.024 34.1115 232.944 34.1558C232.866 34.2002 232.805 34.265 232.761 34.3502C232.718 34.4341 232.695 34.5355 232.694 34.6542ZM235.868 36.3041C235.691 36.3041 235.534 36.2735 235.396 36.2124C235.258 36.15 235.149 36.0582 235.069 35.9371C234.99 35.8147 234.95 35.6624 234.95 35.4801C234.95 35.3265 234.978 35.1976 235.035 35.0932C235.091 34.9889 235.168 34.9049 235.265 34.8413C235.362 34.7778 235.472 34.7298 235.596 34.6974C235.721 34.665 235.851 34.6422 235.988 34.629C236.149 34.6122 236.278 34.5967 236.377 34.5823C236.475 34.5667 236.547 34.5439 236.591 34.5139C236.635 34.4839 236.658 34.4395 236.658 34.3807V34.3699C236.658 34.256 236.622 34.1678 236.55 34.1055C236.479 34.0431 236.378 34.0119 236.247 34.0119C236.109 34.0119 236 34.0425 235.918 34.1037C235.836 34.1636 235.782 34.2392 235.756 34.3304L235.047 34.2728C235.083 34.1049 235.154 33.9597 235.26 33.8374C235.365 33.7138 235.501 33.6191 235.668 33.5531C235.836 33.4859 236.03 33.4523 236.251 33.4523C236.404 33.4523 236.551 33.4703 236.692 33.5063C236.833 33.5423 236.959 33.5981 237.068 33.6736C237.178 33.7492 237.265 33.8464 237.329 33.9651C237.392 34.0827 237.424 34.2236 237.424 34.3879V36.252H236.697V35.8687H236.676C236.631 35.9551 236.572 36.0312 236.497 36.0972C236.423 36.162 236.334 36.213 236.229 36.2502C236.125 36.2861 236.004 36.3041 235.868 36.3041ZM236.087 35.7752C236.2 35.7752 236.299 35.753 236.386 35.7086C236.472 35.663 236.54 35.6018 236.589 35.5251C236.638 35.4483 236.663 35.3613 236.663 35.2642V34.9709C236.639 34.9865 236.606 35.0009 236.564 35.0141C236.523 35.0261 236.477 35.0375 236.425 35.0483C236.374 35.0579 236.322 35.0669 236.271 35.0752C236.219 35.0824 236.172 35.089 236.13 35.095C236.04 35.1082 235.962 35.1292 235.895 35.158C235.827 35.1868 235.775 35.2258 235.738 35.275C235.701 35.3229 235.682 35.3829 235.682 35.4549C235.682 35.5592 235.72 35.639 235.796 35.6942C235.872 35.7482 235.97 35.7752 236.087 35.7752ZM239.264 37.3459C239.015 37.3459 238.803 37.3117 238.625 37.2433C238.449 37.1762 238.308 37.0844 238.204 36.9681C238.1 36.8517 238.032 36.721 238.001 36.5758L238.71 36.4805C238.731 36.5356 238.765 36.5872 238.812 36.6352C238.859 36.6832 238.921 36.7216 238.997 36.7503C239.075 36.7803 239.17 36.7953 239.282 36.7953C239.448 36.7953 239.586 36.7545 239.694 36.673C239.803 36.5926 239.857 36.4577 239.857 36.2681V35.7626H239.825C239.792 35.8393 239.741 35.9119 239.674 35.9803C239.607 36.0486 239.52 36.1044 239.415 36.1476C239.309 36.1908 239.183 36.2124 239.037 36.2124C238.83 36.2124 238.641 36.1644 238.47 36.0684C238.301 35.9713 238.166 35.8231 238.065 35.624C237.966 35.4237 237.916 35.1706 237.916 34.8647C237.916 34.5517 237.967 34.2902 238.069 34.0803C238.171 33.8704 238.307 33.7132 238.476 33.6089C238.646 33.5045 238.833 33.4523 239.035 33.4523C239.19 33.4523 239.319 33.4787 239.424 33.5315C239.528 33.5831 239.612 33.6478 239.676 33.7258C239.741 33.8026 239.79 33.8782 239.825 33.9525H239.854V33.4883H240.615V36.2789C240.615 36.514 240.557 36.7108 240.442 36.8691C240.327 37.0274 240.168 37.1462 239.964 37.2253C239.761 37.3057 239.528 37.3459 239.264 37.3459ZM239.28 35.6366C239.403 35.6366 239.508 35.606 239.593 35.5449C239.679 35.4825 239.745 35.3937 239.791 35.2786C239.838 35.1622 239.861 35.0231 239.861 34.8611C239.861 34.6992 239.838 34.5589 239.793 34.4401C239.747 34.3202 239.681 34.2272 239.595 34.1612C239.508 34.0953 239.403 34.0623 239.28 34.0623C239.154 34.0623 239.048 34.0965 238.961 34.1648C238.875 34.232 238.81 34.3256 238.765 34.4455C238.721 34.5655 238.699 34.704 238.699 34.8611C238.699 35.0207 238.721 35.1586 238.765 35.275C238.811 35.3901 238.876 35.4795 238.961 35.5431C239.048 35.6054 239.154 35.6366 239.28 35.6366ZM242.484 36.3059C242.2 36.3059 241.955 36.2484 241.75 36.1332C241.546 36.0169 241.389 35.8525 241.279 35.6402C241.169 35.4267 241.113 35.1742 241.113 34.8827C241.113 34.5984 241.169 34.349 241.279 34.1342C241.389 33.9195 241.545 33.7522 241.745 33.6323C241.946 33.5123 242.183 33.4523 242.454 33.4523C242.636 33.4523 242.806 33.4817 242.963 33.5405C243.121 33.5981 243.259 33.685 243.377 33.8014C243.496 33.9177 243.588 34.0641 243.654 34.2404C243.72 34.4155 243.753 34.6206 243.753 34.8557V35.0663H241.419V34.5913H243.031C243.031 34.4809 243.007 34.3831 242.959 34.298C242.911 34.2128 242.845 34.1462 242.76 34.0983C242.676 34.0491 242.578 34.0245 242.466 34.0245C242.35 34.0245 242.247 34.0515 242.157 34.1055C242.068 34.1582 241.999 34.2296 241.948 34.3196C241.898 34.4083 241.872 34.5073 241.871 34.6164V35.0681C241.871 35.2048 241.896 35.3229 241.946 35.4225C241.998 35.5221 242.071 35.5988 242.164 35.6528C242.258 35.7068 242.369 35.7338 242.497 35.7338C242.582 35.7338 242.66 35.7218 242.731 35.6978C242.802 35.6738 242.862 35.6378 242.913 35.5898C242.963 35.5419 243.001 35.4831 243.028 35.4135L243.737 35.4603C243.701 35.6306 243.627 35.7794 243.515 35.9065C243.405 36.0324 243.262 36.1308 243.087 36.2016C242.913 36.2711 242.712 36.3059 242.484 36.3059ZM244.253 36.252V33.4883H244.984V33.9759H245.016C245.073 33.814 245.169 33.6862 245.304 33.5927C245.438 33.4991 245.599 33.4523 245.786 33.4523C245.975 33.4523 246.137 33.4997 246.27 33.5945C246.403 33.688 246.492 33.8152 246.536 33.9759H246.565C246.621 33.8176 246.723 33.691 246.871 33.5963C247.02 33.5003 247.195 33.4523 247.398 33.4523C247.656 33.4523 247.865 33.5345 248.026 33.6988C248.188 33.862 248.269 34.0935 248.269 34.3933V36.252H247.504V34.5445C247.504 34.3909 247.463 34.2758 247.382 34.199C247.3 34.1222 247.198 34.0839 247.076 34.0839C246.937 34.0839 246.828 34.1282 246.75 34.217C246.672 34.3046 246.633 34.4203 246.633 34.5643V36.252H245.89V34.5283C245.89 34.3927 245.851 34.2848 245.773 34.2044C245.697 34.124 245.595 34.0839 245.469 34.0839C245.384 34.0839 245.307 34.1055 245.239 34.1486C245.172 34.1906 245.118 34.25 245.079 34.3268C245.039 34.4023 245.019 34.4911 245.019 34.5931V36.252H244.253ZM250.134 36.3059C249.85 36.3059 249.605 36.2484 249.4 36.1332C249.196 36.0169 249.039 35.8525 248.928 35.6402C248.818 35.4267 248.763 35.1742 248.763 34.8827C248.763 34.5984 248.818 34.349 248.928 34.1342C249.039 33.9195 249.194 33.7522 249.394 33.6323C249.596 33.5123 249.832 33.4523 250.103 33.4523C250.286 33.4523 250.455 33.4817 250.612 33.5405C250.771 33.5981 250.909 33.685 251.026 33.8014C251.145 33.9177 251.237 34.0641 251.303 34.2404C251.369 34.4155 251.402 34.6206 251.402 34.8557V35.0663H249.069V34.5913H250.681C250.681 34.4809 250.657 34.3831 250.609 34.298C250.561 34.2128 250.494 34.1462 250.409 34.0983C250.325 34.0491 250.227 34.0245 250.116 34.0245C250 34.0245 249.896 34.0515 249.806 34.1055C249.718 34.1582 249.648 34.2296 249.598 34.3196C249.547 34.4083 249.522 34.5073 249.52 34.6164V35.0681C249.52 35.2048 249.545 35.3229 249.596 35.4225C249.647 35.5221 249.72 35.5988 249.814 35.6528C249.907 35.7068 250.018 35.7338 250.146 35.7338C250.232 35.7338 250.31 35.7218 250.38 35.6978C250.451 35.6738 250.512 35.6378 250.562 35.5898C250.612 35.5419 250.651 35.4831 250.677 35.4135L251.386 35.4603C251.35 35.6306 251.276 35.7794 251.165 35.9065C251.054 36.0324 250.912 36.1308 250.737 36.2016C250.563 36.2711 250.362 36.3059 250.134 36.3059ZM252.669 34.6542V36.252H251.903V33.4883H252.633V33.9759H252.665C252.727 33.8152 252.829 33.688 252.973 33.5945C253.117 33.4997 253.292 33.4523 253.497 33.4523C253.689 33.4523 253.856 33.4943 253.999 33.5783C254.141 33.6622 254.252 33.7822 254.331 33.9381C254.411 34.0929 254.45 34.2776 254.45 34.4923V36.252H253.684V34.629C253.685 34.4599 253.642 34.328 253.554 34.2332C253.467 34.1372 253.346 34.0893 253.193 34.0893C253.089 34.0893 252.998 34.1115 252.919 34.1558C252.841 34.2002 252.78 34.265 252.736 34.3502C252.692 34.4341 252.67 34.5355 252.669 34.6542ZM256.524 33.4883V34.0641H254.86V33.4883H256.524ZM255.238 32.8262H256.004V35.4027C256.004 35.4735 256.015 35.5287 256.037 35.5682C256.058 35.6066 256.088 35.6336 256.127 35.6492C256.166 35.6648 256.212 35.6726 256.263 35.6726C256.299 35.6726 256.335 35.6696 256.371 35.6636C256.407 35.6564 256.435 35.651 256.454 35.6474L256.575 36.2178C256.536 36.2298 256.482 36.2436 256.413 36.2592C256.343 36.2759 256.259 36.2861 256.159 36.2897C255.974 36.2969 255.812 36.2723 255.673 36.216C255.535 36.1596 255.428 36.072 255.351 35.9533C255.274 35.8345 255.237 35.6846 255.238 35.5035V32.8262Z" fill="black"/>
<path d="M7.43259 61.6999V65.3848H6.65352V61.6999H7.43259ZM8.82565 63.787V65.3848H8.05918V62.6211H8.78967V63.1087H8.82205C8.88323 62.948 8.98579 62.8208 9.12972 62.7273C9.27366 62.6325 9.44819 62.5851 9.6533 62.5851C9.84522 62.5851 10.0126 62.6271 10.1553 62.7111C10.298 62.7951 10.409 62.915 10.4882 63.0709C10.5673 63.2257 10.6069 63.4104 10.6069 63.6251V65.3848H9.84043V63.7618C9.84162 63.5927 9.79844 63.4608 9.71088 63.366C9.62332 63.2701 9.50277 63.2221 9.34923 63.2221C9.24608 63.2221 9.15491 63.2443 9.07575 63.2886C8.99778 63.333 8.93661 63.3978 8.89222 63.483C8.84904 63.5669 8.82685 63.6683 8.82565 63.787ZM13.6886 62.6211L12.7224 65.3848H11.8587L10.8925 62.6211H11.7022L12.2761 64.5985H12.3049L12.8771 62.6211H13.6886ZM15.2512 65.4387C14.9669 65.4387 14.7222 65.3812 14.5171 65.266C14.3132 65.1497 14.1561 64.9853 14.0457 64.773C13.9354 64.5595 13.8802 64.307 13.8802 64.0155C13.8802 63.7313 13.9354 63.4818 14.0457 63.2671C14.1561 63.0523 14.3114 62.885 14.5117 62.7651C14.7132 62.6451 14.9495 62.5851 15.2206 62.5851C15.4029 62.5851 15.5727 62.6145 15.7298 62.6733C15.8881 62.7309 16.0261 62.8178 16.1436 62.9342C16.2624 63.0505 16.3547 63.1969 16.4207 63.3732C16.4867 63.5483 16.5197 63.7535 16.5197 63.9886V64.1991H14.186V63.7241H15.7982C15.7982 63.6137 15.7742 63.516 15.7262 63.4308C15.6782 63.3456 15.6116 63.2791 15.5265 63.2311C15.4425 63.1819 15.3448 63.1573 15.2332 63.1573C15.1169 63.1573 15.0137 63.1843 14.9237 63.2383C14.835 63.291 14.7654 63.3624 14.715 63.4524C14.6646 63.5411 14.6389 63.6401 14.6377 63.7493V64.2009C14.6377 64.3376 14.6628 64.4558 14.7132 64.5553C14.7648 64.6549 14.8374 64.7316 14.9309 64.7856C15.0245 64.8396 15.1354 64.8666 15.2638 64.8666C15.349 64.8666 15.4269 64.8546 15.4977 64.8306C15.5685 64.8066 15.629 64.7706 15.6794 64.7226C15.7298 64.6747 15.7682 64.6159 15.7946 64.5463L16.5035 64.5931C16.4675 64.7634 16.3937 64.9122 16.2822 65.0393C16.1718 65.1653 16.0291 65.2636 15.8539 65.3344C15.68 65.404 15.4791 65.4387 15.2512 65.4387ZM17.7863 63.787V65.3848H17.0199V62.6211H17.7503V63.1087H17.7827C17.8439 62.948 17.9465 62.8208 18.0904 62.7273C18.2343 62.6325 18.4089 62.5851 18.614 62.5851C18.8059 62.5851 18.9732 62.6271 19.116 62.7111C19.2587 62.7951 19.3697 62.915 19.4488 63.0709C19.528 63.2257 19.5676 63.4104 19.5676 63.6251V65.3848H18.8011V63.7618C18.8023 63.5927 18.7591 63.4608 18.6716 63.366C18.584 63.2701 18.4634 63.2221 18.3099 63.2221C18.2068 63.2221 18.1156 63.2443 18.0364 63.2886C17.9585 63.333 17.8973 63.3978 17.8529 63.483C17.8097 63.5669 17.7875 63.6683 17.7863 63.787ZM21.6417 62.6211V63.1969H19.9774V62.6211H21.6417ZM20.3552 61.959H21.1217V64.5355C21.1217 64.6063 21.1325 64.6615 21.1541 64.7011C21.1757 64.7394 21.2056 64.7664 21.244 64.782C21.2836 64.7976 21.3292 64.8054 21.3808 64.8054C21.4168 64.8054 21.4527 64.8024 21.4887 64.7964C21.5247 64.7892 21.5523 64.7838 21.5715 64.7802L21.692 65.3506C21.6537 65.3626 21.5997 65.3764 21.5301 65.392C21.4605 65.4088 21.376 65.419 21.2764 65.4225C21.0917 65.4297 20.9298 65.4052 20.7906 65.3488C20.6527 65.2924 20.5453 65.2048 20.4685 65.0861C20.3918 64.9673 20.354 64.8174 20.3552 64.6363V61.959ZM23.3599 65.4387C23.0805 65.4387 22.8388 65.3794 22.6348 65.2606C22.4321 65.1407 22.2756 64.9739 22.1652 64.7604C22.0549 64.5457 21.9997 64.2968 21.9997 64.0137C21.9997 63.7283 22.0549 63.4788 22.1652 63.2653C22.2756 63.0505 22.4321 62.8838 22.6348 62.7651C22.8388 62.6451 23.0805 62.5851 23.3599 62.5851C23.6394 62.5851 23.8805 62.6451 24.0832 62.7651C24.2871 62.8838 24.4443 63.0505 24.5546 63.2653C24.665 63.4788 24.7202 63.7283 24.7202 64.0137C24.7202 64.2968 24.665 64.5457 24.5546 64.7604C24.4443 64.9739 24.2871 65.1407 24.0832 65.2606C23.8805 65.3794 23.6394 65.4387 23.3599 65.4387ZM23.3635 64.845C23.4907 64.845 23.5968 64.809 23.682 64.737C23.7672 64.6639 23.8313 64.5643 23.8745 64.4384C23.9189 64.3124 23.9411 64.1691 23.9411 64.0083C23.9411 63.8476 23.9189 63.7043 23.8745 63.5783C23.8313 63.4524 23.7672 63.3528 23.682 63.2797C23.5968 63.2065 23.4907 63.1699 23.3635 63.1699C23.2352 63.1699 23.1272 63.2065 23.0397 63.2797C22.9533 63.3528 22.8879 63.4524 22.8436 63.5783C22.8004 63.7043 22.7788 63.8476 22.7788 64.0083C22.7788 64.1691 22.8004 64.3124 22.8436 64.4384C22.8879 64.5643 22.9533 64.6639 23.0397 64.737C23.1272 64.809 23.2352 64.845 23.3635 64.845ZM25.2186 65.3848V62.6211H25.9616V63.1033H25.9904C26.0408 62.9318 26.1254 62.8023 26.2441 62.7147C26.3629 62.6259 26.4996 62.5815 26.6543 62.5815C26.6927 62.5815 26.7341 62.5839 26.7785 62.5887C26.8229 62.5935 26.8619 62.6001 26.8954 62.6085V63.2886C26.8595 63.2779 26.8097 63.2683 26.7461 63.2599C26.6825 63.2515 26.6244 63.2473 26.5716 63.2473C26.4588 63.2473 26.3581 63.2719 26.2693 63.321C26.1817 63.369 26.1122 63.4362 26.0606 63.5225C26.0102 63.6089 25.985 63.7085 25.985 63.8212V65.3848H25.2186ZM27.849 66.4211C27.7519 66.4211 27.6607 66.4133 27.5756 66.3977C27.4916 66.3833 27.422 66.3648 27.3668 66.342L27.5396 65.7698C27.6295 65.7974 27.7105 65.8124 27.7825 65.8148C27.8556 65.8172 27.9186 65.8004 27.9714 65.7644C28.0254 65.7284 28.0692 65.6672 28.1027 65.5809L28.1477 65.4639L27.1563 62.6211H27.9624L28.5346 64.6507H28.5633L29.1409 62.6211H29.9524L28.8782 65.6834C28.8266 65.8322 28.7565 65.9617 28.6677 66.0721C28.5801 66.1836 28.4692 66.2694 28.3348 66.3294C28.2005 66.3905 28.0386 66.4211 27.849 66.4211ZM31.5316 65.3848V61.6999H32.9854C33.2637 61.6999 33.5012 61.7497 33.6979 61.8493C33.8958 61.9476 34.0464 62.0874 34.1495 62.2685C34.2539 62.4484 34.3061 62.6601 34.3061 62.9036C34.3061 63.1483 34.2533 63.3588 34.1477 63.5351C34.0422 63.7103 33.8892 63.8446 33.6889 63.9382C33.4898 64.0317 33.2487 64.0785 32.9656 64.0785H31.9922V63.4524H32.8397C32.9884 63.4524 33.112 63.432 33.2103 63.3912C33.3087 63.3504 33.3819 63.2892 33.4298 63.2077C33.479 63.1261 33.5036 63.0248 33.5036 62.9036C33.5036 62.7813 33.479 62.6781 33.4298 62.5941C33.3819 62.5102 33.3081 62.4466 33.2085 62.4034C33.1102 62.359 32.986 62.3368 32.8361 62.3368H32.3107V65.3848H31.5316ZM33.5216 63.7079L34.4374 65.3848H33.5774L32.6814 63.7079H33.5216ZM36.0572 65.4387C35.7729 65.4387 35.5282 65.3812 35.3231 65.266C35.1192 65.1497 34.962 64.9853 34.8517 64.773C34.7413 64.5595 34.6862 64.307 34.6862 64.0155C34.6862 63.7313 34.7413 63.4818 34.8517 63.2671C34.962 63.0523 35.1174 62.885 35.3177 62.7651C35.5192 62.6451 35.7555 62.5851 36.0266 62.5851C36.2089 62.5851 36.3787 62.6145 36.5358 62.6733C36.6941 62.7309 36.8321 62.8178 36.9496 62.9342C37.0684 63.0505 37.1607 63.1969 37.2267 63.3732C37.2927 63.5483 37.3257 63.7535 37.3257 63.9886V64.1991H34.992V63.7241H36.6042C36.6042 63.6137 36.5802 63.516 36.5322 63.4308C36.4842 63.3456 36.4176 63.2791 36.3325 63.2311C36.2485 63.1819 36.1507 63.1573 36.0392 63.1573C35.9228 63.1573 35.8197 63.1843 35.7297 63.2383C35.641 63.291 35.5714 63.3624 35.521 63.4524C35.4706 63.5411 35.4448 63.6401 35.4436 63.7493V64.2009C35.4436 64.3376 35.4688 64.4558 35.5192 64.5553C35.5708 64.6549 35.6434 64.7316 35.7369 64.7856C35.8305 64.8396 35.9414 64.8666 36.0698 64.8666C36.1549 64.8666 36.2329 64.8546 36.3037 64.8306C36.3745 64.8066 36.435 64.7706 36.4854 64.7226C36.5358 64.6747 36.5742 64.6159 36.6006 64.5463L37.3095 64.5931C37.2735 64.7634 37.1997 64.9122 37.0882 65.0393C36.9778 65.1653 36.8351 65.2636 36.6599 65.3344C36.486 65.404 36.2851 65.4387 36.0572 65.4387ZM39.0745 65.4387C38.795 65.4387 38.5533 65.3794 38.3494 65.2606C38.1467 65.1407 37.9902 64.9739 37.8798 64.7604C37.7695 64.5457 37.7143 64.2968 37.7143 64.0137C37.7143 63.7283 37.7695 63.4788 37.8798 63.2653C37.9902 63.0505 38.1467 62.8838 38.3494 62.7651C38.5533 62.6451 38.795 62.5851 39.0745 62.5851C39.354 62.5851 39.5951 62.6451 39.7978 62.7651C40.0017 62.8838 40.1589 63.0505 40.2692 63.2653C40.3796 63.4788 40.4347 63.7283 40.4347 64.0137C40.4347 64.2968 40.3796 64.5457 40.2692 64.7604C40.1589 64.9739 40.0017 65.1407 39.7978 65.2606C39.5951 65.3794 39.354 65.4387 39.0745 65.4387ZM39.0781 64.845C39.2053 64.845 39.3114 64.809 39.3966 64.737C39.4817 64.6639 39.5459 64.5643 39.5891 64.4384C39.6335 64.3124 39.6557 64.1691 39.6557 64.0083C39.6557 63.8476 39.6335 63.7043 39.5891 63.5783C39.5459 63.4524 39.4817 63.3528 39.3966 63.2797C39.3114 63.2065 39.2053 63.1699 39.0781 63.1699C38.9498 63.1699 38.8418 63.2065 38.7543 63.2797C38.6679 63.3528 38.6025 63.4524 38.5581 63.5783C38.515 63.7043 38.4934 63.8476 38.4934 64.0083C38.4934 64.1691 38.515 64.3124 38.5581 64.4384C38.6025 64.5643 38.6679 64.6639 38.7543 64.737C38.8418 64.809 38.9498 64.845 39.0781 64.845ZM40.9331 66.4211V62.6211H41.6888V63.0853H41.723C41.7566 63.011 41.8052 62.9354 41.8687 62.8586C41.9335 62.7807 42.0175 62.7159 42.1206 62.6643C42.225 62.6115 42.3545 62.5851 42.5093 62.5851C42.7108 62.5851 42.8967 62.6379 43.067 62.7435C43.2374 62.8478 43.3735 63.0056 43.4755 63.2167C43.5774 63.4266 43.6284 63.6899 43.6284 64.0065C43.6284 64.3148 43.5786 64.5751 43.4791 64.7874C43.3807 64.9985 43.2464 65.1587 43.076 65.2678C42.9069 65.3758 42.7174 65.4297 42.5075 65.4297C42.3587 65.4297 42.2322 65.4052 42.1278 65.356C42.0247 65.3068 41.9401 65.245 41.8741 65.1707C41.8082 65.0951 41.7578 65.0189 41.723 64.9422H41.6996V66.4211H40.9331ZM41.6834 64.0029C41.6834 64.1673 41.7062 64.3106 41.7518 64.433C41.7974 64.5553 41.8633 64.6507 41.9497 64.719C42.0361 64.7862 42.141 64.8198 42.2646 64.8198C42.3893 64.8198 42.4949 64.7856 42.5812 64.7172C42.6676 64.6477 42.733 64.5517 42.7774 64.4294C42.8229 64.3058 42.8457 64.1637 42.8457 64.0029C42.8457 63.8434 42.8235 63.7031 42.7792 63.5819C42.7348 63.4608 42.6694 63.366 42.583 63.2976C42.4967 63.2293 42.3905 63.1951 42.2646 63.1951C42.1398 63.1951 42.0343 63.2281 41.9479 63.294C41.8627 63.36 41.7974 63.4536 41.7518 63.5747C41.7062 63.6959 41.6834 63.8386 41.6834 64.0029ZM44.1394 65.3848V62.6211H44.8825V63.1033H44.9113C44.9616 62.9318 45.0462 62.8023 45.165 62.7147C45.2837 62.6259 45.4204 62.5815 45.5752 62.5815C45.6136 62.5815 45.6549 62.5839 45.6993 62.5887C45.7437 62.5935 45.7827 62.6001 45.8163 62.6085V63.2886C45.7803 63.2779 45.7305 63.2683 45.6669 63.2599C45.6034 63.2515 45.5452 63.2473 45.4924 63.2473C45.3797 63.2473 45.2789 63.2719 45.1901 63.321C45.1026 63.369 45.033 63.4362 44.9814 63.5225C44.931 63.6089 44.9059 63.7085 44.9059 63.8212V65.3848H44.1394ZM47.8211 62.6211V63.1969H46.1568V62.6211H47.8211ZM46.5346 61.959H47.3011V64.5355C47.3011 64.6063 47.3119 64.6615 47.3335 64.7011C47.3551 64.7394 47.3851 64.7664 47.4235 64.782C47.463 64.7976 47.5086 64.8054 47.5602 64.8054C47.5962 64.8054 47.6322 64.8024 47.6681 64.7964C47.7041 64.7892 47.7317 64.7838 47.7509 64.7802L47.8715 65.3506C47.8331 65.3626 47.7791 65.3764 47.7095 65.392C47.64 65.4088 47.5554 65.419 47.4558 65.4225C47.2711 65.4297 47.1092 65.4052 46.97 65.3488C46.8321 65.2924 46.7247 65.2048 46.648 65.0861C46.5712 64.9673 46.5334 64.8174 46.5346 64.6363V61.959Z" fill="black"/>
<rect x="6.33325" y="81.2852" width="183.983" height="183.983" fill="#D9D9D9"/>
<rect x="6.33325" y="282.367" width="183.983" height="183.983" fill="#D9D9D9"/>
<path d="M88.4797 175.268V171.583H89.7247C90.0138 171.583 90.2501 171.635 90.4336 171.739C90.6184 171.842 90.7551 171.982 90.8439 172.158C90.9326 172.335 90.977 172.532 90.977 172.749C90.977 172.966 90.9326 173.163 90.8439 173.341C90.7563 173.518 90.6208 173.66 90.4372 173.765C90.2537 173.87 90.0186 173.922 89.7319 173.922H88.8395V173.526H89.7175C89.9155 173.526 90.0744 173.492 90.1943 173.423C90.3143 173.355 90.4013 173.263 90.4552 173.146C90.5104 173.029 90.538 172.896 90.538 172.749C90.538 172.601 90.5104 172.469 90.4552 172.353C90.4013 172.236 90.3137 172.145 90.1925 172.079C90.0714 172.012 89.9107 171.979 89.7103 171.979H88.9259V175.268H88.4797ZM91.6382 175.268V172.504H92.0629V175.268H91.6382ZM91.8541 172.043C91.7714 172.043 91.7 172.015 91.64 171.959C91.5813 171.902 91.5519 171.835 91.5519 171.755C91.5519 171.676 91.5813 171.609 91.64 171.552C91.7 171.496 91.7714 171.468 91.8541 171.468C91.9369 171.468 92.0077 171.496 92.0664 171.552C92.1264 171.609 92.1564 171.676 92.1564 171.755C92.1564 171.835 92.1264 171.902 92.0664 171.959C92.0077 172.015 91.9369 172.043 91.8541 172.043ZM93.9993 175.325C93.733 175.325 93.5033 175.266 93.3102 175.149C93.1183 175.03 92.9701 174.865 92.8658 174.652C92.7626 174.439 92.711 174.19 92.711 173.907C92.711 173.624 92.7626 173.375 92.8658 173.159C92.9701 172.942 93.1153 172.773 93.3012 172.651C93.4883 172.529 93.7066 172.468 93.9561 172.468C94.1 172.468 94.2422 172.492 94.3825 172.54C94.5229 172.588 94.6506 172.666 94.7658 172.774C94.8809 172.881 94.9727 173.022 95.041 173.198C95.1094 173.375 95.1436 173.592 95.1436 173.85V174.03H93.0133V173.663H94.7118C94.7118 173.507 94.6806 173.368 94.6182 173.245C94.5571 173.123 94.4695 173.026 94.3555 172.956C94.2428 172.885 94.1096 172.849 93.9561 172.849C93.787 172.849 93.6406 172.891 93.5171 172.975C93.3947 173.058 93.3006 173.166 93.2346 173.299C93.1686 173.432 93.1356 173.575 93.1356 173.727V173.972C93.1356 174.181 93.1716 174.358 93.2436 174.503C93.3168 174.647 93.4181 174.757 93.5477 174.832C93.6772 174.907 93.8278 174.944 93.9993 174.944C94.1108 174.944 94.2116 174.928 94.3016 174.897C94.3927 174.865 94.4713 174.817 94.5373 174.753C94.6032 174.688 94.6542 174.608 94.6902 174.512L95.1004 174.627C95.0572 174.766 94.9847 174.889 94.8827 174.994C94.7808 175.098 94.6548 175.18 94.5049 175.239C94.3549 175.296 94.1864 175.325 93.9993 175.325ZM98.3373 175.325C98.0782 175.325 97.8551 175.264 97.6679 175.142C97.4808 175.019 97.3369 174.851 97.2361 174.636C97.1354 174.421 97.085 174.176 97.085 173.9C97.085 173.619 97.1366 173.372 97.2397 173.157C97.3441 172.941 97.4892 172.773 97.6751 172.651C97.8623 172.529 98.0806 172.468 98.3301 172.468C98.5244 172.468 98.6995 172.504 98.8554 172.576C99.0114 172.648 99.1391 172.749 99.2387 172.878C99.3382 173.008 99.4 173.159 99.424 173.332H98.9994C98.967 173.206 98.895 173.094 98.7835 172.997C98.6731 172.899 98.5244 172.849 98.3373 172.849C98.1717 172.849 98.0266 172.893 97.9018 172.979C97.7783 173.064 97.6817 173.185 97.6122 173.341C97.5438 173.495 97.5096 173.677 97.5096 173.886C97.5096 174.099 97.5432 174.285 97.6104 174.444C97.6787 174.602 97.7747 174.725 97.8982 174.812C98.023 174.9 98.1693 174.944 98.3373 174.944C98.4476 174.944 98.5478 174.925 98.6377 174.886C98.7277 174.848 98.8039 174.793 98.8662 174.721C98.9286 174.649 98.973 174.562 98.9994 174.462H99.424C99.4 174.625 99.3406 174.772 99.2459 174.902C99.1523 175.032 99.0282 175.135 98.8734 175.212C98.7199 175.287 98.5412 175.325 98.3373 175.325ZM100.469 173.605V175.268H100.045V171.583H100.469V172.936H100.505C100.57 172.793 100.667 172.68 100.797 172.596C100.928 172.511 101.101 172.468 101.319 172.468C101.507 172.468 101.672 172.506 101.813 172.581C101.955 172.656 102.065 172.77 102.143 172.925C102.222 173.078 102.261 173.274 102.261 173.512V175.268H101.837V173.54C101.837 173.321 101.78 173.151 101.666 173.031C101.553 172.91 101.397 172.849 101.196 172.849C101.057 172.849 100.932 172.879 100.822 172.938C100.713 172.996 100.626 173.082 100.563 173.195C100.501 173.308 100.469 173.444 100.469 173.605ZM103.851 175.332C103.676 175.332 103.517 175.299 103.375 175.233C103.232 175.166 103.119 175.07 103.035 174.944C102.951 174.817 102.909 174.663 102.909 174.483C102.909 174.325 102.94 174.196 103.002 174.098C103.065 173.999 103.148 173.921 103.252 173.864C103.357 173.808 103.472 173.766 103.598 173.738C103.725 173.709 103.853 173.687 103.981 173.67C104.149 173.648 104.285 173.632 104.389 173.621C104.495 173.609 104.572 173.589 104.62 173.562C104.669 173.534 104.694 173.486 104.694 173.418V173.404C104.694 173.226 104.645 173.088 104.548 172.99C104.452 172.891 104.306 172.842 104.111 172.842C103.908 172.842 103.749 172.887 103.634 172.975C103.519 173.064 103.438 173.159 103.391 173.26L102.988 173.116C103.06 172.948 103.156 172.817 103.276 172.723C103.397 172.629 103.529 172.563 103.672 172.526C103.816 172.487 103.957 172.468 104.096 172.468C104.185 172.468 104.287 172.479 104.402 172.5C104.518 172.521 104.631 172.563 104.739 172.628C104.848 172.693 104.938 172.791 105.01 172.921C105.082 173.052 105.118 173.227 105.118 173.447V175.268H104.694V174.893H104.672C104.643 174.953 104.595 175.017 104.528 175.086C104.461 175.154 104.371 175.212 104.26 175.26C104.148 175.308 104.012 175.332 103.851 175.332ZM103.916 174.951C104.084 174.951 104.226 174.918 104.341 174.852C104.457 174.786 104.545 174.701 104.604 174.596C104.664 174.492 104.694 174.382 104.694 174.267V173.879C104.676 173.9 104.636 173.92 104.575 173.938C104.515 173.955 104.445 173.97 104.366 173.983C104.288 173.995 104.212 174.006 104.138 174.015C104.064 174.024 104.005 174.031 103.959 174.037C103.849 174.051 103.746 174.075 103.65 174.107C103.555 174.138 103.478 174.186 103.42 174.249C103.362 174.312 103.333 174.397 103.333 174.505C103.333 174.652 103.388 174.764 103.497 174.839C103.607 174.914 103.747 174.951 103.916 174.951ZM105.893 175.268V172.504H106.303V172.921H106.332C106.383 172.785 106.474 172.674 106.606 172.589C106.738 172.503 106.886 172.461 107.052 172.461C107.083 172.461 107.122 172.461 107.169 172.463C107.216 172.464 107.251 172.466 107.275 172.468V172.9C107.261 172.896 107.228 172.891 107.176 172.884C107.126 172.875 107.072 172.871 107.016 172.871C106.882 172.871 106.762 172.899 106.656 172.956C106.552 173.011 106.469 173.087 106.408 173.186C106.348 173.283 106.318 173.394 106.318 173.519V175.268H105.893ZM109.153 172.504V172.864H107.721V172.504H109.153ZM108.139 171.842H108.563V174.476C108.563 174.596 108.581 174.686 108.615 174.746C108.651 174.805 108.697 174.844 108.752 174.865C108.809 174.884 108.868 174.893 108.93 174.893C108.977 174.893 109.015 174.891 109.045 174.886C109.075 174.88 109.099 174.875 109.117 174.872L109.204 175.253C109.175 175.264 109.135 175.275 109.083 175.286C109.032 175.298 108.966 175.304 108.887 175.304C108.767 175.304 108.65 175.278 108.534 175.226C108.421 175.175 108.326 175.096 108.25 174.99C108.176 174.885 108.139 174.752 108.139 174.591V171.842ZM111.7 173.123L111.319 173.231C111.295 173.167 111.259 173.105 111.213 173.046C111.167 172.984 111.105 172.934 111.026 172.894C110.946 172.855 110.845 172.835 110.721 172.835C110.552 172.835 110.411 172.874 110.299 172.952C110.187 173.029 110.131 173.126 110.131 173.245C110.131 173.351 110.17 173.434 110.246 173.495C110.323 173.556 110.443 173.607 110.606 173.648L111.017 173.749C111.264 173.809 111.448 173.901 111.569 174.024C111.69 174.147 111.751 174.304 111.751 174.498C111.751 174.656 111.705 174.797 111.614 174.922C111.524 175.047 111.398 175.145 111.236 175.217C111.074 175.289 110.886 175.325 110.671 175.325C110.389 175.325 110.156 175.264 109.971 175.142C109.786 175.019 109.669 174.841 109.62 174.605L110.023 174.505C110.062 174.653 110.134 174.765 110.241 174.839C110.349 174.914 110.49 174.951 110.664 174.951C110.862 174.951 111.019 174.909 111.135 174.825C111.253 174.74 111.312 174.638 111.312 174.519C111.312 174.423 111.278 174.343 111.211 174.278C111.144 174.212 111.041 174.163 110.901 174.13L110.441 174.023C110.188 173.963 110.002 173.87 109.883 173.744C109.765 173.616 109.707 173.458 109.707 173.267C109.707 173.111 109.75 172.973 109.838 172.853C109.927 172.733 110.047 172.639 110.2 172.571C110.353 172.502 110.527 172.468 110.721 172.468C110.995 172.468 111.21 172.528 111.366 172.648C111.523 172.768 111.634 172.926 111.7 173.123Z" fill="black"/>
<rect x="231.167" y="81.2852" width="183.983" height="183.983" fill="#D9D9D9"/>
<rect x="231.167" y="282.367" width="183.983" height="183.983" fill="#D9D9D9"/>
<path d="M312.68 175.268V171.583H313.968C314.225 171.583 314.436 171.627 314.603 171.716C314.77 171.803 314.894 171.922 314.975 172.07C315.057 172.218 315.098 172.382 315.098 172.562C315.098 172.72 315.07 172.851 315.013 172.954C314.958 173.057 314.885 173.138 314.794 173.198C314.704 173.258 314.606 173.303 314.5 173.332V173.368C314.613 173.375 314.727 173.414 314.841 173.486C314.954 173.558 315.05 173.661 315.127 173.796C315.203 173.93 315.242 174.094 315.242 174.289C315.242 174.474 315.2 174.64 315.116 174.787C315.032 174.935 314.899 175.052 314.718 175.138C314.537 175.224 314.301 175.268 314.011 175.268H312.68ZM313.126 174.872H314.011C314.303 174.872 314.509 174.815 314.632 174.703C314.755 174.589 314.817 174.451 314.817 174.289C314.817 174.164 314.785 174.049 314.722 173.943C314.658 173.837 314.568 173.751 314.45 173.688C314.333 173.623 314.193 173.591 314.033 173.591H313.126V174.872ZM313.126 173.202H313.953C314.088 173.202 314.209 173.176 314.317 173.123C314.426 173.07 314.512 172.996 314.576 172.9C314.641 172.804 314.673 172.691 314.673 172.562C314.673 172.4 314.617 172.262 314.504 172.149C314.391 172.036 314.213 171.979 313.968 171.979H313.126V173.202ZM316.731 175.332C316.555 175.332 316.397 175.299 316.254 175.233C316.111 175.166 315.998 175.07 315.914 174.944C315.83 174.817 315.788 174.663 315.788 174.483C315.788 174.325 315.819 174.196 315.881 174.098C315.944 173.999 316.027 173.921 316.131 173.864C316.236 173.808 316.351 173.766 316.477 173.738C316.604 173.709 316.732 173.687 316.86 173.67C317.028 173.648 317.164 173.632 317.269 173.621C317.374 173.609 317.451 173.589 317.499 173.562C317.548 173.534 317.573 173.486 317.573 173.418V173.404C317.573 173.226 317.524 173.088 317.427 172.99C317.331 172.891 317.185 172.842 316.99 172.842C316.787 172.842 316.628 172.887 316.513 172.975C316.398 173.064 316.317 173.159 316.27 173.26L315.867 173.116C315.939 172.948 316.035 172.817 316.155 172.723C316.276 172.629 316.408 172.563 316.551 172.526C316.695 172.487 316.836 172.468 316.975 172.468C317.064 172.468 317.166 172.479 317.281 172.5C317.398 172.521 317.51 172.563 317.618 172.628C317.727 172.693 317.817 172.791 317.889 172.921C317.961 173.052 317.997 173.227 317.997 173.447V175.268H317.573V174.893H317.551C317.522 174.953 317.474 175.017 317.407 175.086C317.34 175.154 317.251 175.212 317.139 175.26C317.027 175.308 316.891 175.332 316.731 175.332ZM316.795 174.951C316.963 174.951 317.105 174.918 317.22 174.852C317.336 174.786 317.424 174.701 317.483 174.596C317.543 174.492 317.573 174.382 317.573 174.267V173.879C317.555 173.9 317.515 173.92 317.454 173.938C317.394 173.955 317.324 173.97 317.245 173.983C317.167 173.995 317.091 174.006 317.017 174.015C316.944 174.024 316.884 174.031 316.839 174.037C316.728 174.051 316.625 174.075 316.529 174.107C316.434 174.138 316.358 174.186 316.299 174.249C316.241 174.312 316.212 174.397 316.212 174.505C316.212 174.652 316.267 174.764 316.376 174.839C316.487 174.914 316.626 174.951 316.795 174.951ZM318.772 175.268V172.504H319.183V172.921H319.211C319.262 172.785 319.353 172.674 319.485 172.589C319.617 172.503 319.765 172.461 319.931 172.461C319.962 172.461 320.001 172.461 320.048 172.463C320.095 172.464 320.13 172.466 320.154 172.468V172.9C320.14 172.896 320.107 172.891 320.055 172.884C320.005 172.875 319.951 172.871 319.895 172.871C319.761 172.871 319.641 172.899 319.535 172.956C319.431 173.011 319.348 173.087 319.287 173.186C319.227 173.283 319.197 173.394 319.197 173.519V175.268H318.772ZM323.205 175.325C322.946 175.325 322.723 175.264 322.536 175.142C322.349 175.019 322.205 174.851 322.104 174.636C322.003 174.421 321.953 174.176 321.953 173.9C321.953 173.619 322.004 173.372 322.108 173.157C322.212 172.941 322.357 172.773 322.543 172.651C322.73 172.529 322.948 172.468 323.198 172.468C323.392 172.468 323.567 172.504 323.723 172.576C323.879 172.648 324.007 172.749 324.107 172.878C324.206 173.008 324.268 173.159 324.292 173.332H323.867C323.835 173.206 323.763 173.094 323.651 172.997C323.541 172.899 323.392 172.849 323.205 172.849C323.04 172.849 322.895 172.893 322.77 172.979C322.646 173.064 322.55 173.185 322.48 173.341C322.412 173.495 322.378 173.677 322.378 173.886C322.378 174.099 322.411 174.285 322.478 174.444C322.547 174.602 322.643 174.725 322.766 174.812C322.891 174.9 323.037 174.944 323.205 174.944C323.316 174.944 323.416 174.925 323.506 174.886C323.596 174.848 323.672 174.793 323.734 174.721C323.797 174.649 323.841 174.562 323.867 174.462H324.292C324.268 174.625 324.209 174.772 324.114 174.902C324.02 175.032 323.896 175.135 323.741 175.212C323.588 175.287 323.409 175.325 323.205 175.325ZM325.337 173.605V175.268H324.913V171.583H325.337V172.936H325.373C325.438 172.793 325.535 172.68 325.665 172.596C325.795 172.511 325.969 172.468 326.187 172.468C326.375 172.468 326.54 172.506 326.681 172.581C326.823 172.656 326.933 172.77 327.011 172.925C327.09 173.078 327.129 173.274 327.129 173.512V175.268H326.705V173.54C326.705 173.321 326.648 173.151 326.534 173.031C326.421 172.91 326.264 172.849 326.064 172.849C325.925 172.849 325.8 172.879 325.69 172.938C325.581 172.996 325.494 173.082 325.431 173.195C325.368 173.308 325.337 173.444 325.337 173.605ZM328.719 175.332C328.544 175.332 328.385 175.299 328.243 175.233C328.1 175.166 327.987 175.07 327.903 174.944C327.819 174.817 327.777 174.663 327.777 174.483C327.777 174.325 327.808 174.196 327.87 174.098C327.933 173.999 328.016 173.921 328.12 173.864C328.225 173.808 328.34 173.766 328.466 173.738C328.593 173.709 328.721 173.687 328.849 173.67C329.017 173.648 329.153 173.632 329.257 173.621C329.363 173.609 329.44 173.589 329.488 173.562C329.537 173.534 329.561 173.486 329.561 173.418V173.404C329.561 173.226 329.513 173.088 329.416 172.99C329.32 172.891 329.174 172.842 328.978 172.842C328.776 172.842 328.617 172.887 328.502 172.975C328.387 173.064 328.306 173.159 328.259 173.26L327.856 173.116C327.928 172.948 328.024 172.817 328.144 172.723C328.265 172.629 328.397 172.563 328.539 172.526C328.683 172.487 328.825 172.468 328.964 172.468C329.053 172.468 329.155 172.479 329.27 172.5C329.386 172.521 329.498 172.563 329.606 172.628C329.716 172.693 329.806 172.791 329.878 172.921C329.95 173.052 329.986 173.227 329.986 173.447V175.268H329.561V174.893H329.54C329.511 174.953 329.463 175.017 329.396 175.086C329.329 175.154 329.239 175.212 329.128 175.26C329.016 175.308 328.88 175.332 328.719 175.332ZM328.784 174.951C328.952 174.951 329.094 174.918 329.209 174.852C329.325 174.786 329.413 174.701 329.471 174.596C329.531 174.492 329.561 174.382 329.561 174.267V173.879C329.543 173.9 329.504 173.92 329.443 173.938C329.383 173.955 329.313 173.97 329.234 173.983C329.156 173.995 329.08 174.006 329.005 174.015C328.932 174.024 328.873 174.031 328.827 174.037C328.717 174.051 328.614 174.075 328.518 174.107C328.423 174.138 328.346 174.186 328.288 174.249C328.23 174.312 328.201 174.397 328.201 174.505C328.201 174.652 328.256 174.764 328.365 174.839C328.475 174.914 328.615 174.951 328.784 174.951ZM330.761 175.268V172.504H331.171V172.921H331.2C331.25 172.785 331.342 172.674 331.474 172.589C331.606 172.503 331.754 172.461 331.92 172.461C331.951 172.461 331.99 172.461 332.037 172.463C332.084 172.464 332.119 172.466 332.143 172.468V172.9C332.129 172.896 332.096 172.891 332.044 172.884C331.994 172.875 331.94 172.871 331.884 172.871C331.749 172.871 331.63 172.899 331.524 172.956C331.42 173.011 331.337 173.087 331.276 173.186C331.216 173.283 331.186 173.394 331.186 173.519V175.268H330.761ZM334.021 172.504V172.864H332.589V172.504H334.021ZM333.007 171.842H333.431V174.476C333.431 174.596 333.449 174.686 333.483 174.746C333.519 174.805 333.565 174.844 333.62 174.865C333.676 174.884 333.736 174.893 333.798 174.893C333.845 174.893 333.883 174.891 333.913 174.886C333.943 174.88 333.967 174.875 333.985 174.872L334.072 175.253C334.043 175.264 334.003 175.275 333.951 175.286C333.9 175.298 333.834 175.304 333.755 175.304C333.635 175.304 333.518 175.278 333.402 175.226C333.288 175.175 333.194 175.096 333.118 174.99C333.044 174.885 333.007 174.752 333.007 174.591V171.842Z" fill="black"/>
<rect x="449.667" y="80.0176" width="6.33333" height="234.967" fill="#F0F3F5"/>
<path d="M455.943 84.5968L455.907 84.5552L453.215 81.4562C453.124 81.3513 452.988 81.2859 452.835 81.2859C452.683 81.2859 452.546 81.3533 452.455 81.4562L449.766 84.5493L449.72 84.6008C449.687 84.6503 449.667 84.7097 449.667 84.7731C449.667 84.9453 449.813 85.0859 449.995 85.0859L455.672 85.0859C455.854 85.0859 456 84.9453 456 84.7731C456 84.7077 455.978 84.6463 455.943 84.5968Z" fill="black"/>
<path d="M449.724 311.083L449.76 311.128L452.451 314.485C452.542 314.599 452.679 314.669 452.831 314.669C452.984 314.669 453.12 314.596 453.211 314.485L455.901 311.134L455.947 311.078C455.98 311.025 456 310.96 456 310.892C456 310.705 455.854 310.553 455.671 310.553L449.995 310.553C449.813 310.553 449.667 310.705 449.667 310.892C449.667 310.962 449.688 311.029 449.724 311.083Z" fill="black"/>
<rect x="449.825" y="88.7267" width="6.01667" height="217.867" rx="3.00833" fill="white" stroke="black" stroke-width="0.316667"/>
<rect x="449.667" y="88.5684" width="6.33333" height="17.7333" rx="3.16667" fill="#481620"/>
</g>
<defs>
<clipPath id="clip0_638_2259">
<rect width="456" height="324.267" fill="white" transform="translate(0 0.535156)"/>
</clipPath>
</defs>
</svg>
