<svg width="1427" height="1024" viewBox="0 0 1427 1024" fill="none" xmlns="http://www.w3.org/2000/svg">
<rect width="1440" height="1024" fill="white"/>
<g clip-path="url(#clip0_983_2068)">
<rect x="280.661" y="117" width="328.848" height="712.759" fill="white"/>
<rect x="280.661" y="783.108" width="328.848" height="46.6505" fill="#D9D9D9"/>
<rect x="295.956" y="124.647" width="235.547" height="31.3553" rx="7.64763" fill="#D9D9D9"/>
<rect x="315.075" y="791.521" width="30.5905" height="30.5905" fill="#B1B1B1"/>
<rect x="372.433" y="791.521" width="30.5905" height="30.5905" fill="#B1B1B1"/>
<rect x="429.79" y="791.521" width="30.5905" height="30.5905" fill="#B1B1B1"/>
<rect x="487.147" y="791.521" width="30.5905" height="30.5905" fill="#B1B1B1"/>
<rect x="544.504" y="791.521" width="30.5905" height="30.5905" fill="#B1B1B1"/>
<rect x="295.956" y="221.772" width="141.481" height="141.481" fill="#D9D9D9"/>
<rect x="452.733" y="221.772" width="141.481" height="141.481" fill="#D9D9D9"/>
<rect x="452.733" y="425.199" width="141.481" height="141.481" fill="#D9D9D9"/>
<rect x="452.733" y="579.682" width="141.481" height="141.481" fill="#D9D9D9"/>
<rect x="295.956" y="425.199" width="141.481" height="141.481" fill="#D9D9D9"/>
<rect x="295.956" y="579.682" width="141.481" height="141.481" fill="#D9D9D9"/>
<rect x="562.859" y="124.647" width="31.3553" height="31.3553" rx="15.6776" fill="#D9D9D9"/>
<path d="M298.694 200.343V199.626H303.7V200.343H301.601V206.3H300.793V200.343H298.694ZM306.15 206.405C305.698 206.405 305.302 206.297 304.961 206.082C304.622 205.867 304.357 205.566 304.166 205.179C303.977 204.792 303.882 204.341 303.882 203.824C303.882 203.302 303.977 202.847 304.166 202.458C304.357 202.069 304.622 201.767 304.961 201.552C305.302 201.337 305.698 201.229 306.15 201.229C306.602 201.229 306.998 201.337 307.337 201.552C307.678 201.767 307.943 202.069 308.132 202.458C308.323 202.847 308.419 203.302 308.419 203.824C308.419 204.341 308.323 204.792 308.132 205.179C307.943 205.566 307.678 205.867 307.337 206.082C306.998 206.297 306.602 206.405 306.15 206.405ZM306.15 205.714C306.494 205.714 306.776 205.626 306.998 205.45C307.219 205.274 307.383 205.042 307.49 204.756C307.596 204.469 307.649 204.158 307.649 203.824C307.649 203.489 307.596 203.177 307.49 202.888C307.383 202.599 307.219 202.366 306.998 202.188C306.776 202.009 306.494 201.92 306.15 201.92C305.807 201.92 305.525 202.009 305.303 202.188C305.081 202.366 304.917 202.599 304.811 202.888C304.705 203.177 304.651 203.489 304.651 203.824C304.651 204.158 304.705 204.469 304.811 204.756C304.917 205.042 305.081 205.274 305.303 205.45C305.525 205.626 305.807 205.714 306.15 205.714ZM309.593 208.177V201.295H310.336V202.09H310.427C310.483 202.003 310.562 201.892 310.662 201.757C310.764 201.62 310.909 201.499 311.098 201.392C311.289 201.284 311.548 201.229 311.874 201.229C312.295 201.229 312.667 201.335 312.988 201.546C313.31 201.756 313.561 202.055 313.741 202.442C313.922 202.828 314.012 203.285 314.012 203.81C314.012 204.341 313.922 204.8 313.741 205.189C313.561 205.576 313.311 205.876 312.992 206.088C312.672 206.299 312.304 206.405 311.887 206.405C311.565 206.405 311.308 206.351 311.115 206.245C310.921 206.136 310.772 206.014 310.668 205.877C310.564 205.738 310.483 205.622 310.427 205.531H310.362V208.177H309.593ZM310.349 203.797C310.349 204.175 310.404 204.509 310.515 204.798C310.626 205.085 310.788 205.31 311 205.473C311.213 205.633 311.474 205.714 311.783 205.714C312.104 205.714 312.373 205.629 312.588 205.459C312.805 205.288 312.968 205.058 313.076 204.769C313.187 204.477 313.243 204.154 313.243 203.797C313.243 203.445 313.188 203.128 313.08 202.846C312.973 202.561 312.811 202.336 312.594 202.171C312.379 202.004 312.109 201.92 311.783 201.92C311.47 201.92 311.207 202 310.994 202.158C310.781 202.315 310.62 202.534 310.512 202.816C310.403 203.097 310.349 203.424 310.349 203.797ZM319.239 206.418C318.922 206.418 318.634 206.358 318.375 206.238C318.117 206.117 317.912 205.942 317.76 205.714C317.607 205.483 317.531 205.205 317.531 204.879C317.531 204.593 317.588 204.36 317.701 204.182C317.814 204.002 317.965 203.86 318.154 203.758C318.343 203.656 318.551 203.58 318.78 203.53C319.01 203.478 319.241 203.437 319.474 203.406C319.778 203.367 320.024 203.338 320.213 203.318C320.405 203.297 320.544 203.261 320.631 203.211C320.72 203.161 320.764 203.074 320.764 202.95V202.924C320.764 202.602 320.676 202.353 320.5 202.174C320.326 201.996 320.062 201.907 319.708 201.907C319.341 201.907 319.053 201.988 318.845 202.148C318.636 202.309 318.49 202.481 318.405 202.663L317.675 202.403C317.805 202.098 317.979 201.862 318.196 201.692C318.416 201.521 318.655 201.401 318.913 201.334C319.174 201.264 319.43 201.229 319.682 201.229C319.843 201.229 320.028 201.249 320.236 201.288C320.447 201.325 320.65 201.402 320.846 201.519C321.043 201.637 321.207 201.814 321.338 202.051C321.468 202.287 321.533 202.605 321.533 203.002V206.3H320.764V205.622H320.725C320.673 205.731 320.586 205.847 320.464 205.971C320.343 206.095 320.181 206.2 319.979 206.287C319.777 206.374 319.53 206.418 319.239 206.418ZM319.356 205.727C319.661 205.727 319.917 205.667 320.126 205.547C320.336 205.428 320.495 205.274 320.601 205.085C320.71 204.896 320.764 204.697 320.764 204.488V203.784C320.732 203.824 320.66 203.859 320.549 203.892C320.441 203.922 320.315 203.95 320.171 203.973C320.03 203.995 319.892 204.015 319.757 204.032C319.625 204.047 319.517 204.06 319.435 204.071C319.235 204.097 319.048 204.14 318.874 204.198C318.702 204.255 318.563 204.341 318.457 204.456C318.353 204.569 318.3 204.723 318.3 204.919C318.3 205.186 318.399 205.388 318.597 205.525C318.797 205.659 319.05 205.727 319.356 205.727ZM323.706 199.626V206.3H322.937V199.626H323.706ZM325.219 206.3V199.626H325.988V202.09H326.053C326.11 202.003 326.188 201.892 326.288 201.757C326.39 201.62 326.536 201.499 326.725 201.392C326.916 201.284 327.175 201.229 327.5 201.229C327.922 201.229 328.293 201.335 328.615 201.546C328.937 201.756 329.188 202.055 329.368 202.442C329.548 202.828 329.638 203.285 329.638 203.81C329.638 204.341 329.548 204.8 329.368 205.189C329.188 205.576 328.938 205.876 328.618 206.088C328.299 206.299 327.931 206.405 327.514 206.405C327.192 206.405 326.934 206.351 326.741 206.245C326.548 206.136 326.399 206.014 326.295 205.877C326.19 205.738 326.11 205.622 326.053 205.531H325.962V206.3H325.219ZM325.975 203.797C325.975 204.175 326.031 204.509 326.141 204.798C326.252 205.085 326.414 205.31 326.627 205.473C326.84 205.633 327.101 205.714 327.409 205.714C327.731 205.714 327.999 205.629 328.214 205.459C328.431 205.288 328.594 205.058 328.703 204.769C328.814 204.477 328.869 204.154 328.869 203.797C328.869 203.445 328.815 203.128 328.706 202.846C328.6 202.561 328.438 202.336 328.221 202.171C328.006 202.004 327.735 201.92 327.409 201.92C327.096 201.92 326.833 202 326.621 202.158C326.408 202.315 326.247 202.534 326.138 202.816C326.03 203.097 325.975 203.424 325.975 203.797ZM333.969 204.254V201.295H334.739V206.3H333.969V205.453H333.917C333.8 205.707 333.617 205.923 333.37 206.101C333.122 206.277 332.809 206.365 332.431 206.365C332.118 206.365 331.84 206.297 331.597 206.16C331.354 206.021 331.162 205.813 331.023 205.534C330.884 205.254 330.815 204.901 330.815 204.475V201.295H331.584V204.423C331.584 204.788 331.686 205.079 331.89 205.297C332.097 205.514 332.36 205.622 332.679 205.622C332.87 205.622 333.065 205.574 333.262 205.476C333.462 205.378 333.629 205.228 333.764 205.026C333.901 204.824 333.969 204.567 333.969 204.254ZM336.147 206.3V201.295H336.89V202.077H336.955C337.06 201.809 337.228 201.602 337.461 201.454C337.693 201.304 337.972 201.229 338.298 201.229C338.628 201.229 338.903 201.304 339.123 201.454C339.344 201.602 339.517 201.809 339.641 202.077H339.693C339.821 201.818 340.013 201.613 340.27 201.461C340.526 201.307 340.834 201.229 341.192 201.229C341.64 201.229 342.006 201.37 342.29 201.65C342.575 201.928 342.717 202.361 342.717 202.95V206.3H341.948V202.95C341.948 202.581 341.847 202.317 341.645 202.158C341.443 202 341.205 201.92 340.931 201.92C340.579 201.92 340.307 202.027 340.113 202.24C339.92 202.45 339.823 202.718 339.823 203.041V206.3H339.041V202.872C339.041 202.587 338.949 202.358 338.764 202.184C338.579 202.008 338.342 201.92 338.05 201.92C337.851 201.92 337.664 201.974 337.49 202.08C337.318 202.186 337.179 202.334 337.073 202.523C336.968 202.71 336.916 202.926 336.916 203.172V206.3H336.147ZM347.669 202.416L346.978 202.611C346.935 202.496 346.871 202.384 346.786 202.276C346.703 202.165 346.59 202.073 346.447 202.002C346.304 201.93 346.12 201.894 345.896 201.894C345.59 201.894 345.335 201.965 345.13 202.106C344.928 202.245 344.827 202.422 344.827 202.637C344.827 202.828 344.897 202.979 345.036 203.09C345.175 203.201 345.392 203.293 345.688 203.367L346.431 203.55C346.878 203.658 347.212 203.825 347.431 204.048C347.651 204.27 347.76 204.556 347.76 204.905C347.76 205.192 347.678 205.449 347.513 205.675C347.35 205.901 347.122 206.079 346.828 206.209C346.535 206.339 346.194 206.405 345.805 206.405C345.295 206.405 344.872 206.294 344.537 206.072C344.203 205.851 343.991 205.527 343.902 205.101L344.632 204.919C344.701 205.188 344.833 205.39 345.026 205.525C345.222 205.659 345.477 205.727 345.792 205.727C346.151 205.727 346.435 205.651 346.646 205.499C346.859 205.344 346.965 205.16 346.965 204.945C346.965 204.771 346.904 204.625 346.783 204.508C346.661 204.388 346.474 204.299 346.222 204.241L345.388 204.045C344.93 203.936 344.593 203.768 344.378 203.54C344.165 203.31 344.058 203.022 344.058 202.676C344.058 202.394 344.138 202.144 344.296 201.927C344.457 201.71 344.675 201.539 344.951 201.415C345.229 201.291 345.544 201.229 345.896 201.229C346.392 201.229 346.781 201.338 347.063 201.555C347.348 201.773 347.55 202.059 347.669 202.416Z" fill="black"/>
<path d="M296.647 415.081V414.494L298.85 412.082C299.109 411.8 299.322 411.554 299.489 411.346C299.656 411.135 299.78 410.937 299.86 410.753C299.943 410.566 299.984 410.37 299.984 410.166C299.984 409.931 299.928 409.728 299.815 409.557C299.704 409.385 299.552 409.253 299.359 409.159C299.165 409.066 298.948 409.019 298.707 409.019C298.45 409.019 298.227 409.072 298.035 409.179C297.846 409.283 297.7 409.43 297.596 409.619C297.493 409.808 297.442 410.029 297.442 410.283H296.673C296.673 409.892 296.763 409.549 296.944 409.254C297.124 408.958 297.37 408.728 297.68 408.563C297.993 408.398 298.344 408.315 298.733 408.315C299.124 408.315 299.471 408.398 299.773 408.563C300.075 408.728 300.311 408.951 300.483 409.231C300.655 409.511 300.74 409.823 300.74 410.166C300.74 410.412 300.696 410.652 300.607 410.886C300.52 411.119 300.368 411.378 300.151 411.665C299.935 411.95 299.637 412.297 299.254 412.708L297.755 414.311V414.364H300.858V415.081H296.647ZM304.381 415.172C303.89 415.172 303.471 415.038 303.126 414.771C302.781 414.502 302.517 414.112 302.334 413.601C302.152 413.088 302.06 412.469 302.06 411.743C302.06 411.022 302.152 410.406 302.334 409.896C302.519 409.383 302.784 408.992 303.129 408.722C303.477 408.451 303.894 408.315 304.381 408.315C304.867 408.315 305.283 408.451 305.629 408.722C305.976 408.992 306.241 409.383 306.424 409.896C306.609 410.406 306.701 411.022 306.701 411.743C306.701 412.469 306.61 413.088 306.427 413.601C306.245 414.112 305.981 414.502 305.635 414.771C305.29 415.038 304.872 415.172 304.381 415.172ZM304.381 414.455C304.867 414.455 305.245 414.22 305.515 413.751C305.784 413.282 305.919 412.612 305.919 411.743C305.919 411.166 305.857 410.673 305.733 410.267C305.611 409.861 305.435 409.551 305.205 409.338C304.977 409.125 304.702 409.019 304.381 409.019C303.898 409.019 303.521 409.257 303.25 409.733C302.978 410.206 302.842 410.877 302.842 411.743C302.842 412.321 302.903 412.812 303.025 413.216C303.147 413.621 303.321 413.928 303.55 414.139C303.78 414.349 304.057 414.455 304.381 414.455ZM310.116 415.172C309.625 415.172 309.207 415.038 308.862 414.771C308.516 414.502 308.252 414.112 308.07 413.601C307.887 413.088 307.796 412.469 307.796 411.743C307.796 411.022 307.887 410.406 308.07 409.896C308.254 409.383 308.519 408.992 308.865 408.722C309.213 408.451 309.63 408.315 310.116 408.315C310.603 408.315 311.019 408.451 311.365 408.722C311.712 408.992 311.977 409.383 312.16 409.896C312.344 410.406 312.437 411.022 312.437 411.743C312.437 412.469 312.345 413.088 312.163 413.601C311.98 414.112 311.716 414.502 311.371 414.771C311.026 415.038 310.607 415.172 310.116 415.172ZM310.116 414.455C310.603 414.455 310.981 414.22 311.25 413.751C311.52 413.282 311.655 412.612 311.655 411.743C311.655 411.166 311.593 410.673 311.469 410.267C311.347 409.861 311.171 409.551 310.941 409.338C310.713 409.125 310.438 409.019 310.116 409.019C309.634 409.019 309.257 409.257 308.986 409.733C308.714 410.206 308.578 410.877 308.578 411.743C308.578 412.321 308.639 412.812 308.761 413.216C308.882 413.621 309.057 413.928 309.285 414.139C309.516 414.349 309.793 414.455 310.116 414.455ZM315.852 415.172C315.361 415.172 314.943 415.038 314.597 414.771C314.252 414.502 313.988 414.112 313.805 413.601C313.623 413.088 313.532 412.469 313.532 411.743C313.532 411.022 313.623 410.406 313.805 409.896C313.99 409.383 314.255 408.992 314.601 408.722C314.948 408.451 315.365 408.315 315.852 408.315C316.339 408.315 316.755 408.451 317.1 408.722C317.448 408.992 317.713 409.383 317.895 409.896C318.08 410.406 318.172 411.022 318.172 411.743C318.172 412.469 318.081 413.088 317.899 413.601C317.716 414.112 317.452 414.502 317.107 414.771C316.761 415.038 316.343 415.172 315.852 415.172ZM315.852 414.455C316.339 414.455 316.717 414.22 316.986 413.751C317.256 413.282 317.39 412.612 317.39 411.743C317.39 411.166 317.328 410.673 317.205 410.267C317.083 409.861 316.907 409.551 316.677 409.338C316.448 409.125 316.174 409.019 315.852 409.019C315.37 409.019 314.993 409.257 314.721 409.733C314.45 410.206 314.314 410.877 314.314 411.743C314.314 412.321 314.375 412.812 314.496 413.216C314.618 413.621 314.793 413.928 315.021 414.139C315.251 414.349 315.528 414.455 315.852 414.455ZM320.102 408.406V408.993C320.102 409.171 320.069 409.361 320.004 409.563C319.941 409.763 319.848 409.958 319.724 410.147C319.602 410.333 319.454 410.496 319.28 410.635L318.863 410.296C319 410.101 319.119 409.898 319.219 409.687C319.321 409.474 319.372 409.247 319.372 409.006V408.406H320.102ZM323.955 411.196L323.265 411.391C323.221 411.276 323.157 411.164 323.072 411.056C322.99 410.945 322.877 410.854 322.733 410.782C322.59 410.71 322.406 410.674 322.183 410.674C321.876 410.674 321.621 410.745 321.417 410.886C321.215 411.025 321.114 411.202 321.114 411.418C321.114 411.609 321.183 411.76 321.322 411.871C321.461 411.981 321.679 412.074 321.974 412.148L322.717 412.33C323.165 412.439 323.498 412.605 323.718 412.829C323.937 413.05 324.047 413.336 324.047 413.686C324.047 413.973 323.964 414.229 323.799 414.455C323.636 414.681 323.408 414.859 323.115 414.989C322.821 415.12 322.48 415.185 322.091 415.185C321.581 415.185 321.158 415.074 320.824 414.852C320.489 414.631 320.277 414.307 320.188 413.881L320.918 413.699C320.988 413.968 321.119 414.17 321.312 414.305C321.508 414.44 321.763 414.507 322.078 414.507C322.437 414.507 322.721 414.431 322.932 414.279C323.145 414.125 323.251 413.94 323.251 413.725C323.251 413.551 323.191 413.405 323.069 413.288C322.947 413.169 322.76 413.08 322.508 413.021L321.674 412.825C321.216 412.717 320.879 412.548 320.664 412.32C320.451 412.09 320.345 411.802 320.345 411.457C320.345 411.174 320.424 410.924 320.582 410.707C320.743 410.49 320.962 410.319 321.237 410.195C321.516 410.072 321.831 410.01 322.183 410.01C322.678 410.01 323.067 410.118 323.349 410.336C323.634 410.553 323.836 410.84 323.955 411.196ZM327.785 415.081V410.075H328.529V410.857H328.594C328.698 410.59 328.866 410.382 329.099 410.235C329.331 410.085 329.61 410.01 329.936 410.01C330.267 410.01 330.541 410.085 330.761 410.235C330.982 410.382 331.155 410.59 331.279 410.857H331.331C331.459 410.598 331.652 410.393 331.908 410.241C332.164 410.087 332.472 410.01 332.83 410.01C333.278 410.01 333.644 410.15 333.929 410.43C334.213 410.708 334.355 411.142 334.355 411.73V415.081H333.586V411.73C333.586 411.361 333.485 411.097 333.283 410.938C333.081 410.78 332.843 410.701 332.57 410.701C332.218 410.701 331.945 410.807 331.752 411.02C331.558 411.231 331.462 411.498 331.462 411.822V415.081H330.679V411.652C330.679 411.368 330.587 411.138 330.402 410.965C330.218 410.789 329.98 410.701 329.689 410.701C329.489 410.701 329.302 410.754 329.128 410.86C328.957 410.967 328.817 411.114 328.711 411.303C328.607 411.49 328.555 411.706 328.555 411.952V415.081H327.785ZM337.86 415.185C337.378 415.185 336.962 415.078 336.612 414.865C336.265 414.65 335.996 414.351 335.807 413.966C335.62 413.579 335.527 413.13 335.527 412.617C335.527 412.104 335.62 411.652 335.807 411.261C335.996 410.868 336.259 410.562 336.596 410.342C336.935 410.12 337.33 410.01 337.782 410.01C338.043 410.01 338.3 410.053 338.555 410.14C338.809 410.227 339.04 410.368 339.249 410.564C339.457 410.757 339.624 411.013 339.747 411.333C339.871 411.652 339.933 412.045 339.933 412.513V412.838H336.075V412.174H339.151C339.151 411.891 339.095 411.639 338.982 411.418C338.871 411.196 338.712 411.021 338.506 410.893C338.302 410.765 338.06 410.701 337.782 410.701C337.476 410.701 337.211 410.777 336.987 410.929C336.765 411.079 336.595 411.274 336.475 411.515C336.356 411.756 336.296 412.015 336.296 412.291V412.734C336.296 413.112 336.361 413.433 336.492 413.696C336.624 413.956 336.808 414.155 337.042 414.292C337.277 414.427 337.55 414.494 337.86 414.494C338.063 414.494 338.245 414.466 338.408 414.409C338.573 414.351 338.715 414.264 338.835 414.149C338.954 414.031 339.047 413.886 339.112 413.712L339.855 413.92C339.777 414.172 339.645 414.394 339.461 414.585C339.276 414.774 339.048 414.922 338.776 415.028C338.505 415.133 338.199 415.185 337.86 415.185ZM341.872 408.406V415.081H341.103V408.406H341.872ZM345.314 415.185C344.863 415.185 344.466 415.077 344.125 414.862C343.786 414.647 343.521 414.346 343.33 413.959C343.141 413.573 343.046 413.121 343.046 412.604C343.046 412.082 343.141 411.627 343.33 411.238C343.521 410.849 343.786 410.547 344.125 410.332C344.466 410.117 344.863 410.01 345.314 410.01C345.766 410.01 346.162 410.117 346.501 410.332C346.842 410.547 347.107 410.849 347.296 411.238C347.487 411.627 347.583 412.082 347.583 412.604C347.583 413.121 347.487 413.573 347.296 413.959C347.107 414.346 346.842 414.647 346.501 414.862C346.162 415.077 345.766 415.185 345.314 415.185ZM345.314 414.494C345.658 414.494 345.94 414.406 346.162 414.23C346.383 414.054 346.547 413.823 346.654 413.536C346.76 413.249 346.814 412.938 346.814 412.604C346.814 412.269 346.76 411.957 346.654 411.668C346.547 411.38 346.383 411.146 346.162 410.968C345.94 410.79 345.658 410.701 345.314 410.701C344.971 410.701 344.689 410.79 344.467 410.968C344.246 411.146 344.081 411.38 343.975 411.668C343.869 411.957 343.815 412.269 343.815 412.604C343.815 412.938 343.869 413.249 343.975 413.536C344.081 413.823 344.246 414.054 344.467 414.23C344.689 414.406 344.971 414.494 345.314 414.494ZM350.647 415.185C350.23 415.185 349.861 415.079 349.542 414.869C349.223 414.656 348.973 414.356 348.793 413.969C348.612 413.58 348.522 413.121 348.522 412.591C348.522 412.065 348.612 411.609 348.793 411.222C348.973 410.835 349.224 410.537 349.545 410.326C349.867 410.115 350.238 410.01 350.66 410.01C350.986 410.01 351.243 410.064 351.432 410.173C351.623 410.279 351.769 410.401 351.869 410.538C351.971 410.672 352.05 410.783 352.107 410.87H352.172V408.406H352.941V415.081H352.198V414.311H352.107C352.05 414.403 351.97 414.518 351.866 414.657C351.761 414.794 351.613 414.917 351.419 415.025C351.226 415.132 350.968 415.185 350.647 415.185ZM350.751 414.494C351.06 414.494 351.32 414.414 351.533 414.253C351.746 414.09 351.908 413.865 352.019 413.578C352.13 413.289 352.185 412.956 352.185 412.578C352.185 412.204 352.131 411.877 352.022 411.597C351.914 411.314 351.753 411.095 351.54 410.938C351.327 410.78 351.064 410.701 350.751 410.701C350.425 410.701 350.154 410.784 349.936 410.951C349.721 411.117 349.559 411.341 349.451 411.626C349.344 411.909 349.291 412.226 349.291 412.578C349.291 412.934 349.345 413.258 349.454 413.549C349.565 413.838 349.728 414.068 349.943 414.24C350.16 414.409 350.43 414.494 350.751 414.494ZM354.457 415.081V410.075H355.226V415.081H354.457ZM354.848 409.241C354.698 409.241 354.568 409.19 354.46 409.087C354.353 408.985 354.3 408.863 354.3 408.719C354.3 408.576 354.353 408.453 354.46 408.351C354.568 408.249 354.698 408.198 354.848 408.198C354.998 408.198 355.126 408.249 355.232 408.351C355.341 408.453 355.395 408.576 355.395 408.719C355.395 408.863 355.341 408.985 355.232 409.087C355.126 409.19 354.998 409.241 354.848 409.241ZM358.733 415.185C358.251 415.185 357.835 415.078 357.485 414.865C357.137 414.65 356.869 414.351 356.68 413.966C356.493 413.579 356.4 413.13 356.4 412.617C356.4 412.104 356.493 411.652 356.68 411.261C356.869 410.868 357.132 410.562 357.469 410.342C357.808 410.12 358.203 410.01 358.655 410.01C358.916 410.01 359.173 410.053 359.427 410.14C359.681 410.227 359.913 410.368 360.121 410.564C360.33 410.757 360.496 411.013 360.62 411.333C360.744 411.652 360.806 412.045 360.806 412.513V412.838H356.947V412.174H360.024C360.024 411.891 359.967 411.639 359.854 411.418C359.743 411.196 359.585 411.021 359.378 410.893C359.174 410.765 358.933 410.701 358.655 410.701C358.349 410.701 358.083 410.777 357.86 410.929C357.638 411.079 357.468 411.274 357.348 411.515C357.229 411.756 357.169 412.015 357.169 412.291V412.734C357.169 413.112 357.234 413.433 357.364 413.696C357.497 413.956 357.68 414.155 357.915 414.292C358.15 414.427 358.422 414.494 358.733 414.494C358.935 414.494 359.118 414.466 359.281 414.409C359.446 414.351 359.588 414.264 359.708 414.149C359.827 414.031 359.919 413.886 359.985 413.712L360.728 413.92C360.649 414.172 360.518 414.394 360.333 414.585C360.149 414.774 359.92 414.922 359.649 415.028C359.377 415.133 359.072 415.185 358.733 415.185ZM365.521 411.196L364.831 411.391C364.787 411.276 364.723 411.164 364.638 411.056C364.556 410.945 364.443 410.854 364.299 410.782C364.156 410.71 363.972 410.674 363.749 410.674C363.442 410.674 363.187 410.745 362.983 410.886C362.781 411.025 362.68 411.202 362.68 411.418C362.68 411.609 362.749 411.76 362.888 411.871C363.027 411.981 363.245 412.074 363.54 412.148L364.283 412.33C364.731 412.439 365.064 412.605 365.284 412.829C365.503 413.05 365.613 413.336 365.613 413.686C365.613 413.973 365.53 414.229 365.365 414.455C365.202 414.681 364.974 414.859 364.681 414.989C364.387 415.12 364.046 415.185 363.657 415.185C363.147 415.185 362.724 415.074 362.39 414.852C362.055 414.631 361.843 414.307 361.754 413.881L362.484 413.699C362.554 413.968 362.685 414.17 362.878 414.305C363.074 414.44 363.329 414.507 363.644 414.507C364.003 414.507 364.287 414.431 364.498 414.279C364.711 414.125 364.818 413.94 364.818 413.725C364.818 413.551 364.757 413.405 364.635 413.288C364.513 413.169 364.327 413.08 364.075 413.021L363.24 412.825C362.782 412.717 362.445 412.548 362.23 412.32C362.017 412.09 361.911 411.802 361.911 411.457C361.911 411.174 361.99 410.924 362.148 410.707C362.309 410.49 362.528 410.319 362.804 410.195C363.082 410.072 363.397 410.01 363.749 410.01C364.244 410.01 364.633 410.118 364.915 410.336C365.2 410.553 365.402 410.84 365.521 411.196Z" fill="black"/>
</g>
<rect x="281.161" y="117.5" width="327.848" height="711.759" stroke="black"/>
<g clip-path="url(#clip1_983_2068)">
<rect x="848.88" y="117" width="328.848" height="712.759" fill="white"/>
<rect x="848.88" y="783.108" width="328.848" height="46.6505" fill="#D9D9D9"/>
<rect x="864.175" y="124.647" width="235.547" height="31.3553" rx="7.64763" fill="#D9D9D9"/>
<rect x="883.294" y="791.521" width="30.5905" height="30.5905" fill="#B1B1B1"/>
<rect x="940.651" y="791.521" width="30.5905" height="30.5905" fill="#B1B1B1"/>
<rect x="998.009" y="791.521" width="30.5905" height="30.5905" fill="#B1B1B1"/>
<rect x="1055.37" y="791.521" width="30.5905" height="30.5905" fill="#B1B1B1"/>
<rect x="1112.72" y="791.521" width="30.5905" height="30.5905" fill="#B1B1B1"/>
<rect x="864.175" y="221.772" width="141.481" height="141.481" fill="#D9D9D9"/>
<rect x="864.175" y="376.254" width="141.481" height="141.481" fill="#D9D9D9"/>
<rect x="1020.95" y="221.772" width="141.481" height="141.481" fill="#D9D9D9"/>
<rect x="1020.95" y="376.254" width="141.481" height="141.481" fill="#D9D9D9"/>
<rect x="1131.08" y="124.647" width="31.3553" height="31.3553" rx="15.6776" fill="#D9D9D9"/>
<path d="M866.913 200.343V199.626H871.918V200.343H869.82V206.3H869.011V200.343H866.913ZM874.369 206.405C873.917 206.405 873.521 206.297 873.18 206.082C872.841 205.867 872.576 205.566 872.384 205.179C872.195 204.792 872.101 204.341 872.101 203.824C872.101 203.302 872.195 202.847 872.384 202.458C872.576 202.069 872.841 201.767 873.18 201.552C873.521 201.337 873.917 201.229 874.369 201.229C874.821 201.229 875.216 201.337 875.555 201.552C875.896 201.767 876.162 202.069 876.351 202.458C876.542 202.847 876.637 203.302 876.637 203.824C876.637 204.341 876.542 204.792 876.351 205.179C876.162 205.566 875.896 205.867 875.555 206.082C875.216 206.297 874.821 206.405 874.369 206.405ZM874.369 205.714C874.712 205.714 874.995 205.626 875.216 205.45C875.438 205.274 875.602 205.042 875.709 204.756C875.815 204.469 875.868 204.158 875.868 203.824C875.868 203.489 875.815 203.177 875.709 202.888C875.602 202.599 875.438 202.366 875.216 202.188C874.995 202.009 874.712 201.92 874.369 201.92C874.026 201.92 873.743 202.009 873.522 202.188C873.3 202.366 873.136 202.599 873.03 202.888C872.923 203.177 872.87 203.489 872.87 203.824C872.87 204.158 872.923 204.469 873.03 204.756C873.136 205.042 873.3 205.274 873.522 205.45C873.743 205.626 874.026 205.714 874.369 205.714ZM877.811 208.177V201.295H878.554V202.09H878.646C878.702 202.003 878.78 201.892 878.88 201.757C878.982 201.62 879.128 201.499 879.317 201.392C879.508 201.284 879.767 201.229 880.093 201.229C880.514 201.229 880.886 201.335 881.207 201.546C881.529 201.756 881.78 202.055 881.96 202.442C882.14 202.828 882.23 203.285 882.23 203.81C882.23 204.341 882.14 204.8 881.96 205.189C881.78 205.576 881.53 205.876 881.21 206.088C880.891 206.299 880.523 206.405 880.106 206.405C879.784 206.405 879.527 206.351 879.333 206.245C879.14 206.136 878.991 206.014 878.887 205.877C878.783 205.738 878.702 205.622 878.646 205.531H878.58V208.177H877.811ZM878.567 203.797C878.567 204.175 878.623 204.509 878.734 204.798C878.844 205.085 879.006 205.31 879.219 205.473C879.432 205.633 879.693 205.714 880.001 205.714C880.323 205.714 880.591 205.629 880.806 205.459C881.024 205.288 881.187 205.058 881.295 204.769C881.406 204.477 881.461 204.154 881.461 203.797C881.461 203.445 881.407 203.128 881.298 202.846C881.192 202.561 881.03 202.336 880.813 202.171C880.598 202.004 880.327 201.92 880.001 201.92C879.689 201.92 879.426 202 879.213 202.158C879 202.315 878.839 202.534 878.73 202.816C878.622 203.097 878.567 203.424 878.567 203.797ZM887.458 206.418C887.141 206.418 886.853 206.358 886.594 206.238C886.336 206.117 886.13 205.942 885.978 205.714C885.826 205.483 885.75 205.205 885.75 204.879C885.75 204.593 885.807 204.36 885.92 204.182C886.033 204.002 886.184 203.86 886.373 203.758C886.562 203.656 886.77 203.58 886.998 203.53C887.229 203.478 887.46 203.437 887.692 203.406C887.997 203.367 888.243 203.338 888.432 203.318C888.623 203.297 888.762 203.261 888.849 203.211C888.938 203.161 888.983 203.074 888.983 202.95V202.924C888.983 202.602 888.895 202.353 888.719 202.174C888.545 201.996 888.281 201.907 887.927 201.907C887.56 201.907 887.272 201.988 887.063 202.148C886.855 202.309 886.708 202.481 886.624 202.663L885.894 202.403C886.024 202.098 886.198 201.862 886.415 201.692C886.634 201.521 886.873 201.401 887.132 201.334C887.393 201.264 887.649 201.229 887.901 201.229C888.062 201.229 888.246 201.249 888.455 201.288C888.666 201.325 888.869 201.402 889.064 201.519C889.262 201.637 889.426 201.814 889.557 202.051C889.687 202.287 889.752 202.605 889.752 203.002V206.3H888.983V205.622H888.944C888.892 205.731 888.805 205.847 888.683 205.971C888.562 206.095 888.4 206.2 888.198 206.287C887.996 206.374 887.749 206.418 887.458 206.418ZM887.575 205.727C887.879 205.727 888.136 205.667 888.344 205.547C888.555 205.428 888.714 205.274 888.82 205.085C888.929 204.896 888.983 204.697 888.983 204.488V203.784C888.95 203.824 888.879 203.859 888.768 203.892C888.659 203.922 888.533 203.95 888.39 203.973C888.249 203.995 888.111 204.015 887.976 204.032C887.843 204.047 887.736 204.06 887.653 204.071C887.453 204.097 887.267 204.14 887.093 204.198C886.921 204.255 886.782 204.341 886.676 204.456C886.571 204.569 886.519 204.723 886.519 204.919C886.519 205.186 886.618 205.388 886.816 205.525C887.016 205.659 887.269 205.727 887.575 205.727ZM891.925 199.626V206.3H891.156V199.626H891.925ZM893.438 206.3V199.626H894.207V202.09H894.272C894.329 202.003 894.407 201.892 894.507 201.757C894.609 201.62 894.755 201.499 894.944 201.392C895.135 201.284 895.393 201.229 895.719 201.229C896.141 201.229 896.512 201.335 896.834 201.546C897.155 201.756 897.406 202.055 897.587 202.442C897.767 202.828 897.857 203.285 897.857 203.81C897.857 204.341 897.767 204.8 897.587 205.189C897.406 205.576 897.156 205.876 896.837 206.088C896.518 206.299 896.149 206.405 895.732 206.405C895.411 206.405 895.153 206.351 894.96 206.245C894.767 206.136 894.618 206.014 894.513 205.877C894.409 205.738 894.329 205.622 894.272 205.531H894.181V206.3H893.438ZM894.194 203.797C894.194 204.175 894.249 204.509 894.36 204.798C894.471 205.085 894.633 205.31 894.846 205.473C895.059 205.633 895.319 205.714 895.628 205.714C895.95 205.714 896.218 205.629 896.433 205.459C896.65 205.288 896.813 205.058 896.922 204.769C897.033 204.477 897.088 204.154 897.088 203.797C897.088 203.445 897.034 203.128 896.925 202.846C896.819 202.561 896.657 202.336 896.439 202.171C896.224 202.004 895.954 201.92 895.628 201.92C895.315 201.92 895.052 202 894.839 202.158C894.626 202.315 894.466 202.534 894.357 202.816C894.248 203.097 894.194 203.424 894.194 203.797ZM902.188 204.254V201.295H902.957V206.3H902.188V205.453H902.136C902.019 205.707 901.836 205.923 901.589 206.101C901.341 206.277 901.028 206.365 900.65 206.365C900.337 206.365 900.059 206.297 899.816 206.16C899.572 206.021 899.381 205.813 899.242 205.534C899.103 205.254 899.034 204.901 899.034 204.475V201.295H899.803V204.423C899.803 204.788 899.905 205.079 900.109 205.297C900.315 205.514 900.578 205.622 900.898 205.622C901.089 205.622 901.283 205.574 901.481 205.476C901.681 205.378 901.848 205.228 901.983 205.026C902.12 204.824 902.188 204.567 902.188 204.254ZM904.366 206.3V201.295H905.109V202.077H905.174C905.278 201.809 905.447 201.602 905.679 201.454C905.912 201.304 906.191 201.229 906.517 201.229C906.847 201.229 907.122 201.304 907.341 201.454C907.563 201.602 907.736 201.809 907.86 202.077H907.912C908.04 201.818 908.232 201.613 908.489 201.461C908.745 201.307 909.052 201.229 909.411 201.229C909.858 201.229 910.224 201.37 910.509 201.65C910.794 201.928 910.936 202.361 910.936 202.95V206.3H910.167V202.95C910.167 202.581 910.066 202.317 909.864 202.158C909.662 202 909.424 201.92 909.15 201.92C908.798 201.92 908.525 202.027 908.332 202.24C908.139 202.45 908.042 202.718 908.042 203.041V206.3H907.26V202.872C907.26 202.587 907.168 202.358 906.983 202.184C906.798 202.008 906.56 201.92 906.269 201.92C906.069 201.92 905.882 201.974 905.709 202.08C905.537 202.186 905.398 202.334 905.292 202.523C905.187 202.71 905.135 202.926 905.135 203.172V206.3H904.366ZM915.888 202.416L915.197 202.611C915.154 202.496 915.089 202.384 915.005 202.276C914.922 202.165 914.809 202.073 914.666 202.002C914.522 201.93 914.339 201.894 914.115 201.894C913.809 201.894 913.553 201.965 913.349 202.106C913.147 202.245 913.046 202.422 913.046 202.637C913.046 202.828 913.116 202.979 913.255 203.09C913.394 203.201 913.611 203.293 913.907 203.367L914.65 203.55C915.097 203.658 915.431 203.825 915.65 204.048C915.869 204.27 915.979 204.556 915.979 204.905C915.979 205.192 915.897 205.449 915.732 205.675C915.569 205.901 915.34 206.079 915.047 206.209C914.754 206.339 914.413 206.405 914.024 206.405C913.513 206.405 913.091 206.294 912.756 206.072C912.422 205.851 912.21 205.527 912.121 205.101L912.851 204.919C912.92 205.188 913.052 205.39 913.245 205.525C913.44 205.659 913.696 205.727 914.011 205.727C914.369 205.727 914.654 205.651 914.865 205.499C915.078 205.344 915.184 205.16 915.184 204.945C915.184 204.771 915.123 204.625 915.002 204.508C914.88 204.388 914.693 204.299 914.441 204.241L913.607 204.045C913.148 203.936 912.812 203.768 912.596 203.54C912.383 203.31 912.277 203.022 912.277 202.676C912.277 202.394 912.356 202.144 912.515 201.927C912.676 201.71 912.894 201.539 913.17 201.415C913.448 201.291 913.763 201.229 914.115 201.229C914.61 201.229 914.999 201.338 915.282 201.555C915.566 201.773 915.768 202.059 915.888 202.416Z" fill="black"/>
<circle cx="908.914" cy="642.01" r="44.7386" fill="#D9D9D9"/>
<ellipse cx="1013.3" cy="642.01" rx="45.121" ry="44.7386" fill="#D9D9D9"/>
<circle cx="1117.69" cy="642.01" r="44.7386" fill="#D9D9D9"/>
<path d="M869.972 568.194V567.477H874.977V568.194H872.879V574.151H872.071V568.194H869.972ZM875.601 574.151V569.145H876.344V569.901H876.396C876.487 569.654 876.652 569.453 876.891 569.298C877.13 569.144 877.4 569.067 877.7 569.067C877.756 569.067 877.827 569.068 877.911 569.07C877.996 569.072 878.06 569.076 878.104 569.08V569.862C878.078 569.856 878.018 569.846 877.924 569.833C877.833 569.818 877.736 569.81 877.634 569.81C877.391 569.81 877.174 569.861 876.983 569.963C876.794 570.063 876.644 570.202 876.533 570.38C876.424 570.556 876.37 570.757 876.37 570.983V574.151H875.601ZM880.962 574.255C880.479 574.255 880.063 574.149 879.714 573.936C879.366 573.721 879.098 573.421 878.909 573.036C878.722 572.65 878.628 572.2 878.628 571.687C878.628 571.174 878.722 570.722 878.909 570.331C879.098 569.938 879.36 569.632 879.697 569.412C880.036 569.191 880.432 569.08 880.884 569.08C881.144 569.08 881.402 569.123 881.656 569.21C881.91 569.297 882.141 569.438 882.35 569.634C882.559 569.827 882.725 570.084 882.849 570.403C882.972 570.722 883.034 571.116 883.034 571.583V571.909H879.176V571.244H882.252C882.252 570.961 882.196 570.709 882.083 570.488C881.972 570.266 881.813 570.091 881.607 569.963C881.403 569.835 881.162 569.771 880.884 569.771C880.577 569.771 880.312 569.847 880.088 569.999C879.867 570.149 879.696 570.344 879.577 570.586C879.457 570.827 879.397 571.085 879.397 571.361V571.804C879.397 572.182 879.463 572.503 879.593 572.766C879.725 573.027 879.909 573.225 880.144 573.362C880.378 573.497 880.651 573.564 880.962 573.564C881.164 573.564 881.346 573.536 881.509 573.48C881.674 573.421 881.817 573.334 881.936 573.219C882.056 573.102 882.148 572.956 882.213 572.782L882.956 572.991C882.878 573.243 882.747 573.464 882.562 573.656C882.377 573.845 882.149 573.992 881.877 574.099C881.606 574.203 881.301 574.255 880.962 574.255ZM884.973 571.14V574.151H884.204V569.145H884.947V569.927H885.013C885.13 569.673 885.308 569.469 885.547 569.315C885.786 569.158 886.095 569.08 886.473 569.08C886.811 569.08 887.108 569.15 887.362 569.289C887.616 569.425 887.814 569.634 887.955 569.914C888.097 570.192 888.167 570.544 888.167 570.97V574.151H887.398V571.022C887.398 570.629 887.296 570.323 887.092 570.103C886.888 569.882 886.607 569.771 886.251 569.771C886.005 569.771 885.786 569.824 885.593 569.931C885.401 570.037 885.25 570.192 885.14 570.397C885.029 570.601 884.973 570.848 884.973 571.14ZM891.463 574.255C891.046 574.255 890.677 574.15 890.358 573.939C890.039 573.726 889.789 573.426 889.608 573.04C889.428 572.651 889.338 572.191 889.338 571.661C889.338 571.135 889.428 570.679 889.608 570.292C889.789 569.906 890.04 569.607 890.361 569.396C890.683 569.185 891.054 569.08 891.476 569.08C891.802 569.08 892.059 569.134 892.248 569.243C892.439 569.349 892.585 569.471 892.685 569.608C892.787 569.743 892.866 569.853 892.923 569.94H892.988V567.477H893.757V574.151H893.014V573.382H892.923C892.866 573.473 892.786 573.588 892.682 573.727C892.577 573.864 892.429 573.987 892.235 574.095C892.042 574.202 891.784 574.255 891.463 574.255ZM891.567 573.564C891.876 573.564 892.136 573.484 892.349 573.323C892.562 573.16 892.724 572.935 892.835 572.649C892.946 572.36 893.001 572.026 893.001 571.648C893.001 571.274 892.947 570.947 892.838 570.667C892.729 570.385 892.569 570.165 892.356 570.009C892.143 569.85 891.88 569.771 891.567 569.771C891.241 569.771 890.97 569.855 890.752 570.022C890.537 570.187 890.375 570.412 890.267 570.696C890.16 570.979 890.107 571.296 890.107 571.648C890.107 572.004 890.161 572.328 890.27 572.619C890.381 572.908 890.544 573.138 890.759 573.31C890.976 573.48 891.246 573.564 891.567 573.564ZM895.273 574.151V569.145H896.042V574.151H895.273ZM895.664 568.311C895.514 568.311 895.384 568.26 895.276 568.158C895.169 568.056 895.116 567.933 895.116 567.789C895.116 567.646 895.169 567.523 895.276 567.421C895.384 567.319 895.514 567.268 895.664 567.268C895.813 567.268 895.942 567.319 896.048 567.421C896.157 567.523 896.211 567.646 896.211 567.789C896.211 567.933 896.157 568.056 896.048 568.158C895.942 568.26 895.813 568.311 895.664 568.311ZM898.219 571.14V574.151H897.45V569.145H898.193V569.927H898.258C898.376 569.673 898.554 569.469 898.793 569.315C899.032 569.158 899.34 569.08 899.718 569.08C900.057 569.08 900.354 569.15 900.608 569.289C900.862 569.425 901.06 569.634 901.201 569.914C901.343 570.192 901.413 570.544 901.413 570.97V574.151H900.644V571.022C900.644 570.629 900.542 570.323 900.338 570.103C900.133 569.882 899.853 569.771 899.497 569.771C899.251 569.771 899.032 569.824 898.839 569.931C898.647 570.037 898.496 570.192 898.386 570.397C898.275 570.601 898.219 570.848 898.219 571.14ZM904.839 576.132C904.468 576.132 904.148 576.085 903.881 575.989C903.614 575.895 903.391 575.772 903.213 575.617C903.037 575.465 902.897 575.302 902.792 575.129L903.405 574.698C903.475 574.79 903.563 574.894 903.669 575.011C903.776 575.131 903.921 575.234 904.106 575.321C904.293 575.41 904.537 575.454 904.839 575.454C905.243 575.454 905.577 575.357 905.84 575.161C906.102 574.966 906.234 574.659 906.234 574.242V573.225H906.169C906.112 573.317 906.032 573.43 905.928 573.564C905.825 573.697 905.678 573.815 905.484 573.919C905.293 574.022 905.035 574.073 904.709 574.073C904.305 574.073 903.942 573.977 903.62 573.786C903.301 573.595 903.048 573.317 902.861 572.952C902.676 572.587 902.584 572.143 902.584 571.622C902.584 571.109 902.674 570.663 902.854 570.283C903.035 569.9 903.286 569.605 903.607 569.396C903.929 569.185 904.3 569.08 904.722 569.08C905.048 569.08 905.306 569.134 905.497 569.243C905.691 569.349 905.839 569.471 905.941 569.608C906.045 569.743 906.125 569.853 906.182 569.94H906.26V569.145H907.003V574.294C907.003 574.724 906.905 575.074 906.71 575.344C906.516 575.615 906.256 575.814 905.928 575.94C905.602 576.068 905.239 576.132 904.839 576.132ZM904.813 573.382C905.122 573.382 905.382 573.311 905.595 573.17C905.808 573.029 905.97 572.826 906.081 572.561C906.192 572.295 906.247 571.978 906.247 571.609C906.247 571.248 906.193 570.93 906.084 570.654C905.975 570.378 905.815 570.162 905.602 570.006C905.389 569.849 905.126 569.771 904.813 569.771C904.487 569.771 904.216 569.853 903.998 570.019C903.783 570.184 903.621 570.405 903.513 570.683C903.406 570.961 903.353 571.27 903.353 571.609C903.353 571.957 903.407 572.264 903.516 572.531C903.627 572.796 903.79 573.005 904.005 573.157C904.222 573.307 904.491 573.382 904.813 573.382ZM912.465 574.268C912.148 574.268 911.86 574.208 911.601 574.089C911.343 573.967 911.138 573.792 910.985 573.564C910.833 573.334 910.757 573.056 910.757 572.73C910.757 572.443 910.814 572.211 910.927 572.033C911.04 571.852 911.191 571.711 911.38 571.609C911.569 571.507 911.777 571.431 912.005 571.381C912.236 571.329 912.467 571.287 912.7 571.257C913.004 571.218 913.25 571.189 913.439 571.169C913.631 571.147 913.77 571.111 913.857 571.061C913.946 571.011 913.99 570.925 913.99 570.801V570.775C913.99 570.453 913.902 570.203 913.726 570.025C913.552 569.847 913.288 569.758 912.934 569.758C912.567 569.758 912.279 569.838 912.071 569.999C911.862 570.16 911.715 570.331 911.631 570.514L910.901 570.253C911.031 569.949 911.205 569.712 911.422 569.543C911.642 569.371 911.881 569.252 912.139 569.184C912.4 569.115 912.656 569.08 912.908 569.08C913.069 569.08 913.254 569.1 913.462 569.139C913.673 569.176 913.876 569.253 914.072 569.37C914.269 569.487 914.433 569.664 914.564 569.901C914.694 570.138 914.759 570.455 914.759 570.853V574.151H913.99V573.473H913.951C913.899 573.582 913.812 573.698 913.69 573.822C913.569 573.946 913.407 574.051 913.205 574.138C913.003 574.225 912.756 574.268 912.465 574.268ZM912.582 573.577C912.886 573.577 913.143 573.518 913.351 573.398C913.562 573.279 913.721 573.124 913.827 572.935C913.936 572.746 913.99 572.547 913.99 572.339V571.635C913.958 571.674 913.886 571.71 913.775 571.743C913.666 571.773 913.54 571.8 913.397 571.824C913.256 571.846 913.118 571.865 912.983 571.883C912.851 571.898 912.743 571.911 912.661 571.922C912.461 571.948 912.274 571.99 912.1 572.049C911.928 572.105 911.789 572.191 911.683 572.306C911.579 572.419 911.526 572.574 911.526 572.769C911.526 573.036 911.625 573.238 911.823 573.375C912.023 573.51 912.276 573.577 912.582 573.577ZM916.163 574.151V569.145H916.906V569.901H916.958C917.05 569.654 917.215 569.453 917.454 569.298C917.693 569.144 917.962 569.067 918.262 569.067C918.318 569.067 918.389 569.068 918.474 569.07C918.558 569.072 918.622 569.076 918.666 569.08V569.862C918.64 569.856 918.58 569.846 918.487 569.833C918.395 569.818 918.299 569.81 918.197 569.81C917.953 569.81 917.736 569.861 917.545 569.963C917.356 570.063 917.206 570.202 917.095 570.38C916.986 570.556 916.932 570.757 916.932 570.983V574.151H916.163ZM922.068 569.145V569.797H919.474V569.145H922.068ZM920.23 567.946H920.999V572.717C920.999 572.934 921.031 573.097 921.094 573.206C921.159 573.312 921.242 573.384 921.342 573.421C921.444 573.456 921.551 573.473 921.664 573.473C921.749 573.473 921.818 573.469 921.873 573.46C921.927 573.449 921.97 573.44 922.003 573.434L922.16 574.125C922.107 574.144 922.035 574.164 921.941 574.183C921.848 574.205 921.729 574.216 921.586 574.216C921.369 574.216 921.156 574.169 920.947 574.076C920.741 573.983 920.569 573.84 920.432 573.649C920.298 573.458 920.23 573.217 920.23 572.926V567.946ZM923.225 574.151V569.145H923.994V574.151H923.225ZM923.616 568.311C923.466 568.311 923.337 568.26 923.228 568.158C923.122 568.056 923.069 567.933 923.069 567.789C923.069 567.646 923.122 567.523 923.228 567.421C923.337 567.319 923.466 567.268 923.616 567.268C923.766 567.268 923.894 567.319 924.001 567.421C924.109 567.523 924.164 567.646 924.164 567.789C924.164 567.933 924.109 568.056 924.001 568.158C923.894 568.26 923.766 568.311 923.616 568.311ZM928.949 570.266L928.258 570.462C928.214 570.347 928.15 570.235 928.066 570.126C927.983 570.015 927.87 569.924 927.727 569.852C927.583 569.781 927.4 569.745 927.176 569.745C926.869 569.745 926.614 569.815 926.41 569.957C926.208 570.096 926.107 570.273 926.107 570.488C926.107 570.679 926.176 570.83 926.315 570.941C926.455 571.052 926.672 571.144 926.967 571.218L927.71 571.4C928.158 571.509 928.491 571.675 928.711 571.899C928.93 572.121 929.04 572.406 929.04 572.756C929.04 573.043 928.957 573.299 928.792 573.525C928.629 573.751 928.401 573.929 928.108 574.06C927.815 574.19 927.473 574.255 927.085 574.255C926.574 574.255 926.151 574.144 925.817 573.923C925.482 573.701 925.27 573.377 925.181 572.952L925.911 572.769C925.981 573.038 926.112 573.241 926.306 573.375C926.501 573.51 926.757 573.577 927.072 573.577C927.43 573.577 927.715 573.501 927.925 573.349C928.138 573.195 928.245 573.01 928.245 572.795C928.245 572.621 928.184 572.476 928.062 572.358C927.941 572.239 927.754 572.15 927.502 572.091L926.667 571.896C926.209 571.787 925.872 571.619 925.657 571.391C925.444 571.16 925.338 570.872 925.338 570.527C925.338 570.245 925.417 569.995 925.576 569.777C925.736 569.56 925.955 569.39 926.231 569.266C926.509 569.142 926.824 569.08 927.176 569.08C927.671 569.08 928.06 569.189 928.343 569.406C928.627 569.623 928.829 569.91 928.949 570.266ZM932.375 569.145V569.797H929.781V569.145H932.375ZM930.537 567.946H931.306V572.717C931.306 572.934 931.337 573.097 931.4 573.206C931.465 573.312 931.548 573.384 931.648 573.421C931.75 573.456 931.858 573.473 931.971 573.473C932.055 573.473 932.125 573.469 932.179 573.46C932.233 573.449 932.277 573.44 932.309 573.434L932.466 574.125C932.414 574.144 932.341 574.164 932.248 574.183C932.154 574.205 932.036 574.216 931.892 574.216C931.675 574.216 931.462 574.169 931.254 574.076C931.047 573.983 930.876 573.84 930.739 573.649C930.604 573.458 930.537 573.217 930.537 572.926V567.946ZM936.988 570.266L936.297 570.462C936.253 570.347 936.189 570.235 936.104 570.126C936.022 570.015 935.909 569.924 935.766 569.852C935.622 569.781 935.439 569.745 935.215 569.745C934.908 569.745 934.653 569.815 934.449 569.957C934.247 570.096 934.146 570.273 934.146 570.488C934.146 570.679 934.215 570.83 934.354 570.941C934.493 571.052 934.711 571.144 935.006 571.218L935.749 571.4C936.197 571.509 936.53 571.675 936.75 571.899C936.969 572.121 937.079 572.406 937.079 572.756C937.079 573.043 936.996 573.299 936.831 573.525C936.668 573.751 936.44 573.929 936.147 574.06C935.854 574.19 935.512 574.255 935.124 574.255C934.613 574.255 934.19 574.144 933.856 573.923C933.521 573.701 933.309 573.377 933.22 572.952L933.95 572.769C934.02 573.038 934.151 573.241 934.345 573.375C934.54 573.51 934.795 573.577 935.111 573.577C935.469 573.577 935.754 573.501 935.964 573.349C936.177 573.195 936.284 573.01 936.284 572.795C936.284 572.621 936.223 572.476 936.101 572.358C935.98 572.239 935.793 572.15 935.541 572.091L934.706 571.896C934.248 571.787 933.911 571.619 933.696 571.391C933.483 571.16 933.377 570.872 933.377 570.527C933.377 570.245 933.456 569.995 933.615 569.777C933.775 569.56 933.994 569.39 934.27 569.266C934.548 569.142 934.863 569.08 935.215 569.08C935.71 569.08 936.099 569.189 936.381 569.406C936.666 569.623 936.868 569.91 936.988 570.266Z" fill="black"/>
</g>
<rect x="849.38" y="117.5" width="327.848" height="711.759" stroke="black"/>
<path d="M154.699 136.343C154.401 136.642 154.401 137.126 154.699 137.425L159.566 142.291C159.865 142.59 160.349 142.59 160.648 142.291C160.947 141.993 160.947 141.509 160.648 141.21L156.322 136.884L160.648 132.558C160.947 132.259 160.947 131.775 160.648 131.476C160.349 131.177 159.865 131.177 159.566 131.476L154.699 136.343ZM295.957 136.119L155.24 136.119L155.24 137.649L295.957 137.649L295.957 136.119Z" fill="black"/>
<path d="M95.4582 135.525C95.4191 135.194 95.2605 134.938 94.9824 134.755C94.7043 134.573 94.3632 134.482 93.9591 134.482C93.6636 134.482 93.4051 134.529 93.1835 134.625C92.9641 134.721 92.7924 134.852 92.6686 135.019C92.5469 135.187 92.4861 135.377 92.4861 135.59C92.4861 135.768 92.5284 135.921 92.6132 136.049C92.7001 136.175 92.8109 136.281 92.9456 136.365C93.0803 136.448 93.2215 136.516 93.3692 136.571C93.517 136.623 93.6528 136.665 93.7766 136.698L94.4545 136.88C94.6283 136.926 94.8216 136.989 95.0346 137.069C95.2496 137.15 95.455 137.259 95.6505 137.398C95.8482 137.535 96.0112 137.711 96.1393 137.926C96.2675 138.141 96.3316 138.405 96.3316 138.718C96.3316 139.079 96.2371 139.405 96.0481 139.696C95.8612 139.987 95.5875 140.219 95.2268 140.39C94.8684 140.562 94.4327 140.648 93.92 140.648C93.442 140.648 93.0281 140.57 92.6784 140.416C92.3307 140.262 92.057 140.047 91.8571 139.771C91.6594 139.495 91.5475 139.175 91.5214 138.81H92.3557C92.3774 139.062 92.4622 139.27 92.6099 139.435C92.7598 139.598 92.9488 139.72 93.177 139.8C93.4073 139.878 93.6549 139.918 93.92 139.918C94.2285 139.918 94.5055 139.868 94.751 139.768C94.9965 139.666 95.191 139.524 95.3344 139.344C95.4778 139.162 95.5495 138.949 95.5495 138.705C95.5495 138.484 95.4876 138.303 95.3637 138.164C95.2399 138.025 95.0769 137.912 94.8749 137.825C94.6728 137.738 94.4545 137.662 94.2198 137.597L93.3986 137.363C92.8771 137.213 92.4643 136.999 92.1602 136.721C91.856 136.442 91.7039 136.079 91.7039 135.629C91.7039 135.255 91.805 134.929 92.007 134.651C92.2112 134.371 92.485 134.154 92.8283 133.999C93.1737 133.843 93.5593 133.765 93.9852 133.765C94.4154 133.765 94.7977 133.842 95.1323 133.996C95.4669 134.148 95.732 134.357 95.9275 134.622C96.1252 134.887 96.2295 135.188 96.2404 135.525H95.4582ZM99.6549 140.635C99.1726 140.635 98.7565 140.528 98.4067 140.315C98.0591 140.1 97.7908 139.8 97.6018 139.416C97.4149 139.029 97.3215 138.579 97.3215 138.067C97.3215 137.554 97.4149 137.102 97.6018 136.711C97.7908 136.318 98.0537 136.011 98.3904 135.792C98.7294 135.57 99.1248 135.459 99.5767 135.459C99.8374 135.459 100.095 135.503 100.349 135.59C100.603 135.677 100.835 135.818 101.043 136.013C101.252 136.207 101.418 136.463 101.542 136.783C101.666 137.102 101.728 137.495 101.728 137.962V138.288H97.869V137.623H100.945C100.945 137.341 100.889 137.089 100.776 136.867C100.665 136.646 100.507 136.471 100.3 136.343C100.096 136.214 99.8548 136.15 99.5767 136.15C99.2704 136.15 99.0053 136.226 98.7815 136.378C98.5599 136.528 98.3894 136.724 98.2699 136.965C98.1504 137.206 98.0906 137.465 98.0906 137.741V138.184C98.0906 138.562 98.1558 138.882 98.2862 139.145C98.4187 139.406 98.6023 139.605 98.8369 139.742C99.0716 139.876 99.3442 139.944 99.6549 139.944C99.857 139.944 100.039 139.915 100.202 139.859C100.368 139.8 100.51 139.713 100.629 139.598C100.749 139.481 100.841 139.335 100.906 139.162L101.649 139.37C101.571 139.622 101.44 139.844 101.255 140.035C101.07 140.224 100.842 140.372 100.571 140.478C100.299 140.582 99.9938 140.635 99.6549 140.635ZM104.371 140.648C104.053 140.648 103.766 140.588 103.507 140.468C103.248 140.347 103.043 140.172 102.891 139.944C102.739 139.713 102.663 139.435 102.663 139.109C102.663 138.823 102.719 138.59 102.832 138.412C102.945 138.232 103.096 138.09 103.285 137.988C103.474 137.886 103.683 137.81 103.911 137.76C104.141 137.708 104.373 137.667 104.605 137.636C104.909 137.597 105.156 137.568 105.345 137.548C105.536 137.527 105.675 137.491 105.762 137.441C105.851 137.391 105.896 137.304 105.896 137.18V137.154C105.896 136.832 105.808 136.583 105.632 136.404C105.458 136.226 105.194 136.137 104.84 136.137C104.473 136.137 104.185 136.218 103.976 136.378C103.768 136.539 103.621 136.711 103.536 136.893L102.806 136.633C102.937 136.328 103.11 136.092 103.328 135.922C103.547 135.751 103.786 135.631 104.045 135.564C104.305 135.494 104.562 135.459 104.814 135.459C104.975 135.459 105.159 135.479 105.368 135.518C105.579 135.555 105.782 135.632 105.977 135.749C106.175 135.867 106.339 136.044 106.469 136.281C106.6 136.517 106.665 136.835 106.665 137.232V140.53H105.896V139.852H105.857C105.805 139.961 105.718 140.077 105.596 140.201C105.474 140.325 105.312 140.43 105.11 140.517C104.908 140.604 104.662 140.648 104.371 140.648ZM104.488 139.957C104.792 139.957 105.048 139.897 105.257 139.777C105.468 139.658 105.626 139.504 105.733 139.315C105.841 139.126 105.896 138.927 105.896 138.718V138.014C105.863 138.053 105.791 138.089 105.681 138.122C105.572 138.152 105.446 138.179 105.303 138.203C105.161 138.225 105.023 138.245 104.889 138.262C104.756 138.277 104.649 138.29 104.566 138.301C104.366 138.327 104.179 138.37 104.006 138.428C103.834 138.485 103.695 138.571 103.588 138.686C103.484 138.799 103.432 138.953 103.432 139.148C103.432 139.416 103.531 139.618 103.729 139.755C103.928 139.889 104.182 139.957 104.488 139.957ZM108.069 140.53V135.525H108.812V136.281H108.864C108.955 136.033 109.12 135.832 109.359 135.678C109.598 135.523 109.868 135.446 110.167 135.446C110.224 135.446 110.295 135.447 110.379 135.45C110.464 135.452 110.528 135.455 110.572 135.459V136.242C110.545 136.235 110.486 136.225 110.392 136.212C110.301 136.197 110.204 136.189 110.102 136.189C109.859 136.189 109.642 136.24 109.45 136.343C109.261 136.442 109.112 136.582 109.001 136.76C108.892 136.936 108.838 137.137 108.838 137.363V140.53H108.069ZM113.364 140.635C112.895 140.635 112.491 140.524 112.152 140.302C111.813 140.081 111.552 139.775 111.37 139.386C111.187 138.997 111.096 138.553 111.096 138.053C111.096 137.545 111.19 137.096 111.376 136.708C111.565 136.316 111.828 136.011 112.165 135.792C112.504 135.57 112.899 135.459 113.351 135.459C113.703 135.459 114.021 135.525 114.303 135.655C114.585 135.785 114.817 135.968 114.997 136.202C115.177 136.437 115.289 136.711 115.333 137.024H114.564C114.505 136.796 114.375 136.593 114.173 136.418C113.973 136.239 113.703 136.15 113.364 136.15C113.065 136.15 112.802 136.228 112.576 136.385C112.352 136.539 112.177 136.758 112.051 137.04C111.927 137.32 111.865 137.649 111.865 138.027C111.865 138.414 111.926 138.751 112.048 139.038C112.172 139.324 112.345 139.547 112.569 139.706C112.795 139.864 113.06 139.944 113.364 139.944C113.564 139.944 113.746 139.909 113.909 139.839C114.072 139.77 114.21 139.67 114.323 139.54C114.436 139.409 114.516 139.253 114.564 139.07H115.333C115.289 139.366 115.182 139.632 115.01 139.869C114.841 140.103 114.616 140.29 114.336 140.429C114.057 140.566 113.734 140.635 113.364 140.635ZM117.226 137.519V140.53H116.457V133.856H117.226V136.307H117.291C117.409 136.048 117.585 135.843 117.819 135.691C118.056 135.537 118.371 135.459 118.764 135.459C119.106 135.459 119.404 135.528 119.661 135.665C119.917 135.799 120.116 136.007 120.257 136.287C120.4 136.565 120.472 136.919 120.472 137.35V140.53H119.703V137.402C119.703 137.004 119.6 136.697 119.393 136.479C119.189 136.26 118.906 136.15 118.543 136.15C118.291 136.15 118.065 136.203 117.865 136.31C117.667 136.416 117.511 136.572 117.396 136.776C117.283 136.98 117.226 137.228 117.226 137.519ZM124.565 140.53V133.856H125.334V136.32H125.399C125.455 136.233 125.534 136.122 125.633 135.987C125.736 135.85 125.881 135.729 126.07 135.622C126.261 135.514 126.52 135.459 126.846 135.459C127.267 135.459 127.639 135.565 127.96 135.775C128.282 135.986 128.533 136.285 128.713 136.672C128.894 137.058 128.984 137.515 128.984 138.04C128.984 138.571 128.894 139.03 128.713 139.419C128.533 139.806 128.283 140.106 127.964 140.318C127.644 140.529 127.276 140.635 126.859 140.635C126.537 140.635 126.28 140.581 126.086 140.475C125.893 140.366 125.744 140.243 125.64 140.107C125.536 139.968 125.455 139.852 125.399 139.761H125.308V140.53H124.565ZM125.321 138.027C125.321 138.405 125.376 138.739 125.487 139.028C125.598 139.315 125.76 139.54 125.972 139.703C126.185 139.863 126.446 139.944 126.755 139.944C127.076 139.944 127.344 139.859 127.56 139.689C127.777 139.518 127.94 139.288 128.048 138.999C128.159 138.707 128.215 138.384 128.215 138.027C128.215 137.675 128.16 137.358 128.052 137.076C127.945 136.791 127.783 136.566 127.566 136.401C127.351 136.234 127.08 136.15 126.755 136.15C126.442 136.15 126.179 136.23 125.966 136.388C125.753 136.545 125.592 136.764 125.484 137.046C125.375 137.327 125.321 137.654 125.321 138.027ZM131.633 140.648C131.316 140.648 131.028 140.588 130.77 140.468C130.511 140.347 130.306 140.172 130.154 139.944C130.002 139.713 129.926 139.435 129.926 139.109C129.926 138.823 129.982 138.59 130.095 138.412C130.208 138.232 130.359 138.09 130.548 137.988C130.737 137.886 130.946 137.81 131.174 137.76C131.404 137.708 131.635 137.667 131.868 137.636C132.172 137.597 132.419 137.568 132.608 137.548C132.799 137.527 132.938 137.491 133.025 137.441C133.114 137.391 133.158 137.304 133.158 137.18V137.154C133.158 136.832 133.07 136.583 132.894 136.404C132.721 136.226 132.457 136.137 132.102 136.137C131.735 136.137 131.447 136.218 131.239 136.378C131.03 136.539 130.884 136.711 130.799 136.893L130.069 136.633C130.199 136.328 130.373 136.092 130.59 135.922C130.81 135.751 131.049 135.631 131.307 135.564C131.568 135.494 131.824 135.459 132.076 135.459C132.237 135.459 132.422 135.479 132.63 135.518C132.841 135.555 133.044 135.632 133.24 135.749C133.438 135.867 133.602 136.044 133.732 136.281C133.862 136.517 133.927 136.835 133.927 137.232V140.53H133.158V139.852H133.119C133.067 139.961 132.98 140.077 132.859 140.201C132.737 140.325 132.575 140.43 132.373 140.517C132.171 140.604 131.924 140.648 131.633 140.648ZM131.751 139.957C132.055 139.957 132.311 139.897 132.52 139.777C132.73 139.658 132.889 139.504 132.995 139.315C133.104 139.126 133.158 138.927 133.158 138.718V138.014C133.126 138.053 133.054 138.089 132.943 138.122C132.835 138.152 132.709 138.179 132.565 138.203C132.424 138.225 132.286 138.245 132.151 138.262C132.019 138.277 131.911 138.29 131.829 138.301C131.629 138.327 131.442 138.37 131.268 138.428C131.097 138.485 130.958 138.571 130.851 138.686C130.747 138.799 130.695 138.953 130.695 139.148C130.695 139.416 130.793 139.618 130.991 139.755C131.191 139.889 131.444 139.957 131.751 139.957ZM135.331 140.53V135.525H136.074V136.281H136.126C136.218 136.033 136.383 135.832 136.622 135.678C136.861 135.523 137.13 135.446 137.43 135.446C137.486 135.446 137.557 135.447 137.642 135.45C137.727 135.452 137.791 135.455 137.834 135.459V136.242C137.808 136.235 137.748 136.225 137.655 136.212C137.564 136.197 137.467 136.189 137.365 136.189C137.121 136.189 136.904 136.24 136.713 136.343C136.524 136.442 136.374 136.582 136.263 136.76C136.155 136.936 136.1 137.137 136.1 137.363V140.53H135.331Z" fill="black"/>
<path d="M318.943 885.409V878.735H319.751V881.707H323.31V878.735H324.118V885.409H323.31V882.424H319.751V885.409H318.943ZM327.665 885.513C327.213 885.513 326.817 885.406 326.476 885.191C326.137 884.976 325.872 884.675 325.681 884.288C325.492 883.901 325.397 883.449 325.397 882.932C325.397 882.411 325.492 881.956 325.681 881.567C325.872 881.178 326.137 880.876 326.476 880.661C326.817 880.446 327.213 880.338 327.665 880.338C328.117 880.338 328.513 880.446 328.852 880.661C329.193 880.876 329.458 881.178 329.647 881.567C329.838 881.956 329.933 882.411 329.933 882.932C329.933 883.449 329.838 883.901 329.647 884.288C329.458 884.675 329.193 884.976 328.852 885.191C328.513 885.406 328.117 885.513 327.665 885.513ZM327.665 884.823C328.009 884.823 328.291 884.735 328.513 884.559C328.734 884.383 328.898 884.151 329.005 883.864C329.111 883.578 329.164 883.267 329.164 882.932C329.164 882.598 329.111 882.286 329.005 881.997C328.898 881.708 328.734 881.475 328.513 881.296C328.291 881.118 328.009 881.029 327.665 881.029C327.322 881.029 327.04 881.118 326.818 881.296C326.596 881.475 326.432 881.708 326.326 881.997C326.219 882.286 326.166 882.598 326.166 882.932C326.166 883.267 326.219 883.578 326.326 883.864C326.432 884.151 326.596 884.383 326.818 884.559C327.04 884.735 327.322 884.823 327.665 884.823ZM331.108 885.409V880.403H331.851V881.186H331.916C332.02 880.918 332.188 880.711 332.421 880.563C332.653 880.413 332.933 880.338 333.258 880.338C333.589 880.338 333.863 880.413 334.083 880.563C334.305 880.711 334.477 880.918 334.601 881.186H334.653C334.781 880.927 334.974 880.722 335.23 880.57C335.486 880.415 335.794 880.338 336.152 880.338C336.6 880.338 336.966 880.478 337.251 880.759C337.535 881.037 337.678 881.47 337.678 882.059V885.409H336.908V882.059C336.908 881.69 336.807 881.426 336.605 881.267C336.403 881.108 336.165 881.029 335.892 881.029C335.54 881.029 335.267 881.136 335.074 881.349C334.88 881.559 334.784 881.827 334.784 882.15V885.409H334.001V881.981C334.001 881.696 333.909 881.467 333.724 881.293C333.54 881.117 333.302 881.029 333.011 881.029C332.811 881.029 332.624 881.082 332.45 881.189C332.279 881.295 332.14 881.443 332.033 881.632C331.929 881.819 331.877 882.035 331.877 882.281V885.409H331.108ZM341.183 885.513C340.7 885.513 340.284 885.407 339.934 885.194C339.587 884.979 339.318 884.679 339.129 884.295C338.943 883.908 338.849 883.458 338.849 882.945C338.849 882.433 338.943 881.981 339.129 881.59C339.318 881.196 339.581 880.89 339.918 880.671C340.257 880.449 340.652 880.338 341.104 880.338C341.365 880.338 341.622 880.382 341.877 880.469C342.131 880.556 342.362 880.697 342.571 880.892C342.779 881.086 342.946 881.342 343.069 881.661C343.193 881.981 343.255 882.374 343.255 882.841V883.167H339.397V882.502H342.473C342.473 882.22 342.417 881.968 342.304 881.746C342.193 881.525 342.034 881.35 341.828 881.221C341.624 881.093 341.382 881.029 341.104 881.029C340.798 881.029 340.533 881.105 340.309 881.257C340.088 881.407 339.917 881.603 339.797 881.844C339.678 882.085 339.618 882.344 339.618 882.62V883.063C339.618 883.441 339.683 883.761 339.814 884.024C339.946 884.285 340.13 884.484 340.365 884.621C340.599 884.755 340.872 884.823 341.183 884.823C341.385 884.823 341.567 884.794 341.73 884.738C341.895 884.679 342.037 884.592 342.157 884.477C342.276 884.36 342.369 884.214 342.434 884.04L343.177 884.249C343.099 884.501 342.967 884.723 342.783 884.914C342.598 885.103 342.37 885.251 342.098 885.357C341.827 885.461 341.521 885.513 341.183 885.513Z" fill="black"/>
<path d="M330.595 869.303C330.893 869.601 331.378 869.601 331.676 869.303L336.543 864.436C336.842 864.137 336.842 863.653 336.543 863.354C336.245 863.056 335.76 863.056 335.462 863.354L331.135 867.68L326.809 863.354C326.511 863.056 326.026 863.056 325.728 863.354C325.429 863.653 325.429 864.137 325.728 864.436L330.595 869.303ZM330.371 812.169L330.371 868.762L331.9 868.762L331.9 812.169L330.371 812.169Z" fill="black"/>
<path d="M953.876 888.422C954.175 888.72 954.659 888.72 954.958 888.422L959.825 883.555C960.124 883.256 960.124 882.772 959.825 882.473C959.526 882.175 959.042 882.175 958.743 882.473L954.417 886.799L950.091 882.473C949.792 882.175 949.308 882.175 949.01 882.473C948.711 882.772 948.711 883.256 949.01 883.555L953.876 888.422ZM953.652 812.169L953.652 887.881L955.182 887.881L955.182 812.169L953.652 812.169Z" fill="black"/>
<path d="M931.457 897.854V904.528H930.675L927.038 899.288H926.973V904.528H926.164V897.854H926.947L930.597 903.107H930.662V897.854H931.457ZM935.069 904.633C934.586 904.633 934.17 904.526 933.82 904.313C933.473 904.098 933.205 903.798 933.016 903.414C932.829 903.027 932.735 902.577 932.735 902.065C932.735 901.552 932.829 901.1 933.016 900.709C933.205 900.316 933.467 900.009 933.804 899.79C934.143 899.568 934.539 899.457 934.99 899.457C935.251 899.457 935.509 899.501 935.763 899.588C936.017 899.675 936.248 899.816 936.457 900.011C936.666 900.205 936.832 900.461 936.956 900.781C937.079 901.1 937.141 901.493 937.141 901.96V902.286H933.283V901.621H936.359C936.359 901.339 936.303 901.087 936.19 900.865C936.079 900.644 935.92 900.469 935.714 900.341C935.51 900.212 935.269 900.148 934.99 900.148C934.684 900.148 934.419 900.224 934.195 900.376C933.974 900.526 933.803 900.722 933.684 900.963C933.564 901.204 933.504 901.463 933.504 901.739V902.182C933.504 902.56 933.57 902.88 933.7 903.143C933.832 903.404 934.016 903.603 934.251 903.74C934.485 903.874 934.758 903.942 935.069 903.942C935.271 903.942 935.453 903.913 935.616 903.857C935.781 903.798 935.924 903.711 936.043 903.596C936.163 903.479 936.255 903.333 936.32 903.16L937.063 903.368C936.985 903.62 936.853 903.842 936.669 904.033C936.484 904.222 936.256 904.37 935.984 904.476C935.713 904.58 935.408 904.633 935.069 904.633ZM939.445 904.528L937.92 899.523H938.728L939.81 903.355H939.863L940.931 899.523H941.753L942.809 903.342H942.861L943.943 899.523H944.751L943.226 904.528H942.47L941.375 900.683H941.296L940.201 904.528H939.445ZM948.349 904.528V899.523H949.092V900.279H949.144C949.235 900.031 949.4 899.83 949.639 899.676C949.878 899.522 950.148 899.444 950.448 899.444C950.504 899.444 950.575 899.445 950.659 899.448C950.744 899.45 950.808 899.453 950.852 899.457V900.24C950.826 900.233 950.766 900.223 950.672 900.21C950.581 900.195 950.484 900.187 950.382 900.187C950.139 900.187 949.922 900.238 949.731 900.341C949.542 900.441 949.392 900.58 949.281 900.758C949.172 900.934 949.118 901.135 949.118 901.361V904.528H948.349ZM953.71 904.633C953.227 904.633 952.811 904.526 952.462 904.313C952.114 904.098 951.846 903.798 951.657 903.414C951.47 903.027 951.376 902.577 951.376 902.065C951.376 901.552 951.47 901.1 951.657 900.709C951.846 900.316 952.109 900.009 952.445 899.79C952.784 899.568 953.18 899.457 953.632 899.457C953.892 899.457 954.15 899.501 954.404 899.588C954.658 899.675 954.889 899.816 955.098 900.011C955.307 900.205 955.473 900.461 955.597 900.781C955.72 901.1 955.782 901.493 955.782 901.96V902.286H951.924V901.621H955C955 901.339 954.944 901.087 954.831 900.865C954.72 900.644 954.561 900.469 954.355 900.341C954.151 900.212 953.91 900.148 953.632 900.148C953.325 900.148 953.06 900.224 952.836 900.376C952.615 900.526 952.444 900.722 952.325 900.963C952.205 901.204 952.145 901.463 952.145 901.739V902.182C952.145 902.56 952.211 902.88 952.341 903.143C952.474 903.404 952.657 903.603 952.892 903.74C953.126 903.874 953.399 903.942 953.71 903.942C953.912 903.942 954.094 903.913 954.257 903.857C954.422 903.798 954.565 903.711 954.684 903.596C954.804 903.479 954.896 903.333 954.961 903.16L955.704 903.368C955.626 903.62 955.495 903.842 955.31 904.033C955.125 904.222 954.897 904.37 954.625 904.476C954.354 904.58 954.049 904.633 953.71 904.633ZM957.721 897.854V904.528H956.952V897.854H957.721ZM961.229 904.633C960.747 904.633 960.331 904.526 959.981 904.313C959.633 904.098 959.365 903.798 959.176 903.414C958.989 903.027 958.896 902.577 958.896 902.065C958.896 901.552 958.989 901.1 959.176 900.709C959.365 900.316 959.628 900.009 959.964 899.79C960.303 899.568 960.699 899.457 961.151 899.457C961.411 899.457 961.669 899.501 961.923 899.588C962.177 899.675 962.409 899.816 962.617 900.011C962.826 900.205 962.992 900.461 963.116 900.781C963.24 901.1 963.302 901.493 963.302 901.96V902.286H959.443V901.621H962.519C962.519 901.339 962.463 901.087 962.35 900.865C962.239 900.644 962.081 900.469 961.874 900.341C961.67 900.212 961.429 900.148 961.151 900.148C960.844 900.148 960.579 900.224 960.356 900.376C960.134 900.526 959.963 900.722 959.844 900.963C959.724 901.204 959.665 901.463 959.665 901.739V902.182C959.665 902.56 959.73 902.88 959.86 903.143C959.993 903.404 960.176 903.603 960.411 903.74C960.646 903.874 960.918 903.942 961.229 903.942C961.431 903.942 961.613 903.913 961.776 903.857C961.942 903.798 962.084 903.711 962.203 903.596C962.323 903.479 962.415 903.333 962.48 903.16L963.223 903.368C963.145 903.62 963.014 903.842 962.829 904.033C962.644 904.222 962.416 904.37 962.145 904.476C961.873 904.58 961.568 904.633 961.229 904.633ZM965.945 904.646C965.627 904.646 965.34 904.586 965.081 904.466C964.822 904.345 964.617 904.17 964.465 903.942C964.313 903.711 964.237 903.433 964.237 903.107C964.237 902.821 964.293 902.588 964.406 902.41C964.519 902.23 964.67 902.088 964.859 901.986C965.048 901.884 965.257 901.808 965.485 901.758C965.715 901.706 965.947 901.665 966.179 901.634C966.483 901.595 966.73 901.566 966.919 901.546C967.11 901.525 967.249 901.489 967.336 901.439C967.425 901.389 967.47 901.302 967.47 901.178V901.152C967.47 900.831 967.382 900.581 967.206 900.403C967.032 900.224 966.768 900.135 966.414 900.135C966.047 900.135 965.759 900.216 965.55 900.376C965.342 900.537 965.195 900.709 965.11 900.891L964.38 900.631C964.511 900.326 964.684 900.09 964.902 899.92C965.121 899.749 965.36 899.629 965.619 899.562C965.879 899.492 966.136 899.457 966.388 899.457C966.549 899.457 966.733 899.477 966.942 899.516C967.153 899.553 967.356 899.63 967.551 899.747C967.749 899.865 967.913 900.042 968.043 900.279C968.174 900.515 968.239 900.833 968.239 901.23V904.528H967.47V903.85H967.431C967.379 903.959 967.292 904.075 967.17 904.199C967.048 904.323 966.886 904.428 966.684 904.515C966.482 904.602 966.236 904.646 965.945 904.646ZM966.062 903.955C966.366 903.955 966.622 903.895 966.831 903.776C967.042 903.656 967.2 903.502 967.307 903.313C967.415 903.124 967.47 902.925 967.47 902.716V902.012C967.437 902.052 967.365 902.087 967.255 902.12C967.146 902.15 967.02 902.178 966.877 902.201C966.735 902.223 966.597 902.243 966.463 902.26C966.33 902.275 966.223 902.288 966.14 902.299C965.94 902.325 965.753 902.368 965.58 902.426C965.408 902.483 965.269 902.569 965.162 902.684C965.058 902.797 965.006 902.951 965.006 903.147C965.006 903.414 965.105 903.616 965.303 903.753C965.502 903.887 965.756 903.955 966.062 903.955ZM973.188 900.644L972.497 900.839C972.454 900.724 972.39 900.612 972.305 900.504C972.223 900.393 972.11 900.301 971.966 900.23C971.823 900.158 971.639 900.122 971.416 900.122C971.109 900.122 970.854 900.193 970.65 900.334C970.448 900.473 970.347 900.65 970.347 900.865C970.347 901.056 970.416 901.207 970.555 901.318C970.694 901.429 970.911 901.521 971.207 901.595L971.95 901.778C972.398 901.886 972.731 902.053 972.95 902.276C973.17 902.498 973.28 902.784 973.28 903.133C973.28 903.42 973.197 903.677 973.032 903.903C972.869 904.129 972.641 904.307 972.348 904.437C972.054 904.567 971.713 904.633 971.324 904.633C970.814 904.633 970.391 904.522 970.057 904.3C969.722 904.079 969.51 903.755 969.421 903.329L970.151 903.147C970.221 903.416 970.352 903.618 970.545 903.753C970.741 903.887 970.996 903.955 971.311 903.955C971.67 903.955 971.954 903.879 972.165 903.727C972.378 903.572 972.484 903.388 972.484 903.173C972.484 902.999 972.424 902.853 972.302 902.736C972.18 902.616 971.993 902.527 971.741 902.469L970.907 902.273C970.449 902.165 970.112 901.996 969.897 901.768C969.684 901.538 969.577 901.25 969.577 900.904C969.577 900.622 969.657 900.372 969.815 900.155C969.976 899.938 970.194 899.767 970.47 899.643C970.749 899.519 971.064 899.457 971.416 899.457C971.911 899.457 972.3 899.566 972.582 899.783C972.867 900.001 973.069 900.287 973.188 900.644ZM976.536 904.633C976.054 904.633 975.638 904.526 975.288 904.313C974.94 904.098 974.672 903.798 974.483 903.414C974.296 903.027 974.203 902.577 974.203 902.065C974.203 901.552 974.296 901.1 974.483 900.709C974.672 900.316 974.935 900.009 975.272 899.79C975.611 899.568 976.006 899.457 976.458 899.457C976.719 899.457 976.976 899.501 977.23 899.588C977.484 899.675 977.716 899.816 977.924 900.011C978.133 900.205 978.299 900.461 978.423 900.781C978.547 901.1 978.609 901.493 978.609 901.96V902.286H974.75V901.621H977.827C977.827 901.339 977.77 901.087 977.657 900.865C977.546 900.644 977.388 900.469 977.181 900.341C976.977 900.212 976.736 900.148 976.458 900.148C976.152 900.148 975.886 900.224 975.663 900.376C975.441 900.526 975.271 900.722 975.151 900.963C975.032 901.204 974.972 901.463 974.972 901.739V902.182C974.972 902.56 975.037 902.88 975.167 903.143C975.3 903.404 975.483 903.603 975.718 903.74C975.953 903.874 976.225 903.942 976.536 903.942C976.738 903.942 976.921 903.913 977.084 903.857C977.249 903.798 977.391 903.711 977.511 903.596C977.63 903.479 977.722 903.333 977.788 903.16L978.531 903.368C978.452 903.62 978.321 903.842 978.136 904.033C977.952 904.222 977.723 904.37 977.452 904.476C977.18 904.58 976.875 904.633 976.536 904.633ZM983.324 900.644L982.634 900.839C982.59 900.724 982.526 900.612 982.441 900.504C982.359 900.393 982.246 900.301 982.102 900.23C981.959 900.158 981.775 900.122 981.552 900.122C981.245 900.122 980.99 900.193 980.786 900.334C980.584 900.473 980.483 900.65 980.483 900.865C980.483 901.056 980.552 901.207 980.691 901.318C980.83 901.429 981.048 901.521 981.343 901.595L982.086 901.778C982.534 901.886 982.867 902.053 983.087 902.276C983.306 902.498 983.416 902.784 983.416 903.133C983.416 903.42 983.333 903.677 983.168 903.903C983.005 904.129 982.777 904.307 982.484 904.437C982.19 904.567 981.849 904.633 981.46 904.633C980.95 904.633 980.527 904.522 980.193 904.3C979.858 904.079 979.646 903.755 979.557 903.329L980.287 903.147C980.357 903.416 980.488 903.618 980.681 903.753C980.877 903.887 981.132 903.955 981.447 903.955C981.806 903.955 982.09 903.879 982.301 903.727C982.514 903.572 982.621 903.388 982.621 903.173C982.621 902.999 982.56 902.853 982.438 902.736C982.316 902.616 982.13 902.527 981.877 902.469L981.043 902.273C980.585 902.165 980.248 901.996 980.033 901.768C979.82 901.538 979.714 901.25 979.714 900.904C979.714 900.622 979.793 900.372 979.951 900.155C980.112 899.938 980.331 899.767 980.607 899.643C980.885 899.519 981.2 899.457 981.552 899.457C982.047 899.457 982.436 899.566 982.718 899.783C983.003 900.001 983.205 900.287 983.324 900.644Z" fill="black"/>
<path d="M662.054 142.013C662.352 141.715 662.352 141.231 662.054 140.932L657.187 136.065C656.888 135.766 656.404 135.766 656.105 136.065C655.807 136.364 655.807 136.848 656.105 137.147L660.431 141.473L656.105 145.799C655.807 146.097 655.807 146.582 656.105 146.88C656.404 147.179 656.888 147.179 657.187 146.88L662.054 142.013ZM594.214 142.237H661.513V140.708H594.214V142.237Z" fill="black"/>
<path d="M679.806 146.996V140.113H680.55V140.909H680.641C680.697 140.822 680.775 140.711 680.875 140.576C680.978 140.439 681.123 140.318 681.312 140.211C681.503 140.103 681.762 140.048 682.088 140.048C682.509 140.048 682.881 140.154 683.202 140.364C683.524 140.575 683.775 140.874 683.955 141.261C684.135 141.647 684.226 142.104 684.226 142.629C684.226 143.159 684.135 143.619 683.955 144.008C683.775 144.395 683.525 144.694 683.206 144.907C682.886 145.118 682.518 145.223 682.101 145.223C681.779 145.223 681.522 145.17 681.328 145.064C681.135 144.955 680.986 144.832 680.882 144.695C680.778 144.556 680.697 144.441 680.641 144.35H680.576V146.996H679.806ZM680.563 142.616C680.563 142.994 680.618 143.328 680.729 143.617C680.84 143.904 681.001 144.128 681.214 144.291C681.427 144.452 681.688 144.533 681.996 144.533C682.318 144.533 682.586 144.448 682.801 144.278C683.019 144.107 683.182 143.876 683.29 143.587C683.401 143.296 683.456 142.973 683.456 142.616C683.456 142.264 683.402 141.947 683.294 141.665C683.187 141.38 683.025 141.155 682.808 140.99C682.593 140.823 682.322 140.739 681.996 140.739C681.684 140.739 681.421 140.818 681.208 140.977C680.995 141.133 680.834 141.353 680.725 141.635C680.617 141.916 680.563 142.243 680.563 142.616ZM685.399 145.119V140.113H686.142V140.869H686.194C686.285 140.622 686.45 140.421 686.689 140.267C686.928 140.112 687.198 140.035 687.498 140.035C687.554 140.035 687.625 140.036 687.709 140.038C687.794 140.041 687.858 140.044 687.902 140.048V140.83C687.876 140.824 687.816 140.814 687.722 140.801C687.631 140.786 687.534 140.778 687.432 140.778C687.189 140.778 686.972 140.829 686.781 140.931C686.592 141.031 686.442 141.17 686.331 141.349C686.222 141.525 686.168 141.726 686.168 141.951V145.119H685.399ZM690.695 145.223C690.243 145.223 689.846 145.116 689.505 144.901C689.166 144.686 688.901 144.385 688.71 143.998C688.521 143.611 688.426 143.159 688.426 142.642C688.426 142.121 688.521 141.666 688.71 141.277C688.901 140.888 689.166 140.586 689.505 140.371C689.846 140.156 690.243 140.048 690.695 140.048C691.146 140.048 691.542 140.156 691.881 140.371C692.222 140.586 692.487 140.888 692.676 141.277C692.867 141.666 692.963 142.121 692.963 142.642C692.963 143.159 692.867 143.611 692.676 143.998C692.487 144.385 692.222 144.686 691.881 144.901C691.542 145.116 691.146 145.223 690.695 145.223ZM690.695 144.533C691.038 144.533 691.32 144.445 691.542 144.269C691.763 144.093 691.928 143.861 692.034 143.574C692.14 143.288 692.194 142.977 692.194 142.642C692.194 142.308 692.14 141.996 692.034 141.707C691.928 141.418 691.763 141.185 691.542 141.006C691.32 140.828 691.038 140.739 690.695 140.739C690.351 140.739 690.069 140.828 689.847 141.006C689.626 141.185 689.462 141.418 689.355 141.707C689.249 141.996 689.195 142.308 689.195 142.642C689.195 142.977 689.249 143.288 689.355 143.574C689.462 143.861 689.626 144.093 689.847 144.269C690.069 144.445 690.351 144.533 690.695 144.533ZM696.366 140.113V140.765H693.668V140.113H696.366ZM694.476 145.119V139.423C694.476 139.136 694.543 138.897 694.678 138.706C694.812 138.514 694.987 138.371 695.202 138.275C695.418 138.18 695.645 138.132 695.884 138.132C696.073 138.132 696.227 138.147 696.346 138.178C696.466 138.208 696.555 138.236 696.614 138.262L696.392 138.927C696.353 138.914 696.299 138.898 696.229 138.878C696.162 138.859 696.073 138.849 695.962 138.849C695.708 138.849 695.524 138.913 695.411 139.041C695.3 139.169 695.245 139.357 695.245 139.605V145.119H694.476ZM697.444 145.119V140.113H698.213V145.119H697.444ZM697.835 139.279C697.685 139.279 697.556 139.228 697.447 139.126C697.341 139.024 697.287 138.901 697.287 138.758C697.287 138.614 697.341 138.492 697.447 138.389C697.556 138.287 697.685 138.236 697.835 138.236C697.985 138.236 698.113 138.287 698.219 138.389C698.328 138.492 698.382 138.614 698.382 138.758C698.382 138.901 698.328 139.024 698.219 139.126C698.113 139.228 697.985 139.279 697.835 139.279ZM700.391 138.445V145.119H699.622V138.445H700.391ZM703.898 145.223C703.416 145.223 703 145.117 702.65 144.904C702.302 144.689 702.034 144.389 701.845 144.005C701.658 143.618 701.565 143.168 701.565 142.655C701.565 142.143 701.658 141.691 701.845 141.3C702.034 140.906 702.297 140.6 702.634 140.381C702.973 140.159 703.368 140.048 703.82 140.048C704.081 140.048 704.338 140.092 704.592 140.179C704.846 140.266 705.078 140.407 705.286 140.602C705.495 140.796 705.661 141.052 705.785 141.371C705.909 141.691 705.971 142.084 705.971 142.551V142.877H702.112V142.212H705.189C705.189 141.93 705.132 141.678 705.019 141.456C704.908 141.234 704.75 141.06 704.543 140.931C704.339 140.803 704.098 140.739 703.82 140.739C703.514 140.739 703.249 140.815 703.025 140.967C702.803 141.117 702.633 141.313 702.513 141.554C702.394 141.795 702.334 142.054 702.334 142.329V142.773C702.334 143.151 702.399 143.471 702.529 143.734C702.662 143.995 702.845 144.194 703.08 144.33C703.315 144.465 703.587 144.533 703.898 144.533C704.1 144.533 704.283 144.504 704.446 144.448C704.611 144.389 704.753 144.302 704.873 144.187C704.992 144.07 705.084 143.924 705.15 143.75L705.893 143.959C705.814 144.211 705.683 144.433 705.498 144.624C705.314 144.813 705.085 144.961 704.814 145.067C704.542 145.171 704.237 145.223 703.898 145.223Z" fill="black"/>
<defs>
<clipPath id="clip0_983_2068">
<rect x="280.661" y="117" width="328.848" height="712.759" fill="white"/>
</clipPath>
<clipPath id="clip1_983_2068">
<rect x="848.88" y="117" width="328.848" height="712.759" fill="white"/>
</clipPath>
</defs>
</svg>
